<?xml version="1.0" encoding="utf-8" standalone="no"?>
<!DOCTYPE svg PUBLIC "-//W3C//DTD SVG 1.1//EN"
  "http://www.w3.org/Graphics/SVG/1.1/DTD/svg11.dtd">
<svg xmlns:xlink="http://www.w3.org/1999/xlink" width="394.92pt" height="148.464pt" viewBox="0 0 394.92 148.464" xmlns="http://www.w3.org/2000/svg" version="1.1">
 <metadata>
  <rdf:RDF xmlns:dc="http://purl.org/dc/elements/1.1/" xmlns:cc="http://creativecommons.org/ns#" xmlns:rdf="http://www.w3.org/1999/02/22-rdf-syntax-ns#">
   <cc:Work>
    <dc:type rdf:resource="http://purl.org/dc/dcmitype/StillImage"/>
    <dc:date>2026-06-13T12:49:29.743389</dc:date>
    <dc:format>image/svg+xml</dc:format>
    <dc:creator>
     <cc:Agent>
      <dc:title>Matplotlib v3.10.9, https://matplotlib.org/</dc:title>
     </cc:Agent>
    </dc:creator>
   </cc:Work>
  </rdf:RDF>
 </metadata>
 <defs>
  <style type="text/css">*{stroke-linejoin: round; stroke-linecap: butt}</style>
 </defs>
 <g id="figure_1">
  <g id="patch_1">
   <path d="M 0 148.464 
L 394.92 148.464 
L 394.92 -0 
L 0 -0 
z
" style="fill: #ffffff"/>
  </g>
  <g id="axes_1">
   <g id="line2d_1">
    <path d="M 27.41431 44.348488 
L 369.18931 44.348488 
" clip-path="url(#pc46540c46e)" style="fill: none; stroke: #1a1a1a; stroke-linecap: square"/>
   </g>
   <g id="line2d_2">
    <path d="M 27.41431 93.56839 
L 369.18931 93.56839 
" clip-path="url(#pc46540c46e)" style="fill: none; stroke: #1a1a1a; stroke-linecap: square"/>
   </g>
   <g id="line2d_3">
    <path d="M 106.544483 105.873366 
L 106.544483 32.043512 
" clip-path="url(#pc46540c46e)" style="fill: none; stroke-dasharray: 2.4,2.4; stroke-dashoffset: 0; stroke: #777777; stroke-width: 0.8"/>
   </g>
   <g id="line2d_4">
    <path d="M 153.685862 105.873366 
L 153.685862 32.043512 
" clip-path="url(#pc46540c46e)" style="fill: none; stroke-dasharray: 2.4,2.4; stroke-dashoffset: 0; stroke: #777777; stroke-width: 0.8"/>
   </g>
   <g id="line2d_5">
    <path d="M 273.222931 105.873366 
L 273.222931 32.043512 
" clip-path="url(#pc46540c46e)" style="fill: none; stroke-dasharray: 2.4,2.4; stroke-dashoffset: 0; stroke: #777777; stroke-width: 0.8"/>
   </g>
   <g id="line2d_6">
    <path d="M 82.973793 44.348488 
L 82.973793 93.56839 
" clip-path="url(#pc46540c46e)" style="fill: none; stroke: #1a1a1a; stroke-linecap: square"/>
   </g>
   <g id="patch_2">
    <path d="M 158.736724 111.146927 
L 261.437586 111.146927 
L 261.437586 75.989854 
L 158.736724 75.989854 
L 158.736724 111.146927 
z
" clip-path="url(#pc46540c46e)" style="fill: none; stroke-dasharray: 1.8,1.8; stroke-dashoffset: 0; stroke: #c2452d; stroke-width: 0.9; stroke-linejoin: miter"/>
   </g>
   <g id="text_1">
    <!-- $|0\rangle$ -->
    <g transform="translate(6.496207 47.998488) scale(0.1 -0.1)">
     <defs>
      <path id="Cmsy10-6a" d="M 763 -1484 
L 763 4684 
Q 763 4734 800 4767 
Q 838 4800 891 4800 
Q 938 4800 978 4767 
Q 1019 4734 1019 4684 
L 1019 -1484 
Q 1019 -1534 978 -1567 
Q 938 -1600 891 -1600 
Q 838 -1600 800 -1567 
Q 763 -1534 763 -1484 
z
" transform="scale(0.015625)"/>
      <path id="Cmr10-30" d="M 1600 -141 
Q 816 -141 533 504 
Q 250 1150 250 2041 
Q 250 2597 351 3087 
Q 453 3578 754 3920 
Q 1056 4263 1600 4263 
Q 2022 4263 2290 4056 
Q 2559 3850 2700 3523 
Q 2841 3197 2892 2823 
Q 2944 2450 2944 2041 
Q 2944 1491 2842 1011 
Q 2741 531 2444 195 
Q 2147 -141 1600 -141 
z
M 1600 25 
Q 1956 25 2131 390 
Q 2306 756 2347 1200 
Q 2388 1644 2388 2144 
Q 2388 2625 2347 3031 
Q 2306 3438 2132 3767 
Q 1959 4097 1600 4097 
Q 1238 4097 1063 3765 
Q 888 3434 847 3029 
Q 806 2625 806 2144 
Q 806 1788 823 1472 
Q 841 1156 916 820 
Q 991 484 1158 254 
Q 1325 25 1600 25 
z
" transform="scale(0.015625)"/>
      <path id="Cmex10-ae" d="M 500 -7297 
Q 500 -7263 513 -7250 
L 2119 -3584 
L 513 84 
Q 500 97 500 128 
Q 500 175 537 215 
Q 575 256 628 256 
Q 703 256 750 178 
L 2381 -3541 
Q 2388 -3553 2388 -3584 
Q 2388 -3616 2381 -3634 
L 750 -7347 
Q 700 -7425 628 -7425 
Q 575 -7425 537 -7384 
Q 500 -7344 500 -7297 
z
" transform="scale(0.015625)"/>
     </defs>
     <use xlink:href="#Cmsy10-6a" transform="translate(0 0.658854)"/>
     <use xlink:href="#Cmr10-30" transform="translate(27.685547 0.658854)"/>
     <use xlink:href="#Cmex10-ae" transform="translate(77.685547 94)"/>
    </g>
   </g>
   <g id="text_2">
    <!-- $|0\rangle$ -->
    <g transform="translate(6.496207 97.21839) scale(0.1 -0.1)">
     <use xlink:href="#Cmsy10-6a" transform="translate(0 0.658854)"/>
     <use xlink:href="#Cmr10-30" transform="translate(27.685547 0.658854)"/>
     <use xlink:href="#Cmex10-ae" transform="translate(77.685547 94)"/>
    </g>
   </g>
   <g id="text_3">
    <!-- Alice -->
    <g style="fill: #777777" transform="translate(13.610334 25.012098) scale(0.075 -0.075)">
     <defs>
      <path id="DejaVuSerif-41" d="M 1281 1691 
L 2994 1691 
L 2138 3909 
L 1281 1691 
z
M -38 0 
L -38 331 
L 372 331 
L 2034 4666 
L 2559 4666 
L 4225 331 
L 4684 331 
L 4684 0 
L 2988 0 
L 2988 331 
L 3506 331 
L 3116 1356 
L 1153 1356 
L 763 331 
L 1275 331 
L 1275 0 
L -38 0 
z
" transform="scale(0.015625)"/>
      <path id="DejaVuSerif-6c" d="M 1313 331 
L 1856 331 
L 1856 0 
L 184 0 
L 184 331 
L 738 331 
L 738 4531 
L 184 4531 
L 184 4863 
L 1313 4863 
L 1313 331 
z
" transform="scale(0.015625)"/>
      <path id="DejaVuSerif-69" d="M 622 4353 
Q 622 4497 726 4603 
Q 831 4709 978 4709 
Q 1122 4709 1226 4603 
Q 1331 4497 1331 4353 
Q 1331 4206 1228 4103 
Q 1125 4000 978 4000 
Q 831 4000 726 4103 
Q 622 4206 622 4353 
z
M 1356 331 
L 1900 331 
L 1900 0 
L 231 0 
L 231 331 
L 781 331 
L 781 2988 
L 231 2988 
L 231 3322 
L 1356 3322 
L 1356 331 
z
" transform="scale(0.015625)"/>
      <path id="DejaVuSerif-63" d="M 3291 997 
Q 3169 466 2822 187 
Q 2475 -91 1925 -91 
Q 1200 -91 759 389 
Q 319 869 319 1663 
Q 319 2459 759 2936 
Q 1200 3413 1925 3413 
Q 2241 3413 2553 3339 
Q 2866 3266 3181 3116 
L 3181 2266 
L 2847 2266 
Q 2781 2703 2561 2903 
Q 2341 3103 1931 3103 
Q 1466 3103 1228 2742 
Q 991 2381 991 1663 
Q 991 944 1227 581 
Q 1463 219 1931 219 
Q 2303 219 2525 412 
Q 2747 606 2828 997 
L 3291 997 
z
" transform="scale(0.015625)"/>
      <path id="DejaVuSerif-65" d="M 3469 1600 
L 991 1600 
L 991 1575 
Q 991 903 1244 561 
Q 1497 219 1991 219 
Q 2369 219 2611 417 
Q 2853 616 2950 1006 
L 3413 1006 
Q 3275 459 2904 184 
Q 2534 -91 1931 -91 
Q 1203 -91 761 389 
Q 319 869 319 1663 
Q 319 2450 753 2931 
Q 1188 3413 1894 3413 
Q 2647 3413 3050 2948 
Q 3453 2484 3469 1600 
z
M 2791 1931 
Q 2772 2513 2545 2808 
Q 2319 3103 1894 3103 
Q 1497 3103 1269 2806 
Q 1041 2509 991 1931 
L 2791 1931 
z
" transform="scale(0.015625)"/>
     </defs>
     <use xlink:href="#DejaVuSerif-41"/>
     <use xlink:href="#DejaVuSerif-6c" transform="translate(72.216797 0)"/>
     <use xlink:href="#DejaVuSerif-69" transform="translate(104.199219 0)"/>
     <use xlink:href="#DejaVuSerif-63" transform="translate(136.181641 0)"/>
     <use xlink:href="#DejaVuSerif-65" transform="translate(192.1875 0)"/>
    </g>
   </g>
   <g id="text_4">
    <!-- Bob -->
    <g style="fill: #777777" transform="translate(15.623029 112.90478) scale(0.075 -0.075)">
     <defs>
      <path id="DejaVuSerif-42" d="M 1581 331 
L 2516 331 
Q 3078 331 3337 575 
Q 3597 819 3597 1350 
Q 3597 1878 3339 2120 
Q 3081 2363 2516 2363 
L 1581 2363 
L 1581 331 
z
M 1581 2694 
L 2375 2694 
Q 2888 2694 3123 2891 
Q 3359 3088 3359 3513 
Q 3359 3941 3123 4136 
Q 2888 4331 2375 4331 
L 1581 4331 
L 1581 2694 
z
M 353 0 
L 353 331 
L 947 331 
L 947 4331 
L 353 4331 
L 353 4666 
L 2656 4666 
Q 3363 4666 3720 4377 
Q 4078 4088 4078 3513 
Q 4078 3097 3829 2850 
Q 3581 2603 3103 2547 
Q 3697 2472 4005 2167 
Q 4313 1863 4313 1350 
Q 4313 656 3875 328 
Q 3438 0 2509 0 
L 353 0 
z
" transform="scale(0.015625)"/>
      <path id="DejaVuSerif-6f" d="M 1925 219 
Q 2388 219 2623 584 
Q 2859 950 2859 1663 
Q 2859 2375 2623 2739 
Q 2388 3103 1925 3103 
Q 1463 3103 1227 2739 
Q 991 2375 991 1663 
Q 991 950 1228 584 
Q 1466 219 1925 219 
z
M 1925 -91 
Q 1200 -91 759 389 
Q 319 869 319 1663 
Q 319 2456 758 2934 
Q 1197 3413 1925 3413 
Q 2653 3413 3092 2934 
Q 3531 2456 3531 1663 
Q 3531 869 3092 389 
Q 2653 -91 1925 -91 
z
" transform="scale(0.015625)"/>
      <path id="DejaVuSerif-62" d="M 738 331 
L 738 4531 
L 184 4531 
L 184 4863 
L 1313 4863 
L 1313 2803 
Q 1481 3116 1742 3264 
Q 2003 3413 2388 3413 
Q 3000 3413 3387 2928 
Q 3775 2444 3775 1663 
Q 3775 881 3387 395 
Q 3000 -91 2388 -91 
Q 2003 -91 1742 57 
Q 1481 206 1313 519 
L 1313 0 
L 184 0 
L 184 331 
L 738 331 
z
M 1313 1497 
Q 1313 897 1542 583 
Q 1772 269 2209 269 
Q 2650 269 2876 622 
Q 3103 975 3103 1663 
Q 3103 2353 2876 2703 
Q 2650 3053 2209 3053 
Q 1772 3053 1542 2737 
Q 1313 2422 1313 1825 
L 1313 1497 
z
" transform="scale(0.015625)"/>
     </defs>
     <use xlink:href="#DejaVuSerif-42"/>
     <use xlink:href="#DejaVuSerif-6f" transform="translate(73.486328 0)"/>
     <use xlink:href="#DejaVuSerif-62" transform="translate(133.691406 0)"/>
    </g>
   </g>
   <g id="patch_3">
    <path d="M 42.230172 53.489327 
L 63.107069 53.489327 
L 63.107069 35.207649 
L 42.230172 35.207649 
z
" clip-path="url(#pc46540c46e)" style="fill: #ffffff; stroke: #1a1a1a; stroke-width: 1.1; stroke-linejoin: miter"/>
   </g>
   <g id="text_5">
    <!-- Bell source -->
    <g transform="translate(45.128082 12.707122) scale(0.08 -0.08)">
     <defs>
      <path id="DejaVuSerif-20" transform="scale(0.015625)"/>
      <path id="DejaVuSerif-73" d="M 359 184 
L 359 959 
L 691 959 
Q 703 588 923 403 
Q 1144 219 1575 219 
Q 1963 219 2166 364 
Q 2369 509 2369 788 
Q 2369 1006 2220 1140 
Q 2072 1275 1594 1428 
L 1178 1569 
Q 750 1706 558 1912 
Q 366 2119 366 2438 
Q 366 2894 700 3153 
Q 1034 3413 1625 3413 
Q 1888 3413 2178 3344 
Q 2469 3275 2778 3144 
L 2778 2419 
L 2447 2419 
Q 2434 2741 2221 2922 
Q 2009 3103 1644 3103 
Q 1281 3103 1095 2975 
Q 909 2847 909 2591 
Q 909 2381 1050 2254 
Q 1191 2128 1613 1997 
L 2069 1856 
Q 2541 1709 2748 1489 
Q 2956 1269 2956 922 
Q 2956 450 2595 179 
Q 2234 -91 1600 -91 
Q 1278 -91 972 -22 
Q 666 47 359 184 
z
" transform="scale(0.015625)"/>
      <path id="DejaVuSerif-75" d="M 2266 3322 
L 3341 3322 
L 3341 331 
L 3884 331 
L 3884 0 
L 2766 0 
L 2766 588 
Q 2606 256 2353 82 
Q 2100 -91 1766 -91 
Q 1213 -91 952 223 
Q 691 538 691 1209 
L 691 2988 
L 172 2988 
L 172 3322 
L 1269 3322 
L 1269 1388 
Q 1269 781 1417 556 
Q 1566 331 1947 331 
Q 2347 331 2556 625 
Q 2766 919 2766 1478 
L 2766 2988 
L 2266 2988 
L 2266 3322 
z
" transform="scale(0.015625)"/>
      <path id="DejaVuSerif-72" d="M 3059 3328 
L 3059 2497 
L 2728 2497 
Q 2713 2744 2591 2866 
Q 2469 2988 2234 2988 
Q 1809 2988 1582 2694 
Q 1356 2400 1356 1850 
L 1356 331 
L 2022 331 
L 2022 0 
L 263 0 
L 263 331 
L 781 331 
L 781 2994 
L 231 2994 
L 231 3322 
L 1356 3322 
L 1356 2731 
Q 1525 3078 1790 3245 
Q 2056 3413 2438 3413 
Q 2578 3413 2733 3391 
Q 2888 3369 3059 3328 
z
" transform="scale(0.015625)"/>
     </defs>
     <use xlink:href="#DejaVuSerif-42"/>
     <use xlink:href="#DejaVuSerif-65" transform="translate(73.486328 0)"/>
     <use xlink:href="#DejaVuSerif-6c" transform="translate(132.666016 0)"/>
     <use xlink:href="#DejaVuSerif-6c" transform="translate(164.648438 0)"/>
     <use xlink:href="#DejaVuSerif-20" transform="translate(196.630859 0)"/>
     <use xlink:href="#DejaVuSerif-73" transform="translate(228.417969 0)"/>
     <use xlink:href="#DejaVuSerif-6f" transform="translate(279.736328 0)"/>
     <use xlink:href="#DejaVuSerif-75" transform="translate(339.941406 0)"/>
     <use xlink:href="#DejaVuSerif-72" transform="translate(404.345703 0)"/>
     <use xlink:href="#DejaVuSerif-63" transform="translate(452.148438 0)"/>
     <use xlink:href="#DejaVuSerif-65" transform="translate(508.154297 0)"/>
    </g>
   </g>
   <g id="patch_4">
    <path d="M 119.676724 53.489327 
L 140.553621 53.489327 
L 140.553621 35.207649 
L 119.676724 35.207649 
z
" clip-path="url(#pc46540c46e)" style="fill: #f3eee6; stroke: #1a1a1a; stroke-width: 1.1; stroke-linejoin: miter"/>
   </g>
   <g id="patch_5">
    <path d="M 119.676724 102.709229 
L 140.553621 102.709229 
L 140.553621 84.427551 
L 119.676724 84.427551 
z
" clip-path="url(#pc46540c46e)" style="fill: #f3eee6; stroke: #1a1a1a; stroke-width: 1.1; stroke-linejoin: miter"/>
   </g>
   <g id="text_6">
    <!-- channel -->
    <g style="fill: #777777" transform="translate(114.114547 12.707122) scale(0.08 -0.08)">
     <defs>
      <path id="DejaVuSerif-68" d="M 263 0 
L 263 331 
L 781 331 
L 781 4531 
L 231 4531 
L 231 4863 
L 1356 4863 
L 1356 2731 
Q 1516 3069 1770 3241 
Q 2025 3413 2363 3413 
Q 2913 3413 3172 3097 
Q 3431 2781 3431 2113 
L 3431 331 
L 3944 331 
L 3944 0 
L 2356 0 
L 2356 331 
L 2853 331 
L 2853 1931 
Q 2853 2541 2704 2764 
Q 2556 2988 2175 2988 
Q 1775 2988 1565 2697 
Q 1356 2406 1356 1850 
L 1356 331 
L 1856 331 
L 1856 0 
L 263 0 
z
" transform="scale(0.015625)"/>
      <path id="DejaVuSerif-61" d="M 2547 1044 
L 2547 1747 
L 1806 1747 
Q 1378 1747 1168 1562 
Q 959 1378 959 997 
Q 959 650 1171 447 
Q 1384 244 1747 244 
Q 2106 244 2326 466 
Q 2547 688 2547 1044 
z
M 3122 2075 
L 3122 331 
L 3634 331 
L 3634 0 
L 2547 0 
L 2547 359 
Q 2356 128 2106 18 
Q 1856 -91 1522 -91 
Q 969 -91 644 203 
Q 319 497 319 997 
Q 319 1513 691 1797 
Q 1063 2081 1741 2081 
L 2547 2081 
L 2547 2309 
Q 2547 2688 2317 2895 
Q 2088 3103 1672 3103 
Q 1328 3103 1125 2947 
Q 922 2791 872 2484 
L 575 2484 
L 575 3156 
Q 875 3284 1158 3348 
Q 1441 3413 1709 3413 
Q 2400 3413 2761 3070 
Q 3122 2728 3122 2075 
z
" transform="scale(0.015625)"/>
      <path id="DejaVuSerif-6e" d="M 263 0 
L 263 331 
L 781 331 
L 781 2988 
L 231 2988 
L 231 3322 
L 1356 3322 
L 1356 2731 
Q 1516 3069 1770 3241 
Q 2025 3413 2363 3413 
Q 2913 3413 3172 3097 
Q 3431 2781 3431 2113 
L 3431 331 
L 3944 331 
L 3944 0 
L 2356 0 
L 2356 331 
L 2853 331 
L 2853 1931 
Q 2853 2541 2703 2767 
Q 2553 2994 2175 2994 
Q 1775 2994 1565 2701 
Q 1356 2409 1356 1850 
L 1356 331 
L 1856 331 
L 1856 0 
L 263 0 
z
" transform="scale(0.015625)"/>
     </defs>
     <use xlink:href="#DejaVuSerif-63"/>
     <use xlink:href="#DejaVuSerif-68" transform="translate(56.005859 0)"/>
     <use xlink:href="#DejaVuSerif-61" transform="translate(120.410156 0)"/>
     <use xlink:href="#DejaVuSerif-6e" transform="translate(180.029297 0)"/>
     <use xlink:href="#DejaVuSerif-6e" transform="translate(244.433594 0)"/>
     <use xlink:href="#DejaVuSerif-65" transform="translate(308.837891 0)"/>
     <use xlink:href="#DejaVuSerif-6c" transform="translate(368.017578 0)"/>
    </g>
   </g>
   <g id="patch_6">
    <path d="M 161.262155 102.709229 
L 193.250948 102.709229 
L 193.250948 84.427551 
L 161.262155 84.427551 
z
" clip-path="url(#pc46540c46e)" style="fill: #ffffff; stroke: #c2452d; stroke-width: 1.1; stroke-linejoin: miter"/>
   </g>
   <g id="patch_7">
    <path d="M 202.174138 102.709229 
L 223.051034 102.709229 
L 223.051034 84.427551 
L 202.174138 84.427551 
z
" clip-path="url(#pc46540c46e)" style="fill: #ffffff; stroke: #1a1a1a; stroke-width: 1.1; stroke-linejoin: miter"/>
   </g>
   <g id="patch_8">
    <path d="M 227.765172 102.709229 
L 261.437586 102.709229 
L 261.437586 84.427551 
L 227.765172 84.427551 
z
" clip-path="url(#pc46540c46e)" style="fill: #ffffff; stroke: #c2452d; stroke-width: 1.1; stroke-linejoin: miter"/>
   </g>
   <g id="text_7">
    <!-- Eve  (prob. $f$) -->
    <g style="fill: #c2452d" transform="translate(182.764345 122.700059) scale(0.078 -0.078)">
     <defs>
      <path id="DejaVuSerif-45" d="M 353 0 
L 353 331 
L 947 331 
L 947 4331 
L 353 4331 
L 353 4666 
L 4109 4666 
L 4109 3628 
L 3725 3628 
L 3725 4281 
L 1581 4281 
L 1581 2719 
L 3109 2719 
L 3109 3303 
L 3494 3303 
L 3494 1753 
L 3109 1753 
L 3109 2338 
L 1581 2338 
L 1581 384 
L 3775 384 
L 3775 1038 
L 4159 1038 
L 4159 0 
L 353 0 
z
" transform="scale(0.015625)"/>
      <path id="DejaVuSerif-76" d="M 1581 0 
L 359 2988 
L -19 2988 
L -19 3322 
L 1509 3322 
L 1509 2988 
L 978 2988 
L 1913 703 
L 2847 2988 
L 2350 2988 
L 2350 3322 
L 3597 3322 
L 3597 2988 
L 3225 2988 
L 2003 0 
L 1581 0 
z
" transform="scale(0.015625)"/>
      <path id="DejaVuSerif-28" d="M 2041 -997 
Q 1281 -656 893 83 
Q 506 822 506 1931 
Q 506 3044 893 3783 
Q 1281 4522 2041 4863 
L 2041 4556 
Q 1559 4225 1350 3623 
Q 1141 3022 1141 1931 
Q 1141 844 1350 242 
Q 1559 -359 2041 -691 
L 2041 -997 
z
" transform="scale(0.015625)"/>
      <path id="DejaVuSerif-70" d="M 1313 1825 
L 1313 1497 
Q 1313 897 1542 583 
Q 1772 269 2209 269 
Q 2650 269 2876 622 
Q 3103 975 3103 1663 
Q 3103 2353 2876 2703 
Q 2650 3053 2209 3053 
Q 1772 3053 1542 2737 
Q 1313 2422 1313 1825 
z
M 738 2988 
L 184 2988 
L 184 3322 
L 1313 3322 
L 1313 2803 
Q 1481 3116 1742 3264 
Q 2003 3413 2388 3413 
Q 3000 3413 3387 2928 
Q 3775 2444 3775 1663 
Q 3775 881 3387 395 
Q 3000 -91 2388 -91 
Q 2003 -91 1742 57 
Q 1481 206 1313 519 
L 1313 -997 
L 1856 -997 
L 1856 -1331 
L 184 -1331 
L 184 -997 
L 738 -997 
L 738 2988 
z
" transform="scale(0.015625)"/>
      <path id="DejaVuSerif-2e" d="M 603 325 
Q 603 500 722 622 
Q 841 744 1019 744 
Q 1191 744 1312 622 
Q 1434 500 1434 325 
Q 1434 153 1312 31 
Q 1191 -91 1019 -91 
Q 841 -91 722 29 
Q 603 150 603 325 
z
" transform="scale(0.015625)"/>
      <path id="Cmmi10-66" d="M 622 -1056 
Q 741 -1147 909 -1147 
Q 1138 -1147 1281 -641 
Q 1341 -397 1606 966 
L 1900 2534 
L 1350 2534 
Q 1288 2534 1288 2619 
Q 1313 2759 1369 2759 
L 1941 2759 
L 2016 3175 
Q 2053 3369 2084 3508 
Q 2116 3647 2152 3765 
Q 2188 3884 2259 4031 
Q 2369 4241 2555 4377 
Q 2741 4513 2956 4513 
Q 3097 4513 3230 4461 
Q 3363 4409 3447 4306 
Q 3531 4203 3531 4063 
Q 3531 3900 3423 3779 
Q 3316 3659 3163 3659 
Q 3059 3659 2986 3723 
Q 2913 3788 2913 3891 
Q 2913 4031 3008 4136 
Q 3103 4241 3244 4256 
Q 3125 4347 2950 4347 
Q 2853 4347 2767 4256 
Q 2681 4166 2656 4063 
Q 2616 3900 2478 3181 
L 2400 2759 
L 3059 2759 
Q 3122 2759 3122 2675 
Q 3119 2659 3109 2620 
Q 3100 2581 3083 2557 
Q 3066 2534 3041 2534 
L 2356 2534 
L 2059 972 
Q 2003 631 1929 279 
Q 1856 -72 1723 -442 
Q 1591 -813 1384 -1063 
Q 1178 -1313 897 -1313 
Q 681 -1313 511 -1189 
Q 341 -1066 341 -863 
Q 341 -700 445 -579 
Q 550 -459 709 -459 
Q 816 -459 887 -523 
Q 959 -588 959 -691 
Q 959 -828 857 -942 
Q 756 -1056 622 -1056 
z
" transform="scale(0.015625)"/>
      <path id="DejaVuSerif-29" d="M 453 -997 
L 453 -691 
Q 934 -359 1145 242 
Q 1356 844 1356 1931 
Q 1356 3022 1145 3623 
Q 934 4225 453 4556 
L 453 4863 
Q 1216 4522 1603 3783 
Q 1991 3044 1991 1931 
Q 1991 822 1603 83 
Q 1216 -656 453 -997 
z
" transform="scale(0.015625)"/>
     </defs>
     <use xlink:href="#DejaVuSerif-45" transform="translate(0 0.015625)"/>
     <use xlink:href="#DejaVuSerif-76" transform="translate(72.998047 0.015625)"/>
     <use xlink:href="#DejaVuSerif-65" transform="translate(129.492188 0.015625)"/>
     <use xlink:href="#DejaVuSerif-20" transform="translate(188.671875 0.015625)"/>
     <use xlink:href="#DejaVuSerif-20" transform="translate(220.458984 0.015625)"/>
     <use xlink:href="#DejaVuSerif-28" transform="translate(252.246094 0.015625)"/>
     <use xlink:href="#DejaVuSerif-70" transform="translate(291.259766 0.015625)"/>
     <use xlink:href="#DejaVuSerif-72" transform="translate(355.273438 0.015625)"/>
     <use xlink:href="#DejaVuSerif-6f" transform="translate(403.076172 0.015625)"/>
     <use xlink:href="#DejaVuSerif-62" transform="translate(463.28125 0.015625)"/>
     <use xlink:href="#DejaVuSerif-2e" transform="translate(527.294922 0.015625)"/>
     <use xlink:href="#DejaVuSerif-20" transform="translate(559.082031 0.015625)"/>
     <use xlink:href="#Cmmi10-66" transform="translate(590.869141 0.015625)"/>
     <use xlink:href="#DejaVuSerif-29" transform="translate(639.746094 0.015625)"/>
    </g>
   </g>
   <g id="patch_9">
    <path d="M 286.691897 53.489327 
L 316.997069 53.489327 
L 316.997069 35.207649 
L 286.691897 35.207649 
z
" clip-path="url(#pc46540c46e)" style="fill: #ffffff; stroke: #1a1a1a; stroke-width: 1.1; stroke-linejoin: miter"/>
   </g>
   <g id="patch_10">
    <path d="M 328.44569 53.489327 
L 349.322586 53.489327 
L 349.322586 35.207649 
L 328.44569 35.207649 
z
" clip-path="url(#pc46540c46e)" style="fill: #ffffff; stroke: #1a1a1a; stroke-width: 1.1; stroke-linejoin: miter"/>
   </g>
   <g id="patch_11">
    <path d="M 286.691897 102.709229 
L 316.997069 102.709229 
L 316.997069 84.427551 
L 286.691897 84.427551 
z
" clip-path="url(#pc46540c46e)" style="fill: #ffffff; stroke: #1a1a1a; stroke-width: 1.1; stroke-linejoin: miter"/>
   </g>
   <g id="patch_12">
    <path d="M 328.44569 102.709229 
L 349.322586 102.709229 
L 349.322586 84.427551 
L 328.44569 84.427551 
z
" clip-path="url(#pc46540c46e)" style="fill: #ffffff; stroke: #1a1a1a; stroke-width: 1.1; stroke-linejoin: miter"/>
   </g>
   <g id="text_8">
    <!-- measure -->
    <g transform="translate(304.594181 12.707122) scale(0.08 -0.08)">
     <defs>
      <path id="DejaVuSerif-6d" d="M 3316 2675 
Q 3481 3041 3739 3227 
Q 3997 3413 4341 3413 
Q 4863 3413 5119 3089 
Q 5375 2766 5375 2113 
L 5375 331 
L 5894 331 
L 5894 0 
L 4300 0 
L 4300 331 
L 4800 331 
L 4800 2047 
Q 4800 2556 4650 2772 
Q 4500 2988 4153 2988 
Q 3769 2988 3567 2697 
Q 3366 2406 3366 1850 
L 3366 331 
L 3866 331 
L 3866 0 
L 2291 0 
L 2291 331 
L 2791 331 
L 2791 2069 
Q 2791 2566 2641 2777 
Q 2491 2988 2144 2988 
Q 1759 2988 1557 2697 
Q 1356 2406 1356 1850 
L 1356 331 
L 1856 331 
L 1856 0 
L 263 0 
L 263 331 
L 781 331 
L 781 2994 
L 231 2994 
L 231 3322 
L 1356 3322 
L 1356 2731 
Q 1516 3063 1762 3238 
Q 2009 3413 2322 3413 
Q 2709 3413 2968 3220 
Q 3228 3028 3316 2675 
z
" transform="scale(0.015625)"/>
     </defs>
     <use xlink:href="#DejaVuSerif-6d"/>
     <use xlink:href="#DejaVuSerif-65" transform="translate(94.824219 0)"/>
     <use xlink:href="#DejaVuSerif-61" transform="translate(154.003906 0)"/>
     <use xlink:href="#DejaVuSerif-73" transform="translate(213.623047 0)"/>
     <use xlink:href="#DejaVuSerif-75" transform="translate(264.941406 0)"/>
     <use xlink:href="#DejaVuSerif-72" transform="translate(329.345703 0)"/>
     <use xlink:href="#DejaVuSerif-65" transform="translate(377.148438 0)"/>
    </g>
   </g>
   <g id="text_9">
    <!-- matched axes form the key; the CHSH settings estimate $S$ -->
    <g style="fill: #777777" transform="translate(97.228 138.569444) scale(0.068 -0.068)">
     <defs>
      <path id="DejaVuSerif-Italic-6d" d="M 3503 2675 
Q 3741 3041 4034 3227 
Q 4328 3413 4672 3413 
Q 5194 3413 5388 3088 
Q 5503 2894 5503 2578 
Q 5503 2372 5453 2113 
L 5106 331 
L 5625 331 
L 5563 0 
L 4469 0 
L 4866 2047 
Q 4913 2291 4913 2466 
Q 4913 2659 4856 2772 
Q 4750 2988 4403 2988 
Q 4019 2988 3761 2697 
Q 3503 2406 3394 1850 
L 3034 0 
L 2459 0 
L 2863 2069 
Q 2906 2303 2906 2472 
Q 2906 2666 2850 2775 
Q 2741 2988 2394 2988 
Q 2009 2988 1751 2697 
Q 1494 2406 1384 1850 
L 1025 0 
L 450 0 
L 1031 2994 
L 481 2994 
L 544 3322 
L 1669 3322 
L 1556 2731 
Q 1778 3063 2059 3238 
Q 2341 3413 2653 3413 
Q 3041 3413 3262 3220 
Q 3484 3028 3503 2675 
z
" transform="scale(0.015625)"/>
      <path id="DejaVuSerif-Italic-61" d="M 2325 519 
Q 1909 -91 1238 -91 
Q 688 -91 409 281 
Q 216 544 216 919 
Q 216 1078 250 1256 
Q 463 2359 1231 2928 
Q 1884 3413 2675 3413 
Q 3206 3413 3388 3322 
L 2806 331 
L 3300 331 
L 3238 0 
L 2225 0 
L 2325 519 
z
M 822 938 
Q 822 269 1469 269 
Q 1863 269 2130 583 
Q 2397 897 2516 1497 
L 2806 3003 
L 2806 3003 
Q 2806 3094 2556 3094 
Q 1956 3094 1491 2625 
Q 1028 2153 863 1297 
Q 822 1097 822 938 
z
" transform="scale(0.015625)"/>
      <path id="DejaVuSerif-Italic-74" d="M 856 2988 
L 350 2988 
L 416 3322 
L 922 3322 
L 1122 4353 
L 1700 4353 
L 1500 3322 
L 2581 3322 
L 2516 2988 
L 1434 2988 
L 1025 878 
Q 978 631 978 488 
Q 978 388 1000 338 
Q 1059 219 1278 219 
Q 1503 219 1633 351 
Q 1763 484 1825 781 
L 2259 781 
Q 2147 328 1884 118 
Q 1622 -91 1169 -91 
Q 672 -91 506 131 
Q 406 266 406 516 
Q 406 675 447 878 
L 856 2988 
z
" transform="scale(0.015625)"/>
      <path id="DejaVuSerif-Italic-63" d="M 3163 997 
Q 2938 466 2536 187 
Q 2134 -91 1584 -91 
Q 859 -91 513 388 
Q 272 722 272 1203 
Q 272 1419 319 1663 
Q 475 2459 1008 2936 
Q 1541 3413 2266 3413 
Q 2581 3413 2879 3339 
Q 3178 3266 3463 3116 
L 3300 2266 
L 2966 2266 
Q 2966 2309 2966 2347 
Q 2966 2722 2803 2903 
Q 2622 3103 2213 3103 
Q 1747 3103 1439 2742 
Q 1131 2381 991 1663 
Q 928 1334 928 1078 
Q 928 778 1016 581 
Q 1181 219 1650 219 
Q 2022 219 2281 412 
Q 2541 606 2700 997 
L 3163 997 
z
" transform="scale(0.015625)"/>
      <path id="DejaVuSerif-Italic-68" d="M 309 0 
L 1191 4531 
L 641 4531 
L 703 4863 
L 1828 4863 
L 1416 2731 
Q 1641 3069 1928 3241 
Q 2216 3413 2553 3413 
Q 3103 3413 3300 3097 
Q 3422 2906 3422 2588 
Q 3422 2378 3369 2113 
L 3022 331 
L 3534 331 
L 3472 0 
L 2381 0 
L 2756 1931 
Q 2819 2253 2819 2469 
Q 2819 2659 2769 2763 
Q 2666 2988 2284 2988 
Q 1884 2988 1617 2697 
Q 1350 2406 1244 1850 
L 884 0 
L 309 0 
z
" transform="scale(0.015625)"/>
      <path id="DejaVuSerif-Italic-65" d="M 938 1275 
Q 925 1156 925 1050 
Q 925 756 1031 563 
Q 1216 219 1709 219 
Q 2072 219 2250 328 
Q 2569 525 2644 778 
L 3066 778 
Q 2941 381 2475 103 
Q 2150 -91 1506 -91 
Q 863 -91 516 388 
Q 272 722 272 1206 
Q 272 1419 319 1659 
Q 472 2450 1000 2931 
Q 1528 3413 2278 3413 
Q 3500 3413 3500 2547 
Q 3500 1913 2859 1603 
Q 2206 1288 938 1275 
z
M 2541 1975 
Q 2891 2181 2891 2569 
Q 2891 3103 2181 3103 
Q 1763 3103 1472 2784 
Q 1181 2466 1003 1606 
Q 2006 1653 2541 1975 
z
" transform="scale(0.015625)"/>
      <path id="DejaVuSerif-Italic-64" d="M 3841 4863 
L 2897 0 
L 2322 0 
L 2422 519 
Q 2191 206 1902 57 
Q 1613 -91 1228 -91 
Q 616 -91 322 394 
Q 125 716 125 1166 
Q 125 1397 178 1663 
Q 331 2444 812 2928 
Q 1294 3413 1909 3413 
Q 2294 3413 2525 3264 
Q 2756 3116 2866 2803 
L 3200 4531 
L 2656 4531 
L 2722 4863 
L 3841 4863 
z
M 2613 1497 
L 2675 1825 
Q 2722 2069 2722 2266 
Q 2722 2550 2622 2738 
Q 2456 3053 2019 3053 
Q 1575 3053 1279 2703 
Q 984 2353 850 1663 
Q 788 1347 788 1103 
Q 788 813 875 622 
Q 1031 269 1475 269 
Q 1913 269 2203 583 
Q 2494 897 2613 1497 
z
" transform="scale(0.015625)"/>
      <path id="DejaVuSerif-Italic-20" transform="scale(0.015625)"/>
      <path id="DejaVuSerif-Italic-78" d="M 409 0 
L 19 0 
L 1484 1594 
L 747 2988 
L 338 2988 
L 400 3322 
L 1244 3322 
L 1934 2028 
L 3125 3322 
L 3516 3322 
L 2078 1759 
L 2838 331 
L 3272 331 
L 3209 0 
L 2338 0 
L 1631 1325 
L 409 0 
z
" transform="scale(0.015625)"/>
      <path id="DejaVuSerif-Italic-73" d="M 222 959 
L 553 959 
Q 541 869 541 788 
Q 541 219 1313 219 
Q 2088 219 2200 788 
Q 2209 844 2209 944 
Q 2209 1041 2103 1158 
Q 1997 1275 1550 1428 
L 1159 1569 
Q 759 1706 629 1882 
Q 500 2059 500 2263 
Q 500 2344 516 2438 
Q 606 2894 990 3153 
Q 1375 3413 1931 3413 
Q 2484 3413 3066 3144 
L 2925 2419 
L 2594 2419 
Q 2606 2491 2606 2553 
Q 2606 2781 2448 2942 
Q 2291 3103 1925 3103 
Q 1191 3103 1091 2591 
Q 1078 2538 1078 2444 
Q 1078 2347 1179 2237 
Q 1281 2128 1678 1997 
L 2106 1856 
Q 2550 1709 2716 1488 
Q 2831 1331 2831 1178 
Q 2831 522 2306 181 
Q 1894 -91 1262 -91 
Q 631 -91 72 184 
L 222 959 
z
" transform="scale(0.015625)"/>
      <path id="DejaVuSerif-Italic-66" d="M 3191 4078 
L 2888 4078 
Q 2900 4144 2900 4203 
Q 2900 4347 2825 4434 
Q 2719 4556 2472 4556 
Q 2150 4556 1984 4379 
Q 1819 4203 1731 3750 
L 1647 3322 
L 2575 3322 
L 2509 2988 
L 1581 2988 
L 963 -206 
Q 853 -763 509 -1047 
Q 166 -1331 -394 -1331 
L -356 -1025 
Q -28 -1025 131 -850 
Q 297 -663 388 -206 
L 1006 2988 
L 456 2988 
L 522 3322 
L 1072 3322 
L 1153 3738 
Q 1263 4297 1606 4578 
Q 1950 4863 2509 4863 
Q 2719 4863 2920 4825 
Q 3122 4788 3316 4709 
L 3191 4078 
z
" transform="scale(0.015625)"/>
      <path id="DejaVuSerif-Italic-6f" d="M 1644 219 
Q 2106 219 2414 584 
Q 2722 950 2859 1663 
Q 2922 1988 2922 2241 
Q 2922 2541 2834 2738 
Q 2669 3103 2206 3103 
Q 1744 3103 1436 2739 
Q 1128 2375 991 1663 
Q 928 1338 928 1088 
Q 928 784 1019 584 
Q 1184 219 1644 219 
z
M 1584 -91 
Q 859 -91 513 388 
Q 272 722 272 1203 
Q 272 1419 319 1663 
Q 472 2456 1005 2934 
Q 1538 3413 2266 3413 
Q 2994 3413 3341 2934 
Q 3578 2603 3578 2122 
Q 3578 1906 3531 1663 
Q 3378 869 2845 389 
Q 2313 -91 1584 -91 
z
" transform="scale(0.015625)"/>
      <path id="DejaVuSerif-Italic-72" d="M 3375 3328 
L 3213 2497 
L 2881 2497 
Q 2891 2559 2891 2613 
Q 2891 2775 2816 2866 
Q 2719 2988 2484 2988 
Q 2059 2988 1775 2694 
Q 1491 2400 1384 1850 
L 1025 0 
L 450 0 
L 1031 2994 
L 481 2994 
L 544 3322 
L 1669 3322 
L 1556 2731 
Q 1791 3078 2089 3245 
Q 2388 3413 2769 3413 
Q 2909 3413 3059 3391 
Q 3209 3369 3375 3328 
z
" transform="scale(0.015625)"/>
      <path id="DejaVuSerif-Italic-6b" d="M 2113 2075 
L 3034 331 
L 3513 331 
L 3450 0 
L 2528 0 
L 1622 1697 
L 1088 1275 
L 841 0 
L 266 0 
L 1147 4531 
L 594 4531 
L 656 4863 
L 1784 4863 
L 1169 1697 
L 2822 2988 
L 2344 2988 
L 2406 3322 
L 3341 3322 
L 3278 2988 
L 2113 2075 
z
" transform="scale(0.015625)"/>
      <path id="DejaVuSerif-Italic-79" d="M 3681 3294 
Q 3372 1506 2828 563 
Q 2031 -822 1391 -1238 
Q 1106 -1422 356 -1422 
Q 209 -1422 60 -1397 
Q -88 -1372 -238 -1325 
L -113 -691 
L 181 -691 
Q 175 -741 175 -788 
Q 175 -919 231 -994 
Q 309 -1100 513 -1100 
Q 1063 -1100 1541 -622 
L 756 2988 
L 378 2988 
L 444 3322 
L 1303 3322 
L 2041 25 
Q 2544 778 2666 1088 
Q 3059 2059 3138 2959 
L 2759 2959 
L 2825 3294 
L 3681 3294 
z
" transform="scale(0.015625)"/>
      <path id="DejaVuSerif-Italic-3b" d="M -72 -622 
Q 263 -406 458 -114 
Q 653 178 734 594 
L 756 709 
L 1372 709 
Q 1244 175 942 -208 
Q 641 -591 128 -872 
L -72 -622 
z
M 1019 2067 
Q 922 2188 956 2363 
Q 991 2538 1134 2658 
Q 1278 2778 1453 2778 
Q 1628 2778 1723 2656 
Q 1819 2534 1788 2363 
Q 1753 2188 1609 2067 
Q 1466 1947 1291 1947 
Q 1116 1947 1019 2067 
z
" transform="scale(0.015625)"/>
      <path id="DejaVuSerif-Italic-43" d="M 4300 1234 
Q 3966 581 3414 245 
Q 2863 -91 2119 -91 
Q 1663 -91 1303 65 
Q 944 222 700 525 
Q 419 875 334 1320 
Q 250 1766 359 2328 
Q 572 3416 1330 4083 
Q 2088 4750 3116 4750 
Q 3497 4750 3908 4650 
Q 4319 4550 4775 4347 
L 4569 3272 
L 4216 3272 
Q 4213 3859 3919 4137 
Q 3625 4416 2997 4416 
Q 2250 4416 1762 3886 
Q 1275 3356 1075 2328 
Q 875 1303 1156 773 
Q 1438 244 2184 244 
Q 2706 244 3092 492 
Q 3478 741 3725 1234 
L 4300 1234 
z
" transform="scale(0.015625)"/>
      <path id="DejaVuSerif-Italic-48" d="M -97 0 
L -34 331 
L 559 331 
L 1338 4331 
L 744 4331 
L 809 4666 
L 2631 4666 
L 2566 4331 
L 1972 4331 
L 1659 2719 
L 4078 2719 
L 4391 4331 
L 3797 4331 
L 3863 4666 
L 5684 4666 
L 5619 4331 
L 5025 4331 
L 4247 331 
L 4841 331 
L 4778 0 
L 2956 0 
L 3019 331 
L 3616 331 
L 4003 2338 
L 1584 2338 
L 1194 331 
L 1788 331 
L 1725 0 
L -97 0 
z
" transform="scale(0.015625)"/>
      <path id="DejaVuSerif-Italic-53" d="M 184 225 
L 391 1288 
L 750 1284 
Q 663 753 905 498 
Q 1147 244 1744 244 
Q 2300 244 2636 464 
Q 2972 684 3053 1106 
Q 3119 1444 2976 1625 
Q 2834 1806 2300 1978 
L 1722 2163 
Q 1091 2366 877 2669 
Q 663 2972 766 3500 
Q 881 4094 1367 4422 
Q 1853 4750 2616 4750 
Q 2941 4750 3314 4679 
Q 3688 4609 4097 4475 
L 3906 3481 
L 3553 3481 
Q 3594 3975 3361 4195 
Q 3128 4416 2563 4416 
Q 2069 4416 1772 4214 
Q 1475 4013 1400 3628 
Q 1334 3294 1490 3103 
Q 1647 2913 2241 2725 
L 2784 2553 
Q 3381 2363 3593 2067 
Q 3806 1772 3709 1275 
Q 3578 597 3076 253 
Q 2575 -91 1716 -91 
Q 1331 -91 948 -12 
Q 566 66 184 225 
z
" transform="scale(0.015625)"/>
      <path id="DejaVuSerif-Italic-69" d="M 1009 4353 
Q 1038 4497 1163 4603 
Q 1288 4709 1434 4709 
Q 1578 4709 1663 4603 
Q 1728 4522 1728 4422 
Q 1728 4388 1719 4353 
Q 1691 4206 1567 4103 
Q 1444 4000 1297 4000 
Q 1150 4000 1066 4103 
Q 1003 4181 1003 4281 
Q 1003 4316 1009 4353 
z
M 963 331 
L 1506 331 
L 1444 0 
L 325 0 
L 903 2988 
L 353 2988 
L 419 3322 
L 1544 3322 
L 963 331 
z
" transform="scale(0.015625)"/>
      <path id="DejaVuSerif-Italic-6e" d="M 450 0 
L 1031 2988 
L 481 2988 
L 544 3322 
L 1669 3322 
L 1556 2731 
Q 1781 3069 2068 3241 
Q 2356 3413 2694 3413 
Q 3244 3413 3444 3097 
Q 3563 2906 3563 2588 
Q 3563 2378 3509 2113 
L 3163 331 
L 3675 331 
L 3613 0 
L 2522 0 
L 2897 1931 
Q 2959 2253 2959 2469 
Q 2959 2659 2909 2769 
Q 2803 2994 2425 2994 
Q 2025 2994 1759 2701 
Q 1494 2409 1384 1850 
L 1025 0 
L 450 0 
z
" transform="scale(0.015625)"/>
      <path id="DejaVuSerif-Italic-67" d="M 3822 3322 
L 3188 72 
Q 3044 -672 2581 -1031 
Q 2078 -1422 1381 -1422 
Q 1053 -1422 765 -1362 
Q 478 -1303 225 -1184 
L 363 -488 
L 663 -488 
Q 653 -813 834 -963 
Q 1016 -1113 1406 -1113 
Q 1913 -1113 2203 -825 
Q 2494 -544 2613 72 
L 2700 519 
Q 2472 206 2181 57 
Q 1891 -91 1525 -91 
Q 975 -91 697 281 
Q 522 516 503 841 
Q 491 1031 534 1256 
Q 750 2359 1516 2928 
Q 2169 3409 2931 3413 
Q 3631 3416 3822 3322 
z
M 3184 2988 
Q 3181 3094 2844 3094 
Q 2234 3094 1775 2625 
Q 1316 2153 1147 1297 
Q 1100 1044 1113 853 
Q 1125 659 1203 528 
Q 1356 269 1756 269 
Q 2194 269 2484 583 
Q 2775 897 2891 1497 
L 2953 1825 
L 3184 2988 
z
" transform="scale(0.015625)"/>
      <path id="Cmmi10-53" d="M 391 -141 
Q 372 -141 356 -119 
Q 341 -97 341 -78 
L 709 1416 
Q 722 1453 763 1453 
L 838 1453 
Q 863 1453 877 1434 
Q 891 1416 891 1388 
Q 838 1169 838 997 
Q 838 534 1156 309 
Q 1475 84 1959 84 
Q 2169 84 2372 187 
Q 2575 291 2726 456 
Q 2878 622 2968 826 
Q 3059 1031 3059 1241 
Q 3059 1466 2940 1642 
Q 2822 1819 2613 1869 
L 1831 2075 
Q 1516 2159 1328 2414 
Q 1141 2669 1141 2988 
Q 1141 3372 1369 3728 
Q 1597 4084 1964 4298 
Q 2331 4513 2713 4513 
Q 3006 4513 3251 4405 
Q 3497 4297 3628 4063 
L 3994 4494 
Q 4031 4513 4038 4513 
L 4078 4513 
Q 4103 4513 4118 4491 
Q 4134 4469 4134 4447 
L 3763 2963 
Q 3753 2919 3713 2919 
L 3634 2919 
Q 3578 2919 3578 2988 
Q 3609 3191 3609 3341 
Q 3609 3638 3507 3858 
Q 3406 4078 3201 4192 
Q 2997 4306 2694 4306 
Q 2438 4306 2184 4159 
Q 1931 4013 1775 3769 
Q 1619 3525 1619 3263 
Q 1619 3056 1739 2897 
Q 1859 2738 2059 2681 
L 2841 2478 
Q 3053 2422 3211 2280 
Q 3369 2138 3450 1942 
Q 3531 1747 3531 1516 
Q 3531 1213 3403 917 
Q 3275 622 3045 378 
Q 2816 134 2525 -3 
Q 2234 -141 1931 -141 
Q 1169 -141 838 306 
L 481 -122 
Q 444 -141 434 -141 
L 391 -141 
z
" transform="scale(0.015625)"/>
     </defs>
     <use xlink:href="#DejaVuSerif-Italic-6d" transform="translate(0 0.015625)"/>
     <use xlink:href="#DejaVuSerif-Italic-61" transform="translate(94.824219 0.015625)"/>
     <use xlink:href="#DejaVuSerif-Italic-74" transform="translate(154.443359 0.015625)"/>
     <use xlink:href="#DejaVuSerif-Italic-63" transform="translate(194.628906 0.015625)"/>
     <use xlink:href="#DejaVuSerif-Italic-68" transform="translate(250.634766 0.015625)"/>
     <use xlink:href="#DejaVuSerif-Italic-65" transform="translate(315.039062 0.015625)"/>
     <use xlink:href="#DejaVuSerif-Italic-64" transform="translate(374.21875 0.015625)"/>
     <use xlink:href="#DejaVuSerif-Italic-20" transform="translate(438.232422 0.015625)"/>
     <use xlink:href="#DejaVuSerif-Italic-61" transform="translate(470.019531 0.015625)"/>
     <use xlink:href="#DejaVuSerif-Italic-78" transform="translate(529.638672 0.015625)"/>
     <use xlink:href="#DejaVuSerif-Italic-65" transform="translate(586.035156 0.015625)"/>
     <use xlink:href="#DejaVuSerif-Italic-73" transform="translate(645.214844 0.015625)"/>
     <use xlink:href="#DejaVuSerif-Italic-20" transform="translate(696.533203 0.015625)"/>
     <use xlink:href="#DejaVuSerif-Italic-66" transform="translate(728.320312 0.015625)"/>
     <use xlink:href="#DejaVuSerif-Italic-6f" transform="translate(765.332031 0.015625)"/>
     <use xlink:href="#DejaVuSerif-Italic-72" transform="translate(825.537109 0.015625)"/>
     <use xlink:href="#DejaVuSerif-Italic-6d" transform="translate(873.339844 0.015625)"/>
     <use xlink:href="#DejaVuSerif-Italic-20" transform="translate(968.164062 0.015625)"/>
     <use xlink:href="#DejaVuSerif-Italic-74" transform="translate(999.951172 0.015625)"/>
     <use xlink:href="#DejaVuSerif-Italic-68" transform="translate(1040.136719 0.015625)"/>
     <use xlink:href="#DejaVuSerif-Italic-65" transform="translate(1104.541016 0.015625)"/>
     <use xlink:href="#DejaVuSerif-Italic-20" transform="translate(1163.720703 0.015625)"/>
     <use xlink:href="#DejaVuSerif-Italic-6b" transform="translate(1195.507812 0.015625)"/>
     <use xlink:href="#DejaVuSerif-Italic-65" transform="translate(1256.103516 0.015625)"/>
     <use xlink:href="#DejaVuSerif-Italic-79" transform="translate(1315.283203 0.015625)"/>
     <use xlink:href="#DejaVuSerif-Italic-3b" transform="translate(1371.777344 0.015625)"/>
     <use xlink:href="#DejaVuSerif-Italic-20" transform="translate(1405.46875 0.015625)"/>
     <use xlink:href="#DejaVuSerif-Italic-74" transform="translate(1437.255859 0.015625)"/>
     <use xlink:href="#DejaVuSerif-Italic-68" transform="translate(1477.441406 0.015625)"/>
     <use xlink:href="#DejaVuSerif-Italic-65" transform="translate(1541.845703 0.015625)"/>
     <use xlink:href="#DejaVuSerif-Italic-20" transform="translate(1601.025391 0.015625)"/>
     <use xlink:href="#DejaVuSerif-Italic-43" transform="translate(1632.8125 0.015625)"/>
     <use xlink:href="#DejaVuSerif-Italic-48" transform="translate(1709.326172 0.015625)"/>
     <use xlink:href="#DejaVuSerif-Italic-53" transform="translate(1796.533203 0.015625)"/>
     <use xlink:href="#DejaVuSerif-Italic-48" transform="translate(1865.039062 0.015625)"/>
     <use xlink:href="#DejaVuSerif-Italic-20" transform="translate(1952.246094 0.015625)"/>
     <use xlink:href="#DejaVuSerif-Italic-73" transform="translate(1984.033203 0.015625)"/>
     <use xlink:href="#DejaVuSerif-Italic-65" transform="translate(2035.351562 0.015625)"/>
     <use xlink:href="#DejaVuSerif-Italic-74" transform="translate(2094.53125 0.015625)"/>
     <use xlink:href="#DejaVuSerif-Italic-74" transform="translate(2134.716797 0.015625)"/>
     <use xlink:href="#DejaVuSerif-Italic-69" transform="translate(2174.902344 0.015625)"/>
     <use xlink:href="#DejaVuSerif-Italic-6e" transform="translate(2206.884766 0.015625)"/>
     <use xlink:href="#DejaVuSerif-Italic-67" transform="translate(2271.289062 0.015625)"/>
     <use xlink:href="#DejaVuSerif-Italic-73" transform="translate(2335.302734 0.015625)"/>
     <use xlink:href="#DejaVuSerif-Italic-20" transform="translate(2386.621094 0.015625)"/>
     <use xlink:href="#DejaVuSerif-Italic-65" transform="translate(2418.408203 0.015625)"/>
     <use xlink:href="#DejaVuSerif-Italic-73" transform="translate(2477.587891 0.015625)"/>
     <use xlink:href="#DejaVuSerif-Italic-74" transform="translate(2528.90625 0.015625)"/>
     <use xlink:href="#DejaVuSerif-Italic-69" transform="translate(2569.091797 0.015625)"/>
     <use xlink:href="#DejaVuSerif-Italic-6d" transform="translate(2601.074219 0.015625)"/>
     <use xlink:href="#DejaVuSerif-Italic-61" transform="translate(2695.898438 0.015625)"/>
     <use xlink:href="#DejaVuSerif-Italic-74" transform="translate(2755.517578 0.015625)"/>
     <use xlink:href="#DejaVuSerif-Italic-65" transform="translate(2795.703125 0.015625)"/>
     <use xlink:href="#DejaVuSerif-Italic-20" transform="translate(2854.882812 0.015625)"/>
     <use xlink:href="#Cmmi10-53" transform="translate(2886.669922 0.015625)"/>
    </g>
   </g>
   <g id="text_10">
    <!-- $H$ -->
    <g transform="translate(48.678621 46.969894) scale(0.095 -0.095)">
     <defs>
      <path id="Cmmi10-48" d="M 300 0 
Q 238 0 238 84 
Q 241 100 250 139 
Q 259 178 276 201 
Q 294 225 319 225 
Q 709 225 863 269 
Q 947 297 984 441 
L 1863 3956 
Q 1875 4019 1875 4044 
Q 1875 4113 1797 4122 
Q 1678 4147 1338 4147 
Q 1275 4147 1275 4231 
Q 1297 4313 1309 4342 
Q 1322 4372 1381 4372 
L 3103 4372 
Q 3169 4372 3169 4288 
Q 3166 4272 3156 4234 
Q 3147 4197 3131 4172 
Q 3116 4147 3084 4147 
Q 2694 4147 2541 4103 
Q 2456 4072 2419 3928 
L 2034 2388 
L 3956 2388 
L 4347 3956 
Q 4359 4019 4359 4044 
Q 4359 4113 4281 4122 
Q 4159 4147 3822 4147 
Q 3756 4147 3756 4231 
Q 3778 4313 3790 4342 
Q 3803 4372 3866 4372 
L 5588 4372 
Q 5650 4372 5650 4288 
Q 5647 4272 5637 4233 
Q 5628 4194 5611 4170 
Q 5594 4147 5569 4147 
Q 5178 4147 5025 4103 
Q 4941 4075 4903 3928 
L 4025 416 
Q 4013 353 4013 325 
Q 4013 259 4091 250 
Q 4213 225 4550 225 
Q 4616 225 4616 141 
Q 4597 66 4578 33 
Q 4559 0 4506 0 
L 2784 0 
Q 2719 0 2719 84 
Q 2731 131 2737 153 
Q 2744 175 2761 200 
Q 2778 225 2803 225 
Q 3194 225 3347 269 
Q 3431 297 3469 441 
L 3897 2163 
L 1978 2163 
L 1544 416 
Q 1528 338 1528 325 
Q 1528 259 1606 250 
Q 1728 225 2069 225 
Q 2131 225 2131 141 
Q 2109 56 2095 28 
Q 2081 0 2022 0 
L 300 0 
z
" transform="scale(0.015625)"/>
     </defs>
     <use xlink:href="#Cmmi10-48" transform="translate(0 0.6875)"/>
    </g>
   </g>
   <g id="patch_13">
    <path d="M 82.973793 46.985268 
C 83.643545 46.985268 84.285956 46.70744 84.759543 46.212973 
C 85.233129 45.718506 85.499224 45.04777 85.499224 44.348488 
C 85.499224 43.649205 85.233129 42.97847 84.759543 42.484002 
C 84.285956 41.989535 83.643545 41.711707 82.973793 41.711707 
C 82.304041 41.711707 81.66163 41.989535 81.188044 42.484002 
C 80.714457 42.97847 80.448362 43.649205 80.448362 44.348488 
C 80.448362 45.04777 80.714457 45.718506 81.188044 46.212973 
C 81.66163 46.70744 82.304041 46.985268 82.973793 46.985268 
z
" clip-path="url(#pc46540c46e)" style="fill: #1a1a1a; stroke: #1a1a1a; stroke-linejoin: miter"/>
   </g>
   <g id="patch_14">
    <path d="M 82.973793 99.896663 
C 84.581198 99.896663 86.122985 99.229877 87.259592 98.043155 
C 88.396199 96.856434 89.034828 95.246668 89.034828 93.56839 
C 89.034828 91.890113 88.396199 90.280347 87.259592 89.093625 
C 86.122985 87.906904 84.581198 87.240117 82.973793 87.240117 
C 81.366388 87.240117 79.824602 87.906904 78.687995 89.093625 
C 77.551387 90.280347 76.912759 91.890113 76.912759 93.56839 
C 76.912759 95.246668 77.551387 96.856434 78.687995 98.043155 
C 79.824602 99.229877 81.366388 99.896663 82.973793 99.896663 
L 82.973793 99.896663 
z
" clip-path="url(#pc46540c46e)" style="fill: none; stroke: #1a1a1a; stroke-width: 1.1; stroke-linejoin: miter"/>
   </g>
   <g id="text_11">
    <!-- $\mathcal{N}_p$ -->
    <g transform="translate(123.987672 46.580988) scale(0.095 -0.095)">
     <defs>
      <path id="Cmsy10-4e" d="M -184 13 
Q -184 131 -103 322 
Q -22 513 72 513 
Q 84 513 91 506 
Q 294 294 594 294 
Q 763 294 892 598 
Q 1022 903 1147 1306 
Q 1213 1509 1308 1837 
Q 1403 2166 1453 2369 
Q 1497 2538 1558 2827 
Q 1619 3116 1658 3331 
Q 1697 3547 1728 3772 
Q 1759 3997 1784 4244 
Q 1784 4278 1831 4325 
Q 1900 4397 1997 4453 
Q 2088 4494 2181 4513 
L 2234 4513 
Q 2272 4494 2278 4469 
Q 2438 3909 2675 3200 
Q 2891 2544 3044 2125 
Q 3197 1706 3405 1242 
Q 3613 778 3859 384 
Q 4194 1819 4525 2988 
L 4609 3284 
Q 4747 3769 4836 4039 
Q 4925 4309 5063 4525 
Q 5175 4700 5356 4800 
Q 5538 4900 5753 4942 
Q 5969 4984 6203 4984 
Q 6259 4984 6259 4878 
Q 6259 4803 6226 4686 
Q 6194 4569 6137 4478 
Q 6081 4388 6009 4372 
Q 5756 4372 5557 4331 
Q 5359 4291 5197 4184 
Q 5116 4125 5102 4094 
Q 5088 4063 5038 3909 
Q 4956 3684 4872 3366 
L 4788 3078 
Q 4625 2491 4498 2006 
Q 4372 1522 4256 1045 
Q 4141 569 4031 84 
Q 4034 84 4029 92 
Q 4025 100 4025 103 
Q 4025 47 3951 -15 
Q 3878 -78 3783 -120 
Q 3688 -163 3628 -172 
L 3584 -172 
Q 3478 -119 3222 368 
Q 2966 856 2834 1172 
Q 2359 2347 1966 3628 
Q 1916 3319 1759 2648 
Q 1603 1978 1387 1297 
Q 1172 616 914 148 
Q 656 -319 397 -319 
Q 231 -319 23 -225 
Q -184 -131 -184 13 
z
" transform="scale(0.015625)"/>
      <path id="Cmmi10-70" d="M -159 -1241 
Q -219 -1241 -219 -1159 
Q -197 -1019 -134 -1019 
Q 66 -1019 145 -983 
Q 225 -947 269 -800 
L 991 2081 
Q 1038 2200 1038 2388 
Q 1038 2663 850 2663 
Q 650 2663 553 2423 
Q 456 2184 366 1819 
Q 366 1778 313 1778 
L 238 1778 
Q 222 1778 203 1801 
Q 184 1825 184 1844 
Q 253 2122 317 2315 
Q 381 2509 517 2668 
Q 653 2828 856 2828 
Q 1075 2828 1240 2704 
Q 1406 2581 1453 2369 
Q 1628 2572 1840 2700 
Q 2053 2828 2278 2828 
Q 2547 2828 2745 2684 
Q 2944 2541 3044 2308 
Q 3144 2075 3144 1806 
Q 3144 1394 2933 953 
Q 2722 513 2361 220 
Q 2000 -72 1588 -72 
Q 1400 -72 1248 34 
Q 1097 141 1013 313 
L 722 -825 
Q 706 -919 703 -934 
Q 703 -1019 1125 -1019 
Q 1191 -1019 1191 -1100 
Q 1169 -1184 1155 -1212 
Q 1141 -1241 1081 -1241 
L -159 -1241 
z
M 1594 97 
Q 1816 97 2006 280 
Q 2197 463 2316 691 
Q 2403 863 2479 1111 
Q 2556 1359 2612 1640 
Q 2669 1922 2669 2088 
Q 2669 2234 2630 2362 
Q 2591 2491 2502 2577 
Q 2413 2663 2266 2663 
Q 2031 2663 1823 2495 
Q 1616 2328 1447 2081 
L 1447 2059 
L 1094 647 
Q 1138 419 1263 258 
Q 1388 97 1594 97 
z
" transform="scale(0.015625)"/>
     </defs>
     <use xlink:href="#Cmsy10-4e" transform="translate(0 0.125)"/>
     <use xlink:href="#Cmmi10-70" transform="translate(86.446562 -16.88125) scale(0.7)"/>
    </g>
   </g>
   <g id="text_12">
    <!-- $\mathcal{N}_p$ -->
    <g transform="translate(123.987672 95.80089) scale(0.095 -0.095)">
     <use xlink:href="#Cmsy10-4e" transform="translate(0 0.125)"/>
     <use xlink:href="#Cmmi10-70" transform="translate(86.446562 -16.88125) scale(0.7)"/>
    </g>
   </g>
   <g id="text_13">
    <!-- $R_y(\theta_E)$ -->
    <g transform="translate(165.256552 95.28839) scale(0.08 -0.08)">
     <defs>
      <path id="Cmmi10-52" d="M 313 0 
Q 250 0 250 84 
Q 253 100 262 139 
Q 272 178 289 201 
Q 306 225 331 225 
Q 722 225 878 269 
Q 959 297 997 441 
L 1875 3956 
Q 1888 4019 1888 4044 
Q 1888 4113 1813 4122 
Q 1691 4147 1350 4147 
Q 1288 4147 1288 4231 
Q 1291 4247 1300 4286 
Q 1309 4325 1326 4348 
Q 1344 4372 1369 4372 
L 3309 4372 
Q 3541 4372 3791 4319 
Q 4041 4266 4250 4152 
Q 4459 4038 4593 3848 
Q 4728 3659 4728 3406 
Q 4728 3084 4515 2831 
Q 4303 2578 3978 2408 
Q 3653 2238 3347 2169 
Q 3597 2078 3756 1879 
Q 3916 1681 3916 1422 
Q 3916 1388 3914 1370 
Q 3913 1353 3909 1331 
L 3859 763 
Q 3853 638 3847 550 
Q 3841 463 3841 409 
Q 3841 234 3892 129 
Q 3944 25 4097 25 
Q 4297 25 4448 211 
Q 4600 397 4647 616 
Q 4675 672 4709 672 
L 4769 672 
Q 4831 672 4831 588 
Q 4784 403 4682 237 
Q 4581 72 4426 -34 
Q 4272 -141 4091 -141 
Q 3716 -141 3452 26 
Q 3188 194 3188 550 
Q 3188 684 3213 788 
L 3353 1356 
Q 3378 1434 3378 1538 
Q 3378 1803 3198 1954 
Q 3019 2106 2747 2106 
L 1959 2106 
L 1538 416 
Q 1522 363 1522 325 
Q 1522 259 1600 250 
Q 1722 225 2059 225 
Q 2125 225 2125 141 
Q 2103 50 2090 25 
Q 2078 0 2016 0 
L 313 0 
z
M 1997 2272 
L 2706 2272 
Q 3403 2272 3756 2625 
Q 3919 2788 4014 3039 
Q 4109 3291 4109 3541 
Q 4109 3778 3970 3912 
Q 3831 4047 3626 4097 
Q 3422 4147 3175 4147 
L 2747 4147 
Q 2572 4147 2515 4117 
Q 2459 4088 2413 3928 
L 1997 2272 
z
" transform="scale(0.015625)"/>
      <path id="Cmmi10-79" d="M 538 -916 
Q 672 -1147 1006 -1147 
Q 1309 -1147 1531 -934 
Q 1753 -722 1889 -420 
Q 2025 -119 2100 197 
Q 1816 -72 1484 -72 
Q 1231 -72 1053 15 
Q 875 103 776 276 
Q 678 450 678 697 
Q 678 906 734 1126 
Q 791 1347 892 1617 
Q 994 1888 1069 2088 
Q 1153 2322 1153 2472 
Q 1153 2663 1013 2663 
Q 759 2663 595 2402 
Q 431 2141 353 1819 
Q 341 1778 300 1778 
L 225 1778 
Q 172 1778 172 1838 
L 172 1856 
Q 275 2238 487 2533 
Q 700 2828 1025 2828 
Q 1253 2828 1411 2678 
Q 1569 2528 1569 2297 
Q 1569 2178 1516 2047 
Q 1488 1969 1388 1706 
Q 1288 1444 1234 1272 
Q 1181 1100 1147 934 
Q 1113 769 1113 603 
Q 1113 391 1203 244 
Q 1294 97 1491 97 
Q 1888 97 2203 581 
L 2688 2553 
Q 2709 2638 2787 2698 
Q 2866 2759 2956 2759 
Q 3034 2759 3092 2709 
Q 3150 2659 3150 2578 
Q 3150 2541 3144 2528 
L 2509 -19 
Q 2425 -347 2200 -647 
Q 1975 -947 1658 -1130 
Q 1341 -1313 997 -1313 
Q 831 -1313 668 -1248 
Q 506 -1184 406 -1056 
Q 306 -928 306 -756 
Q 306 -581 409 -453 
Q 513 -325 684 -325 
Q 788 -325 858 -389 
Q 928 -453 928 -556 
Q 928 -703 818 -812 
Q 709 -922 563 -922 
Q 556 -919 550 -917 
Q 544 -916 538 -916 
z
" transform="scale(0.015625)"/>
      <path id="Cmr10-28" d="M 1984 -1588 
Q 1628 -1306 1370 -942 
Q 1113 -578 948 -165 
Q 784 247 703 697 
Q 622 1147 622 1600 
Q 622 2059 703 2509 
Q 784 2959 951 3375 
Q 1119 3791 1378 4153 
Q 1638 4516 1984 4788 
Q 1984 4800 2016 4800 
L 2075 4800 
Q 2094 4800 2109 4783 
Q 2125 4766 2125 4744 
Q 2125 4716 2113 4703 
Q 1800 4397 1592 4047 
Q 1384 3697 1257 3301 
Q 1131 2906 1075 2482 
Q 1019 2059 1019 1600 
Q 1019 -434 2106 -1491 
Q 2125 -1509 2125 -1544 
Q 2125 -1559 2108 -1579 
Q 2091 -1600 2075 -1600 
L 2016 -1600 
Q 1984 -1600 1984 -1588 
z
" transform="scale(0.015625)"/>
      <path id="Cmmi10-b5" d="M 1031 -72 
Q 741 -72 566 140 
Q 391 353 323 653 
Q 256 953 256 1247 
L 256 1253 
Q 256 1572 317 1915 
Q 378 2259 493 2601 
Q 609 2944 744 3213 
Q 838 3400 986 3631 
Q 1134 3863 1317 4064 
Q 1500 4266 1711 4389 
Q 1922 4513 2138 4513 
L 2144 4513 
Q 2375 4513 2529 4384 
Q 2684 4256 2770 4056 
Q 2856 3856 2890 3628 
Q 2925 3400 2925 3194 
Q 2925 2709 2794 2204 
Q 2663 1700 2431 1228 
Q 2344 1050 2189 809 
Q 2034 569 1861 378 
Q 1688 188 1472 58 
Q 1256 -72 1038 -72 
L 1031 -72 
z
M 1044 97 
Q 1256 97 1451 323 
Q 1647 550 1794 873 
Q 1941 1197 2052 1536 
Q 2163 1875 2216 2113 
L 909 2113 
Q 809 1709 753 1417 
Q 697 1125 697 844 
Q 697 97 1044 97 
z
M 959 2338 
L 2272 2338 
Q 2341 2619 2381 2808 
Q 2422 2997 2450 3206 
Q 2478 3416 2478 3597 
Q 2478 4347 2138 4347 
Q 1731 4347 1436 3692 
Q 1141 3038 959 2338 
z
" transform="scale(0.015625)"/>
      <path id="Cmmi10-45" d="M 300 0 
Q 238 0 238 84 
Q 241 100 250 139 
Q 259 178 276 201 
Q 294 225 319 225 
Q 709 225 863 269 
Q 947 297 984 441 
L 1863 3956 
Q 1875 4019 1875 4044 
Q 1875 4113 1797 4122 
Q 1678 4147 1338 4147 
Q 1275 4147 1275 4231 
Q 1278 4247 1287 4286 
Q 1297 4325 1314 4348 
Q 1331 4372 1356 4372 
L 4825 4372 
Q 4891 4372 4891 4288 
L 4738 2963 
Q 4738 2947 4714 2926 
Q 4691 2906 4672 2906 
L 4616 2906 
Q 4550 2906 4550 2988 
Q 4588 3300 4588 3450 
Q 4588 3706 4500 3848 
Q 4413 3991 4267 4053 
Q 4122 4116 3945 4131 
Q 3769 4147 3481 4147 
L 2753 4147 
Q 2578 4147 2522 4117 
Q 2466 4088 2419 3928 
L 2034 2381 
L 2534 2381 
Q 2859 2381 3025 2426 
Q 3191 2472 3287 2615 
Q 3384 2759 3463 3072 
Q 3469 3094 3486 3111 
Q 3503 3128 3525 3128 
L 3584 3128 
Q 3647 3128 3647 3047 
L 3250 1466 
Q 3238 1409 3188 1409 
L 3128 1409 
Q 3066 1409 3066 1491 
Q 3128 1747 3128 1869 
Q 3128 2056 2959 2106 
Q 2791 2156 2509 2156 
L 1978 2156 
L 1544 416 
Q 1516 338 1516 275 
Q 1516 225 1734 225 
L 2509 225 
Q 2972 225 3259 297 
Q 3547 369 3736 526 
Q 3925 684 4062 928 
Q 4200 1172 4397 1638 
Q 4409 1678 4453 1678 
L 4513 1678 
Q 4538 1678 4556 1656 
Q 4575 1634 4575 1606 
Q 4575 1594 4569 1581 
L 3909 38 
Q 3897 0 3859 0 
L 300 0 
z
" transform="scale(0.015625)"/>
      <path id="Cmr10-29" d="M 416 -1600 
Q 359 -1600 359 -1544 
Q 359 -1516 372 -1503 
Q 1466 -434 1466 1600 
Q 1466 3634 384 4691 
Q 359 4706 359 4744 
Q 359 4766 376 4783 
Q 394 4800 416 4800 
L 475 4800 
Q 494 4800 506 4788 
Q 966 4425 1272 3906 
Q 1578 3388 1720 2800 
Q 1863 2213 1863 1600 
Q 1863 1147 1786 708 
Q 1709 269 1542 -157 
Q 1375 -584 1119 -945 
Q 863 -1306 506 -1588 
Q 494 -1600 475 -1600 
L 416 -1600 
z
" transform="scale(0.015625)"/>
     </defs>
     <use xlink:href="#Cmmi10-52"/>
     <use xlink:href="#Cmmi10-79" transform="translate(75.878906 -17.00625) scale(0.7)"/>
     <use xlink:href="#Cmr10-28" transform="translate(116.572656 0)"/>
     <use xlink:href="#Cmmi10-b5" transform="translate(155.391016 0)"/>
     <use xlink:href="#Cmmi10-45" transform="translate(202.314844 -17.00625) scale(0.7)"/>
     <use xlink:href="#Cmr10-29" transform="translate(260.337695 0)"/>
    </g>
   </g>
   <g id="line2d_7">
    <path d="M 217.445781 93.53005 
L 217.2813 93.274261 
L 217.104413 93.027662 
L 216.91559 92.790908 
L 216.715333 92.564628 
L 216.504174 92.349423 
L 216.282674 92.145865 
L 216.051421 91.954495 
L 215.811031 91.775822 
L 215.562141 91.61032 
L 215.305414 91.458429 
L 215.041531 91.320552 
L 214.771194 91.197057 
L 214.495121 91.08827 
L 214.214045 90.994482 
L 213.928714 90.915942 
L 213.639886 90.852857 
L 213.348328 90.805397 
L 213.054815 90.773686 
L 212.760126 90.75781 
L 212.465046 90.75781 
L 212.170358 90.773686 
L 211.876845 90.805397 
L 211.585286 90.852857 
L 211.296458 90.915942 
L 211.011127 90.994482 
L 210.730051 91.08827 
L 210.453978 91.197057 
L 210.183641 91.320552 
L 209.919758 91.458429 
L 209.663031 91.61032 
L 209.414141 91.775822 
L 209.173751 91.954495 
L 208.942498 92.145865 
L 208.720998 92.349423 
L 208.509839 92.564628 
L 208.309582 92.790908 
L 208.120759 93.027662 
L 207.943872 93.274261 
L 207.779391 93.53005 
" clip-path="url(#pc46540c46e)" style="fill: none; stroke: #1a1a1a; stroke-width: 0.9; stroke-linecap: square"/>
   </g>
   <g id="patch_15">
    <path d="M 213.670604 95.033039 
Q 214.801111 93.217112 215.931618 91.401185 
" style="fill: none; stroke: #1a1a1a; stroke-width: 0.9; stroke-linecap: round"/>
   </g>
   <g id="text_14">
    <!-- $R_y(\!-\theta_E)$ -->
    <g transform="translate(228.681379 95.28839) scale(0.08 -0.08)">
     <defs>
      <path id="Cmsy10-a1" d="M 653 1472 
Q 600 1472 565 1512 
Q 531 1553 531 1600 
Q 531 1647 565 1687 
Q 600 1728 653 1728 
L 4325 1728 
Q 4375 1728 4408 1687 
Q 4441 1647 4441 1600 
Q 4441 1553 4408 1512 
Q 4375 1472 4325 1472 
L 653 1472 
z
" transform="scale(0.015625)"/>
     </defs>
     <use xlink:href="#Cmmi10-52"/>
     <use xlink:href="#Cmmi10-79" transform="translate(75.878906 -17.00625) scale(0.7)"/>
     <use xlink:href="#Cmr10-28" transform="translate(116.572656 0)"/>
     <use xlink:href="#Cmsy10-a1" transform="translate(158.317155 0)"/>
     <use xlink:href="#Cmmi10-b5" transform="translate(253.561296 0)"/>
     <use xlink:href="#Cmmi10-45" transform="translate(300.485124 -17.00625) scale(0.7)"/>
     <use xlink:href="#Cmr10-29" transform="translate(358.507976 0)"/>
    </g>
   </g>
   <g id="text_15">
    <!-- $R_y(a)$ -->
    <g transform="translate(291.346983 46.175988) scale(0.085 -0.085)">
     <defs>
      <path id="Cmmi10-61" d="M 1113 -72 
Q 709 -72 476 233 
Q 244 538 244 953 
Q 244 1363 456 1803 
Q 669 2244 1030 2536 
Q 1391 2828 1806 2828 
Q 1997 2828 2147 2725 
Q 2297 2622 2381 2444 
Q 2453 2700 2663 2700 
Q 2744 2700 2798 2651 
Q 2853 2603 2853 2522 
Q 2853 2503 2851 2493 
Q 2850 2484 2847 2472 
L 2400 684 
Q 2356 494 2356 372 
Q 2356 97 2541 97 
Q 2741 97 2845 351 
Q 2950 606 3022 941 
Q 3034 978 3072 978 
L 3150 978 
Q 3175 978 3190 956 
Q 3206 934 3206 916 
Q 3094 469 2961 198 
Q 2828 -72 2528 -72 
Q 2313 -72 2147 54 
Q 1981 181 1941 391 
Q 1528 -72 1113 -72 
z
M 1119 97 
Q 1350 97 1567 270 
Q 1784 444 1941 678 
Q 1947 684 1947 697 
L 2291 2088 
L 2297 2106 
Q 2259 2334 2132 2498 
Q 2006 2663 1791 2663 
Q 1575 2663 1389 2486 
Q 1203 2309 1075 2069 
Q 950 1813 836 1366 
Q 722 919 722 672 
Q 722 450 817 273 
Q 913 97 1119 97 
z
" transform="scale(0.015625)"/>
     </defs>
     <use xlink:href="#Cmmi10-52"/>
     <use xlink:href="#Cmmi10-79" transform="translate(75.878906 -17.00625) scale(0.7)"/>
     <use xlink:href="#Cmr10-28" transform="translate(116.572656 0)"/>
     <use xlink:href="#Cmmi10-61" transform="translate(155.391016 0)"/>
     <use xlink:href="#Cmr10-29" transform="translate(208.174219 0)"/>
    </g>
   </g>
   <g id="line2d_8">
    <path d="M 343.717333 44.310147 
L 343.552852 44.054359 
L 343.375965 43.80776 
L 343.187142 43.571006 
L 342.986885 43.344726 
L 342.775726 43.129521 
L 342.554226 42.925963 
L 342.322973 42.734593 
L 342.082583 42.555919 
L 341.833693 42.390417 
L 341.576966 42.238526 
L 341.313083 42.10065 
L 341.042746 41.977154 
L 340.766673 41.868368 
L 340.485597 41.77458 
L 340.200266 41.696039 
L 339.911438 41.632955 
L 339.61988 41.585494 
L 339.326366 41.553784 
L 339.031678 41.537907 
L 338.736598 41.537907 
L 338.441909 41.553784 
L 338.148396 41.585494 
L 337.856838 41.632955 
L 337.56801 41.696039 
L 337.282679 41.77458 
L 337.001603 41.868368 
L 336.72553 41.977154 
L 336.455193 42.10065 
L 336.19131 42.238526 
L 335.934583 42.390417 
L 335.685693 42.555919 
L 335.445303 42.734593 
L 335.21405 42.925963 
L 334.99255 43.129521 
L 334.781391 43.344726 
L 334.581134 43.571006 
L 334.392311 43.80776 
L 334.215424 44.054359 
L 334.050943 44.310147 
" clip-path="url(#pc46540c46e)" style="fill: none; stroke: #1a1a1a; stroke-width: 0.9; stroke-linecap: square"/>
   </g>
   <g id="patch_16">
    <path d="M 339.942155 45.813137 
Q 341.072663 43.99721 342.20317 42.181282 
" style="fill: none; stroke: #1a1a1a; stroke-width: 0.9; stroke-linecap: round"/>
   </g>
   <g id="text_16">
    <!-- $R_y(b)$ -->
    <g transform="translate(291.729483 95.39589) scale(0.085 -0.085)">
     <defs>
      <path id="Cmmi10-62" d="M 1106 -72 
Q 719 -72 503 231 
Q 288 534 288 941 
Q 288 1000 317 1173 
Q 347 1347 347 1388 
L 966 3872 
Q 991 3981 997 4044 
Q 997 4147 581 4147 
Q 519 4147 519 4231 
Q 522 4247 533 4287 
Q 544 4328 561 4350 
Q 578 4372 609 4372 
L 1472 4441 
Q 1550 4441 1550 4359 
L 1075 2472 
Q 1438 2828 1806 2828 
Q 2078 2828 2273 2684 
Q 2469 2541 2566 2306 
Q 2663 2072 2663 1806 
Q 2663 1497 2542 1167 
Q 2422 838 2209 555 
Q 1997 272 1712 100 
Q 1428 -72 1106 -72 
z
M 1119 97 
Q 1338 97 1528 280 
Q 1719 463 1838 691 
Q 1966 947 2077 1386 
Q 2188 1825 2188 2088 
Q 2188 2316 2092 2489 
Q 1997 2663 1791 2663 
Q 1559 2663 1348 2492 
Q 1138 2322 978 2088 
L 800 1363 
Q 697 959 691 716 
Q 691 475 795 286 
Q 900 97 1119 97 
z
" transform="scale(0.015625)"/>
     </defs>
     <use xlink:href="#Cmmi10-52"/>
     <use xlink:href="#Cmmi10-79" transform="translate(75.878906 -17.00625) scale(0.7)"/>
     <use xlink:href="#Cmr10-28" transform="translate(116.572656 0)"/>
     <use xlink:href="#Cmmi10-62" transform="translate(155.391016 0)"/>
     <use xlink:href="#Cmr10-29" transform="translate(198.310937 0)"/>
    </g>
   </g>
   <g id="line2d_9">
    <path d="M 343.717333 93.53005 
L 343.552852 93.274261 
L 343.375965 93.027662 
L 343.187142 92.790908 
L 342.986885 92.564628 
L 342.775726 92.349423 
L 342.554226 92.145865 
L 342.322973 91.954495 
L 342.082583 91.775822 
L 341.833693 91.61032 
L 341.576966 91.458429 
L 341.313083 91.320552 
L 341.042746 91.197057 
L 340.766673 91.08827 
L 340.485597 90.994482 
L 340.200266 90.915942 
L 339.911438 90.852857 
L 339.61988 90.805397 
L 339.326366 90.773686 
L 339.031678 90.75781 
L 338.736598 90.75781 
L 338.441909 90.773686 
L 338.148396 90.805397 
L 337.856838 90.852857 
L 337.56801 90.915942 
L 337.282679 90.994482 
L 337.001603 91.08827 
L 336.72553 91.197057 
L 336.455193 91.320552 
L 336.19131 91.458429 
L 335.934583 91.61032 
L 335.685693 91.775822 
L 335.445303 91.954495 
L 335.21405 92.145865 
L 334.99255 92.349423 
L 334.781391 92.564628 
L 334.581134 92.790908 
L 334.392311 93.027662 
L 334.215424 93.274261 
L 334.050943 93.53005 
" clip-path="url(#pc46540c46e)" style="fill: none; stroke: #1a1a1a; stroke-width: 0.9; stroke-linecap: square"/>
   </g>
   <g id="patch_17">
    <path d="M 339.942155 95.033039 
Q 341.072663 93.217112 342.20317 91.401185 
" style="fill: none; stroke: #1a1a1a; stroke-width: 0.9; stroke-linecap: round"/>
   </g>
   <g id="line2d_10">
    <path d="M 76.912759 93.56839 
L 89.034828 93.56839 
" clip-path="url(#pc46540c46e)" style="fill: none; stroke: #1a1a1a; stroke-linecap: square"/>
   </g>
   <g id="line2d_11">
    <path d="M 82.973793 99.896663 
L 82.973793 87.240117 
" clip-path="url(#pc46540c46e)" style="fill: none; stroke: #1a1a1a; stroke-linecap: square"/>
   </g>
  </g>
 </g>
 <defs>
  <clipPath id="pc46540c46e">
   <rect x="2.16" y="2.16" width="390.6" height="144.144"/>
  </clipPath>
 </defs>
</svg>
