<?xml version="1.0" encoding="utf-8" standalone="no"?>
<!DOCTYPE svg PUBLIC "-//W3C//DTD SVG 1.1//EN"
  "http://www.w3.org/Graphics/SVG/1.1/DTD/svg11.dtd">
<svg xmlns:xlink="http://www.w3.org/1999/xlink" width="239.542266pt" height="323.157266pt" viewBox="0 0 239.542266 323.157266" xmlns="http://www.w3.org/2000/svg" version="1.1">
 <metadata>
  <rdf:RDF xmlns:dc="http://purl.org/dc/elements/1.1/" xmlns:cc="http://creativecommons.org/ns#" xmlns:rdf="http://www.w3.org/1999/02/22-rdf-syntax-ns#">
   <cc:Work>
    <dc:type rdf:resource="http://purl.org/dc/dcmitype/StillImage"/>
    <dc:date>2026-07-19T15:19:13.138252</dc:date>
    <dc:format>image/svg+xml</dc:format>
    <dc:creator>
     <cc:Agent>
      <dc:title>Matplotlib v3.10.9, https://matplotlib.org/</dc:title>
     </cc:Agent>
    </dc:creator>
   </cc:Work>
  </rdf:RDF>
 </metadata>
 <defs>
  <style type="text/css">*{stroke-linejoin: round; stroke-linecap: butt}</style>
 </defs>
 <g id="figure_1">
  <g id="patch_1">
   <path d="M 0 323.157266 
L 239.542266 323.157266 
L 239.542266 -0 
L 0 -0 
z
" style="fill: #ffffff"/>
  </g>
  <g id="axes_1">
   <g id="patch_2">
    <path d="M 32.943594 142.128672 
L 231.418594 142.128672 
L 231.418594 14.618672 
L 32.943594 14.618672 
z
" style="fill: #ffffff"/>
   </g>
   <g id="FillBetweenPolyCollection_1">
    <defs>
     <path id="meba6b68957" d="M 52.791094 -299.511337 
L 52.791094 -299.511337 
L 72.638594 -299.511337 
L 92.486094 -299.511337 
L 112.333594 -295.901381 
L 132.181094 -270.633672 
L 152.028594 -203.942375 
L 171.876094 -186.670629 
L 191.723594 -186.670629 
L 211.571094 -186.670629 
L 231.418594 -186.670629 
L 231.418594 -186.670629 
L 231.418594 -186.670629 
L 211.571094 -186.670629 
L 191.723594 -186.670629 
L 171.876094 -189.368511 
L 152.028594 -216.791981 
L 132.181094 -283.25272 
L 112.333594 -299.511337 
L 92.486094 -299.511337 
L 72.638594 -299.511337 
L 52.791094 -299.511337 
z
"/>
    </defs>
    <g clip-path="url(#p39812a8fa5)">
     <use xlink:href="#meba6b68957" x="0" y="323.157266" style="fill: #2c6fbb; fill-opacity: 0.15"/>
    </g>
   </g>
   <g id="FillBetweenPolyCollection_2">
    <defs>
     <path id="me4e36af348" d="M 52.791094 -299.511337 
L 52.791094 -299.511337 
L 72.638594 -299.511337 
L 92.486094 -299.511337 
L 112.333594 -291.906686 
L 132.181094 -235.768676 
L 152.028594 -188.478485 
L 171.876094 -186.670629 
L 191.723594 -186.670629 
L 211.571094 -186.670629 
L 231.418594 -186.670629 
L 231.418594 -186.670629 
L 231.418594 -186.670629 
L 211.571094 -186.670629 
L 191.723594 -186.670629 
L 171.876094 -186.670629 
L 152.028594 -195.018437 
L 132.181094 -251.541697 
L 112.333594 -298.088732 
L 92.486094 -299.511337 
L 72.638594 -299.511337 
L 52.791094 -299.511337 
z
"/>
    </defs>
    <g clip-path="url(#p39812a8fa5)">
     <use xlink:href="#me4e36af348" x="0" y="323.157266" style="fill: #3a8a5f; fill-opacity: 0.15"/>
    </g>
   </g>
   <g id="FillBetweenPolyCollection_3">
    <defs>
     <path id="m36ea565a64" d="M 52.791094 -299.511337 
L 52.791094 -299.511337 
L 72.638594 -299.511337 
L 92.486094 -299.511337 
L 112.333594 -299.511337 
L 132.181094 -239.742985 
L 152.028594 -186.71911 
L 171.876094 -186.670629 
L 191.723594 -186.670629 
L 211.571094 -186.670629 
L 231.418594 -186.670629 
L 231.418594 -186.670629 
L 231.418594 -186.670629 
L 211.571094 -186.670629 
L 191.723594 -186.670629 
L 171.876094 -186.670629 
L 152.028594 -191.135777 
L 132.181094 -255.466238 
L 112.333594 -299.511337 
L 92.486094 -299.511337 
L 72.638594 -299.511337 
L 52.791094 -299.511337 
z
"/>
    </defs>
    <g clip-path="url(#p39812a8fa5)">
     <use xlink:href="#m36ea565a64" x="0" y="323.157266" style="fill: #9a6db0; fill-opacity: 0.15"/>
    </g>
   </g>
   <g id="patch_3">
    <path d="M 32.943594 142.128672 
L 92.486094 142.128672 
L 92.486094 14.618672 
L 32.943594 14.618672 
z
" clip-path="url(#p39812a8fa5)" style="fill: #777777; opacity: 0.1"/>
   </g>
   <g id="matplotlib.axis_1">
    <g id="xtick_1">
     <g id="line2d_1">
      <defs>
       <path id="mbafceb3356" d="M 0 0 
L 0 3.5 
" style="stroke: #000000; stroke-width: 0.8"/>
      </defs>
      <g>
       <use xlink:href="#mbafceb3356" x="32.943594" y="142.128672" style="stroke: #000000; stroke-width: 0.8"/>
      </g>
     </g>
    </g>
    <g id="xtick_2">
     <g id="line2d_2">
      <g>
       <use xlink:href="#mbafceb3356" x="72.638594" y="142.128672" style="stroke: #000000; stroke-width: 0.8"/>
      </g>
     </g>
    </g>
    <g id="xtick_3">
     <g id="line2d_3">
      <g>
       <use xlink:href="#mbafceb3356" x="112.333594" y="142.128672" style="stroke: #000000; stroke-width: 0.8"/>
      </g>
     </g>
    </g>
    <g id="xtick_4">
     <g id="line2d_4">
      <g>
       <use xlink:href="#mbafceb3356" x="152.028594" y="142.128672" style="stroke: #000000; stroke-width: 0.8"/>
      </g>
     </g>
    </g>
    <g id="xtick_5">
     <g id="line2d_5">
      <g>
       <use xlink:href="#mbafceb3356" x="191.723594" y="142.128672" style="stroke: #000000; stroke-width: 0.8"/>
      </g>
     </g>
    </g>
    <g id="xtick_6">
     <g id="line2d_6">
      <g>
       <use xlink:href="#mbafceb3356" x="231.418594" y="142.128672" style="stroke: #000000; stroke-width: 0.8"/>
      </g>
     </g>
    </g>
   </g>
   <g id="matplotlib.axis_2">
    <g id="ytick_1">
     <g id="line2d_7">
      <defs>
       <path id="m6d4bf7aef9" d="M 0 0 
L -3.5 0 
" style="stroke: #000000; stroke-width: 0.8"/>
      </defs>
      <g>
       <use xlink:href="#m6d4bf7aef9" x="32.943594" y="136.486636" style="stroke: #000000; stroke-width: 0.8"/>
      </g>
     </g>
     <g id="text_1">
      <!-- 0.0 -->
      <g transform="translate(14.01625 139.336051) scale(0.075 -0.075)">
       <defs>
        <path id="DejaVuSerif-30" d="M 2034 219 
Q 2513 219 2750 744 
Q 2988 1269 2988 2328 
Q 2988 3391 2750 3916 
Q 2513 4441 2034 4441 
Q 1556 4441 1318 3916 
Q 1081 3391 1081 2328 
Q 1081 1269 1318 744 
Q 1556 219 2034 219 
z
M 2034 -91 
Q 1275 -91 848 546 
Q 422 1184 422 2328 
Q 422 3475 848 4112 
Q 1275 4750 2034 4750 
Q 2797 4750 3222 4112 
Q 3647 3475 3647 2328 
Q 3647 1184 3222 546 
Q 2797 -91 2034 -91 
z
" transform="scale(0.015625)"/>
        <path id="DejaVuSerif-2e" d="M 603 325 
Q 603 500 722 622 
Q 841 744 1019 744 
Q 1191 744 1312 622 
Q 1434 500 1434 325 
Q 1434 153 1312 31 
Q 1191 -91 1019 -91 
Q 841 -91 722 29 
Q 603 150 603 325 
z
" transform="scale(0.015625)"/>
       </defs>
       <use xlink:href="#DejaVuSerif-30"/>
       <use xlink:href="#DejaVuSerif-2e" transform="translate(63.623047 0)"/>
       <use xlink:href="#DejaVuSerif-30" transform="translate(95.410156 0)"/>
      </g>
     </g>
    </g>
    <g id="ytick_2">
     <g id="line2d_8">
      <g>
       <use xlink:href="#m6d4bf7aef9" x="32.943594" y="113.918495" style="stroke: #000000; stroke-width: 0.8"/>
      </g>
     </g>
     <g id="text_2">
      <!-- 0.2 -->
      <g transform="translate(14.01625 116.767909) scale(0.075 -0.075)">
       <defs>
        <path id="DejaVuSerif-32" d="M 819 3553 
L 469 3553 
L 469 4384 
Q 803 4563 1142 4656 
Q 1481 4750 1806 4750 
Q 2534 4750 2956 4397 
Q 3378 4044 3378 3438 
Q 3378 2753 2422 1800 
Q 2347 1728 2309 1691 
L 1131 513 
L 3078 513 
L 3078 1088 
L 3444 1088 
L 3444 0 
L 434 0 
L 434 341 
L 1850 1753 
Q 2319 2222 2519 2614 
Q 2719 3006 2719 3438 
Q 2719 3909 2473 4175 
Q 2228 4441 1797 4441 
Q 1350 4441 1106 4219 
Q 863 3997 819 3553 
z
" transform="scale(0.015625)"/>
       </defs>
       <use xlink:href="#DejaVuSerif-30"/>
       <use xlink:href="#DejaVuSerif-2e" transform="translate(63.623047 0)"/>
       <use xlink:href="#DejaVuSerif-32" transform="translate(95.410156 0)"/>
      </g>
     </g>
    </g>
    <g id="ytick_3">
     <g id="line2d_9">
      <g>
       <use xlink:href="#m6d4bf7aef9" x="32.943594" y="91.350353" style="stroke: #000000; stroke-width: 0.8"/>
      </g>
     </g>
     <g id="text_3">
      <!-- 0.4 -->
      <g transform="translate(14.01625 94.199767) scale(0.075 -0.075)">
       <defs>
        <path id="DejaVuSerif-34" d="M 2234 1581 
L 2234 4063 
L 641 1581 
L 2234 1581 
z
M 3609 0 
L 1484 0 
L 1484 331 
L 2234 331 
L 2234 1247 
L 197 1247 
L 197 1588 
L 2241 4750 
L 2859 4750 
L 2859 1581 
L 3750 1581 
L 3750 1247 
L 2859 1247 
L 2859 331 
L 3609 331 
L 3609 0 
z
" transform="scale(0.015625)"/>
       </defs>
       <use xlink:href="#DejaVuSerif-30"/>
       <use xlink:href="#DejaVuSerif-2e" transform="translate(63.623047 0)"/>
       <use xlink:href="#DejaVuSerif-34" transform="translate(95.410156 0)"/>
      </g>
     </g>
    </g>
    <g id="ytick_4">
     <g id="line2d_10">
      <g>
       <use xlink:href="#m6d4bf7aef9" x="32.943594" y="68.782212" style="stroke: #000000; stroke-width: 0.8"/>
      </g>
     </g>
     <g id="text_4">
      <!-- 0.6 -->
      <g transform="translate(14.01625 71.631626) scale(0.075 -0.075)">
       <defs>
        <path id="DejaVuSerif-36" d="M 2094 219 
Q 2534 219 2771 542 
Q 3009 866 3009 1472 
Q 3009 2078 2771 2401 
Q 2534 2725 2094 2725 
Q 1647 2725 1412 2412 
Q 1178 2100 1178 1509 
Q 1178 888 1415 553 
Q 1653 219 2094 219 
z
M 1075 2569 
Q 1288 2803 1556 2918 
Q 1825 3034 2163 3034 
Q 2859 3034 3264 2615 
Q 3669 2197 3669 1472 
Q 3669 763 3233 336 
Q 2797 -91 2069 -91 
Q 1278 -91 853 498 
Q 428 1088 428 2181 
Q 428 3406 931 4078 
Q 1434 4750 2350 4750 
Q 2597 4750 2869 4703 
Q 3141 4656 3425 4563 
L 3425 3794 
L 3072 3794 
Q 3034 4109 2831 4275 
Q 2628 4441 2284 4441 
Q 1678 4441 1381 3981 
Q 1084 3522 1075 2569 
z
" transform="scale(0.015625)"/>
       </defs>
       <use xlink:href="#DejaVuSerif-30"/>
       <use xlink:href="#DejaVuSerif-2e" transform="translate(63.623047 0)"/>
       <use xlink:href="#DejaVuSerif-36" transform="translate(95.410156 0)"/>
      </g>
     </g>
    </g>
    <g id="ytick_5">
     <g id="line2d_11">
      <g>
       <use xlink:href="#m6d4bf7aef9" x="32.943594" y="46.21407" style="stroke: #000000; stroke-width: 0.8"/>
      </g>
     </g>
     <g id="text_5">
      <!-- 0.8 -->
      <g transform="translate(14.01625 49.063484) scale(0.075 -0.075)">
       <defs>
        <path id="DejaVuSerif-38" d="M 2981 1275 
Q 2981 1775 2732 2051 
Q 2484 2328 2034 2328 
Q 1584 2328 1336 2051 
Q 1088 1775 1088 1275 
Q 1088 772 1336 495 
Q 1584 219 2034 219 
Q 2484 219 2732 495 
Q 2981 772 2981 1275 
z
M 2853 3541 
Q 2853 3966 2637 4203 
Q 2422 4441 2034 4441 
Q 1650 4441 1433 4203 
Q 1216 3966 1216 3541 
Q 1216 3113 1433 2875 
Q 1650 2638 2034 2638 
Q 2422 2638 2637 2875 
Q 2853 3113 2853 3541 
z
M 2516 2484 
Q 3047 2413 3344 2092 
Q 3641 1772 3641 1275 
Q 3641 619 3225 264 
Q 2809 -91 2034 -91 
Q 1263 -91 845 264 
Q 428 619 428 1275 
Q 428 1772 725 2092 
Q 1022 2413 1556 2484 
Q 1084 2569 832 2842 
Q 581 3116 581 3541 
Q 581 4103 968 4426 
Q 1356 4750 2034 4750 
Q 2713 4750 3100 4426 
Q 3488 4103 3488 3541 
Q 3488 3116 3236 2842 
Q 2984 2569 2516 2484 
z
" transform="scale(0.015625)"/>
       </defs>
       <use xlink:href="#DejaVuSerif-30"/>
       <use xlink:href="#DejaVuSerif-2e" transform="translate(63.623047 0)"/>
       <use xlink:href="#DejaVuSerif-38" transform="translate(95.410156 0)"/>
      </g>
     </g>
    </g>
    <g id="ytick_6">
     <g id="line2d_12">
      <g>
       <use xlink:href="#m6d4bf7aef9" x="32.943594" y="23.645929" style="stroke: #000000; stroke-width: 0.8"/>
      </g>
     </g>
     <g id="text_6">
      <!-- 1.0 -->
      <g transform="translate(14.01625 26.495343) scale(0.075 -0.075)">
       <defs>
        <path id="DejaVuSerif-31" d="M 909 0 
L 909 331 
L 1722 331 
L 1722 4213 
L 781 3603 
L 781 4013 
L 1919 4750 
L 2350 4750 
L 2350 331 
L 3163 331 
L 3163 0 
L 909 0 
z
" transform="scale(0.015625)"/>
       </defs>
       <use xlink:href="#DejaVuSerif-31"/>
       <use xlink:href="#DejaVuSerif-2e" transform="translate(63.623047 0)"/>
       <use xlink:href="#DejaVuSerif-30" transform="translate(95.410156 0)"/>
      </g>
     </g>
    </g>
    <g id="text_7">
     <!-- FNR (missed detection) -->
     <g transform="translate(8.3525 126.444922) rotate(-90) scale(0.08 -0.08)">
      <defs>
       <path id="DejaVuSerif-46" d="M 353 0 
L 353 331 
L 947 331 
L 947 4331 
L 353 4331 
L 353 4666 
L 4172 4666 
L 4172 3628 
L 3788 3628 
L 3788 4281 
L 1581 4281 
L 1581 2719 
L 3175 2719 
L 3175 3303 
L 3559 3303 
L 3559 1753 
L 3175 1753 
L 3175 2338 
L 1581 2338 
L 1581 331 
L 2328 331 
L 2328 0 
L 353 0 
z
" transform="scale(0.015625)"/>
       <path id="DejaVuSerif-4e" d="M 313 0 
L 313 331 
L 941 331 
L 941 4331 
L 313 4331 
L 313 4666 
L 1509 4666 
L 4306 984 
L 4306 4331 
L 3681 4331 
L 3681 4666 
L 5319 4666 
L 5319 4331 
L 4691 4331 
L 4691 -91 
L 4313 -91 
L 1325 3841 
L 1325 331 
L 1953 331 
L 1953 0 
L 313 0 
z
" transform="scale(0.015625)"/>
       <path id="DejaVuSerif-52" d="M 3066 2316 
Q 3284 2256 3442 2114 
Q 3600 1972 3725 1716 
L 4403 331 
L 4972 331 
L 4972 0 
L 3872 0 
L 3144 1484 
Q 2934 1916 2759 2042 
Q 2584 2169 2278 2169 
L 1581 2169 
L 1581 331 
L 2241 331 
L 2241 0 
L 353 0 
L 353 331 
L 947 331 
L 947 4331 
L 353 4331 
L 353 4666 
L 2719 4666 
Q 3400 4666 3770 4341 
Q 4141 4016 4141 3419 
Q 4141 2938 3870 2661 
Q 3600 2384 3066 2316 
z
M 1581 2503 
L 2503 2503 
Q 2975 2503 3200 2726 
Q 3425 2950 3425 3419 
Q 3425 3888 3200 4109 
Q 2975 4331 2503 4331 
L 1581 4331 
L 1581 2503 
z
" transform="scale(0.015625)"/>
       <path id="DejaVuSerif-20" transform="scale(0.015625)"/>
       <path id="DejaVuSerif-28" d="M 2041 -997 
Q 1281 -656 893 83 
Q 506 822 506 1931 
Q 506 3044 893 3783 
Q 1281 4522 2041 4863 
L 2041 4556 
Q 1559 4225 1350 3623 
Q 1141 3022 1141 1931 
Q 1141 844 1350 242 
Q 1559 -359 2041 -691 
L 2041 -997 
z
" transform="scale(0.015625)"/>
       <path id="DejaVuSerif-6d" d="M 3316 2675 
Q 3481 3041 3739 3227 
Q 3997 3413 4341 3413 
Q 4863 3413 5119 3089 
Q 5375 2766 5375 2113 
L 5375 331 
L 5894 331 
L 5894 0 
L 4300 0 
L 4300 331 
L 4800 331 
L 4800 2047 
Q 4800 2556 4650 2772 
Q 4500 2988 4153 2988 
Q 3769 2988 3567 2697 
Q 3366 2406 3366 1850 
L 3366 331 
L 3866 331 
L 3866 0 
L 2291 0 
L 2291 331 
L 2791 331 
L 2791 2069 
Q 2791 2566 2641 2777 
Q 2491 2988 2144 2988 
Q 1759 2988 1557 2697 
Q 1356 2406 1356 1850 
L 1356 331 
L 1856 331 
L 1856 0 
L 263 0 
L 263 331 
L 781 331 
L 781 2994 
L 231 2994 
L 231 3322 
L 1356 3322 
L 1356 2731 
Q 1516 3063 1762 3238 
Q 2009 3413 2322 3413 
Q 2709 3413 2968 3220 
Q 3228 3028 3316 2675 
z
" transform="scale(0.015625)"/>
       <path id="DejaVuSerif-69" d="M 622 4353 
Q 622 4497 726 4603 
Q 831 4709 978 4709 
Q 1122 4709 1226 4603 
Q 1331 4497 1331 4353 
Q 1331 4206 1228 4103 
Q 1125 4000 978 4000 
Q 831 4000 726 4103 
Q 622 4206 622 4353 
z
M 1356 331 
L 1900 331 
L 1900 0 
L 231 0 
L 231 331 
L 781 331 
L 781 2988 
L 231 2988 
L 231 3322 
L 1356 3322 
L 1356 331 
z
" transform="scale(0.015625)"/>
       <path id="DejaVuSerif-73" d="M 359 184 
L 359 959 
L 691 959 
Q 703 588 923 403 
Q 1144 219 1575 219 
Q 1963 219 2166 364 
Q 2369 509 2369 788 
Q 2369 1006 2220 1140 
Q 2072 1275 1594 1428 
L 1178 1569 
Q 750 1706 558 1912 
Q 366 2119 366 2438 
Q 366 2894 700 3153 
Q 1034 3413 1625 3413 
Q 1888 3413 2178 3344 
Q 2469 3275 2778 3144 
L 2778 2419 
L 2447 2419 
Q 2434 2741 2221 2922 
Q 2009 3103 1644 3103 
Q 1281 3103 1095 2975 
Q 909 2847 909 2591 
Q 909 2381 1050 2254 
Q 1191 2128 1613 1997 
L 2069 1856 
Q 2541 1709 2748 1489 
Q 2956 1269 2956 922 
Q 2956 450 2595 179 
Q 2234 -91 1600 -91 
Q 1278 -91 972 -22 
Q 666 47 359 184 
z
" transform="scale(0.015625)"/>
       <path id="DejaVuSerif-65" d="M 3469 1600 
L 991 1600 
L 991 1575 
Q 991 903 1244 561 
Q 1497 219 1991 219 
Q 2369 219 2611 417 
Q 2853 616 2950 1006 
L 3413 1006 
Q 3275 459 2904 184 
Q 2534 -91 1931 -91 
Q 1203 -91 761 389 
Q 319 869 319 1663 
Q 319 2450 753 2931 
Q 1188 3413 1894 3413 
Q 2647 3413 3050 2948 
Q 3453 2484 3469 1600 
z
M 2791 1931 
Q 2772 2513 2545 2808 
Q 2319 3103 1894 3103 
Q 1497 3103 1269 2806 
Q 1041 2509 991 1931 
L 2791 1931 
z
" transform="scale(0.015625)"/>
       <path id="DejaVuSerif-64" d="M 3359 331 
L 3909 331 
L 3909 0 
L 2784 0 
L 2784 519 
Q 2616 206 2355 57 
Q 2094 -91 1709 -91 
Q 1097 -91 708 395 
Q 319 881 319 1663 
Q 319 2444 706 2928 
Q 1094 3413 1709 3413 
Q 2094 3413 2355 3264 
Q 2616 3116 2784 2803 
L 2784 4531 
L 2241 4531 
L 2241 4863 
L 3359 4863 
L 3359 331 
z
M 2784 1497 
L 2784 1825 
Q 2784 2422 2554 2737 
Q 2325 3053 1888 3053 
Q 1444 3053 1217 2703 
Q 991 2353 991 1663 
Q 991 975 1217 622 
Q 1444 269 1888 269 
Q 2325 269 2554 583 
Q 2784 897 2784 1497 
z
" transform="scale(0.015625)"/>
       <path id="DejaVuSerif-74" d="M 691 2988 
L 184 2988 
L 184 3322 
L 691 3322 
L 691 4353 
L 1269 4353 
L 1269 3322 
L 2350 3322 
L 2350 2988 
L 1269 2988 
L 1269 878 
Q 1269 456 1350 337 
Q 1431 219 1650 219 
Q 1875 219 1978 351 
Q 2081 484 2088 781 
L 2522 781 
Q 2497 328 2275 118 
Q 2053 -91 1600 -91 
Q 1103 -91 897 129 
Q 691 350 691 878 
L 691 2988 
z
" transform="scale(0.015625)"/>
       <path id="DejaVuSerif-63" d="M 3291 997 
Q 3169 466 2822 187 
Q 2475 -91 1925 -91 
Q 1200 -91 759 389 
Q 319 869 319 1663 
Q 319 2459 759 2936 
Q 1200 3413 1925 3413 
Q 2241 3413 2553 3339 
Q 2866 3266 3181 3116 
L 3181 2266 
L 2847 2266 
Q 2781 2703 2561 2903 
Q 2341 3103 1931 3103 
Q 1466 3103 1228 2742 
Q 991 2381 991 1663 
Q 991 944 1227 581 
Q 1463 219 1931 219 
Q 2303 219 2525 412 
Q 2747 606 2828 997 
L 3291 997 
z
" transform="scale(0.015625)"/>
       <path id="DejaVuSerif-6f" d="M 1925 219 
Q 2388 219 2623 584 
Q 2859 950 2859 1663 
Q 2859 2375 2623 2739 
Q 2388 3103 1925 3103 
Q 1463 3103 1227 2739 
Q 991 2375 991 1663 
Q 991 950 1228 584 
Q 1466 219 1925 219 
z
M 1925 -91 
Q 1200 -91 759 389 
Q 319 869 319 1663 
Q 319 2456 758 2934 
Q 1197 3413 1925 3413 
Q 2653 3413 3092 2934 
Q 3531 2456 3531 1663 
Q 3531 869 3092 389 
Q 2653 -91 1925 -91 
z
" transform="scale(0.015625)"/>
       <path id="DejaVuSerif-6e" d="M 263 0 
L 263 331 
L 781 331 
L 781 2988 
L 231 2988 
L 231 3322 
L 1356 3322 
L 1356 2731 
Q 1516 3069 1770 3241 
Q 2025 3413 2363 3413 
Q 2913 3413 3172 3097 
Q 3431 2781 3431 2113 
L 3431 331 
L 3944 331 
L 3944 0 
L 2356 0 
L 2356 331 
L 2853 331 
L 2853 1931 
Q 2853 2541 2703 2767 
Q 2553 2994 2175 2994 
Q 1775 2994 1565 2701 
Q 1356 2409 1356 1850 
L 1356 331 
L 1856 331 
L 1856 0 
L 263 0 
z
" transform="scale(0.015625)"/>
       <path id="DejaVuSerif-29" d="M 453 -997 
L 453 -691 
Q 934 -359 1145 242 
Q 1356 844 1356 1931 
Q 1356 3022 1145 3623 
Q 934 4225 453 4556 
L 453 4863 
Q 1216 4522 1603 3783 
Q 1991 3044 1991 1931 
Q 1991 822 1603 83 
Q 1216 -656 453 -997 
z
" transform="scale(0.015625)"/>
      </defs>
      <use xlink:href="#DejaVuSerif-46"/>
      <use xlink:href="#DejaVuSerif-4e" transform="translate(69.384766 0)"/>
      <use xlink:href="#DejaVuSerif-52" transform="translate(156.884766 0)"/>
      <use xlink:href="#DejaVuSerif-20" transform="translate(232.177734 0)"/>
      <use xlink:href="#DejaVuSerif-28" transform="translate(263.964844 0)"/>
      <use xlink:href="#DejaVuSerif-6d" transform="translate(302.978516 0)"/>
      <use xlink:href="#DejaVuSerif-69" transform="translate(397.802734 0)"/>
      <use xlink:href="#DejaVuSerif-73" transform="translate(429.785156 0)"/>
      <use xlink:href="#DejaVuSerif-73" transform="translate(481.103516 0)"/>
      <use xlink:href="#DejaVuSerif-65" transform="translate(532.421875 0)"/>
      <use xlink:href="#DejaVuSerif-64" transform="translate(591.601562 0)"/>
      <use xlink:href="#DejaVuSerif-20" transform="translate(655.615234 0)"/>
      <use xlink:href="#DejaVuSerif-64" transform="translate(687.402344 0)"/>
      <use xlink:href="#DejaVuSerif-65" transform="translate(751.416016 0)"/>
      <use xlink:href="#DejaVuSerif-74" transform="translate(810.595703 0)"/>
      <use xlink:href="#DejaVuSerif-65" transform="translate(850.78125 0)"/>
      <use xlink:href="#DejaVuSerif-63" transform="translate(909.960938 0)"/>
      <use xlink:href="#DejaVuSerif-74" transform="translate(965.966797 0)"/>
      <use xlink:href="#DejaVuSerif-69" transform="translate(1006.152344 0)"/>
      <use xlink:href="#DejaVuSerif-6f" transform="translate(1038.134766 0)"/>
      <use xlink:href="#DejaVuSerif-6e" transform="translate(1098.339844 0)"/>
      <use xlink:href="#DejaVuSerif-29" transform="translate(1162.744141 0)"/>
     </g>
    </g>
   </g>
   <g id="line2d_13">
    <path d="M 52.791094 23.645929 
L 72.638594 23.645929 
L 92.486094 23.645929 
L 112.333594 25.338539 
L 132.181094 46.21407 
L 152.028594 112.790088 
L 171.876094 135.358229 
L 191.723594 136.486636 
L 211.571094 136.486636 
L 231.418594 136.486636 
" clip-path="url(#p39812a8fa5)" style="fill: none; stroke: #2c6fbb; stroke-width: 1.4; stroke-linecap: square"/>
    <defs>
     <path id="m08df631de2" d="M 0 1.75 
C 0.464105 1.75 0.909265 1.565609 1.237437 1.237437 
C 1.565609 0.909265 1.75 0.464105 1.75 0 
C 1.75 -0.464105 1.565609 -0.909265 1.237437 -1.237437 
C 0.909265 -1.565609 0.464105 -1.75 0 -1.75 
C -0.464105 -1.75 -0.909265 -1.565609 -1.237437 -1.237437 
C -1.565609 -0.909265 -1.75 -0.464105 -1.75 0 
C -1.75 0.464105 -1.565609 0.909265 -1.237437 1.237437 
C -0.909265 1.565609 -0.464105 1.75 0 1.75 
z
" style="stroke: #2c6fbb"/>
    </defs>
    <g clip-path="url(#p39812a8fa5)">
     <use xlink:href="#m08df631de2" x="52.791094" y="23.645929" style="fill: #2c6fbb; stroke: #2c6fbb"/>
     <use xlink:href="#m08df631de2" x="72.638594" y="23.645929" style="fill: #2c6fbb; stroke: #2c6fbb"/>
     <use xlink:href="#m08df631de2" x="92.486094" y="23.645929" style="fill: #2c6fbb; stroke: #2c6fbb"/>
     <use xlink:href="#m08df631de2" x="112.333594" y="25.338539" style="fill: #2c6fbb; stroke: #2c6fbb"/>
     <use xlink:href="#m08df631de2" x="132.181094" y="46.21407" style="fill: #2c6fbb; stroke: #2c6fbb"/>
     <use xlink:href="#m08df631de2" x="152.028594" y="112.790088" style="fill: #2c6fbb; stroke: #2c6fbb"/>
     <use xlink:href="#m08df631de2" x="171.876094" y="135.358229" style="fill: #2c6fbb; stroke: #2c6fbb"/>
     <use xlink:href="#m08df631de2" x="191.723594" y="136.486636" style="fill: #2c6fbb; stroke: #2c6fbb"/>
     <use xlink:href="#m08df631de2" x="211.571094" y="136.486636" style="fill: #2c6fbb; stroke: #2c6fbb"/>
     <use xlink:href="#m08df631de2" x="231.418594" y="136.486636" style="fill: #2c6fbb; stroke: #2c6fbb"/>
    </g>
   </g>
   <g id="line2d_14">
    <path d="M 52.791094 23.645929 
L 72.638594 23.645929 
L 92.486094 23.645929 
L 112.333594 28.159557 
L 132.181094 79.502079 
L 152.028594 131.408805 
L 171.876094 136.486636 
L 191.723594 136.486636 
L 211.571094 136.486636 
L 231.418594 136.486636 
" clip-path="url(#p39812a8fa5)" style="fill: none; stroke: #3a8a5f; stroke-width: 1.4; stroke-linecap: square"/>
    <defs>
     <path id="m1ecae9a4b6" d="M -1.75 1.75 
L 1.75 1.75 
L 1.75 -1.75 
L -1.75 -1.75 
z
" style="stroke: #3a8a5f; stroke-linejoin: miter"/>
    </defs>
    <g clip-path="url(#p39812a8fa5)">
     <use xlink:href="#m1ecae9a4b6" x="52.791094" y="23.645929" style="fill: #3a8a5f; stroke: #3a8a5f; stroke-linejoin: miter"/>
     <use xlink:href="#m1ecae9a4b6" x="72.638594" y="23.645929" style="fill: #3a8a5f; stroke: #3a8a5f; stroke-linejoin: miter"/>
     <use xlink:href="#m1ecae9a4b6" x="92.486094" y="23.645929" style="fill: #3a8a5f; stroke: #3a8a5f; stroke-linejoin: miter"/>
     <use xlink:href="#m1ecae9a4b6" x="112.333594" y="28.159557" style="fill: #3a8a5f; stroke: #3a8a5f; stroke-linejoin: miter"/>
     <use xlink:href="#m1ecae9a4b6" x="132.181094" y="79.502079" style="fill: #3a8a5f; stroke: #3a8a5f; stroke-linejoin: miter"/>
     <use xlink:href="#m1ecae9a4b6" x="152.028594" y="131.408805" style="fill: #3a8a5f; stroke: #3a8a5f; stroke-linejoin: miter"/>
     <use xlink:href="#m1ecae9a4b6" x="171.876094" y="136.486636" style="fill: #3a8a5f; stroke: #3a8a5f; stroke-linejoin: miter"/>
     <use xlink:href="#m1ecae9a4b6" x="191.723594" y="136.486636" style="fill: #3a8a5f; stroke: #3a8a5f; stroke-linejoin: miter"/>
     <use xlink:href="#m1ecae9a4b6" x="211.571094" y="136.486636" style="fill: #3a8a5f; stroke: #3a8a5f; stroke-linejoin: miter"/>
     <use xlink:href="#m1ecae9a4b6" x="231.418594" y="136.486636" style="fill: #3a8a5f; stroke: #3a8a5f; stroke-linejoin: miter"/>
    </g>
   </g>
   <g id="line2d_15">
    <path d="M 52.791094 23.645929 
L 72.638594 23.645929 
L 92.486094 23.645929 
L 112.333594 23.645929 
L 132.181094 75.552654 
L 152.028594 134.229822 
L 171.876094 136.486636 
L 191.723594 136.486636 
L 211.571094 136.486636 
L 231.418594 136.486636 
" clip-path="url(#p39812a8fa5)" style="fill: none; stroke: #9a6db0; stroke-width: 1.4; stroke-linecap: square"/>
    <defs>
     <path id="m0944cfa544" d="M 0 -1.75 
L -1.75 1.75 
L 1.75 1.75 
z
" style="stroke: #9a6db0; stroke-linejoin: miter"/>
    </defs>
    <g clip-path="url(#p39812a8fa5)">
     <use xlink:href="#m0944cfa544" x="52.791094" y="23.645929" style="fill: #9a6db0; stroke: #9a6db0; stroke-linejoin: miter"/>
     <use xlink:href="#m0944cfa544" x="72.638594" y="23.645929" style="fill: #9a6db0; stroke: #9a6db0; stroke-linejoin: miter"/>
     <use xlink:href="#m0944cfa544" x="92.486094" y="23.645929" style="fill: #9a6db0; stroke: #9a6db0; stroke-linejoin: miter"/>
     <use xlink:href="#m0944cfa544" x="112.333594" y="23.645929" style="fill: #9a6db0; stroke: #9a6db0; stroke-linejoin: miter"/>
     <use xlink:href="#m0944cfa544" x="132.181094" y="75.552654" style="fill: #9a6db0; stroke: #9a6db0; stroke-linejoin: miter"/>
     <use xlink:href="#m0944cfa544" x="152.028594" y="134.229822" style="fill: #9a6db0; stroke: #9a6db0; stroke-linejoin: miter"/>
     <use xlink:href="#m0944cfa544" x="171.876094" y="136.486636" style="fill: #9a6db0; stroke: #9a6db0; stroke-linejoin: miter"/>
     <use xlink:href="#m0944cfa544" x="191.723594" y="136.486636" style="fill: #9a6db0; stroke: #9a6db0; stroke-linejoin: miter"/>
     <use xlink:href="#m0944cfa544" x="211.571094" y="136.486636" style="fill: #9a6db0; stroke: #9a6db0; stroke-linejoin: miter"/>
     <use xlink:href="#m0944cfa544" x="231.418594" y="136.486636" style="fill: #9a6db0; stroke: #9a6db0; stroke-linejoin: miter"/>
    </g>
   </g>
   <g id="line2d_16">
    <path d="M 32.943594 80.066282 
L 231.418594 80.066282 
" clip-path="url(#p39812a8fa5)" style="fill: none; stroke-dasharray: 0.8,1.32; stroke-dashoffset: 0; stroke: #777777; stroke-width: 0.8"/>
   </g>
   <g id="patch_4">
    <path d="M 32.943594 142.128672 
L 32.943594 14.618672 
" style="fill: none; stroke: #000000; stroke-width: 0.8; stroke-linejoin: miter; stroke-linecap: square"/>
   </g>
   <g id="patch_5">
    <path d="M 231.418594 142.128672 
L 231.418594 14.618672 
" style="fill: none; stroke: #000000; stroke-width: 0.8; stroke-linejoin: miter; stroke-linecap: square"/>
   </g>
   <g id="patch_6">
    <path d="M 32.943594 142.128672 
L 231.418594 142.128672 
" style="fill: none; stroke: #000000; stroke-width: 0.8; stroke-linejoin: miter; stroke-linecap: square"/>
   </g>
   <g id="patch_7">
    <path d="M 32.943594 14.618672 
L 231.418594 14.618672 
" style="fill: none; stroke: #000000; stroke-width: 0.8; stroke-linejoin: miter; stroke-linecap: square"/>
   </g>
   <g id="text_8">
    <!-- stealth -->
    <g style="fill: #777777" transform="translate(50.920563 78.135401) scale(0.068 -0.068)">
     <defs>
      <path id="DejaVuSerif-61" d="M 2547 1044 
L 2547 1747 
L 1806 1747 
Q 1378 1747 1168 1562 
Q 959 1378 959 997 
Q 959 650 1171 447 
Q 1384 244 1747 244 
Q 2106 244 2326 466 
Q 2547 688 2547 1044 
z
M 3122 2075 
L 3122 331 
L 3634 331 
L 3634 0 
L 2547 0 
L 2547 359 
Q 2356 128 2106 18 
Q 1856 -91 1522 -91 
Q 969 -91 644 203 
Q 319 497 319 997 
Q 319 1513 691 1797 
Q 1063 2081 1741 2081 
L 2547 2081 
L 2547 2309 
Q 2547 2688 2317 2895 
Q 2088 3103 1672 3103 
Q 1328 3103 1125 2947 
Q 922 2791 872 2484 
L 575 2484 
L 575 3156 
Q 875 3284 1158 3348 
Q 1441 3413 1709 3413 
Q 2400 3413 2761 3070 
Q 3122 2728 3122 2075 
z
" transform="scale(0.015625)"/>
      <path id="DejaVuSerif-6c" d="M 1313 331 
L 1856 331 
L 1856 0 
L 184 0 
L 184 331 
L 738 331 
L 738 4531 
L 184 4531 
L 184 4863 
L 1313 4863 
L 1313 331 
z
" transform="scale(0.015625)"/>
      <path id="DejaVuSerif-68" d="M 263 0 
L 263 331 
L 781 331 
L 781 4531 
L 231 4531 
L 231 4863 
L 1356 4863 
L 1356 2731 
Q 1516 3069 1770 3241 
Q 2025 3413 2363 3413 
Q 2913 3413 3172 3097 
Q 3431 2781 3431 2113 
L 3431 331 
L 3944 331 
L 3944 0 
L 2356 0 
L 2356 331 
L 2853 331 
L 2853 1931 
Q 2853 2541 2704 2764 
Q 2556 2988 2175 2988 
Q 1775 2988 1565 2697 
Q 1356 2406 1356 1850 
L 1356 331 
L 1856 331 
L 1856 0 
L 263 0 
z
" transform="scale(0.015625)"/>
     </defs>
     <use xlink:href="#DejaVuSerif-73"/>
     <use xlink:href="#DejaVuSerif-74" transform="translate(51.318359 0)"/>
     <use xlink:href="#DejaVuSerif-65" transform="translate(91.503906 0)"/>
     <use xlink:href="#DejaVuSerif-61" transform="translate(150.683594 0)"/>
     <use xlink:href="#DejaVuSerif-6c" transform="translate(210.302734 0)"/>
     <use xlink:href="#DejaVuSerif-74" transform="translate(242.285156 0)"/>
     <use xlink:href="#DejaVuSerif-68" transform="translate(282.470703 0)"/>
    </g>
    <!-- window -->
    <g style="fill: #777777" transform="translate(49.39375 85.749914) scale(0.068 -0.068)">
     <defs>
      <path id="DejaVuSerif-77" d="M 3072 3322 
L 3922 728 
L 4672 2988 
L 4191 2988 
L 4191 3322 
L 5394 3322 
L 5394 2988 
L 5025 2988 
L 4038 0 
L 3559 0 
L 2741 2484 
L 1919 0 
L 1459 0 
L 475 2988 
L 103 2988 
L 103 3322 
L 1606 3322 
L 1606 2988 
L 1069 2988 
L 1813 728 
L 2669 3322 
L 3072 3322 
z
" transform="scale(0.015625)"/>
     </defs>
     <use xlink:href="#DejaVuSerif-77"/>
     <use xlink:href="#DejaVuSerif-69" transform="translate(85.595703 0)"/>
     <use xlink:href="#DejaVuSerif-6e" transform="translate(117.578125 0)"/>
     <use xlink:href="#DejaVuSerif-64" transform="translate(181.982422 0)"/>
     <use xlink:href="#DejaVuSerif-6f" transform="translate(245.996094 0)"/>
     <use xlink:href="#DejaVuSerif-77" transform="translate(306.201172 0)"/>
    </g>
   </g>
   <g id="text_9">
    <!-- (a) -->
    <g transform="translate(32.943594 8.618672) scale(0.085 -0.085)">
     <use xlink:href="#DejaVuSerif-28"/>
     <use xlink:href="#DejaVuSerif-61" transform="translate(39.013672 0)"/>
     <use xlink:href="#DejaVuSerif-29" transform="translate(98.632812 0)"/>
    </g>
   </g>
   <g id="legend_1">
    <g id="line2d_17">
     <path d="M 175.209156 67.888922 
L 182.009156 67.888922 
L 188.809156 67.888922 
" style="fill: none; stroke: #2c6fbb; stroke-width: 1.4; stroke-linecap: square"/>
     <g>
      <use xlink:href="#m08df631de2" x="182.009156" y="67.888922" style="fill: #2c6fbb; stroke: #2c6fbb"/>
     </g>
    </g>
    <g id="text_10">
     <!-- BB84 -->
     <g transform="translate(194.249156 70.268922) scale(0.068 -0.068)">
      <defs>
       <path id="DejaVuSerif-42" d="M 1581 331 
L 2516 331 
Q 3078 331 3337 575 
Q 3597 819 3597 1350 
Q 3597 1878 3339 2120 
Q 3081 2363 2516 2363 
L 1581 2363 
L 1581 331 
z
M 1581 2694 
L 2375 2694 
Q 2888 2694 3123 2891 
Q 3359 3088 3359 3513 
Q 3359 3941 3123 4136 
Q 2888 4331 2375 4331 
L 1581 4331 
L 1581 2694 
z
M 353 0 
L 353 331 
L 947 331 
L 947 4331 
L 353 4331 
L 353 4666 
L 2656 4666 
Q 3363 4666 3720 4377 
Q 4078 4088 4078 3513 
Q 4078 3097 3829 2850 
Q 3581 2603 3103 2547 
Q 3697 2472 4005 2167 
Q 4313 1863 4313 1350 
Q 4313 656 3875 328 
Q 3438 0 2509 0 
L 353 0 
z
" transform="scale(0.015625)"/>
      </defs>
      <use xlink:href="#DejaVuSerif-42"/>
      <use xlink:href="#DejaVuSerif-42" transform="translate(73.486328 0)"/>
      <use xlink:href="#DejaVuSerif-38" transform="translate(146.972656 0)"/>
      <use xlink:href="#DejaVuSerif-34" transform="translate(210.595703 0)"/>
     </g>
    </g>
    <g id="line2d_18">
     <path d="M 175.209156 77.870047 
L 182.009156 77.870047 
L 188.809156 77.870047 
" style="fill: none; stroke: #3a8a5f; stroke-width: 1.4; stroke-linecap: square"/>
     <g>
      <use xlink:href="#m1ecae9a4b6" x="182.009156" y="77.870047" style="fill: #3a8a5f; stroke: #3a8a5f; stroke-linejoin: miter"/>
     </g>
    </g>
    <g id="text_11">
     <!-- Six-State -->
     <g transform="translate(194.249156 80.250047) scale(0.068 -0.068)">
      <defs>
       <path id="DejaVuSerif-53" d="M 594 225 
L 594 1288 
L 953 1284 
Q 969 753 1261 498 
Q 1553 244 2150 244 
Q 2706 244 2998 464 
Q 3291 684 3291 1106 
Q 3291 1444 3114 1625 
Q 2938 1806 2369 1978 
L 1753 2163 
Q 1084 2366 811 2669 
Q 538 2972 538 3500 
Q 538 4094 959 4422 
Q 1381 4750 2144 4750 
Q 2469 4750 2856 4679 
Q 3244 4609 3681 4475 
L 3681 3481 
L 3328 3481 
Q 3275 3975 2998 4195 
Q 2722 4416 2156 4416 
Q 1663 4416 1405 4214 
Q 1147 4013 1147 3628 
Q 1147 3294 1340 3103 
Q 1534 2913 2163 2725 
L 2741 2553 
Q 3375 2363 3645 2067 
Q 3916 1772 3916 1275 
Q 3916 597 3481 253 
Q 3047 -91 2188 -91 
Q 1803 -91 1404 -12 
Q 1006 66 594 225 
z
" transform="scale(0.015625)"/>
       <path id="DejaVuSerif-78" d="M 1863 2028 
L 2559 2988 
L 2113 2988 
L 2113 3322 
L 3391 3322 
L 3391 2988 
L 2950 2988 
L 2059 1759 
L 3097 331 
L 3531 331 
L 3531 0 
L 1997 0 
L 1997 331 
L 2419 331 
L 1697 1325 
L 972 331 
L 1403 331 
L 1403 0 
L 141 0 
L 141 331 
L 581 331 
L 1497 1594 
L 488 2988 
L 78 2988 
L 78 3322 
L 1563 3322 
L 1563 2988 
L 1166 2988 
L 1863 2028 
z
" transform="scale(0.015625)"/>
       <path id="DejaVuSerif-2d" d="M 281 1959 
L 1881 1959 
L 1881 1472 
L 281 1472 
L 281 1959 
z
" transform="scale(0.015625)"/>
      </defs>
      <use xlink:href="#DejaVuSerif-53"/>
      <use xlink:href="#DejaVuSerif-69" transform="translate(68.505859 0)"/>
      <use xlink:href="#DejaVuSerif-78" transform="translate(100.488281 0)"/>
      <use xlink:href="#DejaVuSerif-2d" transform="translate(155.134766 0)"/>
      <use xlink:href="#DejaVuSerif-53" transform="translate(188.923828 0)"/>
      <use xlink:href="#DejaVuSerif-74" transform="translate(257.429688 0)"/>
      <use xlink:href="#DejaVuSerif-61" transform="translate(297.615234 0)"/>
      <use xlink:href="#DejaVuSerif-74" transform="translate(357.234375 0)"/>
      <use xlink:href="#DejaVuSerif-65" transform="translate(397.419922 0)"/>
     </g>
    </g>
    <g id="line2d_19">
     <path d="M 175.209156 87.851172 
L 182.009156 87.851172 
L 188.809156 87.851172 
" style="fill: none; stroke: #9a6db0; stroke-width: 1.4; stroke-linecap: square"/>
     <g>
      <use xlink:href="#m0944cfa544" x="182.009156" y="87.851172" style="fill: #9a6db0; stroke: #9a6db0; stroke-linejoin: miter"/>
     </g>
    </g>
    <g id="text_12">
     <!-- E91 -->
     <g transform="translate(194.249156 90.231172) scale(0.068 -0.068)">
      <defs>
       <path id="DejaVuSerif-45" d="M 353 0 
L 353 331 
L 947 331 
L 947 4331 
L 353 4331 
L 353 4666 
L 4109 4666 
L 4109 3628 
L 3725 3628 
L 3725 4281 
L 1581 4281 
L 1581 2719 
L 3109 2719 
L 3109 3303 
L 3494 3303 
L 3494 1753 
L 3109 1753 
L 3109 2338 
L 1581 2338 
L 1581 384 
L 3775 384 
L 3775 1038 
L 4159 1038 
L 4159 0 
L 353 0 
z
" transform="scale(0.015625)"/>
       <path id="DejaVuSerif-39" d="M 2994 2091 
Q 2784 1856 2512 1740 
Q 2241 1625 1900 1625 
Q 1206 1625 804 2044 
Q 403 2463 403 3188 
Q 403 3897 839 4323 
Q 1275 4750 2003 4750 
Q 2794 4750 3217 4161 
Q 3641 3572 3641 2478 
Q 3641 1253 3137 581 
Q 2634 -91 1722 -91 
Q 1475 -91 1203 -44 
Q 931 3 647 97 
L 647 872 
L 997 872 
Q 1038 556 1241 387 
Q 1444 219 1784 219 
Q 2391 219 2687 676 
Q 2984 1134 2994 2091 
z
M 1978 4441 
Q 1534 4441 1298 4117 
Q 1063 3794 1063 3188 
Q 1063 2581 1298 2256 
Q 1534 1931 1978 1931 
Q 2422 1931 2658 2245 
Q 2894 2559 2894 3150 
Q 2894 3772 2656 4106 
Q 2419 4441 1978 4441 
z
" transform="scale(0.015625)"/>
      </defs>
      <use xlink:href="#DejaVuSerif-45"/>
      <use xlink:href="#DejaVuSerif-39" transform="translate(72.998047 0)"/>
      <use xlink:href="#DejaVuSerif-31" transform="translate(136.621094 0)"/>
     </g>
    </g>
   </g>
  </g>
  <g id="axes_2">
   <g id="patch_8">
    <path d="M 32.943594 294.978672 
L 231.418594 294.978672 
L 231.418594 167.468672 
L 32.943594 167.468672 
z
" style="fill: #ffffff"/>
   </g>
   <g id="FillBetweenPolyCollection_4">
    <defs>
     <path id="m2d15f6a38f" d="M 32.943594 -149.892685 
L 32.943594 -148.84727 
L 52.791094 -109.711137 
L 72.638594 -82.856817 
L 92.486094 -59.905646 
L 112.333594 -41.707268 
L 132.181094 -34.635637 
L 152.028594 -33.974503 
L 171.876094 -33.974503 
L 191.723594 -33.974503 
L 211.571094 -33.974503 
L 231.418594 -33.974503 
L 231.418594 -33.974503 
L 231.418594 -33.974503 
L 211.571094 -33.974503 
L 191.723594 -33.974503 
L 171.876094 -33.974503 
L 152.028594 -34.074245 
L 132.181094 -35.503204 
L 112.333594 -44.045957 
L 92.486094 -62.755332 
L 72.638594 -85.542672 
L 52.791094 -112.041958 
L 32.943594 -149.892685 
z
"/>
    </defs>
    <g clip-path="url(#p15bfc693e3)">
     <use xlink:href="#m2d15f6a38f" x="0" y="323.157266" style="fill: #2c6fbb; fill-opacity: 0.15"/>
    </g>
   </g>
   <g id="FillBetweenPolyCollection_5">
    <defs>
     <path id="mc06dd8b79e" d="M 32.943594 -111.206439 
L 32.943594 -110.26376 
L 52.791094 -77.956253 
L 72.638594 -55.174893 
L 92.486094 -39.489193 
L 112.333594 -34.206494 
L 132.181094 -33.974503 
L 152.028594 -33.974503 
L 171.876094 -33.974503 
L 191.723594 -33.974503 
L 211.571094 -33.974503 
L 231.418594 -33.974503 
L 231.418594 -33.974503 
L 231.418594 -33.974503 
L 211.571094 -33.974503 
L 191.723594 -33.974503 
L 171.876094 -33.974503 
L 152.028594 -33.974503 
L 132.181094 -33.974503 
L 112.333594 -34.672588 
L 92.486094 -41.187439 
L 72.638594 -57.214912 
L 52.791094 -80.118423 
L 32.943594 -111.206439 
z
"/>
    </defs>
    <g clip-path="url(#p15bfc693e3)">
     <use xlink:href="#mc06dd8b79e" x="0" y="323.157266" style="fill: #3a8a5f; fill-opacity: 0.15"/>
    </g>
   </g>
   <g id="FillBetweenPolyCollection_6">
    <defs>
     <path id="m538c2d8277" d="M 32.943594 -85.415929 
L 32.943594 -85.12725 
L 52.791094 -70.222585 
L 72.638594 -59.06449 
L 92.486094 -50.293257 
L 112.333594 -42.683984 
L 132.181094 -35.826893 
L 152.028594 -33.974503 
L 171.876094 -33.974503 
L 191.723594 -33.974503 
L 211.571094 -33.974503 
L 231.418594 -33.974503 
L 231.418594 -33.974503 
L 231.418594 -33.974503 
L 211.571094 -33.974503 
L 191.723594 -33.974503 
L 171.876094 -33.974503 
L 152.028594 -33.99663 
L 132.181094 -36.381556 
L 112.333594 -43.290157 
L 92.486094 -50.907156 
L 72.638594 -59.701047 
L 52.791094 -70.797221 
L 32.943594 -85.415929 
z
"/>
    </defs>
    <g clip-path="url(#p15bfc693e3)">
     <use xlink:href="#m538c2d8277" x="0" y="323.157266" style="fill: #9a6db0; fill-opacity: 0.15"/>
    </g>
   </g>
   <g id="patch_9">
    <path d="M 32.943594 294.978672 
L 92.486094 294.978672 
L 92.486094 167.468672 
L 32.943594 167.468672 
z
" clip-path="url(#p15bfc693e3)" style="fill: #777777; opacity: 0.1"/>
   </g>
   <g id="matplotlib.axis_3">
    <g id="xtick_7">
     <g id="line2d_20">
      <g>
       <use xlink:href="#mbafceb3356" x="32.943594" y="294.978672" style="stroke: #000000; stroke-width: 0.8"/>
      </g>
     </g>
     <g id="text_13">
      <!-- 0.0 -->
      <g transform="translate(26.979922 307.6775) scale(0.075 -0.075)">
       <use xlink:href="#DejaVuSerif-30"/>
       <use xlink:href="#DejaVuSerif-2e" transform="translate(63.623047 0)"/>
       <use xlink:href="#DejaVuSerif-30" transform="translate(95.410156 0)"/>
      </g>
     </g>
    </g>
    <g id="xtick_8">
     <g id="line2d_21">
      <g>
       <use xlink:href="#mbafceb3356" x="72.638594" y="294.978672" style="stroke: #000000; stroke-width: 0.8"/>
      </g>
     </g>
     <g id="text_14">
      <!-- 0.2 -->
      <g transform="translate(66.674922 307.6775) scale(0.075 -0.075)">
       <use xlink:href="#DejaVuSerif-30"/>
       <use xlink:href="#DejaVuSerif-2e" transform="translate(63.623047 0)"/>
       <use xlink:href="#DejaVuSerif-32" transform="translate(95.410156 0)"/>
      </g>
     </g>
    </g>
    <g id="xtick_9">
     <g id="line2d_22">
      <g>
       <use xlink:href="#mbafceb3356" x="112.333594" y="294.978672" style="stroke: #000000; stroke-width: 0.8"/>
      </g>
     </g>
     <g id="text_15">
      <!-- 0.4 -->
      <g transform="translate(106.369922 307.6775) scale(0.075 -0.075)">
       <use xlink:href="#DejaVuSerif-30"/>
       <use xlink:href="#DejaVuSerif-2e" transform="translate(63.623047 0)"/>
       <use xlink:href="#DejaVuSerif-34" transform="translate(95.410156 0)"/>
      </g>
     </g>
    </g>
    <g id="xtick_10">
     <g id="line2d_23">
      <g>
       <use xlink:href="#mbafceb3356" x="152.028594" y="294.978672" style="stroke: #000000; stroke-width: 0.8"/>
      </g>
     </g>
     <g id="text_16">
      <!-- 0.6 -->
      <g transform="translate(146.064922 307.6775) scale(0.075 -0.075)">
       <use xlink:href="#DejaVuSerif-30"/>
       <use xlink:href="#DejaVuSerif-2e" transform="translate(63.623047 0)"/>
       <use xlink:href="#DejaVuSerif-36" transform="translate(95.410156 0)"/>
      </g>
     </g>
    </g>
    <g id="xtick_11">
     <g id="line2d_24">
      <g>
       <use xlink:href="#mbafceb3356" x="191.723594" y="294.978672" style="stroke: #000000; stroke-width: 0.8"/>
      </g>
     </g>
     <g id="text_17">
      <!-- 0.8 -->
      <g transform="translate(185.759922 307.6775) scale(0.075 -0.075)">
       <use xlink:href="#DejaVuSerif-30"/>
       <use xlink:href="#DejaVuSerif-2e" transform="translate(63.623047 0)"/>
       <use xlink:href="#DejaVuSerif-38" transform="translate(95.410156 0)"/>
      </g>
     </g>
    </g>
    <g id="xtick_12">
     <g id="line2d_25">
      <g>
       <use xlink:href="#mbafceb3356" x="231.418594" y="294.978672" style="stroke: #000000; stroke-width: 0.8"/>
      </g>
     </g>
     <g id="text_18">
      <!-- 1.0 -->
      <g transform="translate(225.454922 307.6775) scale(0.075 -0.075)">
       <use xlink:href="#DejaVuSerif-31"/>
       <use xlink:href="#DejaVuSerif-2e" transform="translate(63.623047 0)"/>
       <use xlink:href="#DejaVuSerif-30" transform="translate(95.410156 0)"/>
      </g>
     </g>
    </g>
    <g id="text_19">
     <!-- interception fraction $f$ -->
     <g transform="translate(86.981094 319.317266) scale(0.08 -0.08)">
      <defs>
       <path id="DejaVuSerif-72" d="M 3059 3328 
L 3059 2497 
L 2728 2497 
Q 2713 2744 2591 2866 
Q 2469 2988 2234 2988 
Q 1809 2988 1582 2694 
Q 1356 2400 1356 1850 
L 1356 331 
L 2022 331 
L 2022 0 
L 263 0 
L 263 331 
L 781 331 
L 781 2994 
L 231 2994 
L 231 3322 
L 1356 3322 
L 1356 2731 
Q 1525 3078 1790 3245 
Q 2056 3413 2438 3413 
Q 2578 3413 2733 3391 
Q 2888 3369 3059 3328 
z
" transform="scale(0.015625)"/>
       <path id="DejaVuSerif-70" d="M 1313 1825 
L 1313 1497 
Q 1313 897 1542 583 
Q 1772 269 2209 269 
Q 2650 269 2876 622 
Q 3103 975 3103 1663 
Q 3103 2353 2876 2703 
Q 2650 3053 2209 3053 
Q 1772 3053 1542 2737 
Q 1313 2422 1313 1825 
z
M 738 2988 
L 184 2988 
L 184 3322 
L 1313 3322 
L 1313 2803 
Q 1481 3116 1742 3264 
Q 2003 3413 2388 3413 
Q 3000 3413 3387 2928 
Q 3775 2444 3775 1663 
Q 3775 881 3387 395 
Q 3000 -91 2388 -91 
Q 2003 -91 1742 57 
Q 1481 206 1313 519 
L 1313 -997 
L 1856 -997 
L 1856 -1331 
L 184 -1331 
L 184 -997 
L 738 -997 
L 738 2988 
z
" transform="scale(0.015625)"/>
       <path id="DejaVuSerif-66" d="M 2753 4078 
L 2450 4078 
Q 2447 4313 2317 4434 
Q 2188 4556 1941 4556 
Q 1619 4556 1487 4379 
Q 1356 4203 1356 3750 
L 1356 3322 
L 2284 3322 
L 2284 2988 
L 1356 2988 
L 1356 331 
L 2094 331 
L 2094 0 
L 231 0 
L 231 331 
L 781 331 
L 781 2988 
L 231 2988 
L 231 3322 
L 781 3322 
L 781 3738 
Q 781 4294 1070 4578 
Q 1359 4863 1919 4863 
Q 2128 4863 2337 4825 
Q 2547 4788 2753 4709 
L 2753 4078 
z
" transform="scale(0.015625)"/>
       <path id="Cmmi10-66" d="M 622 -1056 
Q 741 -1147 909 -1147 
Q 1138 -1147 1281 -641 
Q 1341 -397 1606 966 
L 1900 2534 
L 1350 2534 
Q 1288 2534 1288 2619 
Q 1313 2759 1369 2759 
L 1941 2759 
L 2016 3175 
Q 2053 3369 2084 3508 
Q 2116 3647 2152 3765 
Q 2188 3884 2259 4031 
Q 2369 4241 2555 4377 
Q 2741 4513 2956 4513 
Q 3097 4513 3230 4461 
Q 3363 4409 3447 4306 
Q 3531 4203 3531 4063 
Q 3531 3900 3423 3779 
Q 3316 3659 3163 3659 
Q 3059 3659 2986 3723 
Q 2913 3788 2913 3891 
Q 2913 4031 3008 4136 
Q 3103 4241 3244 4256 
Q 3125 4347 2950 4347 
Q 2853 4347 2767 4256 
Q 2681 4166 2656 4063 
Q 2616 3900 2478 3181 
L 2400 2759 
L 3059 2759 
Q 3122 2759 3122 2675 
Q 3119 2659 3109 2620 
Q 3100 2581 3083 2557 
Q 3066 2534 3041 2534 
L 2356 2534 
L 2059 972 
Q 2003 631 1929 279 
Q 1856 -72 1723 -442 
Q 1591 -813 1384 -1063 
Q 1178 -1313 897 -1313 
Q 681 -1313 511 -1189 
Q 341 -1066 341 -863 
Q 341 -700 445 -579 
Q 550 -459 709 -459 
Q 816 -459 887 -523 
Q 959 -588 959 -691 
Q 959 -828 857 -942 
Q 756 -1056 622 -1056 
z
" transform="scale(0.015625)"/>
      </defs>
      <use xlink:href="#DejaVuSerif-69" transform="translate(0 0.015625)"/>
      <use xlink:href="#DejaVuSerif-6e" transform="translate(31.982422 0.015625)"/>
      <use xlink:href="#DejaVuSerif-74" transform="translate(96.386719 0.015625)"/>
      <use xlink:href="#DejaVuSerif-65" transform="translate(136.572266 0.015625)"/>
      <use xlink:href="#DejaVuSerif-72" transform="translate(195.751953 0.015625)"/>
      <use xlink:href="#DejaVuSerif-63" transform="translate(243.554688 0.015625)"/>
      <use xlink:href="#DejaVuSerif-65" transform="translate(299.560547 0.015625)"/>
      <use xlink:href="#DejaVuSerif-70" transform="translate(358.740234 0.015625)"/>
      <use xlink:href="#DejaVuSerif-74" transform="translate(422.753906 0.015625)"/>
      <use xlink:href="#DejaVuSerif-69" transform="translate(462.939453 0.015625)"/>
      <use xlink:href="#DejaVuSerif-6f" transform="translate(494.921875 0.015625)"/>
      <use xlink:href="#DejaVuSerif-6e" transform="translate(555.126953 0.015625)"/>
      <use xlink:href="#DejaVuSerif-20" transform="translate(619.53125 0.015625)"/>
      <use xlink:href="#DejaVuSerif-66" transform="translate(651.318359 0.015625)"/>
      <use xlink:href="#DejaVuSerif-72" transform="translate(688.330078 0.015625)"/>
      <use xlink:href="#DejaVuSerif-61" transform="translate(736.132812 0.015625)"/>
      <use xlink:href="#DejaVuSerif-63" transform="translate(795.751953 0.015625)"/>
      <use xlink:href="#DejaVuSerif-74" transform="translate(851.757812 0.015625)"/>
      <use xlink:href="#DejaVuSerif-69" transform="translate(891.943359 0.015625)"/>
      <use xlink:href="#DejaVuSerif-6f" transform="translate(923.925781 0.015625)"/>
      <use xlink:href="#DejaVuSerif-6e" transform="translate(984.130859 0.015625)"/>
      <use xlink:href="#DejaVuSerif-20" transform="translate(1048.535156 0.015625)"/>
      <use xlink:href="#Cmmi10-66" transform="translate(1080.322266 0.015625)"/>
     </g>
    </g>
   </g>
   <g id="matplotlib.axis_4">
    <g id="ytick_7">
     <g id="line2d_26">
      <g>
       <use xlink:href="#m6d4bf7aef9" x="32.943594" y="289.182763" style="stroke: #000000; stroke-width: 0.8"/>
      </g>
     </g>
     <g id="text_20">
      <!-- 0.0 -->
      <g transform="translate(14.01625 292.032177) scale(0.075 -0.075)">
       <use xlink:href="#DejaVuSerif-30"/>
       <use xlink:href="#DejaVuSerif-2e" transform="translate(63.623047 0)"/>
       <use xlink:href="#DejaVuSerif-30" transform="translate(95.410156 0)"/>
      </g>
     </g>
    </g>
    <g id="ytick_8">
     <g id="line2d_27">
      <g>
       <use xlink:href="#m6d4bf7aef9" x="32.943594" y="266.091661" style="stroke: #000000; stroke-width: 0.8"/>
      </g>
     </g>
     <g id="text_21">
      <!-- 0.1 -->
      <g transform="translate(14.01625 268.941075) scale(0.075 -0.075)">
       <use xlink:href="#DejaVuSerif-30"/>
       <use xlink:href="#DejaVuSerif-2e" transform="translate(63.623047 0)"/>
       <use xlink:href="#DejaVuSerif-31" transform="translate(95.410156 0)"/>
      </g>
     </g>
    </g>
    <g id="ytick_9">
     <g id="line2d_28">
      <g>
       <use xlink:href="#m6d4bf7aef9" x="32.943594" y="243.000558" style="stroke: #000000; stroke-width: 0.8"/>
      </g>
     </g>
     <g id="text_22">
      <!-- 0.2 -->
      <g transform="translate(14.01625 245.849972) scale(0.075 -0.075)">
       <use xlink:href="#DejaVuSerif-30"/>
       <use xlink:href="#DejaVuSerif-2e" transform="translate(63.623047 0)"/>
       <use xlink:href="#DejaVuSerif-32" transform="translate(95.410156 0)"/>
      </g>
     </g>
    </g>
    <g id="ytick_10">
     <g id="line2d_29">
      <g>
       <use xlink:href="#m6d4bf7aef9" x="32.943594" y="219.909456" style="stroke: #000000; stroke-width: 0.8"/>
      </g>
     </g>
     <g id="text_23">
      <!-- 0.3 -->
      <g transform="translate(14.01625 222.75887) scale(0.075 -0.075)">
       <defs>
        <path id="DejaVuSerif-33" d="M 622 4469 
Q 988 4606 1323 4678 
Q 1659 4750 1953 4750 
Q 2638 4750 3022 4454 
Q 3406 4159 3406 3634 
Q 3406 3213 3140 2930 
Q 2875 2647 2388 2547 
Q 2963 2466 3280 2130 
Q 3597 1794 3597 1259 
Q 3597 606 3158 257 
Q 2719 -91 1894 -91 
Q 1528 -91 1179 -12 
Q 831 66 488 225 
L 488 1131 
L 838 1131 
Q 869 681 1141 450 
Q 1413 219 1906 219 
Q 2384 219 2661 495 
Q 2938 772 2938 1253 
Q 2938 1803 2653 2086 
Q 2369 2369 1819 2369 
L 1522 2369 
L 1522 2688 
L 1678 2688 
Q 2225 2688 2498 2914 
Q 2772 3141 2772 3597 
Q 2772 4006 2547 4223 
Q 2322 4441 1900 4441 
Q 1478 4441 1245 4241 
Q 1013 4041 972 3647 
L 622 3647 
L 622 4469 
z
" transform="scale(0.015625)"/>
       </defs>
       <use xlink:href="#DejaVuSerif-30"/>
       <use xlink:href="#DejaVuSerif-2e" transform="translate(63.623047 0)"/>
       <use xlink:href="#DejaVuSerif-33" transform="translate(95.410156 0)"/>
      </g>
     </g>
    </g>
    <g id="ytick_11">
     <g id="line2d_30">
      <g>
       <use xlink:href="#m6d4bf7aef9" x="32.943594" y="196.818354" style="stroke: #000000; stroke-width: 0.8"/>
      </g>
     </g>
     <g id="text_24">
      <!-- 0.4 -->
      <g transform="translate(14.01625 199.667768) scale(0.075 -0.075)">
       <use xlink:href="#DejaVuSerif-30"/>
       <use xlink:href="#DejaVuSerif-2e" transform="translate(63.623047 0)"/>
       <use xlink:href="#DejaVuSerif-34" transform="translate(95.410156 0)"/>
      </g>
     </g>
    </g>
    <g id="ytick_12">
     <g id="line2d_31">
      <g>
       <use xlink:href="#m6d4bf7aef9" x="32.943594" y="173.727251" style="stroke: #000000; stroke-width: 0.8"/>
      </g>
     </g>
     <g id="text_25">
      <!-- 0.5 -->
      <g transform="translate(14.01625 176.576666) scale(0.075 -0.075)">
       <defs>
        <path id="DejaVuSerif-35" d="M 3219 4666 
L 3219 4153 
L 1081 4153 
L 1081 2816 
Q 1244 2928 1461 2984 
Q 1678 3041 1947 3041 
Q 2703 3041 3140 2622 
Q 3578 2203 3578 1478 
Q 3578 738 3136 323 
Q 2694 -91 1894 -91 
Q 1572 -91 1234 -12 
Q 897 66 544 225 
L 544 1131 
L 897 1131 
Q 925 688 1179 453 
Q 1434 219 1894 219 
Q 2388 219 2653 544 
Q 2919 869 2919 1478 
Q 2919 2084 2655 2407 
Q 2391 2731 1894 2731 
Q 1613 2731 1398 2631 
Q 1184 2531 1019 2322 
L 750 2322 
L 750 4666 
L 3219 4666 
z
" transform="scale(0.015625)"/>
       </defs>
       <use xlink:href="#DejaVuSerif-30"/>
       <use xlink:href="#DejaVuSerif-2e" transform="translate(63.623047 0)"/>
       <use xlink:href="#DejaVuSerif-35" transform="translate(95.410156 0)"/>
      </g>
     </g>
    </g>
    <g id="text_26">
     <!-- secure key rate -->
     <g transform="translate(8.23875 262.604922) rotate(-90) scale(0.08 -0.08)">
      <defs>
       <path id="DejaVuSerif-75" d="M 2266 3322 
L 3341 3322 
L 3341 331 
L 3884 331 
L 3884 0 
L 2766 0 
L 2766 588 
Q 2606 256 2353 82 
Q 2100 -91 1766 -91 
Q 1213 -91 952 223 
Q 691 538 691 1209 
L 691 2988 
L 172 2988 
L 172 3322 
L 1269 3322 
L 1269 1388 
Q 1269 781 1417 556 
Q 1566 331 1947 331 
Q 2347 331 2556 625 
Q 2766 919 2766 1478 
L 2766 2988 
L 2266 2988 
L 2266 3322 
z
" transform="scale(0.015625)"/>
       <path id="DejaVuSerif-6b" d="M 1831 0 
L 219 0 
L 219 331 
L 738 331 
L 738 4531 
L 184 4531 
L 184 4863 
L 1313 4863 
L 1313 1697 
L 2713 2988 
L 2234 2988 
L 2234 3322 
L 3738 3322 
L 3738 2988 
L 3169 2988 
L 2181 2075 
L 3444 331 
L 3922 331 
L 3922 0 
L 2284 0 
L 2284 331 
L 2759 331 
L 1766 1697 
L 1313 1275 
L 1313 331 
L 1831 331 
L 1831 0 
z
" transform="scale(0.015625)"/>
       <path id="DejaVuSerif-79" d="M 1381 -609 
L 1600 -56 
L 359 2988 
L -19 2988 
L -19 3322 
L 1509 3322 
L 1509 2988 
L 978 2988 
L 1913 703 
L 2847 2988 
L 2350 2988 
L 2350 3322 
L 3597 3322 
L 3597 2988 
L 3225 2988 
L 1703 -750 
Q 1547 -1138 1356 -1280 
Q 1166 -1422 819 -1422 
Q 672 -1422 517 -1397 
Q 363 -1372 206 -1325 
L 206 -691 
L 500 -691 
Q 519 -903 608 -995 
Q 697 -1088 884 -1088 
Q 1056 -1088 1161 -992 
Q 1266 -897 1381 -609 
z
" transform="scale(0.015625)"/>
      </defs>
      <use xlink:href="#DejaVuSerif-73"/>
      <use xlink:href="#DejaVuSerif-65" transform="translate(51.318359 0)"/>
      <use xlink:href="#DejaVuSerif-63" transform="translate(110.498047 0)"/>
      <use xlink:href="#DejaVuSerif-75" transform="translate(166.503906 0)"/>
      <use xlink:href="#DejaVuSerif-72" transform="translate(230.908203 0)"/>
      <use xlink:href="#DejaVuSerif-65" transform="translate(278.710938 0)"/>
      <use xlink:href="#DejaVuSerif-20" transform="translate(337.890625 0)"/>
      <use xlink:href="#DejaVuSerif-6b" transform="translate(369.677734 0)"/>
      <use xlink:href="#DejaVuSerif-65" transform="translate(430.273438 0)"/>
      <use xlink:href="#DejaVuSerif-79" transform="translate(489.453125 0)"/>
      <use xlink:href="#DejaVuSerif-20" transform="translate(545.947266 0)"/>
      <use xlink:href="#DejaVuSerif-72" transform="translate(577.734375 0)"/>
      <use xlink:href="#DejaVuSerif-61" transform="translate(625.537109 0)"/>
      <use xlink:href="#DejaVuSerif-74" transform="translate(685.15625 0)"/>
      <use xlink:href="#DejaVuSerif-65" transform="translate(725.341797 0)"/>
     </g>
    </g>
   </g>
   <g id="line2d_32">
    <path d="M 32.943594 173.787288 
L 52.791094 212.280718 
L 72.638594 238.957521 
L 92.486094 261.826777 
L 112.333594 280.280653 
L 132.181094 288.087846 
L 152.028594 289.149202 
L 171.876094 289.182763 
L 191.723594 289.182763 
L 211.571094 289.182763 
L 231.418594 289.182763 
" clip-path="url(#p15bfc693e3)" style="fill: none; stroke: #2c6fbb; stroke-width: 1.4; stroke-linecap: square"/>
    <g clip-path="url(#p15bfc693e3)">
     <use xlink:href="#m08df631de2" x="32.943594" y="173.787288" style="fill: #2c6fbb; stroke: #2c6fbb"/>
     <use xlink:href="#m08df631de2" x="52.791094" y="212.280718" style="fill: #2c6fbb; stroke: #2c6fbb"/>
     <use xlink:href="#m08df631de2" x="72.638594" y="238.957521" style="fill: #2c6fbb; stroke: #2c6fbb"/>
     <use xlink:href="#m08df631de2" x="92.486094" y="261.826777" style="fill: #2c6fbb; stroke: #2c6fbb"/>
     <use xlink:href="#m08df631de2" x="112.333594" y="280.280653" style="fill: #2c6fbb; stroke: #2c6fbb"/>
     <use xlink:href="#m08df631de2" x="132.181094" y="288.087846" style="fill: #2c6fbb; stroke: #2c6fbb"/>
     <use xlink:href="#m08df631de2" x="152.028594" y="289.149202" style="fill: #2c6fbb; stroke: #2c6fbb"/>
     <use xlink:href="#m08df631de2" x="171.876094" y="289.182763" style="fill: #2c6fbb; stroke: #2c6fbb"/>
     <use xlink:href="#m08df631de2" x="191.723594" y="289.182763" style="fill: #2c6fbb; stroke: #2c6fbb"/>
     <use xlink:href="#m08df631de2" x="211.571094" y="289.182763" style="fill: #2c6fbb; stroke: #2c6fbb"/>
     <use xlink:href="#m08df631de2" x="231.418594" y="289.182763" style="fill: #2c6fbb; stroke: #2c6fbb"/>
    </g>
   </g>
   <g id="line2d_33">
    <path d="M 32.943594 212.422166 
L 52.791094 244.119928 
L 72.638594 266.962363 
L 92.486094 282.81895 
L 112.333594 288.717725 
L 132.181094 289.182763 
L 152.028594 289.182763 
L 171.876094 289.182763 
L 191.723594 289.182763 
L 211.571094 289.182763 
L 231.418594 289.182763 
" clip-path="url(#p15bfc693e3)" style="fill: none; stroke: #3a8a5f; stroke-width: 1.4; stroke-linecap: square"/>
    <g clip-path="url(#p15bfc693e3)">
     <use xlink:href="#m1ecae9a4b6" x="32.943594" y="212.422166" style="fill: #3a8a5f; stroke: #3a8a5f; stroke-linejoin: miter"/>
     <use xlink:href="#m1ecae9a4b6" x="52.791094" y="244.119928" style="fill: #3a8a5f; stroke: #3a8a5f; stroke-linejoin: miter"/>
     <use xlink:href="#m1ecae9a4b6" x="72.638594" y="266.962363" style="fill: #3a8a5f; stroke: #3a8a5f; stroke-linejoin: miter"/>
     <use xlink:href="#m1ecae9a4b6" x="92.486094" y="282.81895" style="fill: #3a8a5f; stroke: #3a8a5f; stroke-linejoin: miter"/>
     <use xlink:href="#m1ecae9a4b6" x="112.333594" y="288.717725" style="fill: #3a8a5f; stroke: #3a8a5f; stroke-linejoin: miter"/>
     <use xlink:href="#m1ecae9a4b6" x="132.181094" y="289.182763" style="fill: #3a8a5f; stroke: #3a8a5f; stroke-linejoin: miter"/>
     <use xlink:href="#m1ecae9a4b6" x="152.028594" y="289.182763" style="fill: #3a8a5f; stroke: #3a8a5f; stroke-linejoin: miter"/>
     <use xlink:href="#m1ecae9a4b6" x="171.876094" y="289.182763" style="fill: #3a8a5f; stroke: #3a8a5f; stroke-linejoin: miter"/>
     <use xlink:href="#m1ecae9a4b6" x="191.723594" y="289.182763" style="fill: #3a8a5f; stroke: #3a8a5f; stroke-linejoin: miter"/>
     <use xlink:href="#m1ecae9a4b6" x="211.571094" y="289.182763" style="fill: #3a8a5f; stroke: #3a8a5f; stroke-linejoin: miter"/>
     <use xlink:href="#m1ecae9a4b6" x="231.418594" y="289.182763" style="fill: #3a8a5f; stroke: #3a8a5f; stroke-linejoin: miter"/>
    </g>
   </g>
   <g id="line2d_34">
    <path d="M 32.943594 237.885676 
L 52.791094 252.647363 
L 72.638594 263.774497 
L 92.486094 272.557059 
L 112.333594 280.170195 
L 132.181094 287.053041 
L 152.028594 289.173715 
L 171.876094 289.182763 
L 191.723594 289.182763 
L 211.571094 289.182763 
L 231.418594 289.182763 
" clip-path="url(#p15bfc693e3)" style="fill: none; stroke: #9a6db0; stroke-width: 1.4; stroke-linecap: square"/>
    <g clip-path="url(#p15bfc693e3)">
     <use xlink:href="#m0944cfa544" x="32.943594" y="237.885676" style="fill: #9a6db0; stroke: #9a6db0; stroke-linejoin: miter"/>
     <use xlink:href="#m0944cfa544" x="52.791094" y="252.647363" style="fill: #9a6db0; stroke: #9a6db0; stroke-linejoin: miter"/>
     <use xlink:href="#m0944cfa544" x="72.638594" y="263.774497" style="fill: #9a6db0; stroke: #9a6db0; stroke-linejoin: miter"/>
     <use xlink:href="#m0944cfa544" x="92.486094" y="272.557059" style="fill: #9a6db0; stroke: #9a6db0; stroke-linejoin: miter"/>
     <use xlink:href="#m0944cfa544" x="112.333594" y="280.170195" style="fill: #9a6db0; stroke: #9a6db0; stroke-linejoin: miter"/>
     <use xlink:href="#m0944cfa544" x="132.181094" y="287.053041" style="fill: #9a6db0; stroke: #9a6db0; stroke-linejoin: miter"/>
     <use xlink:href="#m0944cfa544" x="152.028594" y="289.173715" style="fill: #9a6db0; stroke: #9a6db0; stroke-linejoin: miter"/>
     <use xlink:href="#m0944cfa544" x="171.876094" y="289.182763" style="fill: #9a6db0; stroke: #9a6db0; stroke-linejoin: miter"/>
     <use xlink:href="#m0944cfa544" x="191.723594" y="289.182763" style="fill: #9a6db0; stroke: #9a6db0; stroke-linejoin: miter"/>
     <use xlink:href="#m0944cfa544" x="211.571094" y="289.182763" style="fill: #9a6db0; stroke: #9a6db0; stroke-linejoin: miter"/>
     <use xlink:href="#m0944cfa544" x="231.418594" y="289.182763" style="fill: #9a6db0; stroke: #9a6db0; stroke-linejoin: miter"/>
    </g>
   </g>
   <g id="patch_10">
    <path d="M 32.943594 294.978672 
L 32.943594 167.468672 
" style="fill: none; stroke: #000000; stroke-width: 0.8; stroke-linejoin: miter; stroke-linecap: square"/>
   </g>
   <g id="patch_11">
    <path d="M 231.418594 294.978672 
L 231.418594 167.468672 
" style="fill: none; stroke: #000000; stroke-width: 0.8; stroke-linejoin: miter; stroke-linecap: square"/>
   </g>
   <g id="patch_12">
    <path d="M 32.943594 294.978672 
L 231.418594 294.978672 
" style="fill: none; stroke: #000000; stroke-width: 0.8; stroke-linejoin: miter; stroke-linecap: square"/>
   </g>
   <g id="patch_13">
    <path d="M 32.943594 167.468672 
L 231.418594 167.468672 
" style="fill: none; stroke: #000000; stroke-width: 0.8; stroke-linejoin: miter; stroke-linecap: square"/>
   </g>
   <g id="text_27">
    <!-- (b) -->
    <g transform="translate(32.943594 161.468672) scale(0.085 -0.085)">
     <defs>
      <path id="DejaVuSerif-62" d="M 738 331 
L 738 4531 
L 184 4531 
L 184 4863 
L 1313 4863 
L 1313 2803 
Q 1481 3116 1742 3264 
Q 2003 3413 2388 3413 
Q 3000 3413 3387 2928 
Q 3775 2444 3775 1663 
Q 3775 881 3387 395 
Q 3000 -91 2388 -91 
Q 2003 -91 1742 57 
Q 1481 206 1313 519 
L 1313 0 
L 184 0 
L 184 331 
L 738 331 
z
M 1313 1497 
Q 1313 897 1542 583 
Q 1772 269 2209 269 
Q 2650 269 2876 622 
Q 3103 975 3103 1663 
Q 3103 2353 2876 2703 
Q 2650 3053 2209 3053 
Q 1772 3053 1542 2737 
Q 1313 2422 1313 1825 
L 1313 1497 
z
" transform="scale(0.015625)"/>
     </defs>
     <use xlink:href="#DejaVuSerif-28"/>
     <use xlink:href="#DejaVuSerif-62" transform="translate(39.013672 0)"/>
     <use xlink:href="#DejaVuSerif-29" transform="translate(103.027344 0)"/>
    </g>
   </g>
  </g>
 </g>
 <defs>
  <clipPath id="p39812a8fa5">
   <rect x="32.943594" y="14.618672" width="198.475" height="127.51"/>
  </clipPath>
  <clipPath id="p15bfc693e3">
   <rect x="32.943594" y="167.468672" width="198.475" height="127.51"/>
  </clipPath>
 </defs>
</svg>
