<?xml version="1.0" encoding="utf-8" standalone="no"?>
<!DOCTYPE svg PUBLIC "-//W3C//DTD SVG 1.1//EN"
  "http://www.w3.org/Graphics/SVG/1.1/DTD/svg11.dtd">
<svg xmlns:xlink="http://www.w3.org/1999/xlink" width="389.764266pt" height="207.733654pt" viewBox="0 0 389.764266 207.733654" xmlns="http://www.w3.org/2000/svg" version="1.1">
 <metadata>
  <rdf:RDF xmlns:dc="http://purl.org/dc/elements/1.1/" xmlns:cc="http://creativecommons.org/ns#" xmlns:rdf="http://www.w3.org/1999/02/22-rdf-syntax-ns#">
   <cc:Work>
    <dc:type rdf:resource="http://purl.org/dc/dcmitype/StillImage"/>
    <dc:date>2026-06-13T12:49:29.956402</dc:date>
    <dc:format>image/svg+xml</dc:format>
    <dc:creator>
     <cc:Agent>
      <dc:title>Matplotlib v3.10.9, https://matplotlib.org/</dc:title>
     </cc:Agent>
    </dc:creator>
   </cc:Work>
  </rdf:RDF>
 </metadata>
 <defs>
  <style type="text/css">*{stroke-linejoin: round; stroke-linecap: butt}</style>
 </defs>
 <g id="figure_1">
  <g id="patch_1">
   <path d="M 0 207.733654 
L 389.764266 207.733654 
L 389.764266 0 
L 0 0 
z
" style="fill: #ffffff"/>
  </g>
  <g id="axes_1">
   <g id="patch_2">
    <path d="M 82.578992 165.60864 
C 95.332291 165.60864 107.564964 160.541701 116.582909 151.523757 
C 125.600853 142.505812 130.667792 130.273139 130.667792 117.51984 
C 130.667792 104.766541 125.600853 92.533868 116.582909 83.515923 
C 107.564964 74.497979 95.332291 69.43104 82.578992 69.43104 
C 69.825693 69.43104 57.59302 74.497979 48.575075 83.515923 
C 39.557131 92.533868 34.490192 104.766541 34.490192 117.51984 
C 34.490192 130.273139 39.557131 142.505812 48.575075 151.523757 
C 57.59302 160.541701 69.825693 165.60864 82.578992 165.60864 
L 82.578992 165.60864 
z
" clip-path="url(#pad8bee4832)" style="fill: none; stroke: #777777; stroke-linejoin: miter"/>
   </g>
   <g id="patch_3">
    <path d="M 130.667792 117.51984 
C 130.667792 111.204877 129.423882 104.951318 127.00725 99.117053 
C 124.590618 93.282788 121.048262 87.981277 116.582909 83.515923 
C 112.117555 79.05057 106.816044 75.508214 100.981779 73.091582 
C 95.147514 70.67495 88.893955 69.43104 82.578992 69.43104 
C 76.264029 69.43104 70.01047 70.67495 64.176205 73.091582 
C 58.34194 75.508214 53.040429 79.05057 48.575075 83.515923 
C 44.109722 87.981277 40.567366 93.282788 38.150734 99.117053 
C 35.734102 104.951318 34.490192 111.204877 34.490192 117.51984 
C 34.490192 123.834803 35.734102 130.088362 38.150734 135.922627 
C 40.567366 141.756892 44.109722 147.058403 48.575075 151.523757 
C 53.040429 155.98911 58.34194 159.531466 64.176205 161.948098 
C 70.01047 164.36473 76.264029 165.60864 82.578992 165.60864 
C 88.893955 165.60864 95.147514 164.36473 100.981779 161.948098 
C 106.816044 159.531466 112.117555 155.98911 116.582909 151.523757 
C 121.048262 147.058403 124.590618 141.756892 127.00725 135.922627 
C 129.423882 130.088362 130.667792 123.834803 130.667792 117.51984 
M 130.667792 117.51984 
C 130.667792 123.834803 129.423882 130.088362 127.00725 135.922627 
C 124.590618 141.756892 121.048262 147.058403 116.582909 151.523757 
C 112.117555 155.98911 106.816044 159.531466 100.981779 161.948098 
C 95.147514 164.36473 88.893955 165.60864 82.578992 165.60864 
C 76.264029 165.60864 70.01047 164.36473 64.176205 161.948098 
C 58.34194 159.531466 53.040429 155.98911 48.575075 151.523757 
C 44.109722 147.058403 40.567366 141.756892 38.150734 135.922627 
C 35.734102 130.088362 34.490192 123.834803 34.490192 117.51984 
C 34.490192 111.204877 35.734102 104.951318 38.150734 99.117053 
C 40.567366 93.282788 44.109722 87.981277 48.575075 83.515923 
C 53.040429 79.05057 58.34194 75.508214 64.176205 73.091582 
C 70.01047 70.67495 76.264029 69.43104 82.578992 69.43104 
C 88.893955 69.43104 95.147514 70.67495 100.981779 73.091582 
C 106.816044 75.508214 112.117555 79.05057 116.582909 83.515923 
C 121.048262 87.981277 124.590618 93.282788 127.00725 99.117053 
C 129.423882 104.951318 130.667792 111.204877 130.667792 117.51984 
z
" clip-path="url(#pad8bee4832)" style="fill: #1f77b4"/>
   </g>
   <g id="line2d_1">
    <path d="M 130.667792 117.51984 
L 130.570974 116.665846 
L 130.280909 115.81529 
L 129.798765 114.971598 
L 129.126484 114.138167 
L 128.266772 113.318352 
L 127.223092 112.515456 
L 125.999646 111.73271 
L 124.60136 110.973267 
L 123.033865 110.240185 
L 121.303472 109.536415 
L 119.41715 108.864792 
L 117.382493 108.22802 
L 115.207695 107.628663 
L 112.901513 107.069133 
L 110.473233 106.551686 
L 107.932632 106.078403 
L 105.289941 105.65119 
L 102.555801 105.271769 
L 99.741222 104.941666 
L 96.857537 104.662211 
L 93.916356 104.434529 
L 90.929524 104.259538 
L 87.909068 104.13794 
L 84.867149 104.070227 
L 81.816017 104.056671 
L 78.767957 104.097326 
L 75.735242 104.192029 
L 72.730085 104.340398 
L 69.764586 104.541836 
L 66.850686 104.795532 
L 64.000119 105.100465 
L 61.224361 105.455406 
L 58.534592 105.858926 
L 55.941641 106.3094 
L 53.455949 106.805015 
L 51.087525 107.343775 
L 48.845906 107.92351 
L 46.740119 108.541886 
L 44.778642 109.196413 
L 42.969374 109.884456 
L 41.319599 110.603244 
L 39.835962 111.349882 
L 38.524436 112.121365 
L 37.390301 112.914585 
L 36.438126 113.726349 
L 35.671744 114.553389 
L 35.094241 115.392373 
L 34.707942 116.239923 
L 34.514403 117.092628 
L 34.514403 117.947052 
L 34.707942 118.799757 
L 35.094241 119.647307 
L 35.671744 120.486291 
L 36.438126 121.313331 
L 37.390301 122.125095 
L 38.524436 122.918315 
L 39.835962 123.689798 
L 41.319599 124.436436 
L 42.969374 125.155224 
L 44.778642 125.843267 
L 46.740119 126.497794 
L 48.845906 127.11617 
L 51.087525 127.695905 
L 53.455949 128.234665 
L 55.941641 128.73028 
L 58.534592 129.180754 
L 61.224361 129.584274 
L 64.000119 129.939215 
L 66.850686 130.244148 
L 69.764586 130.497844 
L 72.730085 130.699282 
L 75.735242 130.847651 
L 78.767957 130.942354 
L 81.816017 130.983009 
L 84.867149 130.969453 
L 87.909068 130.90174 
L 90.929524 130.780142 
L 93.916356 130.605151 
L 96.857537 130.377469 
L 99.741222 130.098014 
L 102.555801 129.767911 
L 105.289941 129.38849 
L 107.932632 128.961277 
L 110.473233 128.487994 
L 112.901513 127.970547 
L 115.207695 127.411017 
L 117.382493 126.81166 
L 119.41715 126.174888 
L 121.303472 125.503265 
L 123.033865 124.799495 
L 124.60136 124.066413 
L 125.999646 123.30697 
L 127.223092 122.524224 
L 128.266772 121.721328 
L 129.126484 120.901513 
L 129.798765 120.068082 
L 130.280909 119.22439 
L 130.570974 118.373834 
L 130.667792 117.51984 
" clip-path="url(#pad8bee4832)" style="fill: none; stroke-dasharray: 1.4,1.4; stroke-dashoffset: 0; stroke: #777777; stroke-width: 0.7"/>
   </g>
   <g id="patch_4">
    <path d="M 82.578992 172.266227 
Q 82.578992 117.519258 82.578992 64.561143 
" style="fill: none; stroke: #2c6fbb; stroke-width: 1.6; stroke-linecap: round"/>
    <path d="M 80.778992 68.161143 
L 82.578992 64.561143 
L 84.378992 68.161143 
z
" style="fill: #2c6fbb; stroke: #2c6fbb; stroke-width: 1.6; stroke-linecap: round"/>
   </g>
   <g id="text_1">
    <!-- $|0\rangle$ -->
    <g style="fill: #2c6fbb" transform="translate(77.266492 55.0044) scale(0.085 -0.085)">
     <defs>
      <path id="Cmsy10-6a" d="M 763 -1484 
L 763 4684 
Q 763 4734 800 4767 
Q 838 4800 891 4800 
Q 938 4800 978 4767 
Q 1019 4734 1019 4684 
L 1019 -1484 
Q 1019 -1534 978 -1567 
Q 938 -1600 891 -1600 
Q 838 -1600 800 -1567 
Q 763 -1534 763 -1484 
z
" transform="scale(0.015625)"/>
      <path id="Cmr10-30" d="M 1600 -141 
Q 816 -141 533 504 
Q 250 1150 250 2041 
Q 250 2597 351 3087 
Q 453 3578 754 3920 
Q 1056 4263 1600 4263 
Q 2022 4263 2290 4056 
Q 2559 3850 2700 3523 
Q 2841 3197 2892 2823 
Q 2944 2450 2944 2041 
Q 2944 1491 2842 1011 
Q 2741 531 2444 195 
Q 2147 -141 1600 -141 
z
M 1600 25 
Q 1956 25 2131 390 
Q 2306 756 2347 1200 
Q 2388 1644 2388 2144 
Q 2388 2625 2347 3031 
Q 2306 3438 2132 3767 
Q 1959 4097 1600 4097 
Q 1238 4097 1063 3765 
Q 888 3434 847 3029 
Q 806 2625 806 2144 
Q 806 1788 823 1472 
Q 841 1156 916 820 
Q 991 484 1158 254 
Q 1325 25 1600 25 
z
" transform="scale(0.015625)"/>
      <path id="Cmex10-ae" d="M 500 -7297 
Q 500 -7263 513 -7250 
L 2119 -3584 
L 513 84 
Q 500 97 500 128 
Q 500 175 537 215 
Q 575 256 628 256 
Q 703 256 750 178 
L 2381 -3541 
Q 2388 -3553 2388 -3584 
Q 2388 -3616 2381 -3634 
L 750 -7347 
Q 700 -7425 628 -7425 
Q 575 -7425 537 -7384 
Q 500 -7344 500 -7297 
z
" transform="scale(0.015625)"/>
     </defs>
     <use xlink:href="#Cmsy10-6a" transform="translate(0 0.658854)"/>
     <use xlink:href="#Cmr10-30" transform="translate(27.685547 0.658854)"/>
     <use xlink:href="#Cmex10-ae" transform="translate(77.685547 94)"/>
    </g>
   </g>
   <g id="text_2">
    <!-- $|1\rangle$ -->
    <g style="fill: #2c6fbb" transform="translate(77.266492 181.958832) scale(0.085 -0.085)">
     <defs>
      <path id="Cmr10-31" d="M 594 0 
L 594 225 
Q 1394 225 1394 428 
L 1394 3788 
Q 1063 3628 556 3628 
L 556 3853 
Q 1341 3853 1741 4263 
L 1831 4263 
Q 1853 4263 1873 4245 
Q 1894 4228 1894 4206 
L 1894 428 
Q 1894 225 2694 225 
L 2694 0 
L 594 0 
z
" transform="scale(0.015625)"/>
     </defs>
     <use xlink:href="#Cmsy10-6a" transform="translate(0 0.658854)"/>
     <use xlink:href="#Cmr10-31" transform="translate(27.685547 0.658854)"/>
     <use xlink:href="#Cmex10-ae" transform="translate(77.685547 94)"/>
    </g>
   </g>
   <g id="patch_5">
    <path d="M 25.912341 117.51984 
Q 82.578467 117.51984 137.455739 117.51984 
" style="fill: none; stroke: #3a8a5f; stroke-width: 1.6; stroke-linecap: round"/>
    <path d="M 133.855739 115.71984 
L 137.455739 117.51984 
L 133.855739 119.31984 
z
" style="fill: #3a8a5f; stroke: #3a8a5f; stroke-width: 1.6; stroke-linecap: round"/>
   </g>
   <g id="text_3">
    <!-- $|+\rangle$ -->
    <g style="fill: #3a8a5f" transform="translate(147.017984 116.558064) scale(0.085 -0.085)">
     <defs>
      <path id="Cmr10-2b" d="M 481 1472 
Q 428 1472 393 1512 
Q 359 1553 359 1600 
Q 359 1647 393 1687 
Q 428 1728 481 1728 
L 2363 1728 
L 2363 3616 
Q 2363 3666 2400 3698 
Q 2438 3731 2491 3731 
Q 2538 3731 2578 3698 
Q 2619 3666 2619 3616 
L 2619 1728 
L 4500 1728 
Q 4547 1728 4581 1687 
Q 4616 1647 4616 1600 
Q 4616 1553 4581 1512 
Q 4547 1472 4500 1472 
L 2619 1472 
L 2619 -416 
Q 2619 -466 2578 -498 
Q 2538 -531 2491 -531 
Q 2438 -531 2400 -498 
Q 2363 -466 2363 -416 
L 2363 1472 
L 481 1472 
z
" transform="scale(0.015625)"/>
     </defs>
     <use xlink:href="#Cmsy10-6a" transform="translate(0 0.658854)"/>
     <use xlink:href="#Cmr10-2b" transform="translate(45.244141 0.658854)"/>
     <use xlink:href="#Cmex10-ae" transform="translate(140.488281 94)"/>
    </g>
   </g>
   <g id="text_4">
    <!-- $|-\rangle$ -->
    <g style="fill: #3a8a5f" transform="translate(2.16 116.558064) scale(0.085 -0.085)">
     <defs>
      <path id="Cmsy10-a1" d="M 653 1472 
Q 600 1472 565 1512 
Q 531 1553 531 1600 
Q 531 1647 565 1687 
Q 600 1728 653 1728 
L 4325 1728 
Q 4375 1728 4408 1687 
Q 4441 1647 4441 1600 
Q 4441 1553 4408 1512 
Q 4375 1472 4325 1472 
L 653 1472 
z
" transform="scale(0.015625)"/>
     </defs>
     <use xlink:href="#Cmsy10-6a" transform="translate(0 0.658854)"/>
     <use xlink:href="#Cmsy10-a1" transform="translate(45.244141 0.658854)"/>
     <use xlink:href="#Cmex10-ae" transform="translate(140.488281 94)"/>
    </g>
   </g>
   <g id="text_5">
    <!-- BB84:  two bases  $Z, X$ -->
    <g transform="translate(34.341492 203.80592) scale(0.085 -0.085)">
     <defs>
      <path id="DejaVuSerif-42" d="M 1581 331 
L 2516 331 
Q 3078 331 3337 575 
Q 3597 819 3597 1350 
Q 3597 1878 3339 2120 
Q 3081 2363 2516 2363 
L 1581 2363 
L 1581 331 
z
M 1581 2694 
L 2375 2694 
Q 2888 2694 3123 2891 
Q 3359 3088 3359 3513 
Q 3359 3941 3123 4136 
Q 2888 4331 2375 4331 
L 1581 4331 
L 1581 2694 
z
M 353 0 
L 353 331 
L 947 331 
L 947 4331 
L 353 4331 
L 353 4666 
L 2656 4666 
Q 3363 4666 3720 4377 
Q 4078 4088 4078 3513 
Q 4078 3097 3829 2850 
Q 3581 2603 3103 2547 
Q 3697 2472 4005 2167 
Q 4313 1863 4313 1350 
Q 4313 656 3875 328 
Q 3438 0 2509 0 
L 353 0 
z
" transform="scale(0.015625)"/>
      <path id="DejaVuSerif-38" d="M 2981 1275 
Q 2981 1775 2732 2051 
Q 2484 2328 2034 2328 
Q 1584 2328 1336 2051 
Q 1088 1775 1088 1275 
Q 1088 772 1336 495 
Q 1584 219 2034 219 
Q 2484 219 2732 495 
Q 2981 772 2981 1275 
z
M 2853 3541 
Q 2853 3966 2637 4203 
Q 2422 4441 2034 4441 
Q 1650 4441 1433 4203 
Q 1216 3966 1216 3541 
Q 1216 3113 1433 2875 
Q 1650 2638 2034 2638 
Q 2422 2638 2637 2875 
Q 2853 3113 2853 3541 
z
M 2516 2484 
Q 3047 2413 3344 2092 
Q 3641 1772 3641 1275 
Q 3641 619 3225 264 
Q 2809 -91 2034 -91 
Q 1263 -91 845 264 
Q 428 619 428 1275 
Q 428 1772 725 2092 
Q 1022 2413 1556 2484 
Q 1084 2569 832 2842 
Q 581 3116 581 3541 
Q 581 4103 968 4426 
Q 1356 4750 2034 4750 
Q 2713 4750 3100 4426 
Q 3488 4103 3488 3541 
Q 3488 3116 3236 2842 
Q 2984 2569 2516 2484 
z
" transform="scale(0.015625)"/>
      <path id="DejaVuSerif-34" d="M 2234 1581 
L 2234 4063 
L 641 1581 
L 2234 1581 
z
M 3609 0 
L 1484 0 
L 1484 331 
L 2234 331 
L 2234 1247 
L 197 1247 
L 197 1588 
L 2241 4750 
L 2859 4750 
L 2859 1581 
L 3750 1581 
L 3750 1247 
L 2859 1247 
L 2859 331 
L 3609 331 
L 3609 0 
z
" transform="scale(0.015625)"/>
      <path id="DejaVuSerif-3a" d="M 666 325 
Q 666 500 786 622 
Q 906 744 1081 744 
Q 1256 744 1376 622 
Q 1497 500 1497 325 
Q 1497 150 1378 29 
Q 1259 -91 1081 -91 
Q 903 -91 784 29 
Q 666 150 666 325 
z
M 666 2363 
Q 666 2538 786 2658 
Q 906 2778 1081 2778 
Q 1259 2778 1378 2659 
Q 1497 2541 1497 2363 
Q 1497 2184 1378 2065 
Q 1259 1947 1081 1947 
Q 906 1947 786 2067 
Q 666 2188 666 2363 
z
" transform="scale(0.015625)"/>
      <path id="DejaVuSerif-20" transform="scale(0.015625)"/>
      <path id="DejaVuSerif-74" d="M 691 2988 
L 184 2988 
L 184 3322 
L 691 3322 
L 691 4353 
L 1269 4353 
L 1269 3322 
L 2350 3322 
L 2350 2988 
L 1269 2988 
L 1269 878 
Q 1269 456 1350 337 
Q 1431 219 1650 219 
Q 1875 219 1978 351 
Q 2081 484 2088 781 
L 2522 781 
Q 2497 328 2275 118 
Q 2053 -91 1600 -91 
Q 1103 -91 897 129 
Q 691 350 691 878 
L 691 2988 
z
" transform="scale(0.015625)"/>
      <path id="DejaVuSerif-77" d="M 3072 3322 
L 3922 728 
L 4672 2988 
L 4191 2988 
L 4191 3322 
L 5394 3322 
L 5394 2988 
L 5025 2988 
L 4038 0 
L 3559 0 
L 2741 2484 
L 1919 0 
L 1459 0 
L 475 2988 
L 103 2988 
L 103 3322 
L 1606 3322 
L 1606 2988 
L 1069 2988 
L 1813 728 
L 2669 3322 
L 3072 3322 
z
" transform="scale(0.015625)"/>
      <path id="DejaVuSerif-6f" d="M 1925 219 
Q 2388 219 2623 584 
Q 2859 950 2859 1663 
Q 2859 2375 2623 2739 
Q 2388 3103 1925 3103 
Q 1463 3103 1227 2739 
Q 991 2375 991 1663 
Q 991 950 1228 584 
Q 1466 219 1925 219 
z
M 1925 -91 
Q 1200 -91 759 389 
Q 319 869 319 1663 
Q 319 2456 758 2934 
Q 1197 3413 1925 3413 
Q 2653 3413 3092 2934 
Q 3531 2456 3531 1663 
Q 3531 869 3092 389 
Q 2653 -91 1925 -91 
z
" transform="scale(0.015625)"/>
      <path id="DejaVuSerif-62" d="M 738 331 
L 738 4531 
L 184 4531 
L 184 4863 
L 1313 4863 
L 1313 2803 
Q 1481 3116 1742 3264 
Q 2003 3413 2388 3413 
Q 3000 3413 3387 2928 
Q 3775 2444 3775 1663 
Q 3775 881 3387 395 
Q 3000 -91 2388 -91 
Q 2003 -91 1742 57 
Q 1481 206 1313 519 
L 1313 0 
L 184 0 
L 184 331 
L 738 331 
z
M 1313 1497 
Q 1313 897 1542 583 
Q 1772 269 2209 269 
Q 2650 269 2876 622 
Q 3103 975 3103 1663 
Q 3103 2353 2876 2703 
Q 2650 3053 2209 3053 
Q 1772 3053 1542 2737 
Q 1313 2422 1313 1825 
L 1313 1497 
z
" transform="scale(0.015625)"/>
      <path id="DejaVuSerif-61" d="M 2547 1044 
L 2547 1747 
L 1806 1747 
Q 1378 1747 1168 1562 
Q 959 1378 959 997 
Q 959 650 1171 447 
Q 1384 244 1747 244 
Q 2106 244 2326 466 
Q 2547 688 2547 1044 
z
M 3122 2075 
L 3122 331 
L 3634 331 
L 3634 0 
L 2547 0 
L 2547 359 
Q 2356 128 2106 18 
Q 1856 -91 1522 -91 
Q 969 -91 644 203 
Q 319 497 319 997 
Q 319 1513 691 1797 
Q 1063 2081 1741 2081 
L 2547 2081 
L 2547 2309 
Q 2547 2688 2317 2895 
Q 2088 3103 1672 3103 
Q 1328 3103 1125 2947 
Q 922 2791 872 2484 
L 575 2484 
L 575 3156 
Q 875 3284 1158 3348 
Q 1441 3413 1709 3413 
Q 2400 3413 2761 3070 
Q 3122 2728 3122 2075 
z
" transform="scale(0.015625)"/>
      <path id="DejaVuSerif-73" d="M 359 184 
L 359 959 
L 691 959 
Q 703 588 923 403 
Q 1144 219 1575 219 
Q 1963 219 2166 364 
Q 2369 509 2369 788 
Q 2369 1006 2220 1140 
Q 2072 1275 1594 1428 
L 1178 1569 
Q 750 1706 558 1912 
Q 366 2119 366 2438 
Q 366 2894 700 3153 
Q 1034 3413 1625 3413 
Q 1888 3413 2178 3344 
Q 2469 3275 2778 3144 
L 2778 2419 
L 2447 2419 
Q 2434 2741 2221 2922 
Q 2009 3103 1644 3103 
Q 1281 3103 1095 2975 
Q 909 2847 909 2591 
Q 909 2381 1050 2254 
Q 1191 2128 1613 1997 
L 2069 1856 
Q 2541 1709 2748 1489 
Q 2956 1269 2956 922 
Q 2956 450 2595 179 
Q 2234 -91 1600 -91 
Q 1278 -91 972 -22 
Q 666 47 359 184 
z
" transform="scale(0.015625)"/>
      <path id="DejaVuSerif-65" d="M 3469 1600 
L 991 1600 
L 991 1575 
Q 991 903 1244 561 
Q 1497 219 1991 219 
Q 2369 219 2611 417 
Q 2853 616 2950 1006 
L 3413 1006 
Q 3275 459 2904 184 
Q 2534 -91 1931 -91 
Q 1203 -91 761 389 
Q 319 869 319 1663 
Q 319 2450 753 2931 
Q 1188 3413 1894 3413 
Q 2647 3413 3050 2948 
Q 3453 2484 3469 1600 
z
M 2791 1931 
Q 2772 2513 2545 2808 
Q 2319 3103 1894 3103 
Q 1497 3103 1269 2806 
Q 1041 2509 991 1931 
L 2791 1931 
z
" transform="scale(0.015625)"/>
      <path id="Cmmi10-5a" d="M 372 50 
Q 372 144 416 197 
L 3938 4147 
L 2994 4147 
Q 2525 4147 2217 4036 
Q 1909 3925 1707 3667 
Q 1506 3409 1369 2963 
Q 1356 2906 1306 2906 
L 1247 2906 
Q 1184 2906 1184 2988 
L 1588 4313 
Q 1600 4372 1650 4372 
L 4569 4372 
Q 4622 4372 4622 4319 
Q 4622 4225 4581 4184 
L 1075 244 
L 2047 244 
Q 2613 244 2936 383 
Q 3259 522 3448 822 
Q 3638 1122 3816 1678 
Q 3822 1700 3839 1717 
Q 3856 1734 3878 1734 
L 3938 1734 
Q 4000 1734 4000 1650 
L 3494 56 
Q 3466 0 3431 0 
L 428 0 
Q 372 0 372 50 
z
" transform="scale(0.015625)"/>
      <path id="Cmmi10-3b" d="M 634 -1153 
Q 634 -1125 659 -1100 
Q 891 -878 1019 -587 
Q 1147 -297 1147 25 
L 1147 103 
Q 1044 0 891 0 
Q 744 0 641 103 
Q 538 206 538 353 
Q 538 503 641 603 
Q 744 703 891 703 
Q 1119 703 1216 492 
Q 1313 281 1313 25 
Q 1313 -331 1170 -651 
Q 1028 -972 769 -1228 
Q 744 -1241 728 -1241 
Q 697 -1241 665 -1212 
Q 634 -1184 634 -1153 
z
" transform="scale(0.015625)"/>
      <path id="Cmmi10-58" d="M 231 0 
Q 166 0 166 84 
Q 169 100 180 140 
Q 191 181 208 203 
Q 225 225 256 225 
Q 838 225 1253 659 
Q 1259 666 1267 669 
Q 1275 672 1275 672 
L 2675 2181 
L 1913 4019 
Q 1847 4103 1700 4125 
Q 1553 4147 1356 4147 
Q 1294 4147 1294 4231 
Q 1316 4313 1328 4342 
Q 1341 4372 1403 4372 
L 3003 4372 
Q 3066 4372 3066 4288 
Q 3063 4272 3052 4231 
Q 3041 4191 3023 4169 
Q 3006 4147 2975 4147 
Q 2856 4147 2729 4108 
Q 2603 4069 2553 3981 
L 3103 2656 
L 4153 3781 
Q 4163 3803 4197 3858 
Q 4231 3913 4231 3963 
Q 4231 4056 4150 4101 
Q 4069 4147 3956 4147 
Q 3891 4147 3891 4231 
Q 3913 4313 3925 4342 
Q 3938 4372 4000 4372 
L 5388 4372 
Q 5422 4372 5437 4347 
Q 5453 4322 5453 4288 
Q 5450 4272 5440 4234 
Q 5431 4197 5415 4172 
Q 5400 4147 5369 4147 
Q 5072 4147 4823 4039 
Q 4575 3931 4366 3713 
Q 4363 3709 4358 3707 
Q 4353 3706 4347 3700 
L 3188 2450 
L 4063 353 
Q 4166 225 4622 225 
Q 4684 225 4684 141 
Q 4663 56 4648 28 
Q 4634 0 4575 0 
L 2975 0 
Q 2913 0 2913 84 
Q 2916 100 2925 139 
Q 2934 178 2951 201 
Q 2969 225 2994 225 
Q 3119 225 3247 264 
Q 3375 303 3425 391 
L 2759 1984 
L 1466 588 
Q 1456 566 1422 512 
Q 1388 459 1388 409 
Q 1388 316 1475 270 
Q 1563 225 1663 225 
Q 1728 225 1728 141 
Q 1706 50 1693 25 
Q 1681 0 1619 0 
L 231 0 
z
" transform="scale(0.015625)"/>
     </defs>
     <use xlink:href="#DejaVuSerif-42" transform="translate(0 0.015625)"/>
     <use xlink:href="#DejaVuSerif-42" transform="translate(73.486328 0.015625)"/>
     <use xlink:href="#DejaVuSerif-38" transform="translate(146.972656 0.015625)"/>
     <use xlink:href="#DejaVuSerif-34" transform="translate(210.595703 0.015625)"/>
     <use xlink:href="#DejaVuSerif-3a" transform="translate(274.21875 0.015625)"/>
     <use xlink:href="#DejaVuSerif-20" transform="translate(307.910156 0.015625)"/>
     <use xlink:href="#DejaVuSerif-20" transform="translate(339.697266 0.015625)"/>
     <use xlink:href="#DejaVuSerif-74" transform="translate(371.484375 0.015625)"/>
     <use xlink:href="#DejaVuSerif-77" transform="translate(411.669922 0.015625)"/>
     <use xlink:href="#DejaVuSerif-6f" transform="translate(497.265625 0.015625)"/>
     <use xlink:href="#DejaVuSerif-20" transform="translate(557.470703 0.015625)"/>
     <use xlink:href="#DejaVuSerif-62" transform="translate(589.257812 0.015625)"/>
     <use xlink:href="#DejaVuSerif-61" transform="translate(653.271484 0.015625)"/>
     <use xlink:href="#DejaVuSerif-73" transform="translate(712.890625 0.015625)"/>
     <use xlink:href="#DejaVuSerif-65" transform="translate(764.208984 0.015625)"/>
     <use xlink:href="#DejaVuSerif-73" transform="translate(823.388672 0.015625)"/>
     <use xlink:href="#DejaVuSerif-20" transform="translate(874.707031 0.015625)"/>
     <use xlink:href="#DejaVuSerif-20" transform="translate(906.494141 0.015625)"/>
     <use xlink:href="#Cmmi10-5a" transform="translate(938.28125 0.015625)"/>
     <use xlink:href="#Cmmi10-3b" transform="translate(1006.494141 0.015625)"/>
     <use xlink:href="#Cmmi10-58" transform="translate(1051.738281 0.015625)"/>
    </g>
   </g>
  </g>
  <g id="axes_2">
   <g id="patch_6">
    <path d="M 307.185274 165.60864 
C 319.938573 165.60864 332.171246 160.541701 341.18919 151.523757 
C 350.207134 142.505812 355.274074 130.273139 355.274074 117.51984 
C 355.274074 104.766541 350.207134 92.533868 341.18919 83.515923 
C 332.171246 74.497979 319.938573 69.43104 307.185274 69.43104 
C 294.431975 69.43104 282.199301 74.497979 273.181357 83.515923 
C 264.163413 92.533868 259.096474 104.766541 259.096474 117.51984 
C 259.096474 130.273139 264.163413 142.505812 273.181357 151.523757 
C 282.199301 160.541701 294.431975 165.60864 307.185274 165.60864 
L 307.185274 165.60864 
z
" clip-path="url(#p456510c888)" style="fill: none; stroke: #777777; stroke-linejoin: miter"/>
   </g>
   <g id="patch_7">
    <path d="M 355.274074 117.51984 
C 355.274074 111.204877 354.030164 104.951318 351.613532 99.117053 
C 349.1969 93.282788 345.654544 87.981277 341.18919 83.515923 
C 336.723837 79.05057 331.422326 75.508214 325.588061 73.091582 
C 319.753795 70.67495 313.500237 69.43104 307.185274 69.43104 
C 300.87031 69.43104 294.616752 70.67495 288.782487 73.091582 
C 282.948221 75.508214 277.646711 79.05057 273.181357 83.515923 
C 268.716004 87.981277 265.173648 93.282788 262.757016 99.117053 
C 260.340384 104.951318 259.096474 111.204877 259.096474 117.51984 
C 259.096474 123.834803 260.340384 130.088362 262.757016 135.922627 
C 265.173648 141.756892 268.716004 147.058403 273.181357 151.523757 
C 277.646711 155.98911 282.948221 159.531466 288.782487 161.948098 
C 294.616752 164.36473 300.87031 165.60864 307.185274 165.60864 
C 313.500237 165.60864 319.753795 164.36473 325.588061 161.948098 
C 331.422326 159.531466 336.723837 155.98911 341.18919 151.523757 
C 345.654544 147.058403 349.1969 141.756892 351.613532 135.922627 
C 354.030164 130.088362 355.274074 123.834803 355.274074 117.51984 
M 355.274074 117.51984 
C 355.274074 123.834803 354.030164 130.088362 351.613532 135.922627 
C 349.1969 141.756892 345.654544 147.058403 341.18919 151.523757 
C 336.723837 155.98911 331.422326 159.531466 325.588061 161.948098 
C 319.753795 164.36473 313.500237 165.60864 307.185274 165.60864 
C 300.87031 165.60864 294.616752 164.36473 288.782487 161.948098 
C 282.948221 159.531466 277.646711 155.98911 273.181357 151.523757 
C 268.716004 147.058403 265.173648 141.756892 262.757016 135.922627 
C 260.340384 130.088362 259.096474 123.834803 259.096474 117.51984 
C 259.096474 111.204877 260.340384 104.951318 262.757016 99.117053 
C 265.173648 93.282788 268.716004 87.981277 273.181357 83.515923 
C 277.646711 79.05057 282.948221 75.508214 288.782487 73.091582 
C 294.616752 70.67495 300.87031 69.43104 307.185274 69.43104 
C 313.500237 69.43104 319.753795 70.67495 325.588061 73.091582 
C 331.422326 75.508214 336.723837 79.05057 341.18919 83.515923 
C 345.654544 87.981277 349.1969 93.282788 351.613532 99.117053 
C 354.030164 104.951318 355.274074 111.204877 355.274074 117.51984 
z
" clip-path="url(#p456510c888)" style="fill: #1f77b4"/>
   </g>
   <g id="line2d_2">
    <path d="M 355.274074 117.51984 
L 355.177255 116.665846 
L 354.88719 115.81529 
L 354.405047 114.971598 
L 353.732765 114.138167 
L 352.873054 113.318352 
L 351.829374 112.515456 
L 350.605928 111.73271 
L 349.207642 110.973267 
L 347.640147 110.240185 
L 345.909754 109.536415 
L 344.023432 108.864792 
L 341.988775 108.22802 
L 339.813977 107.628663 
L 337.507795 107.069133 
L 335.079515 106.551686 
L 332.538914 106.078403 
L 329.896223 105.65119 
L 327.162083 105.271769 
L 324.347504 104.941666 
L 321.463818 104.662211 
L 318.522638 104.434529 
L 315.535806 104.259538 
L 312.51535 104.13794 
L 309.473431 104.070227 
L 306.422299 104.056671 
L 303.374238 104.097326 
L 300.341524 104.192029 
L 297.336367 104.340398 
L 294.370868 104.541836 
L 291.456968 104.795532 
L 288.6064 105.100465 
L 285.830643 105.455406 
L 283.140874 105.858926 
L 280.547923 106.3094 
L 278.062231 106.805015 
L 275.693807 107.343775 
L 273.452188 107.92351 
L 271.346401 108.541886 
L 269.384924 109.196413 
L 267.575655 109.884456 
L 265.925881 110.603244 
L 264.442244 111.349882 
L 263.130717 112.121365 
L 261.996583 112.914585 
L 261.044408 113.726349 
L 260.278026 114.553389 
L 259.700523 115.392373 
L 259.314224 116.239923 
L 259.120684 117.092628 
L 259.120684 117.947052 
L 259.314224 118.799757 
L 259.700523 119.647307 
L 260.278026 120.486291 
L 261.044408 121.313331 
L 261.996583 122.125095 
L 263.130717 122.918315 
L 264.442244 123.689798 
L 265.925881 124.436436 
L 267.575655 125.155224 
L 269.384924 125.843267 
L 271.346401 126.497794 
L 273.452188 127.11617 
L 275.693807 127.695905 
L 278.062231 128.234665 
L 280.547923 128.73028 
L 283.140874 129.180754 
L 285.830643 129.584274 
L 288.6064 129.939215 
L 291.456968 130.244148 
L 294.370868 130.497844 
L 297.336367 130.699282 
L 300.341524 130.847651 
L 303.374238 130.942354 
L 306.422299 130.983009 
L 309.473431 130.969453 
L 312.51535 130.90174 
L 315.535806 130.780142 
L 318.522638 130.605151 
L 321.463818 130.377469 
L 324.347504 130.098014 
L 327.162083 129.767911 
L 329.896223 129.38849 
L 332.538914 128.961277 
L 335.079515 128.487994 
L 337.507795 127.970547 
L 339.813977 127.411017 
L 341.988775 126.81166 
L 344.023432 126.174888 
L 345.909754 125.503265 
L 347.640147 124.799495 
L 349.207642 124.066413 
L 350.605928 123.30697 
L 351.829374 122.524224 
L 352.873054 121.721328 
L 353.732765 120.901513 
L 354.405047 120.068082 
L 354.88719 119.22439 
L 355.177255 118.373834 
L 355.274074 117.51984 
" clip-path="url(#p456510c888)" style="fill: none; stroke-dasharray: 1.4,1.4; stroke-dashoffset: 0; stroke: #777777; stroke-width: 0.7"/>
   </g>
   <g id="patch_8">
    <path d="M 307.185274 172.266227 
Q 307.185274 117.519258 307.185274 64.561143 
" style="fill: none; stroke: #2c6fbb; stroke-width: 1.6; stroke-linecap: round"/>
    <path d="M 305.385274 68.161143 
L 307.185274 64.561143 
L 308.985274 68.161143 
z
" style="fill: #2c6fbb; stroke: #2c6fbb; stroke-width: 1.6; stroke-linecap: round"/>
   </g>
   <g id="text_6">
    <!-- $|0\rangle$ -->
    <g style="fill: #2c6fbb" transform="translate(301.872774 55.0044) scale(0.085 -0.085)">
     <use xlink:href="#Cmsy10-6a" transform="translate(0 0.658854)"/>
     <use xlink:href="#Cmr10-30" transform="translate(27.685547 0.658854)"/>
     <use xlink:href="#Cmex10-ae" transform="translate(77.685547 94)"/>
    </g>
   </g>
   <g id="text_7">
    <!-- $|1\rangle$ -->
    <g style="fill: #2c6fbb" transform="translate(301.872774 181.958832) scale(0.085 -0.085)">
     <use xlink:href="#Cmsy10-6a" transform="translate(0 0.658854)"/>
     <use xlink:href="#Cmr10-31" transform="translate(27.685547 0.658854)"/>
     <use xlink:href="#Cmex10-ae" transform="translate(77.685547 94)"/>
    </g>
   </g>
   <g id="patch_9">
    <path d="M 250.518622 117.51984 
Q 307.184749 117.51984 362.062021 117.51984 
" style="fill: none; stroke: #3a8a5f; stroke-width: 1.6; stroke-linecap: round"/>
    <path d="M 358.462021 115.71984 
L 362.062021 117.51984 
L 358.462021 119.31984 
z
" style="fill: #3a8a5f; stroke: #3a8a5f; stroke-width: 1.6; stroke-linecap: round"/>
   </g>
   <g id="text_8">
    <!-- $|+\rangle$ -->
    <g style="fill: #3a8a5f" transform="translate(371.624266 116.558064) scale(0.085 -0.085)">
     <use xlink:href="#Cmsy10-6a" transform="translate(0 0.658854)"/>
     <use xlink:href="#Cmr10-2b" transform="translate(45.244141 0.658854)"/>
     <use xlink:href="#Cmex10-ae" transform="translate(140.488281 94)"/>
    </g>
   </g>
   <g id="text_9">
    <!-- $|-\rangle$ -->
    <g style="fill: #3a8a5f" transform="translate(226.766282 116.558064) scale(0.085 -0.085)">
     <use xlink:href="#Cmsy10-6a" transform="translate(0 0.658854)"/>
     <use xlink:href="#Cmsy10-a1" transform="translate(45.244141 0.658854)"/>
     <use xlink:href="#Cmex10-ae" transform="translate(140.488281 94)"/>
    </g>
   </g>
   <g id="patch_10">
    <path d="M 267.467107 145.230189 
Q 307.184177 117.520605 345.434161 90.83457 
" style="fill: none; stroke: #9a6db0; stroke-width: 1.6; stroke-linecap: round"/>
    <path d="M 341.451777 91.418195 
L 345.434161 90.83457 
L 343.51163 94.370652 
z
" style="fill: #9a6db0; stroke: #9a6db0; stroke-width: 1.6; stroke-linecap: round"/>
   </g>
   <g id="text_10">
    <!-- $|{+}i\rangle$ -->
    <g style="fill: #9a6db0" transform="translate(352.869634 85.781232) scale(0.085 -0.085)">
     <defs>
      <path id="Cmmi10-69" d="M 500 459 
Q 500 578 550 709 
L 1069 2088 
Q 1153 2322 1153 2472 
Q 1153 2663 1013 2663 
Q 759 2663 595 2402 
Q 431 2141 353 1819 
Q 341 1778 300 1778 
L 225 1778 
Q 172 1778 172 1838 
L 172 1856 
Q 275 2238 487 2533 
Q 700 2828 1025 2828 
Q 1253 2828 1411 2678 
Q 1569 2528 1569 2297 
Q 1569 2178 1516 2047 
L 997 672 
Q 909 459 909 288 
Q 909 97 1056 97 
Q 1306 97 1473 364 
Q 1641 631 1709 941 
Q 1722 978 1759 978 
L 1838 978 
Q 1863 978 1878 961 
Q 1894 944 1894 922 
Q 1894 916 1888 903 
Q 1800 541 1583 234 
Q 1366 -72 1044 -72 
Q 819 -72 659 83 
Q 500 238 500 459 
z
M 1222 3878 
Q 1222 4013 1334 4122 
Q 1447 4231 1581 4231 
Q 1691 4231 1761 4164 
Q 1831 4097 1831 3994 
Q 1831 3850 1717 3742 
Q 1603 3634 1466 3634 
Q 1363 3634 1292 3704 
Q 1222 3775 1222 3878 
z
" transform="scale(0.015625)"/>
     </defs>
     <use xlink:href="#Cmsy10-6a" transform="translate(0 0.658854)"/>
     <use xlink:href="#Cmr10-2b" transform="translate(27.685547 0.658854)"/>
     <use xlink:href="#Cmmi10-69" transform="translate(105.371094 0.658854)"/>
     <use xlink:href="#Cmex10-ae" transform="translate(139.794922 94)"/>
    </g>
   </g>
   <g id="text_11">
    <!-- $|{-}i\rangle$ -->
    <g style="fill: #9a6db0" transform="translate(245.520914 149.258448) scale(0.085 -0.085)">
     <use xlink:href="#Cmsy10-6a" transform="translate(0 0.658854)"/>
     <use xlink:href="#Cmsy10-a1" transform="translate(27.685547 0.658854)"/>
     <use xlink:href="#Cmmi10-69" transform="translate(105.371094 0.658854)"/>
     <use xlink:href="#Cmex10-ae" transform="translate(139.794922 94)"/>
    </g>
   </g>
   <g id="text_12">
    <!-- Six-state:  three bases  $Z, X, Y$ -->
    <g transform="translate(243.860274 203.80592) scale(0.085 -0.085)">
     <defs>
      <path id="DejaVuSerif-53" d="M 594 225 
L 594 1288 
L 953 1284 
Q 969 753 1261 498 
Q 1553 244 2150 244 
Q 2706 244 2998 464 
Q 3291 684 3291 1106 
Q 3291 1444 3114 1625 
Q 2938 1806 2369 1978 
L 1753 2163 
Q 1084 2366 811 2669 
Q 538 2972 538 3500 
Q 538 4094 959 4422 
Q 1381 4750 2144 4750 
Q 2469 4750 2856 4679 
Q 3244 4609 3681 4475 
L 3681 3481 
L 3328 3481 
Q 3275 3975 2998 4195 
Q 2722 4416 2156 4416 
Q 1663 4416 1405 4214 
Q 1147 4013 1147 3628 
Q 1147 3294 1340 3103 
Q 1534 2913 2163 2725 
L 2741 2553 
Q 3375 2363 3645 2067 
Q 3916 1772 3916 1275 
Q 3916 597 3481 253 
Q 3047 -91 2188 -91 
Q 1803 -91 1404 -12 
Q 1006 66 594 225 
z
" transform="scale(0.015625)"/>
      <path id="DejaVuSerif-69" d="M 622 4353 
Q 622 4497 726 4603 
Q 831 4709 978 4709 
Q 1122 4709 1226 4603 
Q 1331 4497 1331 4353 
Q 1331 4206 1228 4103 
Q 1125 4000 978 4000 
Q 831 4000 726 4103 
Q 622 4206 622 4353 
z
M 1356 331 
L 1900 331 
L 1900 0 
L 231 0 
L 231 331 
L 781 331 
L 781 2988 
L 231 2988 
L 231 3322 
L 1356 3322 
L 1356 331 
z
" transform="scale(0.015625)"/>
      <path id="DejaVuSerif-78" d="M 1863 2028 
L 2559 2988 
L 2113 2988 
L 2113 3322 
L 3391 3322 
L 3391 2988 
L 2950 2988 
L 2059 1759 
L 3097 331 
L 3531 331 
L 3531 0 
L 1997 0 
L 1997 331 
L 2419 331 
L 1697 1325 
L 972 331 
L 1403 331 
L 1403 0 
L 141 0 
L 141 331 
L 581 331 
L 1497 1594 
L 488 2988 
L 78 2988 
L 78 3322 
L 1563 3322 
L 1563 2988 
L 1166 2988 
L 1863 2028 
z
" transform="scale(0.015625)"/>
      <path id="DejaVuSerif-2d" d="M 281 1959 
L 1881 1959 
L 1881 1472 
L 281 1472 
L 281 1959 
z
" transform="scale(0.015625)"/>
      <path id="DejaVuSerif-68" d="M 263 0 
L 263 331 
L 781 331 
L 781 4531 
L 231 4531 
L 231 4863 
L 1356 4863 
L 1356 2731 
Q 1516 3069 1770 3241 
Q 2025 3413 2363 3413 
Q 2913 3413 3172 3097 
Q 3431 2781 3431 2113 
L 3431 331 
L 3944 331 
L 3944 0 
L 2356 0 
L 2356 331 
L 2853 331 
L 2853 1931 
Q 2853 2541 2704 2764 
Q 2556 2988 2175 2988 
Q 1775 2988 1565 2697 
Q 1356 2406 1356 1850 
L 1356 331 
L 1856 331 
L 1856 0 
L 263 0 
z
" transform="scale(0.015625)"/>
      <path id="DejaVuSerif-72" d="M 3059 3328 
L 3059 2497 
L 2728 2497 
Q 2713 2744 2591 2866 
Q 2469 2988 2234 2988 
Q 1809 2988 1582 2694 
Q 1356 2400 1356 1850 
L 1356 331 
L 2022 331 
L 2022 0 
L 263 0 
L 263 331 
L 781 331 
L 781 2994 
L 231 2994 
L 231 3322 
L 1356 3322 
L 1356 2731 
Q 1525 3078 1790 3245 
Q 2056 3413 2438 3413 
Q 2578 3413 2733 3391 
Q 2888 3369 3059 3328 
z
" transform="scale(0.015625)"/>
      <path id="Cmmi10-59" d="M 569 84 
Q 572 100 581 137 
Q 591 175 606 200 
Q 622 225 653 225 
Q 1044 225 1197 269 
Q 1228 278 1254 312 
Q 1281 347 1297 384 
Q 1313 422 1325 459 
L 1644 1747 
L 819 4019 
Q 763 4103 616 4125 
Q 469 4147 275 4147 
Q 213 4147 213 4231 
Q 231 4309 247 4340 
Q 263 4372 319 4372 
L 1931 4372 
Q 1991 4372 1991 4288 
Q 1966 4147 1906 4147 
Q 1453 4147 1453 4006 
L 2175 2034 
L 3688 3781 
Q 3700 3813 3731 3858 
Q 3763 3903 3778 3934 
Q 3794 3966 3794 4006 
Q 3794 4147 3531 4147 
Q 3469 4147 3469 4231 
Q 3481 4281 3489 4309 
Q 3497 4338 3517 4355 
Q 3538 4372 3578 4372 
L 4819 4372 
Q 4847 4372 4865 4344 
Q 4884 4316 4884 4288 
Q 4872 4241 4865 4220 
Q 4859 4200 4843 4173 
Q 4828 4147 4794 4147 
Q 4538 4147 4309 4036 
Q 4081 3925 3909 3725 
Q 3903 3719 3895 3714 
Q 3888 3709 3878 3700 
L 2188 1747 
L 1856 422 
Q 1856 406 1850 375 
Q 1844 344 1844 325 
Q 1844 300 1851 283 
Q 1859 266 1873 261 
Q 1888 256 1919 250 
Q 2041 225 2381 225 
Q 2444 225 2444 141 
Q 2422 50 2409 25 
Q 2397 0 2338 0 
L 634 0 
Q 569 0 569 84 
z
" transform="scale(0.015625)"/>
     </defs>
     <use xlink:href="#DejaVuSerif-53" transform="translate(0 0.015625)"/>
     <use xlink:href="#DejaVuSerif-69" transform="translate(68.505859 0.015625)"/>
     <use xlink:href="#DejaVuSerif-78" transform="translate(100.488281 0.015625)"/>
     <use xlink:href="#DejaVuSerif-2d" transform="translate(156.884766 0.015625)"/>
     <use xlink:href="#DejaVuSerif-73" transform="translate(190.673828 0.015625)"/>
     <use xlink:href="#DejaVuSerif-74" transform="translate(241.992188 0.015625)"/>
     <use xlink:href="#DejaVuSerif-61" transform="translate(282.177734 0.015625)"/>
     <use xlink:href="#DejaVuSerif-74" transform="translate(341.796875 0.015625)"/>
     <use xlink:href="#DejaVuSerif-65" transform="translate(381.982422 0.015625)"/>
     <use xlink:href="#DejaVuSerif-3a" transform="translate(441.162109 0.015625)"/>
     <use xlink:href="#DejaVuSerif-20" transform="translate(474.853516 0.015625)"/>
     <use xlink:href="#DejaVuSerif-20" transform="translate(506.640625 0.015625)"/>
     <use xlink:href="#DejaVuSerif-74" transform="translate(538.427734 0.015625)"/>
     <use xlink:href="#DejaVuSerif-68" transform="translate(578.613281 0.015625)"/>
     <use xlink:href="#DejaVuSerif-72" transform="translate(643.017578 0.015625)"/>
     <use xlink:href="#DejaVuSerif-65" transform="translate(690.820312 0.015625)"/>
     <use xlink:href="#DejaVuSerif-65" transform="translate(750 0.015625)"/>
     <use xlink:href="#DejaVuSerif-20" transform="translate(809.179688 0.015625)"/>
     <use xlink:href="#DejaVuSerif-62" transform="translate(840.966797 0.015625)"/>
     <use xlink:href="#DejaVuSerif-61" transform="translate(904.980469 0.015625)"/>
     <use xlink:href="#DejaVuSerif-73" transform="translate(964.599609 0.015625)"/>
     <use xlink:href="#DejaVuSerif-65" transform="translate(1015.917969 0.015625)"/>
     <use xlink:href="#DejaVuSerif-73" transform="translate(1075.097656 0.015625)"/>
     <use xlink:href="#DejaVuSerif-20" transform="translate(1126.416016 0.015625)"/>
     <use xlink:href="#DejaVuSerif-20" transform="translate(1158.203125 0.015625)"/>
     <use xlink:href="#Cmmi10-5a" transform="translate(1189.990234 0.015625)"/>
     <use xlink:href="#Cmmi10-3b" transform="translate(1258.203125 0.015625)"/>
     <use xlink:href="#Cmmi10-58" transform="translate(1303.447266 0.015625)"/>
     <use xlink:href="#Cmmi10-3b" transform="translate(1386.259766 0.015625)"/>
     <use xlink:href="#Cmmi10-59" transform="translate(1431.503906 0.015625)"/>
    </g>
   </g>
  </g>
  <g id="text_13">
   <!-- Adding the third mutually unbiased basis -->
   <g transform="translate(100.703461 8.998594) scale(0.09 -0.09)">
    <defs>
     <path id="DejaVuSerif-41" d="M 1281 1691 
L 2994 1691 
L 2138 3909 
L 1281 1691 
z
M -38 0 
L -38 331 
L 372 331 
L 2034 4666 
L 2559 4666 
L 4225 331 
L 4684 331 
L 4684 0 
L 2988 0 
L 2988 331 
L 3506 331 
L 3116 1356 
L 1153 1356 
L 763 331 
L 1275 331 
L 1275 0 
L -38 0 
z
" transform="scale(0.015625)"/>
     <path id="DejaVuSerif-64" d="M 3359 331 
L 3909 331 
L 3909 0 
L 2784 0 
L 2784 519 
Q 2616 206 2355 57 
Q 2094 -91 1709 -91 
Q 1097 -91 708 395 
Q 319 881 319 1663 
Q 319 2444 706 2928 
Q 1094 3413 1709 3413 
Q 2094 3413 2355 3264 
Q 2616 3116 2784 2803 
L 2784 4531 
L 2241 4531 
L 2241 4863 
L 3359 4863 
L 3359 331 
z
M 2784 1497 
L 2784 1825 
Q 2784 2422 2554 2737 
Q 2325 3053 1888 3053 
Q 1444 3053 1217 2703 
Q 991 2353 991 1663 
Q 991 975 1217 622 
Q 1444 269 1888 269 
Q 2325 269 2554 583 
Q 2784 897 2784 1497 
z
" transform="scale(0.015625)"/>
     <path id="DejaVuSerif-6e" d="M 263 0 
L 263 331 
L 781 331 
L 781 2988 
L 231 2988 
L 231 3322 
L 1356 3322 
L 1356 2731 
Q 1516 3069 1770 3241 
Q 2025 3413 2363 3413 
Q 2913 3413 3172 3097 
Q 3431 2781 3431 2113 
L 3431 331 
L 3944 331 
L 3944 0 
L 2356 0 
L 2356 331 
L 2853 331 
L 2853 1931 
Q 2853 2541 2703 2767 
Q 2553 2994 2175 2994 
Q 1775 2994 1565 2701 
Q 1356 2409 1356 1850 
L 1356 331 
L 1856 331 
L 1856 0 
L 263 0 
z
" transform="scale(0.015625)"/>
     <path id="DejaVuSerif-67" d="M 3359 2988 
L 3359 72 
Q 3359 -644 2965 -1033 
Q 2572 -1422 1844 -1422 
Q 1516 -1422 1216 -1362 
Q 916 -1303 641 -1184 
L 641 -488 
L 941 -488 
Q 997 -813 1206 -963 
Q 1416 -1113 1806 -1113 
Q 2313 -1113 2548 -827 
Q 2784 -541 2784 72 
L 2784 519 
Q 2616 206 2355 57 
Q 2094 -91 1709 -91 
Q 1097 -91 708 395 
Q 319 881 319 1663 
Q 319 2444 706 2928 
Q 1094 3413 1709 3413 
Q 2094 3413 2355 3264 
Q 2616 3116 2784 2803 
L 2784 3322 
L 3909 3322 
L 3909 2988 
L 3359 2988 
z
M 2784 1825 
Q 2784 2422 2554 2737 
Q 2325 3053 1888 3053 
Q 1444 3053 1217 2703 
Q 991 2353 991 1663 
Q 991 975 1217 622 
Q 1444 269 1888 269 
Q 2325 269 2554 583 
Q 2784 897 2784 1497 
L 2784 1825 
z
" transform="scale(0.015625)"/>
     <path id="DejaVuSerif-6d" d="M 3316 2675 
Q 3481 3041 3739 3227 
Q 3997 3413 4341 3413 
Q 4863 3413 5119 3089 
Q 5375 2766 5375 2113 
L 5375 331 
L 5894 331 
L 5894 0 
L 4300 0 
L 4300 331 
L 4800 331 
L 4800 2047 
Q 4800 2556 4650 2772 
Q 4500 2988 4153 2988 
Q 3769 2988 3567 2697 
Q 3366 2406 3366 1850 
L 3366 331 
L 3866 331 
L 3866 0 
L 2291 0 
L 2291 331 
L 2791 331 
L 2791 2069 
Q 2791 2566 2641 2777 
Q 2491 2988 2144 2988 
Q 1759 2988 1557 2697 
Q 1356 2406 1356 1850 
L 1356 331 
L 1856 331 
L 1856 0 
L 263 0 
L 263 331 
L 781 331 
L 781 2994 
L 231 2994 
L 231 3322 
L 1356 3322 
L 1356 2731 
Q 1516 3063 1762 3238 
Q 2009 3413 2322 3413 
Q 2709 3413 2968 3220 
Q 3228 3028 3316 2675 
z
" transform="scale(0.015625)"/>
     <path id="DejaVuSerif-75" d="M 2266 3322 
L 3341 3322 
L 3341 331 
L 3884 331 
L 3884 0 
L 2766 0 
L 2766 588 
Q 2606 256 2353 82 
Q 2100 -91 1766 -91 
Q 1213 -91 952 223 
Q 691 538 691 1209 
L 691 2988 
L 172 2988 
L 172 3322 
L 1269 3322 
L 1269 1388 
Q 1269 781 1417 556 
Q 1566 331 1947 331 
Q 2347 331 2556 625 
Q 2766 919 2766 1478 
L 2766 2988 
L 2266 2988 
L 2266 3322 
z
" transform="scale(0.015625)"/>
     <path id="DejaVuSerif-6c" d="M 1313 331 
L 1856 331 
L 1856 0 
L 184 0 
L 184 331 
L 738 331 
L 738 4531 
L 184 4531 
L 184 4863 
L 1313 4863 
L 1313 331 
z
" transform="scale(0.015625)"/>
     <path id="DejaVuSerif-79" d="M 1381 -609 
L 1600 -56 
L 359 2988 
L -19 2988 
L -19 3322 
L 1509 3322 
L 1509 2988 
L 978 2988 
L 1913 703 
L 2847 2988 
L 2350 2988 
L 2350 3322 
L 3597 3322 
L 3597 2988 
L 3225 2988 
L 1703 -750 
Q 1547 -1138 1356 -1280 
Q 1166 -1422 819 -1422 
Q 672 -1422 517 -1397 
Q 363 -1372 206 -1325 
L 206 -691 
L 500 -691 
Q 519 -903 608 -995 
Q 697 -1088 884 -1088 
Q 1056 -1088 1161 -992 
Q 1266 -897 1381 -609 
z
" transform="scale(0.015625)"/>
    </defs>
    <use xlink:href="#DejaVuSerif-41"/>
    <use xlink:href="#DejaVuSerif-64" transform="translate(72.216797 0)"/>
    <use xlink:href="#DejaVuSerif-64" transform="translate(136.230469 0)"/>
    <use xlink:href="#DejaVuSerif-69" transform="translate(200.244141 0)"/>
    <use xlink:href="#DejaVuSerif-6e" transform="translate(232.226562 0)"/>
    <use xlink:href="#DejaVuSerif-67" transform="translate(296.630859 0)"/>
    <use xlink:href="#DejaVuSerif-20" transform="translate(360.644531 0)"/>
    <use xlink:href="#DejaVuSerif-74" transform="translate(392.431641 0)"/>
    <use xlink:href="#DejaVuSerif-68" transform="translate(432.617188 0)"/>
    <use xlink:href="#DejaVuSerif-65" transform="translate(497.021484 0)"/>
    <use xlink:href="#DejaVuSerif-20" transform="translate(556.201172 0)"/>
    <use xlink:href="#DejaVuSerif-74" transform="translate(587.988281 0)"/>
    <use xlink:href="#DejaVuSerif-68" transform="translate(628.173828 0)"/>
    <use xlink:href="#DejaVuSerif-69" transform="translate(692.578125 0)"/>
    <use xlink:href="#DejaVuSerif-72" transform="translate(724.560547 0)"/>
    <use xlink:href="#DejaVuSerif-64" transform="translate(772.363281 0)"/>
    <use xlink:href="#DejaVuSerif-20" transform="translate(836.376953 0)"/>
    <use xlink:href="#DejaVuSerif-6d" transform="translate(868.164062 0)"/>
    <use xlink:href="#DejaVuSerif-75" transform="translate(962.988281 0)"/>
    <use xlink:href="#DejaVuSerif-74" transform="translate(1027.392578 0)"/>
    <use xlink:href="#DejaVuSerif-75" transform="translate(1067.578125 0)"/>
    <use xlink:href="#DejaVuSerif-61" transform="translate(1131.982422 0)"/>
    <use xlink:href="#DejaVuSerif-6c" transform="translate(1191.601562 0)"/>
    <use xlink:href="#DejaVuSerif-6c" transform="translate(1223.583984 0)"/>
    <use xlink:href="#DejaVuSerif-79" transform="translate(1255.566406 0)"/>
    <use xlink:href="#DejaVuSerif-20" transform="translate(1312.060547 0)"/>
    <use xlink:href="#DejaVuSerif-75" transform="translate(1343.847656 0)"/>
    <use xlink:href="#DejaVuSerif-6e" transform="translate(1408.251953 0)"/>
    <use xlink:href="#DejaVuSerif-62" transform="translate(1472.65625 0)"/>
    <use xlink:href="#DejaVuSerif-69" transform="translate(1536.669922 0)"/>
    <use xlink:href="#DejaVuSerif-61" transform="translate(1568.652344 0)"/>
    <use xlink:href="#DejaVuSerif-73" transform="translate(1628.271484 0)"/>
    <use xlink:href="#DejaVuSerif-65" transform="translate(1679.589844 0)"/>
    <use xlink:href="#DejaVuSerif-64" transform="translate(1738.769531 0)"/>
    <use xlink:href="#DejaVuSerif-20" transform="translate(1802.783203 0)"/>
    <use xlink:href="#DejaVuSerif-62" transform="translate(1834.570312 0)"/>
    <use xlink:href="#DejaVuSerif-61" transform="translate(1898.583984 0)"/>
    <use xlink:href="#DejaVuSerif-73" transform="translate(1958.203125 0)"/>
    <use xlink:href="#DejaVuSerif-69" transform="translate(2009.521484 0)"/>
    <use xlink:href="#DejaVuSerif-73" transform="translate(2041.503906 0)"/>
   </g>
  </g>
 </g>
 <defs>
  <clipPath id="pad8bee4832">
   <rect x="5.636912" y="30.96" width="153.88416" height="168.3108"/>
  </clipPath>
  <clipPath id="p456510c888">
   <rect x="230.243194" y="30.96" width="153.88416" height="168.3108"/>
  </clipPath>
 </defs>
</svg>
