<?xml version="1.0" encoding="utf-8" standalone="no"?>
<!DOCTYPE svg PUBLIC "-//W3C//DTD SVG 1.1//EN"
  "http://www.w3.org/Graphics/SVG/1.1/DTD/svg11.dtd">
<svg xmlns:xlink="http://www.w3.org/1999/xlink" width="394.92pt" height="170.64pt" viewBox="0 0 394.92 170.64" xmlns="http://www.w3.org/2000/svg" version="1.1">
 <metadata>
  <rdf:RDF xmlns:dc="http://purl.org/dc/elements/1.1/" xmlns:cc="http://creativecommons.org/ns#" xmlns:rdf="http://www.w3.org/1999/02/22-rdf-syntax-ns#">
   <cc:Work>
    <dc:type rdf:resource="http://purl.org/dc/dcmitype/StillImage"/>
    <dc:date>2026-06-13T12:49:30.145323</dc:date>
    <dc:format>image/svg+xml</dc:format>
    <dc:creator>
     <cc:Agent>
      <dc:title>Matplotlib v3.10.9, https://matplotlib.org/</dc:title>
     </cc:Agent>
    </dc:creator>
   </cc:Work>
  </rdf:RDF>
 </metadata>
 <defs>
  <style type="text/css">*{stroke-linejoin: round; stroke-linecap: butt}</style>
 </defs>
 <g id="figure_1">
  <g id="patch_1">
   <path d="M 0 170.64 
L 394.92 170.64 
L 394.92 0 
L 0 0 
z
" style="fill: #ffffff"/>
  </g>
  <g id="axes_1">
   <g id="patch_2">
    <path d="M 18.7605 158.141189 
L 122.2695 158.141189 
Q 127.152 158.141189 127.152 154.769838 
L 127.152 18.11773 
Q 127.152 14.746378 122.2695 14.746378 
L 18.7605 14.746378 
Q 13.878 14.746378 13.878 18.11773 
L 13.878 154.769838 
Q 13.878 158.141189 18.7605 158.141189 
z
" clip-path="url(#p024f75d611)" style="fill: #ffffff; stroke: #2c6fbb; stroke-width: 1.4; stroke-linejoin: miter"/>
   </g>
   <g id="patch_3">
    <path d="M 15.18 33.625946 
L 125.85 33.625946 
L 125.85 15.645405 
L 15.18 15.645405 
z
" clip-path="url(#p024f75d611)" style="fill: #2c6fbb; opacity: 0.16"/>
   </g>
   <g id="patch_4">
    <path d="M 145.7055 158.141189 
L 249.2145 158.141189 
Q 254.097 158.141189 254.097 154.769838 
L 254.097 18.11773 
Q 254.097 14.746378 249.2145 14.746378 
L 145.7055 14.746378 
Q 140.823 14.746378 140.823 18.11773 
L 140.823 154.769838 
Q 140.823 158.141189 145.7055 158.141189 
z
" clip-path="url(#p024f75d611)" style="fill: #ffffff; stroke: #3a8a5f; stroke-width: 1.4; stroke-linejoin: miter"/>
   </g>
   <g id="patch_5">
    <path d="M 142.125 33.625946 
L 252.795 33.625946 
L 252.795 15.645405 
L 142.125 15.645405 
z
" clip-path="url(#p024f75d611)" style="fill: #3a8a5f; opacity: 0.16"/>
   </g>
   <g id="patch_6">
    <path d="M 272.6505 158.141189 
L 376.1595 158.141189 
Q 381.042 158.141189 381.042 154.769838 
L 381.042 18.11773 
Q 381.042 14.746378 376.1595 14.746378 
L 272.6505 14.746378 
Q 267.768 14.746378 267.768 18.11773 
L 267.768 154.769838 
Q 267.768 158.141189 272.6505 158.141189 
z
" clip-path="url(#p024f75d611)" style="fill: #ffffff; stroke: #9a6db0; stroke-width: 1.4; stroke-linejoin: miter"/>
   </g>
   <g id="patch_7">
    <path d="M 269.07 33.625946 
L 379.74 33.625946 
L 379.74 15.645405 
L 269.07 15.645405 
z
" clip-path="url(#p024f75d611)" style="fill: #9a6db0; opacity: 0.16"/>
   </g>
   <g id="text_1">
    <!-- BB84 -->
    <g style="fill: #2c6fbb" transform="translate(54.061875 27.946926) scale(0.12 -0.12)">
     <defs>
      <path id="DejaVuSerif-42" d="M 1581 331 
L 2516 331 
Q 3078 331 3337 575 
Q 3597 819 3597 1350 
Q 3597 1878 3339 2120 
Q 3081 2363 2516 2363 
L 1581 2363 
L 1581 331 
z
M 1581 2694 
L 2375 2694 
Q 2888 2694 3123 2891 
Q 3359 3088 3359 3513 
Q 3359 3941 3123 4136 
Q 2888 4331 2375 4331 
L 1581 4331 
L 1581 2694 
z
M 353 0 
L 353 331 
L 947 331 
L 947 4331 
L 353 4331 
L 353 4666 
L 2656 4666 
Q 3363 4666 3720 4377 
Q 4078 4088 4078 3513 
Q 4078 3097 3829 2850 
Q 3581 2603 3103 2547 
Q 3697 2472 4005 2167 
Q 4313 1863 4313 1350 
Q 4313 656 3875 328 
Q 3438 0 2509 0 
L 353 0 
z
" transform="scale(0.015625)"/>
      <path id="DejaVuSerif-38" d="M 2981 1275 
Q 2981 1775 2732 2051 
Q 2484 2328 2034 2328 
Q 1584 2328 1336 2051 
Q 1088 1775 1088 1275 
Q 1088 772 1336 495 
Q 1584 219 2034 219 
Q 2484 219 2732 495 
Q 2981 772 2981 1275 
z
M 2853 3541 
Q 2853 3966 2637 4203 
Q 2422 4441 2034 4441 
Q 1650 4441 1433 4203 
Q 1216 3966 1216 3541 
Q 1216 3113 1433 2875 
Q 1650 2638 2034 2638 
Q 2422 2638 2637 2875 
Q 2853 3113 2853 3541 
z
M 2516 2484 
Q 3047 2413 3344 2092 
Q 3641 1772 3641 1275 
Q 3641 619 3225 264 
Q 2809 -91 2034 -91 
Q 1263 -91 845 264 
Q 428 619 428 1275 
Q 428 1772 725 2092 
Q 1022 2413 1556 2484 
Q 1084 2569 832 2842 
Q 581 3116 581 3541 
Q 581 4103 968 4426 
Q 1356 4750 2034 4750 
Q 2713 4750 3100 4426 
Q 3488 4103 3488 3541 
Q 3488 3116 3236 2842 
Q 2984 2569 2516 2484 
z
" transform="scale(0.015625)"/>
      <path id="DejaVuSerif-34" d="M 2234 1581 
L 2234 4063 
L 641 1581 
L 2234 1581 
z
M 3609 0 
L 1484 0 
L 1484 331 
L 2234 331 
L 2234 1247 
L 197 1247 
L 197 1588 
L 2241 4750 
L 2859 4750 
L 2859 1581 
L 3750 1581 
L 3750 1247 
L 2859 1247 
L 2859 331 
L 3609 331 
L 3609 0 
z
" transform="scale(0.015625)"/>
     </defs>
     <use xlink:href="#DejaVuSerif-42"/>
     <use xlink:href="#DejaVuSerif-42" transform="translate(73.486328 0)"/>
     <use xlink:href="#DejaVuSerif-38" transform="translate(146.972656 0)"/>
     <use xlink:href="#DejaVuSerif-34" transform="translate(210.595703 0)"/>
    </g>
   </g>
   <g id="text_2">
    <!-- $\bullet$ -->
    <g style="fill: #2c6fbb" transform="translate(23.3175 48.195068) scale(0.08 -0.08)">
     <defs>
      <path id="Cmsy10-b2" d="M 1600 359 
Q 1269 359 983 526 
Q 697 694 528 984 
Q 359 1275 359 1600 
Q 359 1925 528 2215 
Q 697 2506 983 2673 
Q 1269 2841 1600 2841 
Q 1931 2841 2215 2672 
Q 2500 2503 2667 2214 
Q 2834 1925 2834 1600 
Q 2834 1275 2667 986 
Q 2500 697 2215 528 
Q 1931 359 1600 359 
z
" transform="scale(0.015625)"/>
     </defs>
     <use xlink:href="#Cmsy10-b2" transform="translate(0 0.609375)"/>
    </g>
   </g>
   <g id="text_3">
    <!-- Prepare-and-measure -->
    <g transform="translate(33.0825 48.277849) scale(0.083 -0.083)">
     <defs>
      <path id="DejaVuSerif-50" d="M 1581 2375 
L 2406 2375 
Q 2872 2375 3115 2626 
Q 3359 2878 3359 3353 
Q 3359 3831 3115 4081 
Q 2872 4331 2406 4331 
L 1581 4331 
L 1581 2375 
z
M 353 0 
L 353 331 
L 947 331 
L 947 4331 
L 353 4331 
L 353 4666 
L 2559 4666 
Q 3259 4666 3668 4311 
Q 4078 3956 4078 3353 
Q 4078 2753 3668 2397 
Q 3259 2041 2559 2041 
L 1581 2041 
L 1581 331 
L 2303 331 
L 2303 0 
L 353 0 
z
" transform="scale(0.015625)"/>
      <path id="DejaVuSerif-72" d="M 3059 3328 
L 3059 2497 
L 2728 2497 
Q 2713 2744 2591 2866 
Q 2469 2988 2234 2988 
Q 1809 2988 1582 2694 
Q 1356 2400 1356 1850 
L 1356 331 
L 2022 331 
L 2022 0 
L 263 0 
L 263 331 
L 781 331 
L 781 2994 
L 231 2994 
L 231 3322 
L 1356 3322 
L 1356 2731 
Q 1525 3078 1790 3245 
Q 2056 3413 2438 3413 
Q 2578 3413 2733 3391 
Q 2888 3369 3059 3328 
z
" transform="scale(0.015625)"/>
      <path id="DejaVuSerif-65" d="M 3469 1600 
L 991 1600 
L 991 1575 
Q 991 903 1244 561 
Q 1497 219 1991 219 
Q 2369 219 2611 417 
Q 2853 616 2950 1006 
L 3413 1006 
Q 3275 459 2904 184 
Q 2534 -91 1931 -91 
Q 1203 -91 761 389 
Q 319 869 319 1663 
Q 319 2450 753 2931 
Q 1188 3413 1894 3413 
Q 2647 3413 3050 2948 
Q 3453 2484 3469 1600 
z
M 2791 1931 
Q 2772 2513 2545 2808 
Q 2319 3103 1894 3103 
Q 1497 3103 1269 2806 
Q 1041 2509 991 1931 
L 2791 1931 
z
" transform="scale(0.015625)"/>
      <path id="DejaVuSerif-70" d="M 1313 1825 
L 1313 1497 
Q 1313 897 1542 583 
Q 1772 269 2209 269 
Q 2650 269 2876 622 
Q 3103 975 3103 1663 
Q 3103 2353 2876 2703 
Q 2650 3053 2209 3053 
Q 1772 3053 1542 2737 
Q 1313 2422 1313 1825 
z
M 738 2988 
L 184 2988 
L 184 3322 
L 1313 3322 
L 1313 2803 
Q 1481 3116 1742 3264 
Q 2003 3413 2388 3413 
Q 3000 3413 3387 2928 
Q 3775 2444 3775 1663 
Q 3775 881 3387 395 
Q 3000 -91 2388 -91 
Q 2003 -91 1742 57 
Q 1481 206 1313 519 
L 1313 -997 
L 1856 -997 
L 1856 -1331 
L 184 -1331 
L 184 -997 
L 738 -997 
L 738 2988 
z
" transform="scale(0.015625)"/>
      <path id="DejaVuSerif-61" d="M 2547 1044 
L 2547 1747 
L 1806 1747 
Q 1378 1747 1168 1562 
Q 959 1378 959 997 
Q 959 650 1171 447 
Q 1384 244 1747 244 
Q 2106 244 2326 466 
Q 2547 688 2547 1044 
z
M 3122 2075 
L 3122 331 
L 3634 331 
L 3634 0 
L 2547 0 
L 2547 359 
Q 2356 128 2106 18 
Q 1856 -91 1522 -91 
Q 969 -91 644 203 
Q 319 497 319 997 
Q 319 1513 691 1797 
Q 1063 2081 1741 2081 
L 2547 2081 
L 2547 2309 
Q 2547 2688 2317 2895 
Q 2088 3103 1672 3103 
Q 1328 3103 1125 2947 
Q 922 2791 872 2484 
L 575 2484 
L 575 3156 
Q 875 3284 1158 3348 
Q 1441 3413 1709 3413 
Q 2400 3413 2761 3070 
Q 3122 2728 3122 2075 
z
" transform="scale(0.015625)"/>
      <path id="DejaVuSerif-2d" d="M 281 1959 
L 1881 1959 
L 1881 1472 
L 281 1472 
L 281 1959 
z
" transform="scale(0.015625)"/>
      <path id="DejaVuSerif-6e" d="M 263 0 
L 263 331 
L 781 331 
L 781 2988 
L 231 2988 
L 231 3322 
L 1356 3322 
L 1356 2731 
Q 1516 3069 1770 3241 
Q 2025 3413 2363 3413 
Q 2913 3413 3172 3097 
Q 3431 2781 3431 2113 
L 3431 331 
L 3944 331 
L 3944 0 
L 2356 0 
L 2356 331 
L 2853 331 
L 2853 1931 
Q 2853 2541 2703 2767 
Q 2553 2994 2175 2994 
Q 1775 2994 1565 2701 
Q 1356 2409 1356 1850 
L 1356 331 
L 1856 331 
L 1856 0 
L 263 0 
z
" transform="scale(0.015625)"/>
      <path id="DejaVuSerif-64" d="M 3359 331 
L 3909 331 
L 3909 0 
L 2784 0 
L 2784 519 
Q 2616 206 2355 57 
Q 2094 -91 1709 -91 
Q 1097 -91 708 395 
Q 319 881 319 1663 
Q 319 2444 706 2928 
Q 1094 3413 1709 3413 
Q 2094 3413 2355 3264 
Q 2616 3116 2784 2803 
L 2784 4531 
L 2241 4531 
L 2241 4863 
L 3359 4863 
L 3359 331 
z
M 2784 1497 
L 2784 1825 
Q 2784 2422 2554 2737 
Q 2325 3053 1888 3053 
Q 1444 3053 1217 2703 
Q 991 2353 991 1663 
Q 991 975 1217 622 
Q 1444 269 1888 269 
Q 2325 269 2554 583 
Q 2784 897 2784 1497 
z
" transform="scale(0.015625)"/>
      <path id="DejaVuSerif-6d" d="M 3316 2675 
Q 3481 3041 3739 3227 
Q 3997 3413 4341 3413 
Q 4863 3413 5119 3089 
Q 5375 2766 5375 2113 
L 5375 331 
L 5894 331 
L 5894 0 
L 4300 0 
L 4300 331 
L 4800 331 
L 4800 2047 
Q 4800 2556 4650 2772 
Q 4500 2988 4153 2988 
Q 3769 2988 3567 2697 
Q 3366 2406 3366 1850 
L 3366 331 
L 3866 331 
L 3866 0 
L 2291 0 
L 2291 331 
L 2791 331 
L 2791 2069 
Q 2791 2566 2641 2777 
Q 2491 2988 2144 2988 
Q 1759 2988 1557 2697 
Q 1356 2406 1356 1850 
L 1356 331 
L 1856 331 
L 1856 0 
L 263 0 
L 263 331 
L 781 331 
L 781 2994 
L 231 2994 
L 231 3322 
L 1356 3322 
L 1356 2731 
Q 1516 3063 1762 3238 
Q 2009 3413 2322 3413 
Q 2709 3413 2968 3220 
Q 3228 3028 3316 2675 
z
" transform="scale(0.015625)"/>
      <path id="DejaVuSerif-73" d="M 359 184 
L 359 959 
L 691 959 
Q 703 588 923 403 
Q 1144 219 1575 219 
Q 1963 219 2166 364 
Q 2369 509 2369 788 
Q 2369 1006 2220 1140 
Q 2072 1275 1594 1428 
L 1178 1569 
Q 750 1706 558 1912 
Q 366 2119 366 2438 
Q 366 2894 700 3153 
Q 1034 3413 1625 3413 
Q 1888 3413 2178 3344 
Q 2469 3275 2778 3144 
L 2778 2419 
L 2447 2419 
Q 2434 2741 2221 2922 
Q 2009 3103 1644 3103 
Q 1281 3103 1095 2975 
Q 909 2847 909 2591 
Q 909 2381 1050 2254 
Q 1191 2128 1613 1997 
L 2069 1856 
Q 2541 1709 2748 1489 
Q 2956 1269 2956 922 
Q 2956 450 2595 179 
Q 2234 -91 1600 -91 
Q 1278 -91 972 -22 
Q 666 47 359 184 
z
" transform="scale(0.015625)"/>
      <path id="DejaVuSerif-75" d="M 2266 3322 
L 3341 3322 
L 3341 331 
L 3884 331 
L 3884 0 
L 2766 0 
L 2766 588 
Q 2606 256 2353 82 
Q 2100 -91 1766 -91 
Q 1213 -91 952 223 
Q 691 538 691 1209 
L 691 2988 
L 172 2988 
L 172 3322 
L 1269 3322 
L 1269 1388 
Q 1269 781 1417 556 
Q 1566 331 1947 331 
Q 2347 331 2556 625 
Q 2766 919 2766 1478 
L 2766 2988 
L 2266 2988 
L 2266 3322 
z
" transform="scale(0.015625)"/>
     </defs>
     <use xlink:href="#DejaVuSerif-50"/>
     <use xlink:href="#DejaVuSerif-72" transform="translate(67.285156 0)"/>
     <use xlink:href="#DejaVuSerif-65" transform="translate(115.087891 0)"/>
     <use xlink:href="#DejaVuSerif-70" transform="translate(174.267578 0)"/>
     <use xlink:href="#DejaVuSerif-61" transform="translate(238.28125 0)"/>
     <use xlink:href="#DejaVuSerif-72" transform="translate(297.900391 0)"/>
     <use xlink:href="#DejaVuSerif-65" transform="translate(345.703125 0)"/>
     <use xlink:href="#DejaVuSerif-2d" transform="translate(404.882812 0)"/>
     <use xlink:href="#DejaVuSerif-61" transform="translate(438.671875 0)"/>
     <use xlink:href="#DejaVuSerif-6e" transform="translate(498.291016 0)"/>
     <use xlink:href="#DejaVuSerif-64" transform="translate(562.695312 0)"/>
     <use xlink:href="#DejaVuSerif-2d" transform="translate(626.708984 0)"/>
     <use xlink:href="#DejaVuSerif-6d" transform="translate(660.498047 0)"/>
     <use xlink:href="#DejaVuSerif-65" transform="translate(755.322266 0)"/>
     <use xlink:href="#DejaVuSerif-61" transform="translate(814.501953 0)"/>
     <use xlink:href="#DejaVuSerif-73" transform="translate(874.121094 0)"/>
     <use xlink:href="#DejaVuSerif-75" transform="translate(925.439453 0)"/>
     <use xlink:href="#DejaVuSerif-72" transform="translate(989.84375 0)"/>
     <use xlink:href="#DejaVuSerif-65" transform="translate(1037.646484 0)"/>
    </g>
   </g>
   <g id="text_4">
    <!-- $\bullet$ -->
    <g style="fill: #2c6fbb" transform="translate(23.3175 69.546959) scale(0.08 -0.08)">
     <use xlink:href="#Cmsy10-b2" transform="translate(0 0.609375)"/>
    </g>
   </g>
   <g id="text_5">
    <!-- 2 bases  $Z, X$ -->
    <g transform="translate(33.0825 69.629741) scale(0.083 -0.083)">
     <defs>
      <path id="DejaVuSerif-32" d="M 819 3553 
L 469 3553 
L 469 4384 
Q 803 4563 1142 4656 
Q 1481 4750 1806 4750 
Q 2534 4750 2956 4397 
Q 3378 4044 3378 3438 
Q 3378 2753 2422 1800 
Q 2347 1728 2309 1691 
L 1131 513 
L 3078 513 
L 3078 1088 
L 3444 1088 
L 3444 0 
L 434 0 
L 434 341 
L 1850 1753 
Q 2319 2222 2519 2614 
Q 2719 3006 2719 3438 
Q 2719 3909 2473 4175 
Q 2228 4441 1797 4441 
Q 1350 4441 1106 4219 
Q 863 3997 819 3553 
z
" transform="scale(0.015625)"/>
      <path id="DejaVuSerif-20" transform="scale(0.015625)"/>
      <path id="DejaVuSerif-62" d="M 738 331 
L 738 4531 
L 184 4531 
L 184 4863 
L 1313 4863 
L 1313 2803 
Q 1481 3116 1742 3264 
Q 2003 3413 2388 3413 
Q 3000 3413 3387 2928 
Q 3775 2444 3775 1663 
Q 3775 881 3387 395 
Q 3000 -91 2388 -91 
Q 2003 -91 1742 57 
Q 1481 206 1313 519 
L 1313 0 
L 184 0 
L 184 331 
L 738 331 
z
M 1313 1497 
Q 1313 897 1542 583 
Q 1772 269 2209 269 
Q 2650 269 2876 622 
Q 3103 975 3103 1663 
Q 3103 2353 2876 2703 
Q 2650 3053 2209 3053 
Q 1772 3053 1542 2737 
Q 1313 2422 1313 1825 
L 1313 1497 
z
" transform="scale(0.015625)"/>
      <path id="Cmmi10-5a" d="M 372 50 
Q 372 144 416 197 
L 3938 4147 
L 2994 4147 
Q 2525 4147 2217 4036 
Q 1909 3925 1707 3667 
Q 1506 3409 1369 2963 
Q 1356 2906 1306 2906 
L 1247 2906 
Q 1184 2906 1184 2988 
L 1588 4313 
Q 1600 4372 1650 4372 
L 4569 4372 
Q 4622 4372 4622 4319 
Q 4622 4225 4581 4184 
L 1075 244 
L 2047 244 
Q 2613 244 2936 383 
Q 3259 522 3448 822 
Q 3638 1122 3816 1678 
Q 3822 1700 3839 1717 
Q 3856 1734 3878 1734 
L 3938 1734 
Q 4000 1734 4000 1650 
L 3494 56 
Q 3466 0 3431 0 
L 428 0 
Q 372 0 372 50 
z
" transform="scale(0.015625)"/>
      <path id="Cmmi10-3b" d="M 634 -1153 
Q 634 -1125 659 -1100 
Q 891 -878 1019 -587 
Q 1147 -297 1147 25 
L 1147 103 
Q 1044 0 891 0 
Q 744 0 641 103 
Q 538 206 538 353 
Q 538 503 641 603 
Q 744 703 891 703 
Q 1119 703 1216 492 
Q 1313 281 1313 25 
Q 1313 -331 1170 -651 
Q 1028 -972 769 -1228 
Q 744 -1241 728 -1241 
Q 697 -1241 665 -1212 
Q 634 -1184 634 -1153 
z
" transform="scale(0.015625)"/>
      <path id="Cmmi10-58" d="M 231 0 
Q 166 0 166 84 
Q 169 100 180 140 
Q 191 181 208 203 
Q 225 225 256 225 
Q 838 225 1253 659 
Q 1259 666 1267 669 
Q 1275 672 1275 672 
L 2675 2181 
L 1913 4019 
Q 1847 4103 1700 4125 
Q 1553 4147 1356 4147 
Q 1294 4147 1294 4231 
Q 1316 4313 1328 4342 
Q 1341 4372 1403 4372 
L 3003 4372 
Q 3066 4372 3066 4288 
Q 3063 4272 3052 4231 
Q 3041 4191 3023 4169 
Q 3006 4147 2975 4147 
Q 2856 4147 2729 4108 
Q 2603 4069 2553 3981 
L 3103 2656 
L 4153 3781 
Q 4163 3803 4197 3858 
Q 4231 3913 4231 3963 
Q 4231 4056 4150 4101 
Q 4069 4147 3956 4147 
Q 3891 4147 3891 4231 
Q 3913 4313 3925 4342 
Q 3938 4372 4000 4372 
L 5388 4372 
Q 5422 4372 5437 4347 
Q 5453 4322 5453 4288 
Q 5450 4272 5440 4234 
Q 5431 4197 5415 4172 
Q 5400 4147 5369 4147 
Q 5072 4147 4823 4039 
Q 4575 3931 4366 3713 
Q 4363 3709 4358 3707 
Q 4353 3706 4347 3700 
L 3188 2450 
L 4063 353 
Q 4166 225 4622 225 
Q 4684 225 4684 141 
Q 4663 56 4648 28 
Q 4634 0 4575 0 
L 2975 0 
Q 2913 0 2913 84 
Q 2916 100 2925 139 
Q 2934 178 2951 201 
Q 2969 225 2994 225 
Q 3119 225 3247 264 
Q 3375 303 3425 391 
L 2759 1984 
L 1466 588 
Q 1456 566 1422 512 
Q 1388 459 1388 409 
Q 1388 316 1475 270 
Q 1563 225 1663 225 
Q 1728 225 1728 141 
Q 1706 50 1693 25 
Q 1681 0 1619 0 
L 231 0 
z
" transform="scale(0.015625)"/>
     </defs>
     <use xlink:href="#DejaVuSerif-32" transform="translate(0 0.015625)"/>
     <use xlink:href="#DejaVuSerif-20" transform="translate(63.623047 0.015625)"/>
     <use xlink:href="#DejaVuSerif-62" transform="translate(95.410156 0.015625)"/>
     <use xlink:href="#DejaVuSerif-61" transform="translate(159.423828 0.015625)"/>
     <use xlink:href="#DejaVuSerif-73" transform="translate(219.042969 0.015625)"/>
     <use xlink:href="#DejaVuSerif-65" transform="translate(270.361328 0.015625)"/>
     <use xlink:href="#DejaVuSerif-73" transform="translate(329.541016 0.015625)"/>
     <use xlink:href="#DejaVuSerif-20" transform="translate(380.859375 0.015625)"/>
     <use xlink:href="#DejaVuSerif-20" transform="translate(412.646484 0.015625)"/>
     <use xlink:href="#Cmmi10-5a" transform="translate(444.433594 0.015625)"/>
     <use xlink:href="#Cmmi10-3b" transform="translate(512.646484 0.015625)"/>
     <use xlink:href="#Cmmi10-58" transform="translate(557.890625 0.015625)"/>
    </g>
   </g>
   <g id="text_6">
    <!-- $\bullet$ -->
    <g style="fill: #2c6fbb" transform="translate(23.3175 90.898851) scale(0.08 -0.08)">
     <use xlink:href="#Cmsy10-b2" transform="translate(0 0.609375)"/>
    </g>
   </g>
   <g id="text_7">
    <!-- Sifting  $\approx 1/2$ -->
    <g transform="translate(33.0825 90.807851) scale(0.083 -0.083)">
     <defs>
      <path id="DejaVuSerif-53" d="M 594 225 
L 594 1288 
L 953 1284 
Q 969 753 1261 498 
Q 1553 244 2150 244 
Q 2706 244 2998 464 
Q 3291 684 3291 1106 
Q 3291 1444 3114 1625 
Q 2938 1806 2369 1978 
L 1753 2163 
Q 1084 2366 811 2669 
Q 538 2972 538 3500 
Q 538 4094 959 4422 
Q 1381 4750 2144 4750 
Q 2469 4750 2856 4679 
Q 3244 4609 3681 4475 
L 3681 3481 
L 3328 3481 
Q 3275 3975 2998 4195 
Q 2722 4416 2156 4416 
Q 1663 4416 1405 4214 
Q 1147 4013 1147 3628 
Q 1147 3294 1340 3103 
Q 1534 2913 2163 2725 
L 2741 2553 
Q 3375 2363 3645 2067 
Q 3916 1772 3916 1275 
Q 3916 597 3481 253 
Q 3047 -91 2188 -91 
Q 1803 -91 1404 -12 
Q 1006 66 594 225 
z
" transform="scale(0.015625)"/>
      <path id="DejaVuSerif-69" d="M 622 4353 
Q 622 4497 726 4603 
Q 831 4709 978 4709 
Q 1122 4709 1226 4603 
Q 1331 4497 1331 4353 
Q 1331 4206 1228 4103 
Q 1125 4000 978 4000 
Q 831 4000 726 4103 
Q 622 4206 622 4353 
z
M 1356 331 
L 1900 331 
L 1900 0 
L 231 0 
L 231 331 
L 781 331 
L 781 2988 
L 231 2988 
L 231 3322 
L 1356 3322 
L 1356 331 
z
" transform="scale(0.015625)"/>
      <path id="DejaVuSerif-66" d="M 2753 4078 
L 2450 4078 
Q 2447 4313 2317 4434 
Q 2188 4556 1941 4556 
Q 1619 4556 1487 4379 
Q 1356 4203 1356 3750 
L 1356 3322 
L 2284 3322 
L 2284 2988 
L 1356 2988 
L 1356 331 
L 2094 331 
L 2094 0 
L 231 0 
L 231 331 
L 781 331 
L 781 2988 
L 231 2988 
L 231 3322 
L 781 3322 
L 781 3738 
Q 781 4294 1070 4578 
Q 1359 4863 1919 4863 
Q 2128 4863 2337 4825 
Q 2547 4788 2753 4709 
L 2753 4078 
z
" transform="scale(0.015625)"/>
      <path id="DejaVuSerif-74" d="M 691 2988 
L 184 2988 
L 184 3322 
L 691 3322 
L 691 4353 
L 1269 4353 
L 1269 3322 
L 2350 3322 
L 2350 2988 
L 1269 2988 
L 1269 878 
Q 1269 456 1350 337 
Q 1431 219 1650 219 
Q 1875 219 1978 351 
Q 2081 484 2088 781 
L 2522 781 
Q 2497 328 2275 118 
Q 2053 -91 1600 -91 
Q 1103 -91 897 129 
Q 691 350 691 878 
L 691 2988 
z
" transform="scale(0.015625)"/>
      <path id="DejaVuSerif-67" d="M 3359 2988 
L 3359 72 
Q 3359 -644 2965 -1033 
Q 2572 -1422 1844 -1422 
Q 1516 -1422 1216 -1362 
Q 916 -1303 641 -1184 
L 641 -488 
L 941 -488 
Q 997 -813 1206 -963 
Q 1416 -1113 1806 -1113 
Q 2313 -1113 2548 -827 
Q 2784 -541 2784 72 
L 2784 519 
Q 2616 206 2355 57 
Q 2094 -91 1709 -91 
Q 1097 -91 708 395 
Q 319 881 319 1663 
Q 319 2444 706 2928 
Q 1094 3413 1709 3413 
Q 2094 3413 2355 3264 
Q 2616 3116 2784 2803 
L 2784 3322 
L 3909 3322 
L 3909 2988 
L 3359 2988 
z
M 2784 1825 
Q 2784 2422 2554 2737 
Q 2325 3053 1888 3053 
Q 1444 3053 1217 2703 
Q 991 2353 991 1663 
Q 991 975 1217 622 
Q 1444 269 1888 269 
Q 2325 269 2554 583 
Q 2784 897 2784 1497 
L 2784 1825 
z
" transform="scale(0.015625)"/>
      <path id="Cmsy10-bc" d="M 447 359 
Q 378 359 359 519 
L 359 556 
Q 359 847 501 1087 
Q 644 1328 891 1464 
Q 1138 1600 1422 1600 
Q 1766 1600 2130 1379 
Q 2494 1159 2853 937 
Q 3213 716 3553 716 
Q 3881 716 4157 919 
Q 4434 1122 4434 1441 
Q 4453 1600 4525 1600 
Q 4597 1600 4616 1441 
L 4616 1403 
Q 4616 1113 4472 872 
Q 4328 631 4083 495 
Q 3838 359 3553 359 
Q 3284 359 3048 470 
Q 2813 581 2495 795 
Q 2178 1009 1937 1125 
Q 1697 1241 1422 1241 
Q 1219 1241 1009 1150 
Q 800 1059 669 895 
Q 538 731 538 519 
Q 519 359 447 359 
z
M 447 1850 
Q 378 1850 359 2009 
L 359 2047 
Q 359 2338 501 2578 
Q 644 2819 891 2955 
Q 1138 3091 1422 3091 
Q 1766 3091 2130 2870 
Q 2494 2650 2853 2429 
Q 3213 2209 3553 2209 
Q 3881 2209 4157 2412 
Q 4434 2616 4434 2931 
Q 4453 3091 4525 3091 
Q 4597 3091 4616 2931 
L 4616 2894 
Q 4616 2603 4472 2362 
Q 4328 2122 4083 1986 
Q 3838 1850 3553 1850 
Q 3284 1850 3048 1961 
Q 2813 2072 2495 2286 
Q 2178 2500 1937 2615 
Q 1697 2731 1422 2731 
Q 1219 2731 1009 2640 
Q 800 2550 669 2386 
Q 538 2222 538 2009 
Q 519 1850 447 1850 
z
" transform="scale(0.015625)"/>
      <path id="Cmr10-31" d="M 594 0 
L 594 225 
Q 1394 225 1394 428 
L 1394 3788 
Q 1063 3628 556 3628 
L 556 3853 
Q 1341 3853 1741 4263 
L 1831 4263 
Q 1853 4263 1873 4245 
Q 1894 4228 1894 4206 
L 1894 428 
Q 1894 225 2694 225 
L 2694 0 
L 594 0 
z
" transform="scale(0.015625)"/>
      <path id="Cmmi10-3d" d="M 359 -1472 
Q 359 -1453 366 -1447 
L 2591 4722 
Q 2603 4759 2634 4779 
Q 2666 4800 2706 4800 
Q 2763 4800 2798 4765 
Q 2834 4731 2834 4672 
L 2834 4647 
L 609 -1522 
Q 572 -1600 488 -1600 
Q 434 -1600 396 -1562 
Q 359 -1525 359 -1472 
z
" transform="scale(0.015625)"/>
      <path id="Cmr10-32" d="M 319 0 
L 319 172 
Q 319 188 331 206 
L 1325 1306 
Q 1550 1550 1690 1715 
Q 1831 1881 1968 2097 
Q 2106 2313 2186 2536 
Q 2266 2759 2266 3009 
Q 2266 3272 2169 3511 
Q 2072 3750 1880 3894 
Q 1688 4038 1416 4038 
Q 1138 4038 916 3870 
Q 694 3703 603 3438 
Q 628 3444 672 3444 
Q 816 3444 917 3347 
Q 1019 3250 1019 3097 
Q 1019 2950 917 2848 
Q 816 2747 672 2747 
Q 522 2747 420 2851 
Q 319 2956 319 3097 
Q 319 3338 409 3548 
Q 500 3759 670 3923 
Q 841 4088 1055 4175 
Q 1269 4263 1509 4263 
Q 1875 4263 2190 4108 
Q 2506 3953 2690 3670 
Q 2875 3388 2875 3009 
Q 2875 2731 2753 2481 
Q 2631 2231 2440 2026 
Q 2250 1822 1953 1562 
Q 1656 1303 1563 1216 
L 838 519 
L 1453 519 
Q 1906 519 2211 526 
Q 2516 534 2534 550 
Q 2609 631 2688 1141 
L 2875 1141 
L 2694 0 
L 319 0 
z
" transform="scale(0.015625)"/>
     </defs>
     <use xlink:href="#DejaVuSerif-53" transform="translate(0 0.015625)"/>
     <use xlink:href="#DejaVuSerif-69" transform="translate(68.505859 0.015625)"/>
     <use xlink:href="#DejaVuSerif-66" transform="translate(100.488281 0.015625)"/>
     <use xlink:href="#DejaVuSerif-74" transform="translate(137.5 0.015625)"/>
     <use xlink:href="#DejaVuSerif-69" transform="translate(177.685547 0.015625)"/>
     <use xlink:href="#DejaVuSerif-6e" transform="translate(209.667969 0.015625)"/>
     <use xlink:href="#DejaVuSerif-67" transform="translate(274.072266 0.015625)"/>
     <use xlink:href="#DejaVuSerif-20" transform="translate(338.085938 0.015625)"/>
     <use xlink:href="#DejaVuSerif-20" transform="translate(369.873047 0.015625)"/>
     <use xlink:href="#Cmsy10-bc" transform="translate(419.21875 0.015625)"/>
     <use xlink:href="#Cmr10-31" transform="translate(514.462891 0.015625)"/>
     <use xlink:href="#Cmmi10-3d" transform="translate(564.462891 0.015625)"/>
     <use xlink:href="#Cmr10-32" transform="translate(614.462891 0.015625)"/>
    </g>
   </g>
   <g id="text_8">
    <!-- $\bullet$ -->
    <g style="fill: #2c6fbb" transform="translate(23.3175 112.250743) scale(0.08 -0.08)">
     <use xlink:href="#Cmsy10-b2" transform="translate(0 0.609375)"/>
    </g>
   </g>
   <g id="text_9">
    <!-- Full attack QBER  $\approx 25\%$ -->
    <g transform="translate(33.0825 112.333524) scale(0.083 -0.083)">
     <defs>
      <path id="DejaVuSerif-46" d="M 353 0 
L 353 331 
L 947 331 
L 947 4331 
L 353 4331 
L 353 4666 
L 4172 4666 
L 4172 3628 
L 3788 3628 
L 3788 4281 
L 1581 4281 
L 1581 2719 
L 3175 2719 
L 3175 3303 
L 3559 3303 
L 3559 1753 
L 3175 1753 
L 3175 2338 
L 1581 2338 
L 1581 331 
L 2328 331 
L 2328 0 
L 353 0 
z
" transform="scale(0.015625)"/>
      <path id="DejaVuSerif-6c" d="M 1313 331 
L 1856 331 
L 1856 0 
L 184 0 
L 184 331 
L 738 331 
L 738 4531 
L 184 4531 
L 184 4863 
L 1313 4863 
L 1313 331 
z
" transform="scale(0.015625)"/>
      <path id="DejaVuSerif-63" d="M 3291 997 
Q 3169 466 2822 187 
Q 2475 -91 1925 -91 
Q 1200 -91 759 389 
Q 319 869 319 1663 
Q 319 2459 759 2936 
Q 1200 3413 1925 3413 
Q 2241 3413 2553 3339 
Q 2866 3266 3181 3116 
L 3181 2266 
L 2847 2266 
Q 2781 2703 2561 2903 
Q 2341 3103 1931 3103 
Q 1466 3103 1228 2742 
Q 991 2381 991 1663 
Q 991 944 1227 581 
Q 1463 219 1931 219 
Q 2303 219 2525 412 
Q 2747 606 2828 997 
L 3291 997 
z
" transform="scale(0.015625)"/>
      <path id="DejaVuSerif-6b" d="M 1831 0 
L 219 0 
L 219 331 
L 738 331 
L 738 4531 
L 184 4531 
L 184 4863 
L 1313 4863 
L 1313 1697 
L 2713 2988 
L 2234 2988 
L 2234 3322 
L 3738 3322 
L 3738 2988 
L 3169 2988 
L 2181 2075 
L 3444 331 
L 3922 331 
L 3922 0 
L 2284 0 
L 2284 331 
L 2759 331 
L 1766 1697 
L 1313 1275 
L 1313 331 
L 1831 331 
L 1831 0 
z
" transform="scale(0.015625)"/>
      <path id="DejaVuSerif-51" d="M 2700 -91 
Q 1628 -91 993 567 
Q 359 1225 359 2328 
Q 359 2894 529 3339 
Q 700 3784 1050 4134 
Q 1356 4441 1750 4595 
Q 2144 4750 2625 4750 
Q 3641 4750 4266 4084 
Q 4891 3419 4891 2328 
Q 4891 1403 4422 773 
Q 3953 144 3128 -38 
Q 3297 -247 3539 -347 
Q 3781 -447 4122 -447 
L 4219 -447 
L 4219 -1025 
Q 3691 -1000 3314 -767 
Q 2938 -534 2700 -91 
z
M 2625 244 
Q 3391 244 3781 770 
Q 4172 1297 4172 2328 
Q 4172 3363 3781 3889 
Q 3391 4416 2625 4416 
Q 1856 4416 1465 3889 
Q 1075 3363 1075 2328 
Q 1075 1297 1465 770 
Q 1856 244 2625 244 
z
" transform="scale(0.015625)"/>
      <path id="DejaVuSerif-45" d="M 353 0 
L 353 331 
L 947 331 
L 947 4331 
L 353 4331 
L 353 4666 
L 4109 4666 
L 4109 3628 
L 3725 3628 
L 3725 4281 
L 1581 4281 
L 1581 2719 
L 3109 2719 
L 3109 3303 
L 3494 3303 
L 3494 1753 
L 3109 1753 
L 3109 2338 
L 1581 2338 
L 1581 384 
L 3775 384 
L 3775 1038 
L 4159 1038 
L 4159 0 
L 353 0 
z
" transform="scale(0.015625)"/>
      <path id="DejaVuSerif-52" d="M 3066 2316 
Q 3284 2256 3442 2114 
Q 3600 1972 3725 1716 
L 4403 331 
L 4972 331 
L 4972 0 
L 3872 0 
L 3144 1484 
Q 2934 1916 2759 2042 
Q 2584 2169 2278 2169 
L 1581 2169 
L 1581 331 
L 2241 331 
L 2241 0 
L 353 0 
L 353 331 
L 947 331 
L 947 4331 
L 353 4331 
L 353 4666 
L 2719 4666 
Q 3400 4666 3770 4341 
Q 4141 4016 4141 3419 
Q 4141 2938 3870 2661 
Q 3600 2384 3066 2316 
z
M 1581 2503 
L 2503 2503 
Q 2975 2503 3200 2726 
Q 3425 2950 3425 3419 
Q 3425 3888 3200 4109 
Q 2975 4331 2503 4331 
L 1581 4331 
L 1581 2503 
z
" transform="scale(0.015625)"/>
      <path id="Cmr10-35" d="M 556 728 
Q 622 541 758 387 
Q 894 234 1080 148 
Q 1266 63 1466 63 
Q 1928 63 2103 422 
Q 2278 781 2278 1294 
Q 2278 1516 2270 1667 
Q 2263 1819 2228 1959 
Q 2169 2184 2020 2353 
Q 1872 2522 1656 2522 
Q 1441 2522 1286 2456 
Q 1131 2391 1034 2303 
Q 938 2216 863 2119 
Q 788 2022 769 2016 
L 697 2016 
Q 681 2016 657 2036 
Q 634 2056 634 2075 
L 634 4213 
Q 634 4228 654 4245 
Q 675 4263 697 4263 
L 716 4263 
Q 1147 4056 1631 4056 
Q 2106 4056 2547 4263 
L 2566 4263 
Q 2588 4263 2606 4247 
Q 2625 4231 2625 4213 
L 2625 4153 
Q 2625 4122 2613 4122 
Q 2394 3831 2064 3668 
Q 1734 3506 1381 3506 
Q 1125 3506 856 3578 
L 856 2369 
Q 1069 2541 1236 2614 
Q 1403 2688 1663 2688 
Q 2016 2688 2295 2484 
Q 2575 2281 2725 1954 
Q 2875 1628 2875 1288 
Q 2875 903 2686 575 
Q 2497 247 2172 53 
Q 1847 -141 1466 -141 
Q 1150 -141 886 21 
Q 622 184 470 459 
Q 319 734 319 1044 
Q 319 1188 412 1278 
Q 506 1369 647 1369 
Q 788 1369 883 1276 
Q 978 1184 978 1044 
Q 978 906 883 811 
Q 788 716 647 716 
Q 625 716 597 720 
Q 569 725 556 728 
z
" transform="scale(0.015625)"/>
      <path id="Cmr10-25" d="M 891 -231 
Q 891 -194 909 -166 
L 3809 4153 
Q 3425 3938 2963 3938 
Q 2463 3938 2003 4197 
Q 2131 3891 2131 3513 
Q 2131 3306 2082 3086 
Q 2034 2866 1934 2670 
Q 1834 2475 1676 2348 
Q 1519 2222 1306 2222 
Q 1006 2222 790 2422 
Q 575 2622 467 2922 
Q 359 3222 359 3513 
Q 359 3797 467 4098 
Q 575 4400 790 4600 
Q 1006 4800 1306 4800 
Q 1544 4800 1741 4609 
Q 2256 4103 2963 4103 
Q 3341 4103 3669 4270 
Q 3997 4438 4206 4750 
Q 4238 4800 4306 4800 
Q 4363 4800 4398 4765 
Q 4434 4731 4434 4672 
Q 4434 4638 4416 4609 
L 1113 -319 
Q 1084 -359 1019 -359 
Q 966 -359 928 -318 
Q 891 -278 891 -231 
z
M 1306 2388 
Q 1622 2388 1784 2764 
Q 1947 3141 1947 3513 
Q 1947 3722 1880 3989 
Q 1813 4256 1669 4445 
Q 1525 4634 1306 4634 
Q 988 4634 884 4279 
Q 781 3925 781 3506 
Q 781 3103 887 2745 
Q 994 2388 1306 2388 
z
M 4141 -359 
Q 3841 -359 3625 -159 
Q 3409 41 3301 342 
Q 3194 644 3194 934 
Q 3194 1219 3301 1520 
Q 3409 1822 3625 2022 
Q 3841 2222 4141 2222 
Q 4419 2222 4606 2011 
Q 4794 1800 4880 1503 
Q 4966 1206 4966 934 
Q 4966 728 4917 509 
Q 4869 291 4770 92 
Q 4672 -106 4514 -232 
Q 4356 -359 4141 -359 
z
M 4141 -191 
Q 4356 -191 4503 1 
Q 4650 194 4715 459 
Q 4781 725 4781 934 
Q 4781 1303 4618 1678 
Q 4456 2053 4141 2053 
Q 3822 2053 3719 1698 
Q 3616 1344 3616 928 
Q 3616 522 3722 165 
Q 3828 -191 4141 -191 
z
" transform="scale(0.015625)"/>
     </defs>
     <use xlink:href="#DejaVuSerif-46" transform="translate(0 0.015625)"/>
     <use xlink:href="#DejaVuSerif-75" transform="translate(69.384766 0.015625)"/>
     <use xlink:href="#DejaVuSerif-6c" transform="translate(133.789062 0.015625)"/>
     <use xlink:href="#DejaVuSerif-6c" transform="translate(165.771484 0.015625)"/>
     <use xlink:href="#DejaVuSerif-20" transform="translate(197.753906 0.015625)"/>
     <use xlink:href="#DejaVuSerif-61" transform="translate(229.541016 0.015625)"/>
     <use xlink:href="#DejaVuSerif-74" transform="translate(289.160156 0.015625)"/>
     <use xlink:href="#DejaVuSerif-74" transform="translate(329.345703 0.015625)"/>
     <use xlink:href="#DejaVuSerif-61" transform="translate(369.53125 0.015625)"/>
     <use xlink:href="#DejaVuSerif-63" transform="translate(429.150391 0.015625)"/>
     <use xlink:href="#DejaVuSerif-6b" transform="translate(485.15625 0.015625)"/>
     <use xlink:href="#DejaVuSerif-20" transform="translate(545.751953 0.015625)"/>
     <use xlink:href="#DejaVuSerif-51" transform="translate(577.539062 0.015625)"/>
     <use xlink:href="#DejaVuSerif-42" transform="translate(659.521484 0.015625)"/>
     <use xlink:href="#DejaVuSerif-45" transform="translate(733.007812 0.015625)"/>
     <use xlink:href="#DejaVuSerif-52" transform="translate(806.005859 0.015625)"/>
     <use xlink:href="#DejaVuSerif-20" transform="translate(881.298828 0.015625)"/>
     <use xlink:href="#DejaVuSerif-20" transform="translate(913.085938 0.015625)"/>
     <use xlink:href="#Cmsy10-bc" transform="translate(962.431641 0.015625)"/>
     <use xlink:href="#Cmr10-32" transform="translate(1057.675781 0.015625)"/>
     <use xlink:href="#Cmr10-35" transform="translate(1107.675781 0.015625)"/>
     <use xlink:href="#Cmr10-25" transform="translate(1157.675781 0.015625)"/>
    </g>
   </g>
   <g id="text_10">
    <!-- $\bullet$ -->
    <g style="fill: #2c6fbb" transform="translate(23.3175 133.602635) scale(0.08 -0.08)">
     <use xlink:href="#Cmsy10-b2" transform="translate(0 0.609375)"/>
    </g>
   </g>
   <g id="text_11">
    <!-- Signal: QBER -->
    <g transform="translate(33.0825 133.626409) scale(0.083 -0.083)">
     <defs>
      <path id="DejaVuSerif-3a" d="M 666 325 
Q 666 500 786 622 
Q 906 744 1081 744 
Q 1256 744 1376 622 
Q 1497 500 1497 325 
Q 1497 150 1378 29 
Q 1259 -91 1081 -91 
Q 903 -91 784 29 
Q 666 150 666 325 
z
M 666 2363 
Q 666 2538 786 2658 
Q 906 2778 1081 2778 
Q 1259 2778 1378 2659 
Q 1497 2541 1497 2363 
Q 1497 2184 1378 2065 
Q 1259 1947 1081 1947 
Q 906 1947 786 2067 
Q 666 2188 666 2363 
z
" transform="scale(0.015625)"/>
     </defs>
     <use xlink:href="#DejaVuSerif-53"/>
     <use xlink:href="#DejaVuSerif-69" transform="translate(68.505859 0)"/>
     <use xlink:href="#DejaVuSerif-67" transform="translate(100.488281 0)"/>
     <use xlink:href="#DejaVuSerif-6e" transform="translate(164.501953 0)"/>
     <use xlink:href="#DejaVuSerif-61" transform="translate(228.90625 0)"/>
     <use xlink:href="#DejaVuSerif-6c" transform="translate(288.525391 0)"/>
     <use xlink:href="#DejaVuSerif-3a" transform="translate(320.507812 0)"/>
     <use xlink:href="#DejaVuSerif-20" transform="translate(354.199219 0)"/>
     <use xlink:href="#DejaVuSerif-51" transform="translate(385.986328 0)"/>
     <use xlink:href="#DejaVuSerif-42" transform="translate(467.96875 0)"/>
     <use xlink:href="#DejaVuSerif-45" transform="translate(541.455078 0)"/>
     <use xlink:href="#DejaVuSerif-52" transform="translate(614.453125 0)"/>
    </g>
   </g>
   <g id="text_12">
    <!-- Six-state -->
    <g style="fill: #3a8a5f" transform="translate(171.094687 27.946926) scale(0.12 -0.12)">
     <defs>
      <path id="DejaVuSerif-78" d="M 1863 2028 
L 2559 2988 
L 2113 2988 
L 2113 3322 
L 3391 3322 
L 3391 2988 
L 2950 2988 
L 2059 1759 
L 3097 331 
L 3531 331 
L 3531 0 
L 1997 0 
L 1997 331 
L 2419 331 
L 1697 1325 
L 972 331 
L 1403 331 
L 1403 0 
L 141 0 
L 141 331 
L 581 331 
L 1497 1594 
L 488 2988 
L 78 2988 
L 78 3322 
L 1563 3322 
L 1563 2988 
L 1166 2988 
L 1863 2028 
z
" transform="scale(0.015625)"/>
     </defs>
     <use xlink:href="#DejaVuSerif-53"/>
     <use xlink:href="#DejaVuSerif-69" transform="translate(68.505859 0)"/>
     <use xlink:href="#DejaVuSerif-78" transform="translate(100.488281 0)"/>
     <use xlink:href="#DejaVuSerif-2d" transform="translate(155.134766 0)"/>
     <use xlink:href="#DejaVuSerif-73" transform="translate(188.923828 0)"/>
     <use xlink:href="#DejaVuSerif-74" transform="translate(240.242188 0)"/>
     <use xlink:href="#DejaVuSerif-61" transform="translate(280.427734 0)"/>
     <use xlink:href="#DejaVuSerif-74" transform="translate(340.046875 0)"/>
     <use xlink:href="#DejaVuSerif-65" transform="translate(380.232422 0)"/>
    </g>
   </g>
   <g id="text_13">
    <!-- $\bullet$ -->
    <g style="fill: #3a8a5f" transform="translate(150.2625 48.195068) scale(0.08 -0.08)">
     <use xlink:href="#Cmsy10-b2" transform="translate(0 0.609375)"/>
    </g>
   </g>
   <g id="text_14">
    <!-- Prepare-and-measure -->
    <g transform="translate(160.0275 48.277849) scale(0.083 -0.083)">
     <use xlink:href="#DejaVuSerif-50"/>
     <use xlink:href="#DejaVuSerif-72" transform="translate(67.285156 0)"/>
     <use xlink:href="#DejaVuSerif-65" transform="translate(115.087891 0)"/>
     <use xlink:href="#DejaVuSerif-70" transform="translate(174.267578 0)"/>
     <use xlink:href="#DejaVuSerif-61" transform="translate(238.28125 0)"/>
     <use xlink:href="#DejaVuSerif-72" transform="translate(297.900391 0)"/>
     <use xlink:href="#DejaVuSerif-65" transform="translate(345.703125 0)"/>
     <use xlink:href="#DejaVuSerif-2d" transform="translate(404.882812 0)"/>
     <use xlink:href="#DejaVuSerif-61" transform="translate(438.671875 0)"/>
     <use xlink:href="#DejaVuSerif-6e" transform="translate(498.291016 0)"/>
     <use xlink:href="#DejaVuSerif-64" transform="translate(562.695312 0)"/>
     <use xlink:href="#DejaVuSerif-2d" transform="translate(626.708984 0)"/>
     <use xlink:href="#DejaVuSerif-6d" transform="translate(660.498047 0)"/>
     <use xlink:href="#DejaVuSerif-65" transform="translate(755.322266 0)"/>
     <use xlink:href="#DejaVuSerif-61" transform="translate(814.501953 0)"/>
     <use xlink:href="#DejaVuSerif-73" transform="translate(874.121094 0)"/>
     <use xlink:href="#DejaVuSerif-75" transform="translate(925.439453 0)"/>
     <use xlink:href="#DejaVuSerif-72" transform="translate(989.84375 0)"/>
     <use xlink:href="#DejaVuSerif-65" transform="translate(1037.646484 0)"/>
    </g>
   </g>
   <g id="text_15">
    <!-- $\bullet$ -->
    <g style="fill: #3a8a5f" transform="translate(150.2625 69.546959) scale(0.08 -0.08)">
     <use xlink:href="#Cmsy10-b2" transform="translate(0 0.609375)"/>
    </g>
   </g>
   <g id="text_16">
    <!-- 3 bases  $Z, X, Y$ -->
    <g transform="translate(160.0275 69.629741) scale(0.083 -0.083)">
     <defs>
      <path id="DejaVuSerif-33" d="M 622 4469 
Q 988 4606 1323 4678 
Q 1659 4750 1953 4750 
Q 2638 4750 3022 4454 
Q 3406 4159 3406 3634 
Q 3406 3213 3140 2930 
Q 2875 2647 2388 2547 
Q 2963 2466 3280 2130 
Q 3597 1794 3597 1259 
Q 3597 606 3158 257 
Q 2719 -91 1894 -91 
Q 1528 -91 1179 -12 
Q 831 66 488 225 
L 488 1131 
L 838 1131 
Q 869 681 1141 450 
Q 1413 219 1906 219 
Q 2384 219 2661 495 
Q 2938 772 2938 1253 
Q 2938 1803 2653 2086 
Q 2369 2369 1819 2369 
L 1522 2369 
L 1522 2688 
L 1678 2688 
Q 2225 2688 2498 2914 
Q 2772 3141 2772 3597 
Q 2772 4006 2547 4223 
Q 2322 4441 1900 4441 
Q 1478 4441 1245 4241 
Q 1013 4041 972 3647 
L 622 3647 
L 622 4469 
z
" transform="scale(0.015625)"/>
      <path id="Cmmi10-59" d="M 569 84 
Q 572 100 581 137 
Q 591 175 606 200 
Q 622 225 653 225 
Q 1044 225 1197 269 
Q 1228 278 1254 312 
Q 1281 347 1297 384 
Q 1313 422 1325 459 
L 1644 1747 
L 819 4019 
Q 763 4103 616 4125 
Q 469 4147 275 4147 
Q 213 4147 213 4231 
Q 231 4309 247 4340 
Q 263 4372 319 4372 
L 1931 4372 
Q 1991 4372 1991 4288 
Q 1966 4147 1906 4147 
Q 1453 4147 1453 4006 
L 2175 2034 
L 3688 3781 
Q 3700 3813 3731 3858 
Q 3763 3903 3778 3934 
Q 3794 3966 3794 4006 
Q 3794 4147 3531 4147 
Q 3469 4147 3469 4231 
Q 3481 4281 3489 4309 
Q 3497 4338 3517 4355 
Q 3538 4372 3578 4372 
L 4819 4372 
Q 4847 4372 4865 4344 
Q 4884 4316 4884 4288 
Q 4872 4241 4865 4220 
Q 4859 4200 4843 4173 
Q 4828 4147 4794 4147 
Q 4538 4147 4309 4036 
Q 4081 3925 3909 3725 
Q 3903 3719 3895 3714 
Q 3888 3709 3878 3700 
L 2188 1747 
L 1856 422 
Q 1856 406 1850 375 
Q 1844 344 1844 325 
Q 1844 300 1851 283 
Q 1859 266 1873 261 
Q 1888 256 1919 250 
Q 2041 225 2381 225 
Q 2444 225 2444 141 
Q 2422 50 2409 25 
Q 2397 0 2338 0 
L 634 0 
Q 569 0 569 84 
z
" transform="scale(0.015625)"/>
     </defs>
     <use xlink:href="#DejaVuSerif-33" transform="translate(0 0.015625)"/>
     <use xlink:href="#DejaVuSerif-20" transform="translate(63.623047 0.015625)"/>
     <use xlink:href="#DejaVuSerif-62" transform="translate(95.410156 0.015625)"/>
     <use xlink:href="#DejaVuSerif-61" transform="translate(159.423828 0.015625)"/>
     <use xlink:href="#DejaVuSerif-73" transform="translate(219.042969 0.015625)"/>
     <use xlink:href="#DejaVuSerif-65" transform="translate(270.361328 0.015625)"/>
     <use xlink:href="#DejaVuSerif-73" transform="translate(329.541016 0.015625)"/>
     <use xlink:href="#DejaVuSerif-20" transform="translate(380.859375 0.015625)"/>
     <use xlink:href="#DejaVuSerif-20" transform="translate(412.646484 0.015625)"/>
     <use xlink:href="#Cmmi10-5a" transform="translate(444.433594 0.015625)"/>
     <use xlink:href="#Cmmi10-3b" transform="translate(512.646484 0.015625)"/>
     <use xlink:href="#Cmmi10-58" transform="translate(557.890625 0.015625)"/>
     <use xlink:href="#Cmmi10-3b" transform="translate(640.703125 0.015625)"/>
     <use xlink:href="#Cmmi10-59" transform="translate(685.947266 0.015625)"/>
    </g>
   </g>
   <g id="text_17">
    <!-- $\bullet$ -->
    <g style="fill: #3a8a5f" transform="translate(150.2625 90.898851) scale(0.08 -0.08)">
     <use xlink:href="#Cmsy10-b2" transform="translate(0 0.609375)"/>
    </g>
   </g>
   <g id="text_18">
    <!-- Sifting  $\approx 1/3$ -->
    <g transform="translate(160.0275 90.807851) scale(0.083 -0.083)">
     <defs>
      <path id="Cmr10-33" d="M 609 494 
Q 759 275 1012 169 
Q 1266 63 1556 63 
Q 1928 63 2084 380 
Q 2241 697 2241 1100 
Q 2241 1281 2208 1462 
Q 2175 1644 2097 1800 
Q 2019 1956 1883 2050 
Q 1747 2144 1550 2144 
L 1125 2144 
Q 1069 2144 1069 2203 
L 1069 2259 
Q 1069 2309 1125 2309 
L 1478 2338 
Q 1703 2338 1851 2506 
Q 2000 2675 2069 2917 
Q 2138 3159 2138 3378 
Q 2138 3684 1994 3881 
Q 1850 4078 1556 4078 
Q 1313 4078 1091 3986 
Q 869 3894 738 3706 
Q 750 3709 759 3711 
Q 769 3713 781 3713 
Q 925 3713 1022 3613 
Q 1119 3513 1119 3372 
Q 1119 3234 1022 3134 
Q 925 3034 781 3034 
Q 641 3034 541 3134 
Q 441 3234 441 3372 
Q 441 3647 606 3850 
Q 772 4053 1033 4158 
Q 1294 4263 1556 4263 
Q 1750 4263 1965 4205 
Q 2181 4147 2356 4039 
Q 2531 3931 2642 3762 
Q 2753 3594 2753 3378 
Q 2753 3109 2633 2881 
Q 2513 2653 2303 2487 
Q 2094 2322 1844 2241 
Q 2122 2188 2372 2031 
Q 2622 1875 2773 1631 
Q 2925 1388 2925 1106 
Q 2925 753 2731 467 
Q 2538 181 2222 20 
Q 1906 -141 1556 -141 
Q 1256 -141 954 -26 
Q 653 88 461 316 
Q 269 544 269 863 
Q 269 1022 375 1128 
Q 481 1234 641 1234 
Q 744 1234 830 1186 
Q 916 1138 964 1050 
Q 1013 963 1013 863 
Q 1013 706 903 600 
Q 794 494 641 494 
L 609 494 
z
" transform="scale(0.015625)"/>
     </defs>
     <use xlink:href="#DejaVuSerif-53" transform="translate(0 0.015625)"/>
     <use xlink:href="#DejaVuSerif-69" transform="translate(68.505859 0.015625)"/>
     <use xlink:href="#DejaVuSerif-66" transform="translate(100.488281 0.015625)"/>
     <use xlink:href="#DejaVuSerif-74" transform="translate(137.5 0.015625)"/>
     <use xlink:href="#DejaVuSerif-69" transform="translate(177.685547 0.015625)"/>
     <use xlink:href="#DejaVuSerif-6e" transform="translate(209.667969 0.015625)"/>
     <use xlink:href="#DejaVuSerif-67" transform="translate(274.072266 0.015625)"/>
     <use xlink:href="#DejaVuSerif-20" transform="translate(338.085938 0.015625)"/>
     <use xlink:href="#DejaVuSerif-20" transform="translate(369.873047 0.015625)"/>
     <use xlink:href="#Cmsy10-bc" transform="translate(419.21875 0.015625)"/>
     <use xlink:href="#Cmr10-31" transform="translate(514.462891 0.015625)"/>
     <use xlink:href="#Cmmi10-3d" transform="translate(564.462891 0.015625)"/>
     <use xlink:href="#Cmr10-33" transform="translate(614.462891 0.015625)"/>
    </g>
   </g>
   <g id="text_19">
    <!-- $\bullet$ -->
    <g style="fill: #3a8a5f" transform="translate(150.2625 112.250743) scale(0.08 -0.08)">
     <use xlink:href="#Cmsy10-b2" transform="translate(0 0.609375)"/>
    </g>
   </g>
   <g id="text_20">
    <!-- Full attack QBER  $\approx 33\%$ -->
    <g transform="translate(160.0275 112.333524) scale(0.083 -0.083)">
     <use xlink:href="#DejaVuSerif-46" transform="translate(0 0.015625)"/>
     <use xlink:href="#DejaVuSerif-75" transform="translate(69.384766 0.015625)"/>
     <use xlink:href="#DejaVuSerif-6c" transform="translate(133.789062 0.015625)"/>
     <use xlink:href="#DejaVuSerif-6c" transform="translate(165.771484 0.015625)"/>
     <use xlink:href="#DejaVuSerif-20" transform="translate(197.753906 0.015625)"/>
     <use xlink:href="#DejaVuSerif-61" transform="translate(229.541016 0.015625)"/>
     <use xlink:href="#DejaVuSerif-74" transform="translate(289.160156 0.015625)"/>
     <use xlink:href="#DejaVuSerif-74" transform="translate(329.345703 0.015625)"/>
     <use xlink:href="#DejaVuSerif-61" transform="translate(369.53125 0.015625)"/>
     <use xlink:href="#DejaVuSerif-63" transform="translate(429.150391 0.015625)"/>
     <use xlink:href="#DejaVuSerif-6b" transform="translate(485.15625 0.015625)"/>
     <use xlink:href="#DejaVuSerif-20" transform="translate(545.751953 0.015625)"/>
     <use xlink:href="#DejaVuSerif-51" transform="translate(577.539062 0.015625)"/>
     <use xlink:href="#DejaVuSerif-42" transform="translate(659.521484 0.015625)"/>
     <use xlink:href="#DejaVuSerif-45" transform="translate(733.007812 0.015625)"/>
     <use xlink:href="#DejaVuSerif-52" transform="translate(806.005859 0.015625)"/>
     <use xlink:href="#DejaVuSerif-20" transform="translate(881.298828 0.015625)"/>
     <use xlink:href="#DejaVuSerif-20" transform="translate(913.085938 0.015625)"/>
     <use xlink:href="#Cmsy10-bc" transform="translate(962.431641 0.015625)"/>
     <use xlink:href="#Cmr10-33" transform="translate(1057.675781 0.015625)"/>
     <use xlink:href="#Cmr10-33" transform="translate(1107.675781 0.015625)"/>
     <use xlink:href="#Cmr10-25" transform="translate(1157.675781 0.015625)"/>
    </g>
   </g>
   <g id="text_21">
    <!-- $\bullet$ -->
    <g style="fill: #3a8a5f" transform="translate(150.2625 133.602635) scale(0.08 -0.08)">
     <use xlink:href="#Cmsy10-b2" transform="translate(0 0.609375)"/>
    </g>
   </g>
   <g id="text_22">
    <!-- Signal: QBER -->
    <g transform="translate(160.0275 133.626409) scale(0.083 -0.083)">
     <use xlink:href="#DejaVuSerif-53"/>
     <use xlink:href="#DejaVuSerif-69" transform="translate(68.505859 0)"/>
     <use xlink:href="#DejaVuSerif-67" transform="translate(100.488281 0)"/>
     <use xlink:href="#DejaVuSerif-6e" transform="translate(164.501953 0)"/>
     <use xlink:href="#DejaVuSerif-61" transform="translate(228.90625 0)"/>
     <use xlink:href="#DejaVuSerif-6c" transform="translate(288.525391 0)"/>
     <use xlink:href="#DejaVuSerif-3a" transform="translate(320.507812 0)"/>
     <use xlink:href="#DejaVuSerif-20" transform="translate(354.199219 0)"/>
     <use xlink:href="#DejaVuSerif-51" transform="translate(385.986328 0)"/>
     <use xlink:href="#DejaVuSerif-42" transform="translate(467.96875 0)"/>
     <use xlink:href="#DejaVuSerif-45" transform="translate(541.455078 0)"/>
     <use xlink:href="#DejaVuSerif-52" transform="translate(614.453125 0)"/>
    </g>
   </g>
   <g id="text_23">
    <!-- E91 -->
    <g style="fill: #9a6db0" transform="translate(312.39 27.946926) scale(0.12 -0.12)">
     <defs>
      <path id="DejaVuSerif-39" d="M 2994 2091 
Q 2784 1856 2512 1740 
Q 2241 1625 1900 1625 
Q 1206 1625 804 2044 
Q 403 2463 403 3188 
Q 403 3897 839 4323 
Q 1275 4750 2003 4750 
Q 2794 4750 3217 4161 
Q 3641 3572 3641 2478 
Q 3641 1253 3137 581 
Q 2634 -91 1722 -91 
Q 1475 -91 1203 -44 
Q 931 3 647 97 
L 647 872 
L 997 872 
Q 1038 556 1241 387 
Q 1444 219 1784 219 
Q 2391 219 2687 676 
Q 2984 1134 2994 2091 
z
M 1978 4441 
Q 1534 4441 1298 4117 
Q 1063 3794 1063 3188 
Q 1063 2581 1298 2256 
Q 1534 1931 1978 1931 
Q 2422 1931 2658 2245 
Q 2894 2559 2894 3150 
Q 2894 3772 2656 4106 
Q 2419 4441 1978 4441 
z
" transform="scale(0.015625)"/>
      <path id="DejaVuSerif-31" d="M 909 0 
L 909 331 
L 1722 331 
L 1722 4213 
L 781 3603 
L 781 4013 
L 1919 4750 
L 2350 4750 
L 2350 331 
L 3163 331 
L 3163 0 
L 909 0 
z
" transform="scale(0.015625)"/>
     </defs>
     <use xlink:href="#DejaVuSerif-45"/>
     <use xlink:href="#DejaVuSerif-39" transform="translate(72.998047 0)"/>
     <use xlink:href="#DejaVuSerif-31" transform="translate(136.621094 0)"/>
    </g>
   </g>
   <g id="text_24">
    <!-- $\bullet$ -->
    <g style="fill: #9a6db0" transform="translate(277.2075 48.195068) scale(0.08 -0.08)">
     <use xlink:href="#Cmsy10-b2" transform="translate(0 0.609375)"/>
    </g>
   </g>
   <g id="text_25">
    <!-- Entanglement-based -->
    <g transform="translate(286.9725 48.218841) scale(0.083 -0.083)">
     <use xlink:href="#DejaVuSerif-45"/>
     <use xlink:href="#DejaVuSerif-6e" transform="translate(72.998047 0)"/>
     <use xlink:href="#DejaVuSerif-74" transform="translate(137.402344 0)"/>
     <use xlink:href="#DejaVuSerif-61" transform="translate(177.587891 0)"/>
     <use xlink:href="#DejaVuSerif-6e" transform="translate(237.207031 0)"/>
     <use xlink:href="#DejaVuSerif-67" transform="translate(301.611328 0)"/>
     <use xlink:href="#DejaVuSerif-6c" transform="translate(365.625 0)"/>
     <use xlink:href="#DejaVuSerif-65" transform="translate(397.607422 0)"/>
     <use xlink:href="#DejaVuSerif-6d" transform="translate(456.787109 0)"/>
     <use xlink:href="#DejaVuSerif-65" transform="translate(551.611328 0)"/>
     <use xlink:href="#DejaVuSerif-6e" transform="translate(610.791016 0)"/>
     <use xlink:href="#DejaVuSerif-74" transform="translate(675.195312 0)"/>
     <use xlink:href="#DejaVuSerif-2d" transform="translate(715.380859 0)"/>
     <use xlink:href="#DejaVuSerif-62" transform="translate(749.169922 0)"/>
     <use xlink:href="#DejaVuSerif-61" transform="translate(813.183594 0)"/>
     <use xlink:href="#DejaVuSerif-73" transform="translate(872.802734 0)"/>
     <use xlink:href="#DejaVuSerif-65" transform="translate(924.121094 0)"/>
     <use xlink:href="#DejaVuSerif-64" transform="translate(983.300781 0)"/>
    </g>
   </g>
   <g id="text_26">
    <!-- $\bullet$ -->
    <g style="fill: #9a6db0" transform="translate(277.2075 69.546959) scale(0.08 -0.08)">
     <use xlink:href="#Cmsy10-b2" transform="translate(0 0.609375)"/>
    </g>
   </g>
   <g id="text_27">
    <!-- Bell pairs, random axes -->
    <g transform="translate(286.9725 69.629741) scale(0.083 -0.083)">
     <defs>
      <path id="DejaVuSerif-2c" d="M 231 -622 
Q 525 -406 662 -114 
Q 800 178 800 594 
L 800 709 
L 1416 709 
Q 1391 175 1164 -208 
Q 938 -591 481 -872 
L 231 -622 
z
" transform="scale(0.015625)"/>
      <path id="DejaVuSerif-6f" d="M 1925 219 
Q 2388 219 2623 584 
Q 2859 950 2859 1663 
Q 2859 2375 2623 2739 
Q 2388 3103 1925 3103 
Q 1463 3103 1227 2739 
Q 991 2375 991 1663 
Q 991 950 1228 584 
Q 1466 219 1925 219 
z
M 1925 -91 
Q 1200 -91 759 389 
Q 319 869 319 1663 
Q 319 2456 758 2934 
Q 1197 3413 1925 3413 
Q 2653 3413 3092 2934 
Q 3531 2456 3531 1663 
Q 3531 869 3092 389 
Q 2653 -91 1925 -91 
z
" transform="scale(0.015625)"/>
     </defs>
     <use xlink:href="#DejaVuSerif-42"/>
     <use xlink:href="#DejaVuSerif-65" transform="translate(73.486328 0)"/>
     <use xlink:href="#DejaVuSerif-6c" transform="translate(132.666016 0)"/>
     <use xlink:href="#DejaVuSerif-6c" transform="translate(164.648438 0)"/>
     <use xlink:href="#DejaVuSerif-20" transform="translate(196.630859 0)"/>
     <use xlink:href="#DejaVuSerif-70" transform="translate(228.417969 0)"/>
     <use xlink:href="#DejaVuSerif-61" transform="translate(292.431641 0)"/>
     <use xlink:href="#DejaVuSerif-69" transform="translate(352.050781 0)"/>
     <use xlink:href="#DejaVuSerif-72" transform="translate(384.033203 0)"/>
     <use xlink:href="#DejaVuSerif-73" transform="translate(431.835938 0)"/>
     <use xlink:href="#DejaVuSerif-2c" transform="translate(483.154297 0)"/>
     <use xlink:href="#DejaVuSerif-20" transform="translate(514.941406 0)"/>
     <use xlink:href="#DejaVuSerif-72" transform="translate(546.728516 0)"/>
     <use xlink:href="#DejaVuSerif-61" transform="translate(594.53125 0)"/>
     <use xlink:href="#DejaVuSerif-6e" transform="translate(654.150391 0)"/>
     <use xlink:href="#DejaVuSerif-64" transform="translate(718.554688 0)"/>
     <use xlink:href="#DejaVuSerif-6f" transform="translate(782.568359 0)"/>
     <use xlink:href="#DejaVuSerif-6d" transform="translate(842.773438 0)"/>
     <use xlink:href="#DejaVuSerif-20" transform="translate(937.597656 0)"/>
     <use xlink:href="#DejaVuSerif-61" transform="translate(969.384766 0)"/>
     <use xlink:href="#DejaVuSerif-78" transform="translate(1029.003906 0)"/>
     <use xlink:href="#DejaVuSerif-65" transform="translate(1085.400391 0)"/>
     <use xlink:href="#DejaVuSerif-73" transform="translate(1144.580078 0)"/>
    </g>
   </g>
   <g id="text_28">
    <!-- $\bullet$ -->
    <g style="fill: #9a6db0" transform="translate(277.2075 90.898851) scale(0.08 -0.08)">
     <use xlink:href="#Cmsy10-b2" transform="translate(0 0.609375)"/>
    </g>
   </g>
   <g id="text_29">
    <!-- Key from matched axes -->
    <g transform="translate(286.9725 90.922625) scale(0.083 -0.083)">
     <defs>
      <path id="DejaVuSerif-4b" d="M 353 0 
L 353 331 
L 947 331 
L 947 4331 
L 353 4331 
L 353 4666 
L 2175 4666 
L 2175 4331 
L 1581 4331 
L 1581 2566 
L 3591 4331 
L 3084 4331 
L 3084 4666 
L 4634 4666 
L 4634 4331 
L 4109 4331 
L 2106 2572 
L 4347 331 
L 4878 331 
L 4878 0 
L 3794 0 
L 1581 2216 
L 1581 331 
L 2175 331 
L 2175 0 
L 353 0 
z
" transform="scale(0.015625)"/>
      <path id="DejaVuSerif-79" d="M 1381 -609 
L 1600 -56 
L 359 2988 
L -19 2988 
L -19 3322 
L 1509 3322 
L 1509 2988 
L 978 2988 
L 1913 703 
L 2847 2988 
L 2350 2988 
L 2350 3322 
L 3597 3322 
L 3597 2988 
L 3225 2988 
L 1703 -750 
Q 1547 -1138 1356 -1280 
Q 1166 -1422 819 -1422 
Q 672 -1422 517 -1397 
Q 363 -1372 206 -1325 
L 206 -691 
L 500 -691 
Q 519 -903 608 -995 
Q 697 -1088 884 -1088 
Q 1056 -1088 1161 -992 
Q 1266 -897 1381 -609 
z
" transform="scale(0.015625)"/>
      <path id="DejaVuSerif-68" d="M 263 0 
L 263 331 
L 781 331 
L 781 4531 
L 231 4531 
L 231 4863 
L 1356 4863 
L 1356 2731 
Q 1516 3069 1770 3241 
Q 2025 3413 2363 3413 
Q 2913 3413 3172 3097 
Q 3431 2781 3431 2113 
L 3431 331 
L 3944 331 
L 3944 0 
L 2356 0 
L 2356 331 
L 2853 331 
L 2853 1931 
Q 2853 2541 2704 2764 
Q 2556 2988 2175 2988 
Q 1775 2988 1565 2697 
Q 1356 2406 1356 1850 
L 1356 331 
L 1856 331 
L 1856 0 
L 263 0 
z
" transform="scale(0.015625)"/>
     </defs>
     <use xlink:href="#DejaVuSerif-4b"/>
     <use xlink:href="#DejaVuSerif-65" transform="translate(72.082031 0)"/>
     <use xlink:href="#DejaVuSerif-79" transform="translate(131.261719 0)"/>
     <use xlink:href="#DejaVuSerif-20" transform="translate(187.755859 0)"/>
     <use xlink:href="#DejaVuSerif-66" transform="translate(219.542969 0)"/>
     <use xlink:href="#DejaVuSerif-72" transform="translate(256.554688 0)"/>
     <use xlink:href="#DejaVuSerif-6f" transform="translate(304.357422 0)"/>
     <use xlink:href="#DejaVuSerif-6d" transform="translate(364.5625 0)"/>
     <use xlink:href="#DejaVuSerif-20" transform="translate(459.386719 0)"/>
     <use xlink:href="#DejaVuSerif-6d" transform="translate(491.173828 0)"/>
     <use xlink:href="#DejaVuSerif-61" transform="translate(585.998047 0)"/>
     <use xlink:href="#DejaVuSerif-74" transform="translate(645.617188 0)"/>
     <use xlink:href="#DejaVuSerif-63" transform="translate(685.802734 0)"/>
     <use xlink:href="#DejaVuSerif-68" transform="translate(741.808594 0)"/>
     <use xlink:href="#DejaVuSerif-65" transform="translate(806.212891 0)"/>
     <use xlink:href="#DejaVuSerif-64" transform="translate(865.392578 0)"/>
     <use xlink:href="#DejaVuSerif-20" transform="translate(929.40625 0)"/>
     <use xlink:href="#DejaVuSerif-61" transform="translate(961.193359 0)"/>
     <use xlink:href="#DejaVuSerif-78" transform="translate(1020.8125 0)"/>
     <use xlink:href="#DejaVuSerif-65" transform="translate(1077.208984 0)"/>
     <use xlink:href="#DejaVuSerif-73" transform="translate(1136.388672 0)"/>
    </g>
   </g>
   <g id="text_30">
    <!-- $\bullet$ -->
    <g style="fill: #9a6db0" transform="translate(277.2075 112.250743) scale(0.08 -0.08)">
     <use xlink:href="#Cmsy10-b2" transform="translate(0 0.609375)"/>
    </g>
   </g>
   <g id="text_31">
    <!-- Full attack  $S\!\to\!1.4$ -->
    <g transform="translate(286.9725 112.333524) scale(0.083 -0.083)">
     <defs>
      <path id="Cmmi10-53" d="M 391 -141 
Q 372 -141 356 -119 
Q 341 -97 341 -78 
L 709 1416 
Q 722 1453 763 1453 
L 838 1453 
Q 863 1453 877 1434 
Q 891 1416 891 1388 
Q 838 1169 838 997 
Q 838 534 1156 309 
Q 1475 84 1959 84 
Q 2169 84 2372 187 
Q 2575 291 2726 456 
Q 2878 622 2968 826 
Q 3059 1031 3059 1241 
Q 3059 1466 2940 1642 
Q 2822 1819 2613 1869 
L 1831 2075 
Q 1516 2159 1328 2414 
Q 1141 2669 1141 2988 
Q 1141 3372 1369 3728 
Q 1597 4084 1964 4298 
Q 2331 4513 2713 4513 
Q 3006 4513 3251 4405 
Q 3497 4297 3628 4063 
L 3994 4494 
Q 4031 4513 4038 4513 
L 4078 4513 
Q 4103 4513 4118 4491 
Q 4134 4469 4134 4447 
L 3763 2963 
Q 3753 2919 3713 2919 
L 3634 2919 
Q 3578 2919 3578 2988 
Q 3609 3191 3609 3341 
Q 3609 3638 3507 3858 
Q 3406 4078 3201 4192 
Q 2997 4306 2694 4306 
Q 2438 4306 2184 4159 
Q 1931 4013 1775 3769 
Q 1619 3525 1619 3263 
Q 1619 3056 1739 2897 
Q 1859 2738 2059 2681 
L 2841 2478 
Q 3053 2422 3211 2280 
Q 3369 2138 3450 1942 
Q 3531 1747 3531 1516 
Q 3531 1213 3403 917 
Q 3275 622 3045 378 
Q 2816 134 2525 -3 
Q 2234 -141 1931 -141 
Q 1169 -141 838 306 
L 481 -122 
Q 444 -141 434 -141 
L 391 -141 
z
" transform="scale(0.015625)"/>
      <path id="Cmsy10-21" d="M 481 1472 
Q 428 1472 393 1512 
Q 359 1553 359 1600 
Q 359 1647 393 1687 
Q 428 1728 481 1728 
L 5338 1728 
Q 5094 1903 4906 2133 
Q 4719 2363 4594 2627 
Q 4469 2891 4416 3188 
Q 4416 3272 4481 3272 
L 4609 3272 
Q 4631 3272 4648 3253 
Q 4666 3234 4672 3213 
Q 4725 2938 4839 2702 
Q 4953 2466 5125 2262 
Q 5297 2059 5509 1912 
Q 5722 1766 5991 1672 
Q 6034 1644 6034 1600 
Q 6034 1550 5991 1538 
Q 5656 1422 5378 1192 
Q 5100 963 4919 652 
Q 4738 341 4672 -13 
Q 4666 -34 4647 -53 
Q 4628 -72 4609 -72 
L 4481 -72 
Q 4416 -72 4416 13 
Q 4497 450 4740 836 
Q 4984 1222 5338 1472 
L 481 1472 
z
" transform="scale(0.015625)"/>
      <path id="Cmmi10-3a" d="M 538 353 
Q 538 497 644 600 
Q 750 703 891 703 
Q 978 703 1062 656 
Q 1147 609 1194 525 
Q 1241 441 1241 353 
Q 1241 213 1137 106 
Q 1034 0 891 0 
Q 750 0 644 106 
Q 538 213 538 353 
z
" transform="scale(0.015625)"/>
      <path id="Cmr10-34" d="M 178 1056 
L 178 1281 
L 2156 4231 
Q 2178 4263 2222 4263 
L 2316 4263 
Q 2388 4263 2388 4191 
L 2388 1281 
L 3016 1281 
L 3016 1056 
L 2388 1056 
L 2388 428 
Q 2388 297 2575 261 
Q 2763 225 3009 225 
L 3009 0 
L 1247 0 
L 1247 225 
Q 1494 225 1681 261 
Q 1869 297 1869 428 
L 1869 1056 
L 178 1056 
z
M 391 1281 
L 1906 1281 
L 1906 3547 
L 391 1281 
z
" transform="scale(0.015625)"/>
     </defs>
     <use xlink:href="#DejaVuSerif-46" transform="translate(0 0.015625)"/>
     <use xlink:href="#DejaVuSerif-75" transform="translate(69.384766 0.015625)"/>
     <use xlink:href="#DejaVuSerif-6c" transform="translate(133.789062 0.015625)"/>
     <use xlink:href="#DejaVuSerif-6c" transform="translate(165.771484 0.015625)"/>
     <use xlink:href="#DejaVuSerif-20" transform="translate(197.753906 0.015625)"/>
     <use xlink:href="#DejaVuSerif-61" transform="translate(229.541016 0.015625)"/>
     <use xlink:href="#DejaVuSerif-74" transform="translate(289.160156 0.015625)"/>
     <use xlink:href="#DejaVuSerif-74" transform="translate(329.345703 0.015625)"/>
     <use xlink:href="#DejaVuSerif-61" transform="translate(369.53125 0.015625)"/>
     <use xlink:href="#DejaVuSerif-63" transform="translate(429.150391 0.015625)"/>
     <use xlink:href="#DejaVuSerif-6b" transform="translate(485.15625 0.015625)"/>
     <use xlink:href="#DejaVuSerif-20" transform="translate(545.751953 0.015625)"/>
     <use xlink:href="#DejaVuSerif-20" transform="translate(577.539062 0.015625)"/>
     <use xlink:href="#Cmmi10-53" transform="translate(609.326172 0.015625)"/>
     <use xlink:href="#Cmsy10-21" transform="translate(673.531608 0.015625)"/>
     <use xlink:href="#Cmr10-31" transform="translate(776.457748 0.015625)"/>
     <use xlink:href="#Cmmi10-3a" transform="translate(826.457748 0.015625)"/>
     <use xlink:href="#Cmr10-34" transform="translate(854.143295 0.015625)"/>
    </g>
   </g>
   <g id="text_32">
    <!-- $\bullet$ -->
    <g style="fill: #9a6db0" transform="translate(277.2075 133.602635) scale(0.08 -0.08)">
     <use xlink:href="#Cmsy10-b2" transform="translate(0 0.609375)"/>
    </g>
   </g>
   <g id="text_33">
    <!-- Signal: CHSH $S$ -->
    <g transform="translate(286.9725 133.594635) scale(0.083 -0.083)">
     <defs>
      <path id="DejaVuSerif-43" d="M 4513 1234 
Q 4306 581 3820 245 
Q 3334 -91 2591 -91 
Q 2134 -91 1743 65 
Q 1353 222 1050 525 
Q 700 875 529 1320 
Q 359 1766 359 2328 
Q 359 3416 987 4083 
Q 1616 4750 2644 4750 
Q 3025 4750 3456 4650 
Q 3888 4550 4384 4347 
L 4384 3272 
L 4031 3272 
Q 3916 3859 3567 4137 
Q 3219 4416 2591 4416 
Q 1844 4416 1459 3886 
Q 1075 3356 1075 2328 
Q 1075 1303 1459 773 
Q 1844 244 2591 244 
Q 3113 244 3450 492 
Q 3788 741 3938 1234 
L 4513 1234 
z
" transform="scale(0.015625)"/>
      <path id="DejaVuSerif-48" d="M 353 0 
L 353 331 
L 947 331 
L 947 4331 
L 353 4331 
L 353 4666 
L 2175 4666 
L 2175 4331 
L 1581 4331 
L 1581 2719 
L 4000 2719 
L 4000 4331 
L 3406 4331 
L 3406 4666 
L 5228 4666 
L 5228 4331 
L 4634 4331 
L 4634 331 
L 5228 331 
L 5228 0 
L 3406 0 
L 3406 331 
L 4000 331 
L 4000 2338 
L 1581 2338 
L 1581 331 
L 2175 331 
L 2175 0 
L 353 0 
z
" transform="scale(0.015625)"/>
     </defs>
     <use xlink:href="#DejaVuSerif-53" transform="translate(0 0.015625)"/>
     <use xlink:href="#DejaVuSerif-69" transform="translate(68.505859 0.015625)"/>
     <use xlink:href="#DejaVuSerif-67" transform="translate(100.488281 0.015625)"/>
     <use xlink:href="#DejaVuSerif-6e" transform="translate(164.501953 0.015625)"/>
     <use xlink:href="#DejaVuSerif-61" transform="translate(228.90625 0.015625)"/>
     <use xlink:href="#DejaVuSerif-6c" transform="translate(288.525391 0.015625)"/>
     <use xlink:href="#DejaVuSerif-3a" transform="translate(320.507812 0.015625)"/>
     <use xlink:href="#DejaVuSerif-20" transform="translate(354.199219 0.015625)"/>
     <use xlink:href="#DejaVuSerif-43" transform="translate(385.986328 0.015625)"/>
     <use xlink:href="#DejaVuSerif-48" transform="translate(462.5 0.015625)"/>
     <use xlink:href="#DejaVuSerif-53" transform="translate(549.707031 0.015625)"/>
     <use xlink:href="#DejaVuSerif-48" transform="translate(618.212891 0.015625)"/>
     <use xlink:href="#DejaVuSerif-20" transform="translate(705.419922 0.015625)"/>
     <use xlink:href="#Cmmi10-53" transform="translate(737.207031 0.015625)"/>
    </g>
   </g>
  </g>
 </g>
 <defs>
  <clipPath id="p024f75d611">
   <rect x="2.16" y="2.16" width="390.6" height="166.32"/>
  </clipPath>
 </defs>
</svg>
