<?xml version="1.0" encoding="utf-8" standalone="no"?>
<!DOCTYPE svg PUBLIC "-//W3C//DTD SVG 1.1//EN"
  "http://www.w3.org/Graphics/SVG/1.1/DTD/svg11.dtd">
<svg xmlns:xlink="http://www.w3.org/1999/xlink" width="397.489492pt" height="112.428pt" viewBox="0 0 397.489492 112.428" xmlns="http://www.w3.org/2000/svg" version="1.1">
 <metadata>
  <rdf:RDF xmlns:dc="http://purl.org/dc/elements/1.1/" xmlns:cc="http://creativecommons.org/ns#" xmlns:rdf="http://www.w3.org/1999/02/22-rdf-syntax-ns#">
   <cc:Work>
    <dc:type rdf:resource="http://purl.org/dc/dcmitype/StillImage"/>
    <dc:date>2026-06-13T12:49:29.549932</dc:date>
    <dc:format>image/svg+xml</dc:format>
    <dc:creator>
     <cc:Agent>
      <dc:title>Matplotlib v3.10.9, https://matplotlib.org/</dc:title>
     </cc:Agent>
    </dc:creator>
   </cc:Work>
  </rdf:RDF>
 </metadata>
 <defs>
  <style type="text/css">*{stroke-linejoin: round; stroke-linecap: butt}</style>
 </defs>
 <g id="figure_1">
  <g id="patch_1">
   <path d="M 0 112.428 
L 397.489492 112.428 
L 397.489492 0 
L 0 0 
z
" style="fill: #ffffff"/>
  </g>
  <g id="axes_1">
   <g id="line2d_1">
    <path d="M 22.935424 64.53 
L 372.158305 64.53 
" clip-path="url(#pf16f74e140)" style="fill: none; stroke: #1a1a1a; stroke-linecap: square"/>
   </g>
   <g id="line2d_2">
    <path d="M 128.860847 87.399 
L 128.860847 41.661 
" clip-path="url(#pf16f74e140)" style="fill: none; stroke-dasharray: 2.4,2.4; stroke-dashoffset: 0; stroke: #777777; stroke-width: 0.8"/>
   </g>
   <g id="line2d_3">
    <path d="M 226.510847 87.399 
L 226.510847 41.661 
" clip-path="url(#pf16f74e140)" style="fill: none; stroke-dasharray: 2.4,2.4; stroke-dashoffset: 0; stroke: #777777; stroke-width: 0.8"/>
   </g>
   <g id="line2d_4">
    <path d="M 269.543051 87.399 
L 269.543051 41.661 
" clip-path="url(#pf16f74e140)" style="fill: none; stroke-dasharray: 2.4,2.4; stroke-dashoffset: 0; stroke: #777777; stroke-width: 0.8"/>
   </g>
   <g id="patch_2">
    <path d="M 137.136271 83.241 
L 218.235424 83.241 
L 218.235424 45.819 
L 137.136271 45.819 
L 137.136271 83.241 
z
" clip-path="url(#pf16f74e140)" style="fill: none; stroke-dasharray: 1.8,1.8; stroke-dashoffset: 0; stroke: #c2452d; stroke-width: 0.9; stroke-linejoin: miter"/>
   </g>
   <g id="text_1">
    <!-- $|0\rangle$ -->
    <g transform="translate(2.16 68.18) scale(0.1 -0.1)">
     <defs>
      <path id="Cmsy10-6a" d="M 763 -1484 
L 763 4684 
Q 763 4734 800 4767 
Q 838 4800 891 4800 
Q 938 4800 978 4767 
Q 1019 4734 1019 4684 
L 1019 -1484 
Q 1019 -1534 978 -1567 
Q 938 -1600 891 -1600 
Q 838 -1600 800 -1567 
Q 763 -1534 763 -1484 
z
" transform="scale(0.015625)"/>
      <path id="Cmr10-30" d="M 1600 -141 
Q 816 -141 533 504 
Q 250 1150 250 2041 
Q 250 2597 351 3087 
Q 453 3578 754 3920 
Q 1056 4263 1600 4263 
Q 2022 4263 2290 4056 
Q 2559 3850 2700 3523 
Q 2841 3197 2892 2823 
Q 2944 2450 2944 2041 
Q 2944 1491 2842 1011 
Q 2741 531 2444 195 
Q 2147 -141 1600 -141 
z
M 1600 25 
Q 1956 25 2131 390 
Q 2306 756 2347 1200 
Q 2388 1644 2388 2144 
Q 2388 2625 2347 3031 
Q 2306 3438 2132 3767 
Q 1959 4097 1600 4097 
Q 1238 4097 1063 3765 
Q 888 3434 847 3029 
Q 806 2625 806 2144 
Q 806 1788 823 1472 
Q 841 1156 916 820 
Q 991 484 1158 254 
Q 1325 25 1600 25 
z
" transform="scale(0.015625)"/>
      <path id="Cmex10-ae" d="M 500 -7297 
Q 500 -7263 513 -7250 
L 2119 -3584 
L 513 84 
Q 500 97 500 128 
Q 500 175 537 215 
Q 575 256 628 256 
Q 703 256 750 178 
L 2381 -3541 
Q 2388 -3553 2388 -3584 
Q 2388 -3616 2381 -3634 
L 750 -7347 
Q 700 -7425 628 -7425 
Q 575 -7425 537 -7384 
Q 500 -7344 500 -7297 
z
" transform="scale(0.015625)"/>
     </defs>
     <use xlink:href="#Cmsy10-6a" transform="translate(0 0.658854)"/>
     <use xlink:href="#Cmr10-30" transform="translate(27.685547 0.658854)"/>
     <use xlink:href="#Cmex10-ae" transform="translate(77.685547 94)"/>
    </g>
   </g>
   <g id="patch_3">
    <path d="M 40.810339 75.3408 
L 61.33339 75.3408 
L 61.33339 53.7192 
L 40.810339 53.7192 
z
" clip-path="url(#pf16f74e140)" style="fill: #ffffff; stroke: #1a1a1a; stroke-width: 1.1; stroke-linejoin: miter"/>
   </g>
   <g id="text_2">
    <!-- bit $a$ -->
    <g style="fill: #777777" transform="translate(43.336864 86.480906) scale(0.07 -0.07)">
     <defs>
      <path id="DejaVuSerif-Italic-62" d="M 1153 4531 
L 600 4531 
L 666 4863 
L 1794 4863 
L 1394 2803 
Q 1622 3116 1912 3264 
Q 2203 3413 2588 3413 
Q 3200 3413 3494 2928 
Q 3688 2609 3688 2163 
Q 3688 1928 3634 1663 
Q 3481 881 3000 395 
Q 2519 -91 1906 -91 
Q 1522 -91 1289 57 
Q 1056 206 950 519 
L 850 0 
L 275 0 
L 1153 4531 
z
M 1141 1497 
Q 1091 1250 1091 1053 
Q 1091 769 1191 581 
Q 1359 269 1797 269 
Q 2238 269 2533 622 
Q 2828 975 2963 1663 
Q 3025 1978 3025 2225 
Q 3025 2513 2938 2703 
Q 2781 3053 2338 3053 
Q 1900 3053 1609 2737 
Q 1319 2422 1203 1825 
L 1141 1497 
z
" transform="scale(0.015625)"/>
      <path id="DejaVuSerif-Italic-69" d="M 1009 4353 
Q 1038 4497 1163 4603 
Q 1288 4709 1434 4709 
Q 1578 4709 1663 4603 
Q 1728 4522 1728 4422 
Q 1728 4388 1719 4353 
Q 1691 4206 1567 4103 
Q 1444 4000 1297 4000 
Q 1150 4000 1066 4103 
Q 1003 4181 1003 4281 
Q 1003 4316 1009 4353 
z
M 963 331 
L 1506 331 
L 1444 0 
L 325 0 
L 903 2988 
L 353 2988 
L 419 3322 
L 1544 3322 
L 963 331 
z
" transform="scale(0.015625)"/>
      <path id="DejaVuSerif-Italic-74" d="M 856 2988 
L 350 2988 
L 416 3322 
L 922 3322 
L 1122 4353 
L 1700 4353 
L 1500 3322 
L 2581 3322 
L 2516 2988 
L 1434 2988 
L 1025 878 
Q 978 631 978 488 
Q 978 388 1000 338 
Q 1059 219 1278 219 
Q 1503 219 1633 351 
Q 1763 484 1825 781 
L 2259 781 
Q 2147 328 1884 118 
Q 1622 -91 1169 -91 
Q 672 -91 506 131 
Q 406 266 406 516 
Q 406 675 447 878 
L 856 2988 
z
" transform="scale(0.015625)"/>
      <path id="DejaVuSerif-Italic-20" transform="scale(0.015625)"/>
      <path id="Cmmi10-61" d="M 1113 -72 
Q 709 -72 476 233 
Q 244 538 244 953 
Q 244 1363 456 1803 
Q 669 2244 1030 2536 
Q 1391 2828 1806 2828 
Q 1997 2828 2147 2725 
Q 2297 2622 2381 2444 
Q 2453 2700 2663 2700 
Q 2744 2700 2798 2651 
Q 2853 2603 2853 2522 
Q 2853 2503 2851 2493 
Q 2850 2484 2847 2472 
L 2400 684 
Q 2356 494 2356 372 
Q 2356 97 2541 97 
Q 2741 97 2845 351 
Q 2950 606 3022 941 
Q 3034 978 3072 978 
L 3150 978 
Q 3175 978 3190 956 
Q 3206 934 3206 916 
Q 3094 469 2961 198 
Q 2828 -72 2528 -72 
Q 2313 -72 2147 54 
Q 1981 181 1941 391 
Q 1528 -72 1113 -72 
z
M 1119 97 
Q 1350 97 1567 270 
Q 1784 444 1941 678 
Q 1947 684 1947 697 
L 2291 2088 
L 2297 2106 
Q 2259 2334 2132 2498 
Q 2006 2663 1791 2663 
Q 1575 2663 1389 2486 
Q 1203 2309 1075 2069 
Q 950 1813 836 1366 
Q 722 919 722 672 
Q 722 450 817 273 
Q 913 97 1119 97 
z
" transform="scale(0.015625)"/>
     </defs>
     <use xlink:href="#DejaVuSerif-Italic-62" transform="translate(0 0.015625)"/>
     <use xlink:href="#DejaVuSerif-Italic-69" transform="translate(64.013672 0.015625)"/>
     <use xlink:href="#DejaVuSerif-Italic-74" transform="translate(95.996094 0.015625)"/>
     <use xlink:href="#DejaVuSerif-Italic-20" transform="translate(136.181641 0.015625)"/>
     <use xlink:href="#Cmmi10-61" transform="translate(167.96875 0.015625)"/>
    </g>
   </g>
   <g id="patch_4">
    <path d="M 72.256949 75.3408 
L 92.78 75.3408 
L 92.78 53.7192 
L 72.256949 53.7192 
z
" clip-path="url(#pf16f74e140)" style="fill: #ffffff; stroke: #1a1a1a; stroke-width: 1.1; stroke-linejoin: miter"/>
   </g>
   <g id="patch_5">
    <path d="M 98.738305 75.3408 
L 119.261356 75.3408 
L 119.261356 53.7192 
L 98.738305 53.7192 
z
" clip-path="url(#pf16f74e140)" style="fill: #ffffff; stroke: #1a1a1a; stroke-width: 1.1; stroke-linejoin: miter"/>
   </g>
   <g id="text_3">
    <!-- $Y$-basis: $SH$ -->
    <g style="fill: #777777" transform="translate(76.159153 86.480906) scale(0.07 -0.07)">
     <defs>
      <path id="Cmmi10-59" d="M 569 84 
Q 572 100 581 137 
Q 591 175 606 200 
Q 622 225 653 225 
Q 1044 225 1197 269 
Q 1228 278 1254 312 
Q 1281 347 1297 384 
Q 1313 422 1325 459 
L 1644 1747 
L 819 4019 
Q 763 4103 616 4125 
Q 469 4147 275 4147 
Q 213 4147 213 4231 
Q 231 4309 247 4340 
Q 263 4372 319 4372 
L 1931 4372 
Q 1991 4372 1991 4288 
Q 1966 4147 1906 4147 
Q 1453 4147 1453 4006 
L 2175 2034 
L 3688 3781 
Q 3700 3813 3731 3858 
Q 3763 3903 3778 3934 
Q 3794 3966 3794 4006 
Q 3794 4147 3531 4147 
Q 3469 4147 3469 4231 
Q 3481 4281 3489 4309 
Q 3497 4338 3517 4355 
Q 3538 4372 3578 4372 
L 4819 4372 
Q 4847 4372 4865 4344 
Q 4884 4316 4884 4288 
Q 4872 4241 4865 4220 
Q 4859 4200 4843 4173 
Q 4828 4147 4794 4147 
Q 4538 4147 4309 4036 
Q 4081 3925 3909 3725 
Q 3903 3719 3895 3714 
Q 3888 3709 3878 3700 
L 2188 1747 
L 1856 422 
Q 1856 406 1850 375 
Q 1844 344 1844 325 
Q 1844 300 1851 283 
Q 1859 266 1873 261 
Q 1888 256 1919 250 
Q 2041 225 2381 225 
Q 2444 225 2444 141 
Q 2422 50 2409 25 
Q 2397 0 2338 0 
L 634 0 
Q 569 0 569 84 
z
" transform="scale(0.015625)"/>
      <path id="DejaVuSerif-Italic-2d" d="M 328 1959 
L 1928 1959 
L 1834 1472 
L 234 1472 
L 328 1959 
z
" transform="scale(0.015625)"/>
      <path id="DejaVuSerif-Italic-61" d="M 2325 519 
Q 1909 -91 1238 -91 
Q 688 -91 409 281 
Q 216 544 216 919 
Q 216 1078 250 1256 
Q 463 2359 1231 2928 
Q 1884 3413 2675 3413 
Q 3206 3413 3388 3322 
L 2806 331 
L 3300 331 
L 3238 0 
L 2225 0 
L 2325 519 
z
M 822 938 
Q 822 269 1469 269 
Q 1863 269 2130 583 
Q 2397 897 2516 1497 
L 2806 3003 
L 2806 3003 
Q 2806 3094 2556 3094 
Q 1956 3094 1491 2625 
Q 1028 2153 863 1297 
Q 822 1097 822 938 
z
" transform="scale(0.015625)"/>
      <path id="DejaVuSerif-Italic-73" d="M 222 959 
L 553 959 
Q 541 869 541 788 
Q 541 219 1313 219 
Q 2088 219 2200 788 
Q 2209 844 2209 944 
Q 2209 1041 2103 1158 
Q 1997 1275 1550 1428 
L 1159 1569 
Q 759 1706 629 1882 
Q 500 2059 500 2263 
Q 500 2344 516 2438 
Q 606 2894 990 3153 
Q 1375 3413 1931 3413 
Q 2484 3413 3066 3144 
L 2925 2419 
L 2594 2419 
Q 2606 2491 2606 2553 
Q 2606 2781 2448 2942 
Q 2291 3103 1925 3103 
Q 1191 3103 1091 2591 
Q 1078 2538 1078 2444 
Q 1078 2347 1179 2237 
Q 1281 2128 1678 1997 
L 2106 1856 
Q 2550 1709 2716 1488 
Q 2831 1331 2831 1178 
Q 2831 522 2306 181 
Q 1894 -91 1262 -91 
Q 631 -91 72 184 
L 222 959 
z
" transform="scale(0.015625)"/>
      <path id="DejaVuSerif-Italic-3a" d="M 529 29 
Q 434 150 468 325 
Q 503 500 647 622 
Q 791 744 966 744 
Q 1141 744 1237 622 
Q 1334 500 1300 325 
Q 1266 150 1123 29 
Q 981 -91 803 -91 
Q 625 -91 529 29 
z
M 926 2067 
Q 828 2188 862 2363 
Q 897 2538 1040 2658 
Q 1184 2778 1359 2778 
Q 1538 2778 1633 2659 
Q 1728 2541 1693 2362 
Q 1659 2184 1518 2065 
Q 1378 1947 1200 1947 
Q 1025 1947 926 2067 
z
" transform="scale(0.015625)"/>
      <path id="Cmmi10-53" d="M 391 -141 
Q 372 -141 356 -119 
Q 341 -97 341 -78 
L 709 1416 
Q 722 1453 763 1453 
L 838 1453 
Q 863 1453 877 1434 
Q 891 1416 891 1388 
Q 838 1169 838 997 
Q 838 534 1156 309 
Q 1475 84 1959 84 
Q 2169 84 2372 187 
Q 2575 291 2726 456 
Q 2878 622 2968 826 
Q 3059 1031 3059 1241 
Q 3059 1466 2940 1642 
Q 2822 1819 2613 1869 
L 1831 2075 
Q 1516 2159 1328 2414 
Q 1141 2669 1141 2988 
Q 1141 3372 1369 3728 
Q 1597 4084 1964 4298 
Q 2331 4513 2713 4513 
Q 3006 4513 3251 4405 
Q 3497 4297 3628 4063 
L 3994 4494 
Q 4031 4513 4038 4513 
L 4078 4513 
Q 4103 4513 4118 4491 
Q 4134 4469 4134 4447 
L 3763 2963 
Q 3753 2919 3713 2919 
L 3634 2919 
Q 3578 2919 3578 2988 
Q 3609 3191 3609 3341 
Q 3609 3638 3507 3858 
Q 3406 4078 3201 4192 
Q 2997 4306 2694 4306 
Q 2438 4306 2184 4159 
Q 1931 4013 1775 3769 
Q 1619 3525 1619 3263 
Q 1619 3056 1739 2897 
Q 1859 2738 2059 2681 
L 2841 2478 
Q 3053 2422 3211 2280 
Q 3369 2138 3450 1942 
Q 3531 1747 3531 1516 
Q 3531 1213 3403 917 
Q 3275 622 3045 378 
Q 2816 134 2525 -3 
Q 2234 -141 1931 -141 
Q 1169 -141 838 306 
L 481 -122 
Q 444 -141 434 -141 
L 391 -141 
z
" transform="scale(0.015625)"/>
      <path id="Cmmi10-48" d="M 300 0 
Q 238 0 238 84 
Q 241 100 250 139 
Q 259 178 276 201 
Q 294 225 319 225 
Q 709 225 863 269 
Q 947 297 984 441 
L 1863 3956 
Q 1875 4019 1875 4044 
Q 1875 4113 1797 4122 
Q 1678 4147 1338 4147 
Q 1275 4147 1275 4231 
Q 1297 4313 1309 4342 
Q 1322 4372 1381 4372 
L 3103 4372 
Q 3169 4372 3169 4288 
Q 3166 4272 3156 4234 
Q 3147 4197 3131 4172 
Q 3116 4147 3084 4147 
Q 2694 4147 2541 4103 
Q 2456 4072 2419 3928 
L 2034 2388 
L 3956 2388 
L 4347 3956 
Q 4359 4019 4359 4044 
Q 4359 4113 4281 4122 
Q 4159 4147 3822 4147 
Q 3756 4147 3756 4231 
Q 3778 4313 3790 4342 
Q 3803 4372 3866 4372 
L 5588 4372 
Q 5650 4372 5650 4288 
Q 5647 4272 5637 4233 
Q 5628 4194 5611 4170 
Q 5594 4147 5569 4147 
Q 5178 4147 5025 4103 
Q 4941 4075 4903 3928 
L 4025 416 
Q 4013 353 4013 325 
Q 4013 259 4091 250 
Q 4213 225 4550 225 
Q 4616 225 4616 141 
Q 4597 66 4578 33 
Q 4559 0 4506 0 
L 2784 0 
Q 2719 0 2719 84 
Q 2731 131 2737 153 
Q 2744 175 2761 200 
Q 2778 225 2803 225 
Q 3194 225 3347 269 
Q 3431 297 3469 441 
L 3897 2163 
L 1978 2163 
L 1544 416 
Q 1528 338 1528 325 
Q 1528 259 1606 250 
Q 1728 225 2069 225 
Q 2131 225 2131 141 
Q 2109 56 2095 28 
Q 2081 0 2022 0 
L 300 0 
z
" transform="scale(0.015625)"/>
     </defs>
     <use xlink:href="#Cmmi10-59" transform="translate(0 0.015625)"/>
     <use xlink:href="#DejaVuSerif-Italic-2d" transform="translate(58.007812 0.015625)"/>
     <use xlink:href="#DejaVuSerif-Italic-62" transform="translate(91.796875 0.015625)"/>
     <use xlink:href="#DejaVuSerif-Italic-61" transform="translate(155.810547 0.015625)"/>
     <use xlink:href="#DejaVuSerif-Italic-73" transform="translate(215.429688 0.015625)"/>
     <use xlink:href="#DejaVuSerif-Italic-69" transform="translate(266.748047 0.015625)"/>
     <use xlink:href="#DejaVuSerif-Italic-73" transform="translate(298.730469 0.015625)"/>
     <use xlink:href="#DejaVuSerif-Italic-3a" transform="translate(350.048828 0.015625)"/>
     <use xlink:href="#DejaVuSerif-Italic-20" transform="translate(383.740234 0.015625)"/>
     <use xlink:href="#Cmmi10-53" transform="translate(415.527344 0.015625)"/>
     <use xlink:href="#Cmmi10-48" transform="translate(476.806641 0.015625)"/>
    </g>
   </g>
   <g id="patch_6">
    <path d="M 141.770508 75.3408 
L 162.293559 75.3408 
L 162.293559 53.7192 
L 141.770508 53.7192 
z
" clip-path="url(#pf16f74e140)" style="fill: #ffffff; stroke: #c2452d; stroke-width: 1.1; stroke-linejoin: miter"/>
   </g>
   <g id="patch_7">
    <path d="M 168.251864 75.3408 
L 188.774915 75.3408 
L 188.774915 53.7192 
L 168.251864 53.7192 
z
" clip-path="url(#pf16f74e140)" style="fill: #ffffff; stroke: #c2452d; stroke-width: 1.1; stroke-linejoin: miter"/>
   </g>
   <g id="patch_8">
    <path d="M 194.73322 75.3408 
L 215.256271 75.3408 
L 215.256271 53.7192 
L 194.73322 53.7192 
z
" clip-path="url(#pf16f74e140)" style="fill: #ffffff; stroke: #1a1a1a; stroke-width: 1.1; stroke-linejoin: miter"/>
   </g>
   <g id="text_4">
    <!-- Eve  (prob. $f$) -->
    <g style="fill: #c2452d" transform="translate(143.756966 30.4596) scale(0.078 -0.078)">
     <defs>
      <path id="DejaVuSerif-45" d="M 353 0 
L 353 331 
L 947 331 
L 947 4331 
L 353 4331 
L 353 4666 
L 4109 4666 
L 4109 3628 
L 3725 3628 
L 3725 4281 
L 1581 4281 
L 1581 2719 
L 3109 2719 
L 3109 3303 
L 3494 3303 
L 3494 1753 
L 3109 1753 
L 3109 2338 
L 1581 2338 
L 1581 384 
L 3775 384 
L 3775 1038 
L 4159 1038 
L 4159 0 
L 353 0 
z
" transform="scale(0.015625)"/>
      <path id="DejaVuSerif-76" d="M 1581 0 
L 359 2988 
L -19 2988 
L -19 3322 
L 1509 3322 
L 1509 2988 
L 978 2988 
L 1913 703 
L 2847 2988 
L 2350 2988 
L 2350 3322 
L 3597 3322 
L 3597 2988 
L 3225 2988 
L 2003 0 
L 1581 0 
z
" transform="scale(0.015625)"/>
      <path id="DejaVuSerif-65" d="M 3469 1600 
L 991 1600 
L 991 1575 
Q 991 903 1244 561 
Q 1497 219 1991 219 
Q 2369 219 2611 417 
Q 2853 616 2950 1006 
L 3413 1006 
Q 3275 459 2904 184 
Q 2534 -91 1931 -91 
Q 1203 -91 761 389 
Q 319 869 319 1663 
Q 319 2450 753 2931 
Q 1188 3413 1894 3413 
Q 2647 3413 3050 2948 
Q 3453 2484 3469 1600 
z
M 2791 1931 
Q 2772 2513 2545 2808 
Q 2319 3103 1894 3103 
Q 1497 3103 1269 2806 
Q 1041 2509 991 1931 
L 2791 1931 
z
" transform="scale(0.015625)"/>
      <path id="DejaVuSerif-20" transform="scale(0.015625)"/>
      <path id="DejaVuSerif-28" d="M 2041 -997 
Q 1281 -656 893 83 
Q 506 822 506 1931 
Q 506 3044 893 3783 
Q 1281 4522 2041 4863 
L 2041 4556 
Q 1559 4225 1350 3623 
Q 1141 3022 1141 1931 
Q 1141 844 1350 242 
Q 1559 -359 2041 -691 
L 2041 -997 
z
" transform="scale(0.015625)"/>
      <path id="DejaVuSerif-70" d="M 1313 1825 
L 1313 1497 
Q 1313 897 1542 583 
Q 1772 269 2209 269 
Q 2650 269 2876 622 
Q 3103 975 3103 1663 
Q 3103 2353 2876 2703 
Q 2650 3053 2209 3053 
Q 1772 3053 1542 2737 
Q 1313 2422 1313 1825 
z
M 738 2988 
L 184 2988 
L 184 3322 
L 1313 3322 
L 1313 2803 
Q 1481 3116 1742 3264 
Q 2003 3413 2388 3413 
Q 3000 3413 3387 2928 
Q 3775 2444 3775 1663 
Q 3775 881 3387 395 
Q 3000 -91 2388 -91 
Q 2003 -91 1742 57 
Q 1481 206 1313 519 
L 1313 -997 
L 1856 -997 
L 1856 -1331 
L 184 -1331 
L 184 -997 
L 738 -997 
L 738 2988 
z
" transform="scale(0.015625)"/>
      <path id="DejaVuSerif-72" d="M 3059 3328 
L 3059 2497 
L 2728 2497 
Q 2713 2744 2591 2866 
Q 2469 2988 2234 2988 
Q 1809 2988 1582 2694 
Q 1356 2400 1356 1850 
L 1356 331 
L 2022 331 
L 2022 0 
L 263 0 
L 263 331 
L 781 331 
L 781 2994 
L 231 2994 
L 231 3322 
L 1356 3322 
L 1356 2731 
Q 1525 3078 1790 3245 
Q 2056 3413 2438 3413 
Q 2578 3413 2733 3391 
Q 2888 3369 3059 3328 
z
" transform="scale(0.015625)"/>
      <path id="DejaVuSerif-6f" d="M 1925 219 
Q 2388 219 2623 584 
Q 2859 950 2859 1663 
Q 2859 2375 2623 2739 
Q 2388 3103 1925 3103 
Q 1463 3103 1227 2739 
Q 991 2375 991 1663 
Q 991 950 1228 584 
Q 1466 219 1925 219 
z
M 1925 -91 
Q 1200 -91 759 389 
Q 319 869 319 1663 
Q 319 2456 758 2934 
Q 1197 3413 1925 3413 
Q 2653 3413 3092 2934 
Q 3531 2456 3531 1663 
Q 3531 869 3092 389 
Q 2653 -91 1925 -91 
z
" transform="scale(0.015625)"/>
      <path id="DejaVuSerif-62" d="M 738 331 
L 738 4531 
L 184 4531 
L 184 4863 
L 1313 4863 
L 1313 2803 
Q 1481 3116 1742 3264 
Q 2003 3413 2388 3413 
Q 3000 3413 3387 2928 
Q 3775 2444 3775 1663 
Q 3775 881 3387 395 
Q 3000 -91 2388 -91 
Q 2003 -91 1742 57 
Q 1481 206 1313 519 
L 1313 0 
L 184 0 
L 184 331 
L 738 331 
z
M 1313 1497 
Q 1313 897 1542 583 
Q 1772 269 2209 269 
Q 2650 269 2876 622 
Q 3103 975 3103 1663 
Q 3103 2353 2876 2703 
Q 2650 3053 2209 3053 
Q 1772 3053 1542 2737 
Q 1313 2422 1313 1825 
L 1313 1497 
z
" transform="scale(0.015625)"/>
      <path id="DejaVuSerif-2e" d="M 603 325 
Q 603 500 722 622 
Q 841 744 1019 744 
Q 1191 744 1312 622 
Q 1434 500 1434 325 
Q 1434 153 1312 31 
Q 1191 -91 1019 -91 
Q 841 -91 722 29 
Q 603 150 603 325 
z
" transform="scale(0.015625)"/>
      <path id="Cmmi10-66" d="M 622 -1056 
Q 741 -1147 909 -1147 
Q 1138 -1147 1281 -641 
Q 1341 -397 1606 966 
L 1900 2534 
L 1350 2534 
Q 1288 2534 1288 2619 
Q 1313 2759 1369 2759 
L 1941 2759 
L 2016 3175 
Q 2053 3369 2084 3508 
Q 2116 3647 2152 3765 
Q 2188 3884 2259 4031 
Q 2369 4241 2555 4377 
Q 2741 4513 2956 4513 
Q 3097 4513 3230 4461 
Q 3363 4409 3447 4306 
Q 3531 4203 3531 4063 
Q 3531 3900 3423 3779 
Q 3316 3659 3163 3659 
Q 3059 3659 2986 3723 
Q 2913 3788 2913 3891 
Q 2913 4031 3008 4136 
Q 3103 4241 3244 4256 
Q 3125 4347 2950 4347 
Q 2853 4347 2767 4256 
Q 2681 4166 2656 4063 
Q 2616 3900 2478 3181 
L 2400 2759 
L 3059 2759 
Q 3122 2759 3122 2675 
Q 3119 2659 3109 2620 
Q 3100 2581 3083 2557 
Q 3066 2534 3041 2534 
L 2356 2534 
L 2059 972 
Q 2003 631 1929 279 
Q 1856 -72 1723 -442 
Q 1591 -813 1384 -1063 
Q 1178 -1313 897 -1313 
Q 681 -1313 511 -1189 
Q 341 -1066 341 -863 
Q 341 -700 445 -579 
Q 550 -459 709 -459 
Q 816 -459 887 -523 
Q 959 -588 959 -691 
Q 959 -828 857 -942 
Q 756 -1056 622 -1056 
z
" transform="scale(0.015625)"/>
      <path id="DejaVuSerif-29" d="M 453 -997 
L 453 -691 
Q 934 -359 1145 242 
Q 1356 844 1356 1931 
Q 1356 3022 1145 3623 
Q 934 4225 453 4556 
L 453 4863 
Q 1216 4522 1603 3783 
Q 1991 3044 1991 1931 
Q 1991 822 1603 83 
Q 1216 -656 453 -997 
z
" transform="scale(0.015625)"/>
     </defs>
     <use xlink:href="#DejaVuSerif-45" transform="translate(0 0.015625)"/>
     <use xlink:href="#DejaVuSerif-76" transform="translate(72.998047 0.015625)"/>
     <use xlink:href="#DejaVuSerif-65" transform="translate(129.492188 0.015625)"/>
     <use xlink:href="#DejaVuSerif-20" transform="translate(188.671875 0.015625)"/>
     <use xlink:href="#DejaVuSerif-20" transform="translate(220.458984 0.015625)"/>
     <use xlink:href="#DejaVuSerif-28" transform="translate(252.246094 0.015625)"/>
     <use xlink:href="#DejaVuSerif-70" transform="translate(291.259766 0.015625)"/>
     <use xlink:href="#DejaVuSerif-72" transform="translate(355.273438 0.015625)"/>
     <use xlink:href="#DejaVuSerif-6f" transform="translate(403.076172 0.015625)"/>
     <use xlink:href="#DejaVuSerif-62" transform="translate(463.28125 0.015625)"/>
     <use xlink:href="#DejaVuSerif-2e" transform="translate(527.294922 0.015625)"/>
     <use xlink:href="#DejaVuSerif-20" transform="translate(559.082031 0.015625)"/>
     <use xlink:href="#Cmmi10-66" transform="translate(590.869141 0.015625)"/>
     <use xlink:href="#DejaVuSerif-29" transform="translate(639.746094 0.015625)"/>
    </g>
   </g>
   <g id="patch_9">
    <path d="M 237.765424 75.3408 
L 258.288475 75.3408 
L 258.288475 53.7192 
L 237.765424 53.7192 
z
" clip-path="url(#pf16f74e140)" style="fill: #f3eee6; stroke: #1a1a1a; stroke-width: 1.1; stroke-linejoin: miter"/>
   </g>
   <g id="text_5">
    <!-- noise -->
    <g style="fill: #777777" transform="translate(238.678668 86.480906) scale(0.07 -0.07)">
     <defs>
      <path id="DejaVuSerif-Italic-6e" d="M 450 0 
L 1031 2988 
L 481 2988 
L 544 3322 
L 1669 3322 
L 1556 2731 
Q 1781 3069 2068 3241 
Q 2356 3413 2694 3413 
Q 3244 3413 3444 3097 
Q 3563 2906 3563 2588 
Q 3563 2378 3509 2113 
L 3163 331 
L 3675 331 
L 3613 0 
L 2522 0 
L 2897 1931 
Q 2959 2253 2959 2469 
Q 2959 2659 2909 2769 
Q 2803 2994 2425 2994 
Q 2025 2994 1759 2701 
Q 1494 2409 1384 1850 
L 1025 0 
L 450 0 
z
" transform="scale(0.015625)"/>
      <path id="DejaVuSerif-Italic-6f" d="M 1644 219 
Q 2106 219 2414 584 
Q 2722 950 2859 1663 
Q 2922 1988 2922 2241 
Q 2922 2541 2834 2738 
Q 2669 3103 2206 3103 
Q 1744 3103 1436 2739 
Q 1128 2375 991 1663 
Q 928 1338 928 1088 
Q 928 784 1019 584 
Q 1184 219 1644 219 
z
M 1584 -91 
Q 859 -91 513 388 
Q 272 722 272 1203 
Q 272 1419 319 1663 
Q 472 2456 1005 2934 
Q 1538 3413 2266 3413 
Q 2994 3413 3341 2934 
Q 3578 2603 3578 2122 
Q 3578 1906 3531 1663 
Q 3378 869 2845 389 
Q 2313 -91 1584 -91 
z
" transform="scale(0.015625)"/>
      <path id="DejaVuSerif-Italic-65" d="M 938 1275 
Q 925 1156 925 1050 
Q 925 756 1031 563 
Q 1216 219 1709 219 
Q 2072 219 2250 328 
Q 2569 525 2644 778 
L 3066 778 
Q 2941 381 2475 103 
Q 2150 -91 1506 -91 
Q 863 -91 516 388 
Q 272 722 272 1206 
Q 272 1419 319 1659 
Q 472 2450 1000 2931 
Q 1528 3413 2278 3413 
Q 3500 3413 3500 2547 
Q 3500 1913 2859 1603 
Q 2206 1288 938 1275 
z
M 2541 1975 
Q 2891 2181 2891 2569 
Q 2891 3103 2181 3103 
Q 1763 3103 1472 2784 
Q 1181 2466 1003 1606 
Q 2006 1653 2541 1975 
z
" transform="scale(0.015625)"/>
     </defs>
     <use xlink:href="#DejaVuSerif-Italic-6e"/>
     <use xlink:href="#DejaVuSerif-Italic-6f" transform="translate(64.404297 0)"/>
     <use xlink:href="#DejaVuSerif-Italic-69" transform="translate(124.609375 0)"/>
     <use xlink:href="#DejaVuSerif-Italic-73" transform="translate(156.591797 0)"/>
     <use xlink:href="#DejaVuSerif-Italic-65" transform="translate(207.910156 0)"/>
    </g>
   </g>
   <g id="patch_10">
    <path d="M 282.452712 75.3408 
L 302.975763 75.3408 
L 302.975763 53.7192 
L 282.452712 53.7192 
z
" clip-path="url(#pf16f74e140)" style="fill: #ffffff; stroke: #1a1a1a; stroke-width: 1.1; stroke-linejoin: miter"/>
   </g>
   <g id="patch_11">
    <path d="M 308.934068 75.3408 
L 329.457119 75.3408 
L 329.457119 53.7192 
L 308.934068 53.7192 
z
" clip-path="url(#pf16f74e140)" style="fill: #ffffff; stroke: #1a1a1a; stroke-width: 1.1; stroke-linejoin: miter"/>
   </g>
   <g id="patch_12">
    <path d="M 335.415424 75.3408 
L 355.938475 75.3408 
L 355.938475 53.7192 
L 335.415424 53.7192 
z
" clip-path="url(#pf16f74e140)" style="fill: #ffffff; stroke: #1a1a1a; stroke-width: 1.1; stroke-linejoin: miter"/>
   </g>
   <g id="text_6">
    <!-- Alice: prepare -->
    <g transform="translate(55.434809 15.4656) scale(0.08 -0.08)">
     <defs>
      <path id="DejaVuSerif-41" d="M 1281 1691 
L 2994 1691 
L 2138 3909 
L 1281 1691 
z
M -38 0 
L -38 331 
L 372 331 
L 2034 4666 
L 2559 4666 
L 4225 331 
L 4684 331 
L 4684 0 
L 2988 0 
L 2988 331 
L 3506 331 
L 3116 1356 
L 1153 1356 
L 763 331 
L 1275 331 
L 1275 0 
L -38 0 
z
" transform="scale(0.015625)"/>
      <path id="DejaVuSerif-6c" d="M 1313 331 
L 1856 331 
L 1856 0 
L 184 0 
L 184 331 
L 738 331 
L 738 4531 
L 184 4531 
L 184 4863 
L 1313 4863 
L 1313 331 
z
" transform="scale(0.015625)"/>
      <path id="DejaVuSerif-69" d="M 622 4353 
Q 622 4497 726 4603 
Q 831 4709 978 4709 
Q 1122 4709 1226 4603 
Q 1331 4497 1331 4353 
Q 1331 4206 1228 4103 
Q 1125 4000 978 4000 
Q 831 4000 726 4103 
Q 622 4206 622 4353 
z
M 1356 331 
L 1900 331 
L 1900 0 
L 231 0 
L 231 331 
L 781 331 
L 781 2988 
L 231 2988 
L 231 3322 
L 1356 3322 
L 1356 331 
z
" transform="scale(0.015625)"/>
      <path id="DejaVuSerif-63" d="M 3291 997 
Q 3169 466 2822 187 
Q 2475 -91 1925 -91 
Q 1200 -91 759 389 
Q 319 869 319 1663 
Q 319 2459 759 2936 
Q 1200 3413 1925 3413 
Q 2241 3413 2553 3339 
Q 2866 3266 3181 3116 
L 3181 2266 
L 2847 2266 
Q 2781 2703 2561 2903 
Q 2341 3103 1931 3103 
Q 1466 3103 1228 2742 
Q 991 2381 991 1663 
Q 991 944 1227 581 
Q 1463 219 1931 219 
Q 2303 219 2525 412 
Q 2747 606 2828 997 
L 3291 997 
z
" transform="scale(0.015625)"/>
      <path id="DejaVuSerif-3a" d="M 666 325 
Q 666 500 786 622 
Q 906 744 1081 744 
Q 1256 744 1376 622 
Q 1497 500 1497 325 
Q 1497 150 1378 29 
Q 1259 -91 1081 -91 
Q 903 -91 784 29 
Q 666 150 666 325 
z
M 666 2363 
Q 666 2538 786 2658 
Q 906 2778 1081 2778 
Q 1259 2778 1378 2659 
Q 1497 2541 1497 2363 
Q 1497 2184 1378 2065 
Q 1259 1947 1081 1947 
Q 906 1947 786 2067 
Q 666 2188 666 2363 
z
" transform="scale(0.015625)"/>
      <path id="DejaVuSerif-61" d="M 2547 1044 
L 2547 1747 
L 1806 1747 
Q 1378 1747 1168 1562 
Q 959 1378 959 997 
Q 959 650 1171 447 
Q 1384 244 1747 244 
Q 2106 244 2326 466 
Q 2547 688 2547 1044 
z
M 3122 2075 
L 3122 331 
L 3634 331 
L 3634 0 
L 2547 0 
L 2547 359 
Q 2356 128 2106 18 
Q 1856 -91 1522 -91 
Q 969 -91 644 203 
Q 319 497 319 997 
Q 319 1513 691 1797 
Q 1063 2081 1741 2081 
L 2547 2081 
L 2547 2309 
Q 2547 2688 2317 2895 
Q 2088 3103 1672 3103 
Q 1328 3103 1125 2947 
Q 922 2791 872 2484 
L 575 2484 
L 575 3156 
Q 875 3284 1158 3348 
Q 1441 3413 1709 3413 
Q 2400 3413 2761 3070 
Q 3122 2728 3122 2075 
z
" transform="scale(0.015625)"/>
     </defs>
     <use xlink:href="#DejaVuSerif-41"/>
     <use xlink:href="#DejaVuSerif-6c" transform="translate(72.216797 0)"/>
     <use xlink:href="#DejaVuSerif-69" transform="translate(104.199219 0)"/>
     <use xlink:href="#DejaVuSerif-63" transform="translate(136.181641 0)"/>
     <use xlink:href="#DejaVuSerif-65" transform="translate(192.1875 0)"/>
     <use xlink:href="#DejaVuSerif-3a" transform="translate(251.367188 0)"/>
     <use xlink:href="#DejaVuSerif-20" transform="translate(285.058594 0)"/>
     <use xlink:href="#DejaVuSerif-70" transform="translate(316.845703 0)"/>
     <use xlink:href="#DejaVuSerif-72" transform="translate(380.859375 0)"/>
     <use xlink:href="#DejaVuSerif-65" transform="translate(428.662109 0)"/>
     <use xlink:href="#DejaVuSerif-70" transform="translate(487.841797 0)"/>
     <use xlink:href="#DejaVuSerif-61" transform="translate(551.855469 0)"/>
     <use xlink:href="#DejaVuSerif-72" transform="translate(611.474609 0)"/>
     <use xlink:href="#DejaVuSerif-65" transform="translate(659.277344 0)"/>
    </g>
   </g>
   <g id="text_7">
    <!-- Bob: measure -->
    <g transform="translate(291.214968 15.4656) scale(0.08 -0.08)">
     <defs>
      <path id="DejaVuSerif-42" d="M 1581 331 
L 2516 331 
Q 3078 331 3337 575 
Q 3597 819 3597 1350 
Q 3597 1878 3339 2120 
Q 3081 2363 2516 2363 
L 1581 2363 
L 1581 331 
z
M 1581 2694 
L 2375 2694 
Q 2888 2694 3123 2891 
Q 3359 3088 3359 3513 
Q 3359 3941 3123 4136 
Q 2888 4331 2375 4331 
L 1581 4331 
L 1581 2694 
z
M 353 0 
L 353 331 
L 947 331 
L 947 4331 
L 353 4331 
L 353 4666 
L 2656 4666 
Q 3363 4666 3720 4377 
Q 4078 4088 4078 3513 
Q 4078 3097 3829 2850 
Q 3581 2603 3103 2547 
Q 3697 2472 4005 2167 
Q 4313 1863 4313 1350 
Q 4313 656 3875 328 
Q 3438 0 2509 0 
L 353 0 
z
" transform="scale(0.015625)"/>
      <path id="DejaVuSerif-6d" d="M 3316 2675 
Q 3481 3041 3739 3227 
Q 3997 3413 4341 3413 
Q 4863 3413 5119 3089 
Q 5375 2766 5375 2113 
L 5375 331 
L 5894 331 
L 5894 0 
L 4300 0 
L 4300 331 
L 4800 331 
L 4800 2047 
Q 4800 2556 4650 2772 
Q 4500 2988 4153 2988 
Q 3769 2988 3567 2697 
Q 3366 2406 3366 1850 
L 3366 331 
L 3866 331 
L 3866 0 
L 2291 0 
L 2291 331 
L 2791 331 
L 2791 2069 
Q 2791 2566 2641 2777 
Q 2491 2988 2144 2988 
Q 1759 2988 1557 2697 
Q 1356 2406 1356 1850 
L 1356 331 
L 1856 331 
L 1856 0 
L 263 0 
L 263 331 
L 781 331 
L 781 2994 
L 231 2994 
L 231 3322 
L 1356 3322 
L 1356 2731 
Q 1516 3063 1762 3238 
Q 2009 3413 2322 3413 
Q 2709 3413 2968 3220 
Q 3228 3028 3316 2675 
z
" transform="scale(0.015625)"/>
      <path id="DejaVuSerif-73" d="M 359 184 
L 359 959 
L 691 959 
Q 703 588 923 403 
Q 1144 219 1575 219 
Q 1963 219 2166 364 
Q 2369 509 2369 788 
Q 2369 1006 2220 1140 
Q 2072 1275 1594 1428 
L 1178 1569 
Q 750 1706 558 1912 
Q 366 2119 366 2438 
Q 366 2894 700 3153 
Q 1034 3413 1625 3413 
Q 1888 3413 2178 3344 
Q 2469 3275 2778 3144 
L 2778 2419 
L 2447 2419 
Q 2434 2741 2221 2922 
Q 2009 3103 1644 3103 
Q 1281 3103 1095 2975 
Q 909 2847 909 2591 
Q 909 2381 1050 2254 
Q 1191 2128 1613 1997 
L 2069 1856 
Q 2541 1709 2748 1489 
Q 2956 1269 2956 922 
Q 2956 450 2595 179 
Q 2234 -91 1600 -91 
Q 1278 -91 972 -22 
Q 666 47 359 184 
z
" transform="scale(0.015625)"/>
      <path id="DejaVuSerif-75" d="M 2266 3322 
L 3341 3322 
L 3341 331 
L 3884 331 
L 3884 0 
L 2766 0 
L 2766 588 
Q 2606 256 2353 82 
Q 2100 -91 1766 -91 
Q 1213 -91 952 223 
Q 691 538 691 1209 
L 691 2988 
L 172 2988 
L 172 3322 
L 1269 3322 
L 1269 1388 
Q 1269 781 1417 556 
Q 1566 331 1947 331 
Q 2347 331 2556 625 
Q 2766 919 2766 1478 
L 2766 2988 
L 2266 2988 
L 2266 3322 
z
" transform="scale(0.015625)"/>
     </defs>
     <use xlink:href="#DejaVuSerif-42"/>
     <use xlink:href="#DejaVuSerif-6f" transform="translate(73.486328 0)"/>
     <use xlink:href="#DejaVuSerif-62" transform="translate(133.691406 0)"/>
     <use xlink:href="#DejaVuSerif-3a" transform="translate(197.705078 0)"/>
     <use xlink:href="#DejaVuSerif-20" transform="translate(231.396484 0)"/>
     <use xlink:href="#DejaVuSerif-6d" transform="translate(263.183594 0)"/>
     <use xlink:href="#DejaVuSerif-65" transform="translate(358.007812 0)"/>
     <use xlink:href="#DejaVuSerif-61" transform="translate(417.1875 0)"/>
     <use xlink:href="#DejaVuSerif-73" transform="translate(476.806641 0)"/>
     <use xlink:href="#DejaVuSerif-75" transform="translate(528.125 0)"/>
     <use xlink:href="#DejaVuSerif-72" transform="translate(592.529297 0)"/>
     <use xlink:href="#DejaVuSerif-65" transform="translate(640.332031 0)"/>
    </g>
   </g>
   <g id="text_8">
    <!-- channel -->
    <g style="fill: #777777" transform="translate(232.026324 15.4656) scale(0.08 -0.08)">
     <defs>
      <path id="DejaVuSerif-68" d="M 263 0 
L 263 331 
L 781 331 
L 781 4531 
L 231 4531 
L 231 4863 
L 1356 4863 
L 1356 2731 
Q 1516 3069 1770 3241 
Q 2025 3413 2363 3413 
Q 2913 3413 3172 3097 
Q 3431 2781 3431 2113 
L 3431 331 
L 3944 331 
L 3944 0 
L 2356 0 
L 2356 331 
L 2853 331 
L 2853 1931 
Q 2853 2541 2704 2764 
Q 2556 2988 2175 2988 
Q 1775 2988 1565 2697 
Q 1356 2406 1356 1850 
L 1356 331 
L 1856 331 
L 1856 0 
L 263 0 
z
" transform="scale(0.015625)"/>
      <path id="DejaVuSerif-6e" d="M 263 0 
L 263 331 
L 781 331 
L 781 2988 
L 231 2988 
L 231 3322 
L 1356 3322 
L 1356 2731 
Q 1516 3069 1770 3241 
Q 2025 3413 2363 3413 
Q 2913 3413 3172 3097 
Q 3431 2781 3431 2113 
L 3431 331 
L 3944 331 
L 3944 0 
L 2356 0 
L 2356 331 
L 2853 331 
L 2853 1931 
Q 2853 2541 2703 2767 
Q 2553 2994 2175 2994 
Q 1775 2994 1565 2701 
Q 1356 2409 1356 1850 
L 1356 331 
L 1856 331 
L 1856 0 
L 263 0 
z
" transform="scale(0.015625)"/>
     </defs>
     <use xlink:href="#DejaVuSerif-63"/>
     <use xlink:href="#DejaVuSerif-68" transform="translate(56.005859 0)"/>
     <use xlink:href="#DejaVuSerif-61" transform="translate(120.410156 0)"/>
     <use xlink:href="#DejaVuSerif-6e" transform="translate(180.029297 0)"/>
     <use xlink:href="#DejaVuSerif-6e" transform="translate(244.433594 0)"/>
     <use xlink:href="#DejaVuSerif-65" transform="translate(308.837891 0)"/>
     <use xlink:href="#DejaVuSerif-6c" transform="translate(368.017578 0)"/>
    </g>
   </g>
   <g id="text_9">
    <!-- third basis $Y$ uses $SH$ to prepare and $S^{\dagger}H$ to measure; $Z,X$ as in BB84 -->
    <g style="fill: #777777" transform="translate(80.451492 102.7836) scale(0.068 -0.068)">
     <defs>
      <path id="DejaVuSerif-Italic-68" d="M 309 0 
L 1191 4531 
L 641 4531 
L 703 4863 
L 1828 4863 
L 1416 2731 
Q 1641 3069 1928 3241 
Q 2216 3413 2553 3413 
Q 3103 3413 3300 3097 
Q 3422 2906 3422 2588 
Q 3422 2378 3369 2113 
L 3022 331 
L 3534 331 
L 3472 0 
L 2381 0 
L 2756 1931 
Q 2819 2253 2819 2469 
Q 2819 2659 2769 2763 
Q 2666 2988 2284 2988 
Q 1884 2988 1617 2697 
Q 1350 2406 1244 1850 
L 884 0 
L 309 0 
z
" transform="scale(0.015625)"/>
      <path id="DejaVuSerif-Italic-72" d="M 3375 3328 
L 3213 2497 
L 2881 2497 
Q 2891 2559 2891 2613 
Q 2891 2775 2816 2866 
Q 2719 2988 2484 2988 
Q 2059 2988 1775 2694 
Q 1491 2400 1384 1850 
L 1025 0 
L 450 0 
L 1031 2994 
L 481 2994 
L 544 3322 
L 1669 3322 
L 1556 2731 
Q 1791 3078 2089 3245 
Q 2388 3413 2769 3413 
Q 2909 3413 3059 3391 
Q 3209 3369 3375 3328 
z
" transform="scale(0.015625)"/>
      <path id="DejaVuSerif-Italic-64" d="M 3841 4863 
L 2897 0 
L 2322 0 
L 2422 519 
Q 2191 206 1902 57 
Q 1613 -91 1228 -91 
Q 616 -91 322 394 
Q 125 716 125 1166 
Q 125 1397 178 1663 
Q 331 2444 812 2928 
Q 1294 3413 1909 3413 
Q 2294 3413 2525 3264 
Q 2756 3116 2866 2803 
L 3200 4531 
L 2656 4531 
L 2722 4863 
L 3841 4863 
z
M 2613 1497 
L 2675 1825 
Q 2722 2069 2722 2266 
Q 2722 2550 2622 2738 
Q 2456 3053 2019 3053 
Q 1575 3053 1279 2703 
Q 984 2353 850 1663 
Q 788 1347 788 1103 
Q 788 813 875 622 
Q 1031 269 1475 269 
Q 1913 269 2203 583 
Q 2494 897 2613 1497 
z
" transform="scale(0.015625)"/>
      <path id="DejaVuSerif-Italic-75" d="M 3097 3322 
L 3672 3322 
L 3091 331 
L 3634 331 
L 3572 0 
L 2453 0 
L 2566 588 
Q 2341 256 2055 82 
Q 1769 -91 1434 -91 
Q 881 -91 681 225 
Q 559 413 559 734 
Q 559 944 613 1209 
L 956 2988 
L 438 2988 
L 503 3322 
L 1600 3322 
L 1225 1388 
Q 1163 1066 1163 853 
Q 1163 663 1213 556 
Q 1316 331 1697 331 
Q 2097 331 2364 625 
Q 2631 919 2738 1478 
L 3097 3322 
z
" transform="scale(0.015625)"/>
      <path id="DejaVuSerif-Italic-70" d="M 1466 1825 
L 1400 1497 
Q 1353 1250 1353 1053 
Q 1353 769 1453 581 
Q 1622 269 2059 269 
Q 2500 269 2795 622 
Q 3091 975 3225 1663 
Q 3284 1978 3284 2225 
Q 3284 2513 3200 2703 
Q 3041 3053 2600 3053 
Q 2163 3053 1872 2737 
Q 1581 2422 1466 1825 
z
M 1116 2988 
L 563 2988 
L 628 3322 
L 1756 3322 
L 1656 2803 
Q 1884 3116 2175 3264 
Q 2466 3413 2850 3413 
Q 3463 3413 3753 2928 
Q 3947 2609 3947 2163 
Q 3947 1928 3897 1663 
Q 3744 881 3262 395 
Q 2781 -91 2169 -91 
Q 1784 -91 1551 57 
Q 1319 206 1213 519 
L 850 -1331 
L 275 -1331 
L 1116 2988 
z
" transform="scale(0.015625)"/>
      <path id="STIXGeneral-Regular-2020" d="M 1536 -954 
L 1536 -166 
Q 1536 282 1459 790 
Q 1382 1299 1267 1619 
Q 1536 1894 1536 2803 
Q 1242 2778 954 2662 
Q 749 2586 659 2586 
Q 378 2586 378 2861 
Q 378 2982 448 3062 
Q 518 3142 627 3142 
Q 730 3142 941 3059 
Q 1280 2925 1536 2918 
Q 1536 3181 1507 3337 
Q 1478 3494 1382 3738 
Q 1306 3930 1306 4038 
Q 1306 4147 1398 4236 
Q 1491 4326 1606 4326 
Q 1722 4326 1814 4236 
Q 1907 4147 1907 4038 
Q 1907 3942 1824 3738 
Q 1728 3501 1702 3344 
Q 1677 3187 1677 2918 
Q 1933 2925 2266 3059 
Q 2470 3142 2586 3142 
Q 2688 3142 2758 3062 
Q 2829 2982 2829 2860 
Q 2829 2739 2761 2662 
Q 2694 2586 2592 2586 
Q 2458 2586 2253 2662 
Q 1952 2778 1677 2803 
Q 1677 1901 1939 1619 
Q 1677 941 1677 -166 
L 1677 -954 
L 1536 -954 
z
" transform="scale(0.015625)"/>
      <path id="DejaVuSerif-Italic-6d" d="M 3503 2675 
Q 3741 3041 4034 3227 
Q 4328 3413 4672 3413 
Q 5194 3413 5388 3088 
Q 5503 2894 5503 2578 
Q 5503 2372 5453 2113 
L 5106 331 
L 5625 331 
L 5563 0 
L 4469 0 
L 4866 2047 
Q 4913 2291 4913 2466 
Q 4913 2659 4856 2772 
Q 4750 2988 4403 2988 
Q 4019 2988 3761 2697 
Q 3503 2406 3394 1850 
L 3034 0 
L 2459 0 
L 2863 2069 
Q 2906 2303 2906 2472 
Q 2906 2666 2850 2775 
Q 2741 2988 2394 2988 
Q 2009 2988 1751 2697 
Q 1494 2406 1384 1850 
L 1025 0 
L 450 0 
L 1031 2994 
L 481 2994 
L 544 3322 
L 1669 3322 
L 1556 2731 
Q 1778 3063 2059 3238 
Q 2341 3413 2653 3413 
Q 3041 3413 3262 3220 
Q 3484 3028 3503 2675 
z
" transform="scale(0.015625)"/>
      <path id="DejaVuSerif-Italic-3b" d="M -72 -622 
Q 263 -406 458 -114 
Q 653 178 734 594 
L 756 709 
L 1372 709 
Q 1244 175 942 -208 
Q 641 -591 128 -872 
L -72 -622 
z
M 1019 2067 
Q 922 2188 956 2363 
Q 991 2538 1134 2658 
Q 1278 2778 1453 2778 
Q 1628 2778 1723 2656 
Q 1819 2534 1788 2363 
Q 1753 2188 1609 2067 
Q 1466 1947 1291 1947 
Q 1116 1947 1019 2067 
z
" transform="scale(0.015625)"/>
      <path id="Cmmi10-5a" d="M 372 50 
Q 372 144 416 197 
L 3938 4147 
L 2994 4147 
Q 2525 4147 2217 4036 
Q 1909 3925 1707 3667 
Q 1506 3409 1369 2963 
Q 1356 2906 1306 2906 
L 1247 2906 
Q 1184 2906 1184 2988 
L 1588 4313 
Q 1600 4372 1650 4372 
L 4569 4372 
Q 4622 4372 4622 4319 
Q 4622 4225 4581 4184 
L 1075 244 
L 2047 244 
Q 2613 244 2936 383 
Q 3259 522 3448 822 
Q 3638 1122 3816 1678 
Q 3822 1700 3839 1717 
Q 3856 1734 3878 1734 
L 3938 1734 
Q 4000 1734 4000 1650 
L 3494 56 
Q 3466 0 3431 0 
L 428 0 
Q 372 0 372 50 
z
" transform="scale(0.015625)"/>
      <path id="Cmmi10-3b" d="M 634 -1153 
Q 634 -1125 659 -1100 
Q 891 -878 1019 -587 
Q 1147 -297 1147 25 
L 1147 103 
Q 1044 0 891 0 
Q 744 0 641 103 
Q 538 206 538 353 
Q 538 503 641 603 
Q 744 703 891 703 
Q 1119 703 1216 492 
Q 1313 281 1313 25 
Q 1313 -331 1170 -651 
Q 1028 -972 769 -1228 
Q 744 -1241 728 -1241 
Q 697 -1241 665 -1212 
Q 634 -1184 634 -1153 
z
" transform="scale(0.015625)"/>
      <path id="Cmmi10-58" d="M 231 0 
Q 166 0 166 84 
Q 169 100 180 140 
Q 191 181 208 203 
Q 225 225 256 225 
Q 838 225 1253 659 
Q 1259 666 1267 669 
Q 1275 672 1275 672 
L 2675 2181 
L 1913 4019 
Q 1847 4103 1700 4125 
Q 1553 4147 1356 4147 
Q 1294 4147 1294 4231 
Q 1316 4313 1328 4342 
Q 1341 4372 1403 4372 
L 3003 4372 
Q 3066 4372 3066 4288 
Q 3063 4272 3052 4231 
Q 3041 4191 3023 4169 
Q 3006 4147 2975 4147 
Q 2856 4147 2729 4108 
Q 2603 4069 2553 3981 
L 3103 2656 
L 4153 3781 
Q 4163 3803 4197 3858 
Q 4231 3913 4231 3963 
Q 4231 4056 4150 4101 
Q 4069 4147 3956 4147 
Q 3891 4147 3891 4231 
Q 3913 4313 3925 4342 
Q 3938 4372 4000 4372 
L 5388 4372 
Q 5422 4372 5437 4347 
Q 5453 4322 5453 4288 
Q 5450 4272 5440 4234 
Q 5431 4197 5415 4172 
Q 5400 4147 5369 4147 
Q 5072 4147 4823 4039 
Q 4575 3931 4366 3713 
Q 4363 3709 4358 3707 
Q 4353 3706 4347 3700 
L 3188 2450 
L 4063 353 
Q 4166 225 4622 225 
Q 4684 225 4684 141 
Q 4663 56 4648 28 
Q 4634 0 4575 0 
L 2975 0 
Q 2913 0 2913 84 
Q 2916 100 2925 139 
Q 2934 178 2951 201 
Q 2969 225 2994 225 
Q 3119 225 3247 264 
Q 3375 303 3425 391 
L 2759 1984 
L 1466 588 
Q 1456 566 1422 512 
Q 1388 459 1388 409 
Q 1388 316 1475 270 
Q 1563 225 1663 225 
Q 1728 225 1728 141 
Q 1706 50 1693 25 
Q 1681 0 1619 0 
L 231 0 
z
" transform="scale(0.015625)"/>
      <path id="DejaVuSerif-Italic-42" d="M 1194 331 
L 2128 331 
Q 2691 331 2998 575 
Q 3306 819 3409 1350 
Q 3513 1878 3302 2120 
Q 3091 2363 2525 2363 
L 1591 2363 
L 1194 331 
z
M 1653 2694 
L 2447 2694 
Q 2959 2694 3234 2891 
Q 3509 3088 3591 3513 
Q 3675 3941 3476 4136 
Q 3278 4331 2766 4331 
L 1972 4331 
L 1653 2694 
z
M -97 0 
L -34 331 
L 559 331 
L 1338 4331 
L 744 4331 
L 809 4666 
L 3113 4666 
Q 3819 4666 4120 4377 
Q 4422 4088 4309 3513 
Q 4231 3097 3934 2850 
Q 3638 2603 3147 2547 
Q 3728 2472 3976 2167 
Q 4225 1863 4125 1350 
Q 3991 656 3489 328 
Q 2988 0 2059 0 
L -97 0 
z
" transform="scale(0.015625)"/>
      <path id="DejaVuSerif-Italic-38" d="M 2775 1275 
Q 2872 1775 2678 2051 
Q 2484 2328 2034 2328 
Q 1584 2328 1281 2051 
Q 978 1775 881 1275 
Q 784 772 979 495 
Q 1175 219 1625 219 
Q 2075 219 2376 495 
Q 2678 772 2775 1275 
z
M 3088 3541 
Q 3172 3966 3001 4203 
Q 2831 4441 2444 4441 
Q 2059 4441 1796 4203 
Q 1534 3966 1450 3541 
Q 1369 3113 1539 2875 
Q 1709 2638 2094 2638 
Q 2481 2638 2743 2875 
Q 3006 3113 3088 3541 
z
M 2547 2484 
Q 3063 2413 3297 2092 
Q 3531 1772 3434 1275 
Q 3309 619 2823 264 
Q 2338 -91 1563 -91 
Q 791 -91 444 264 
Q 97 619 222 1275 
Q 319 1772 678 2092 
Q 1038 2413 1588 2484 
Q 1131 2569 932 2842 
Q 734 3116 816 3541 
Q 925 4103 1376 4426 
Q 1828 4750 2506 4750 
Q 3184 4750 3507 4426 
Q 3831 4103 3722 3541 
Q 3641 3116 3336 2842 
Q 3031 2569 2547 2484 
z
" transform="scale(0.015625)"/>
      <path id="DejaVuSerif-Italic-34" d="M 2084 1581 
L 2566 4063 
L 491 1581 
L 2084 1581 
z
M 3150 0 
L 1025 0 
L 1091 331 
L 1841 331 
L 2019 1247 
L -19 1247 
L 47 1588 
L 2706 4750 
L 3325 4750 
L 2709 1581 
L 3600 1581 
L 3534 1247 
L 2644 1247 
L 2466 331 
L 3216 331 
L 3150 0 
z
" transform="scale(0.015625)"/>
     </defs>
     <use xlink:href="#DejaVuSerif-Italic-74" transform="translate(0 0.420312)"/>
     <use xlink:href="#DejaVuSerif-Italic-68" transform="translate(40.185547 0.420312)"/>
     <use xlink:href="#DejaVuSerif-Italic-69" transform="translate(104.589844 0.420312)"/>
     <use xlink:href="#DejaVuSerif-Italic-72" transform="translate(136.572266 0.420312)"/>
     <use xlink:href="#DejaVuSerif-Italic-64" transform="translate(184.375 0.420312)"/>
     <use xlink:href="#DejaVuSerif-Italic-20" transform="translate(248.388672 0.420312)"/>
     <use xlink:href="#DejaVuSerif-Italic-62" transform="translate(280.175781 0.420312)"/>
     <use xlink:href="#DejaVuSerif-Italic-61" transform="translate(344.189453 0.420312)"/>
     <use xlink:href="#DejaVuSerif-Italic-73" transform="translate(403.808594 0.420312)"/>
     <use xlink:href="#DejaVuSerif-Italic-69" transform="translate(455.126953 0.420312)"/>
     <use xlink:href="#DejaVuSerif-Italic-73" transform="translate(487.109375 0.420312)"/>
     <use xlink:href="#DejaVuSerif-Italic-20" transform="translate(538.427734 0.420312)"/>
     <use xlink:href="#Cmmi10-59" transform="translate(570.214844 0.420312)"/>
     <use xlink:href="#DejaVuSerif-Italic-20" transform="translate(628.222656 0.420312)"/>
     <use xlink:href="#DejaVuSerif-Italic-75" transform="translate(660.009766 0.420312)"/>
     <use xlink:href="#DejaVuSerif-Italic-73" transform="translate(724.414062 0.420312)"/>
     <use xlink:href="#DejaVuSerif-Italic-65" transform="translate(775.732422 0.420312)"/>
     <use xlink:href="#DejaVuSerif-Italic-73" transform="translate(834.912109 0.420312)"/>
     <use xlink:href="#DejaVuSerif-Italic-20" transform="translate(886.230469 0.420312)"/>
     <use xlink:href="#Cmmi10-53" transform="translate(918.017578 0.420312)"/>
     <use xlink:href="#Cmmi10-48" transform="translate(979.296875 0.420312)"/>
     <use xlink:href="#DejaVuSerif-Italic-20" transform="translate(1062.402344 0.420312)"/>
     <use xlink:href="#DejaVuSerif-Italic-74" transform="translate(1094.189453 0.420312)"/>
     <use xlink:href="#DejaVuSerif-Italic-6f" transform="translate(1134.375 0.420312)"/>
     <use xlink:href="#DejaVuSerif-Italic-20" transform="translate(1194.580078 0.420312)"/>
     <use xlink:href="#DejaVuSerif-Italic-70" transform="translate(1226.367188 0.420312)"/>
     <use xlink:href="#DejaVuSerif-Italic-72" transform="translate(1290.380859 0.420312)"/>
     <use xlink:href="#DejaVuSerif-Italic-65" transform="translate(1338.183594 0.420312)"/>
     <use xlink:href="#DejaVuSerif-Italic-70" transform="translate(1397.363281 0.420312)"/>
     <use xlink:href="#DejaVuSerif-Italic-61" transform="translate(1461.376953 0.420312)"/>
     <use xlink:href="#DejaVuSerif-Italic-72" transform="translate(1520.996094 0.420312)"/>
     <use xlink:href="#DejaVuSerif-Italic-65" transform="translate(1568.798828 0.420312)"/>
     <use xlink:href="#DejaVuSerif-Italic-20" transform="translate(1627.978516 0.420312)"/>
     <use xlink:href="#DejaVuSerif-Italic-61" transform="translate(1659.765625 0.420312)"/>
     <use xlink:href="#DejaVuSerif-Italic-6e" transform="translate(1719.384766 0.420312)"/>
     <use xlink:href="#DejaVuSerif-Italic-64" transform="translate(1783.789062 0.420312)"/>
     <use xlink:href="#DejaVuSerif-Italic-20" transform="translate(1847.802734 0.420312)"/>
     <use xlink:href="#Cmmi10-53" transform="translate(1879.589844 0.420312)"/>
     <use xlink:href="#STIXGeneral-Regular-2020" transform="translate(1952.701328 38.684375) scale(0.7)"/>
     <use xlink:href="#Cmmi10-48" transform="translate(1994.078661 0.420312)"/>
     <use xlink:href="#DejaVuSerif-Italic-20" transform="translate(2077.18413 0.420312)"/>
     <use xlink:href="#DejaVuSerif-Italic-74" transform="translate(2108.971239 0.420312)"/>
     <use xlink:href="#DejaVuSerif-Italic-6f" transform="translate(2149.156786 0.420312)"/>
     <use xlink:href="#DejaVuSerif-Italic-20" transform="translate(2209.361864 0.420312)"/>
     <use xlink:href="#DejaVuSerif-Italic-6d" transform="translate(2241.148974 0.420312)"/>
     <use xlink:href="#DejaVuSerif-Italic-65" transform="translate(2335.973192 0.420312)"/>
     <use xlink:href="#DejaVuSerif-Italic-61" transform="translate(2395.15288 0.420312)"/>
     <use xlink:href="#DejaVuSerif-Italic-73" transform="translate(2454.772021 0.420312)"/>
     <use xlink:href="#DejaVuSerif-Italic-75" transform="translate(2506.09038 0.420312)"/>
     <use xlink:href="#DejaVuSerif-Italic-72" transform="translate(2570.494677 0.420312)"/>
     <use xlink:href="#DejaVuSerif-Italic-65" transform="translate(2618.297411 0.420312)"/>
     <use xlink:href="#DejaVuSerif-Italic-3b" transform="translate(2677.477099 0.420312)"/>
     <use xlink:href="#DejaVuSerif-Italic-20" transform="translate(2711.168505 0.420312)"/>
     <use xlink:href="#Cmmi10-5a" transform="translate(2742.955614 0.420312)"/>
     <use xlink:href="#Cmmi10-3b" transform="translate(2811.168505 0.420312)"/>
     <use xlink:href="#Cmmi10-58" transform="translate(2856.412646 0.420312)"/>
     <use xlink:href="#DejaVuSerif-Italic-20" transform="translate(2939.225146 0.420312)"/>
     <use xlink:href="#DejaVuSerif-Italic-61" transform="translate(2971.012255 0.420312)"/>
     <use xlink:href="#DejaVuSerif-Italic-73" transform="translate(3030.631396 0.420312)"/>
     <use xlink:href="#DejaVuSerif-Italic-20" transform="translate(3081.949755 0.420312)"/>
     <use xlink:href="#DejaVuSerif-Italic-69" transform="translate(3113.736864 0.420312)"/>
     <use xlink:href="#DejaVuSerif-Italic-6e" transform="translate(3145.719286 0.420312)"/>
     <use xlink:href="#DejaVuSerif-Italic-20" transform="translate(3210.123583 0.420312)"/>
     <use xlink:href="#DejaVuSerif-Italic-42" transform="translate(3241.910692 0.420312)"/>
     <use xlink:href="#DejaVuSerif-Italic-42" transform="translate(3315.397021 0.420312)"/>
     <use xlink:href="#DejaVuSerif-Italic-38" transform="translate(3388.883349 0.420312)"/>
     <use xlink:href="#DejaVuSerif-Italic-34" transform="translate(3452.506396 0.420312)"/>
    </g>
   </g>
   <g id="text_10">
    <!-- $X$ -->
    <g transform="translate(47.129364 67.151406) scale(0.095 -0.095)">
     <use xlink:href="#Cmmi10-58" transform="translate(0 0.6875)"/>
    </g>
   </g>
   <g id="text_11">
    <!-- $H$ -->
    <g transform="translate(78.528475 67.151406) scale(0.095 -0.095)">
     <use xlink:href="#Cmmi10-48" transform="translate(0 0.6875)"/>
    </g>
   </g>
   <g id="text_12">
    <!-- $S$ -->
    <g transform="translate(106.054831 67.151406) scale(0.095 -0.095)">
     <use xlink:href="#Cmmi10-53" transform="translate(0 0.484375)"/>
    </g>
   </g>
   <g id="text_13">
    <!-- $S^{\dagger}$ -->
    <g transform="translate(147.144534 66.875469) scale(0.085 -0.085)">
     <use xlink:href="#Cmmi10-53" transform="translate(0 0.420312)"/>
     <use xlink:href="#STIXGeneral-Regular-2020" transform="translate(73.111484 38.684375) scale(0.7)"/>
    </g>
   </g>
   <g id="text_14">
    <!-- $H$ -->
    <g transform="translate(174.52339 67.151406) scale(0.095 -0.095)">
     <use xlink:href="#Cmmi10-48" transform="translate(0 0.6875)"/>
    </g>
   </g>
   <g id="line2d_5">
    <path d="M 209.746022 64.484655 
L 209.584329 64.182136 
L 209.41044 63.890485 
L 209.224818 63.610478 
L 209.027955 63.342858 
L 208.820375 63.088337 
L 208.602629 62.847591 
L 208.375296 62.621259 
L 208.13898 62.409943 
L 207.894308 62.214205 
L 207.641933 62.034564 
L 207.382522 61.871499 
L 207.116767 61.725442 
L 206.845373 61.596781 
L 206.569062 61.485859 
L 206.288567 61.39297 
L 206.004634 61.31836 
L 205.718017 61.262229 
L 205.429479 61.224725 
L 205.139785 61.205948 
L 204.849706 61.205948 
L 204.560013 61.224725 
L 204.271474 61.262229 
L 203.984858 61.31836 
L 203.700925 61.39297 
L 203.42043 61.485859 
L 203.144118 61.596781 
L 202.872724 61.725442 
L 202.606969 61.871499 
L 202.347559 62.034564 
L 202.095183 62.214205 
L 201.850512 62.409943 
L 201.614196 62.621259 
L 201.386863 62.847591 
L 201.169117 63.088337 
L 200.961537 63.342858 
L 200.764674 63.610478 
L 200.579051 63.890485 
L 200.405162 64.182136 
L 200.243469 64.484655 
" clip-path="url(#pf16f74e140)" style="fill: none; stroke: #1a1a1a; stroke-width: 0.9; stroke-linecap: square"/>
   </g>
   <g id="patch_13">
    <path d="M 205.912962 66.497741 
Q 207.14515 64.116531 208.377338 61.73532 
" style="fill: none; stroke: #1a1a1a; stroke-width: 0.9; stroke-linecap: round"/>
   </g>
   <g id="text_15">
    <!-- $\mathcal{N}_p$ -->
    <g transform="translate(241.899449 66.7625) scale(0.095 -0.095)">
     <defs>
      <path id="Cmsy10-4e" d="M -184 13 
Q -184 131 -103 322 
Q -22 513 72 513 
Q 84 513 91 506 
Q 294 294 594 294 
Q 763 294 892 598 
Q 1022 903 1147 1306 
Q 1213 1509 1308 1837 
Q 1403 2166 1453 2369 
Q 1497 2538 1558 2827 
Q 1619 3116 1658 3331 
Q 1697 3547 1728 3772 
Q 1759 3997 1784 4244 
Q 1784 4278 1831 4325 
Q 1900 4397 1997 4453 
Q 2088 4494 2181 4513 
L 2234 4513 
Q 2272 4494 2278 4469 
Q 2438 3909 2675 3200 
Q 2891 2544 3044 2125 
Q 3197 1706 3405 1242 
Q 3613 778 3859 384 
Q 4194 1819 4525 2988 
L 4609 3284 
Q 4747 3769 4836 4039 
Q 4925 4309 5063 4525 
Q 5175 4700 5356 4800 
Q 5538 4900 5753 4942 
Q 5969 4984 6203 4984 
Q 6259 4984 6259 4878 
Q 6259 4803 6226 4686 
Q 6194 4569 6137 4478 
Q 6081 4388 6009 4372 
Q 5756 4372 5557 4331 
Q 5359 4291 5197 4184 
Q 5116 4125 5102 4094 
Q 5088 4063 5038 3909 
Q 4956 3684 4872 3366 
L 4788 3078 
Q 4625 2491 4498 2006 
Q 4372 1522 4256 1045 
Q 4141 569 4031 84 
Q 4034 84 4029 92 
Q 4025 100 4025 103 
Q 4025 47 3951 -15 
Q 3878 -78 3783 -120 
Q 3688 -163 3628 -172 
L 3584 -172 
Q 3478 -119 3222 368 
Q 2966 856 2834 1172 
Q 2359 2347 1966 3628 
Q 1916 3319 1759 2648 
Q 1603 1978 1387 1297 
Q 1172 616 914 148 
Q 656 -319 397 -319 
Q 231 -319 23 -225 
Q -184 -131 -184 13 
z
" transform="scale(0.015625)"/>
      <path id="Cmmi10-70" d="M -159 -1241 
Q -219 -1241 -219 -1159 
Q -197 -1019 -134 -1019 
Q 66 -1019 145 -983 
Q 225 -947 269 -800 
L 991 2081 
Q 1038 2200 1038 2388 
Q 1038 2663 850 2663 
Q 650 2663 553 2423 
Q 456 2184 366 1819 
Q 366 1778 313 1778 
L 238 1778 
Q 222 1778 203 1801 
Q 184 1825 184 1844 
Q 253 2122 317 2315 
Q 381 2509 517 2668 
Q 653 2828 856 2828 
Q 1075 2828 1240 2704 
Q 1406 2581 1453 2369 
Q 1628 2572 1840 2700 
Q 2053 2828 2278 2828 
Q 2547 2828 2745 2684 
Q 2944 2541 3044 2308 
Q 3144 2075 3144 1806 
Q 3144 1394 2933 953 
Q 2722 513 2361 220 
Q 2000 -72 1588 -72 
Q 1400 -72 1248 34 
Q 1097 141 1013 313 
L 722 -825 
Q 706 -919 703 -934 
Q 703 -1019 1125 -1019 
Q 1191 -1019 1191 -1100 
Q 1169 -1184 1155 -1212 
Q 1141 -1241 1081 -1241 
L -159 -1241 
z
M 1594 97 
Q 1816 97 2006 280 
Q 2197 463 2316 691 
Q 2403 863 2479 1111 
Q 2556 1359 2612 1640 
Q 2669 1922 2669 2088 
Q 2669 2234 2630 2362 
Q 2591 2491 2502 2577 
Q 2413 2663 2266 2663 
Q 2031 2663 1823 2495 
Q 1616 2328 1447 2081 
L 1447 2059 
L 1094 647 
Q 1138 419 1263 258 
Q 1388 97 1594 97 
z
" transform="scale(0.015625)"/>
     </defs>
     <use xlink:href="#Cmsy10-4e" transform="translate(0 0.125)"/>
     <use xlink:href="#Cmmi10-70" transform="translate(86.446562 -16.88125) scale(0.7)"/>
    </g>
   </g>
   <g id="text_16">
    <!-- $S^{\dagger}$ -->
    <g transform="translate(287.826737 66.875469) scale(0.085 -0.085)">
     <use xlink:href="#Cmmi10-53" transform="translate(0 0.420312)"/>
     <use xlink:href="#STIXGeneral-Regular-2020" transform="translate(73.111484 38.684375) scale(0.7)"/>
    </g>
   </g>
   <g id="text_17">
    <!-- $H$ -->
    <g transform="translate(315.205593 67.151406) scale(0.095 -0.095)">
     <use xlink:href="#Cmmi10-48" transform="translate(0 0.6875)"/>
    </g>
   </g>
   <g id="line2d_6">
    <path d="M 350.428226 64.484655 
L 350.266533 64.182136 
L 350.092644 63.890485 
L 349.907021 63.610478 
L 349.710158 63.342858 
L 349.502578 63.088337 
L 349.284832 62.847591 
L 349.057499 62.621259 
L 348.821183 62.409943 
L 348.576512 62.214205 
L 348.324136 62.034564 
L 348.064726 61.871499 
L 347.79897 61.725442 
L 347.527577 61.596781 
L 347.251265 61.485859 
L 346.97077 61.39297 
L 346.686837 61.31836 
L 346.400221 61.262229 
L 346.111682 61.224725 
L 345.821989 61.205948 
L 345.53191 61.205948 
L 345.242216 61.224725 
L 344.953678 61.262229 
L 344.667061 61.31836 
L 344.383128 61.39297 
L 344.102633 61.485859 
L 343.826322 61.596781 
L 343.554928 61.725442 
L 343.289173 61.871499 
L 343.029762 62.034564 
L 342.777386 62.214205 
L 342.532715 62.409943 
L 342.296399 62.621259 
L 342.069066 62.847591 
L 341.85132 63.088337 
L 341.64374 63.342858 
L 341.446877 63.610478 
L 341.261255 63.890485 
L 341.087366 64.182136 
L 340.925673 64.484655 
" clip-path="url(#pf16f74e140)" style="fill: none; stroke: #1a1a1a; stroke-width: 0.9; stroke-linecap: square"/>
   </g>
   <g id="patch_14">
    <path d="M 346.595166 66.497741 
Q 347.827353 64.116531 349.059541 61.73532 
" style="fill: none; stroke: #1a1a1a; stroke-width: 0.9; stroke-linecap: round"/>
   </g>
  </g>
 </g>
 <defs>
  <clipPath id="pf16f74e140">
   <rect x="4.729492" y="2.16" width="390.6" height="108.108"/>
  </clipPath>
 </defs>
</svg>
