<?xml version="1.0" encoding="utf-8" standalone="no"?>
<!DOCTYPE svg PUBLIC "-//W3C//DTD SVG 1.1//EN"
  "http://www.w3.org/Graphics/SVG/1.1/DTD/svg11.dtd">
<svg xmlns:xlink="http://www.w3.org/1999/xlink" width="246.604844pt" height="204.069844pt" viewBox="0 0 246.604844 204.069844" xmlns="http://www.w3.org/2000/svg" version="1.1">
 <metadata>
  <rdf:RDF xmlns:dc="http://purl.org/dc/elements/1.1/" xmlns:cc="http://creativecommons.org/ns#" xmlns:rdf="http://www.w3.org/1999/02/22-rdf-syntax-ns#">
   <cc:Work>
    <dc:type rdf:resource="http://purl.org/dc/dcmitype/StillImage"/>
    <dc:date>2026-07-19T15:19:13.649554</dc:date>
    <dc:format>image/svg+xml</dc:format>
    <dc:creator>
     <cc:Agent>
      <dc:title>Matplotlib v3.10.9, https://matplotlib.org/</dc:title>
     </cc:Agent>
    </dc:creator>
   </cc:Work>
  </rdf:RDF>
 </metadata>
 <defs>
  <style type="text/css">*{stroke-linejoin: round; stroke-linecap: butt}</style>
 </defs>
 <g id="figure_1">
  <g id="patch_1">
   <path d="M 0 204.069844 
L 246.604844 204.069844 
L 246.604844 0 
L 0 0 
z
" style="fill: #ffffff"/>
  </g>
  <g id="axes_1">
   <g id="patch_2">
    <path d="M 32.829844 175.795 
L 244.444844 175.795 
L 244.444844 2.16 
L 32.829844 2.16 
z
" style="fill: #ffffff"/>
   </g>
   <g id="FillBetweenPolyCollection_1">
    <defs>
     <path id="m8cb8e597a7" d="M 42.448707 -35.957808 
L 42.448707 -35.957808 
L 77.426393 -35.957808 
L 129.892922 -35.957808 
L 182.359451 -35.957808 
L 234.82598 -39.512106 
L 234.82598 -49.306033 
L 234.82598 -49.306033 
L 182.359451 -35.957808 
L 129.892922 -35.957808 
L 77.426393 -35.957808 
L 42.448707 -35.957808 
z
"/>
    </defs>
    <g clip-path="url(#p0f16e75348)">
     <use xlink:href="#m8cb8e597a7" x="0" y="204.069844" style="fill: #2c6fbb; fill-opacity: 0.15"/>
    </g>
   </g>
   <g id="FillBetweenPolyCollection_2">
    <defs>
     <path id="m898f861056" d="M 42.448707 -35.957808 
L 42.448707 -35.957808 
L 77.426393 -35.957808 
L 129.892922 -35.957808 
L 182.359451 -35.957808 
L 234.82598 -35.957808 
L 234.82598 -38.241152 
L 234.82598 -38.241152 
L 182.359451 -35.957808 
L 129.892922 -35.957808 
L 77.426393 -35.957808 
L 42.448707 -35.957808 
z
"/>
    </defs>
    <g clip-path="url(#p0f16e75348)">
     <use xlink:href="#m898f861056" x="0" y="204.069844" style="fill: #3a8a5f; fill-opacity: 0.15"/>
    </g>
   </g>
   <g id="FillBetweenPolyCollection_3">
    <defs>
     <path id="mbaacf52a99" d="M 42.448707 -38.853672 
L 42.448707 -35.957808 
L 77.426393 -35.957808 
L 129.892922 -35.957808 
L 182.359451 -99.983429 
L 234.82598 -186.721236 
L 234.82598 -189.6171 
L 234.82598 -189.6171 
L 182.359451 -121.068577 
L 129.892922 -38.853672 
L 77.426393 -38.853672 
L 42.448707 -38.853672 
z
"/>
    </defs>
    <g clip-path="url(#p0f16e75348)">
     <use xlink:href="#mbaacf52a99" x="0" y="204.069844" style="fill: #9a6db0; fill-opacity: 0.12"/>
    </g>
   </g>
   <g id="matplotlib.axis_1">
    <g id="xtick_1">
     <g id="line2d_1">
      <defs>
       <path id="m286319be66" d="M 0 0 
L 0 3.5 
" style="stroke: #000000; stroke-width: 0.8"/>
      </defs>
      <g>
       <use xlink:href="#m286319be66" x="42.448707" y="175.795" style="stroke: #000000; stroke-width: 0.8"/>
      </g>
     </g>
     <g id="text_1">
      <!-- 0 -->
      <g transform="translate(40.06277 188.493828) scale(0.075 -0.075)">
       <defs>
        <path id="DejaVuSerif-30" d="M 2034 219 
Q 2513 219 2750 744 
Q 2988 1269 2988 2328 
Q 2988 3391 2750 3916 
Q 2513 4441 2034 4441 
Q 1556 4441 1318 3916 
Q 1081 3391 1081 2328 
Q 1081 1269 1318 744 
Q 1556 219 2034 219 
z
M 2034 -91 
Q 1275 -91 848 546 
Q 422 1184 422 2328 
Q 422 3475 848 4112 
Q 1275 4750 2034 4750 
Q 2797 4750 3222 4112 
Q 3647 3475 3647 2328 
Q 3647 1184 3222 546 
Q 2797 -91 2034 -91 
z
" transform="scale(0.015625)"/>
       </defs>
       <use xlink:href="#DejaVuSerif-30"/>
      </g>
     </g>
    </g>
    <g id="xtick_2">
     <g id="line2d_2">
      <g>
       <use xlink:href="#m286319be66" x="77.426393" y="175.795" style="stroke: #000000; stroke-width: 0.8"/>
      </g>
     </g>
     <g id="text_2">
      <!-- 2 -->
      <g transform="translate(75.040456 188.493828) scale(0.075 -0.075)">
       <defs>
        <path id="DejaVuSerif-32" d="M 819 3553 
L 469 3553 
L 469 4384 
Q 803 4563 1142 4656 
Q 1481 4750 1806 4750 
Q 2534 4750 2956 4397 
Q 3378 4044 3378 3438 
Q 3378 2753 2422 1800 
Q 2347 1728 2309 1691 
L 1131 513 
L 3078 513 
L 3078 1088 
L 3444 1088 
L 3444 0 
L 434 0 
L 434 341 
L 1850 1753 
Q 2319 2222 2519 2614 
Q 2719 3006 2719 3438 
Q 2719 3909 2473 4175 
Q 2228 4441 1797 4441 
Q 1350 4441 1106 4219 
Q 863 3997 819 3553 
z
" transform="scale(0.015625)"/>
       </defs>
       <use xlink:href="#DejaVuSerif-32"/>
      </g>
     </g>
    </g>
    <g id="xtick_3">
     <g id="line2d_3">
      <g>
       <use xlink:href="#m286319be66" x="129.892922" y="175.795" style="stroke: #000000; stroke-width: 0.8"/>
      </g>
     </g>
     <g id="text_3">
      <!-- 5 -->
      <g transform="translate(127.506985 188.493828) scale(0.075 -0.075)">
       <defs>
        <path id="DejaVuSerif-35" d="M 3219 4666 
L 3219 4153 
L 1081 4153 
L 1081 2816 
Q 1244 2928 1461 2984 
Q 1678 3041 1947 3041 
Q 2703 3041 3140 2622 
Q 3578 2203 3578 1478 
Q 3578 738 3136 323 
Q 2694 -91 1894 -91 
Q 1572 -91 1234 -12 
Q 897 66 544 225 
L 544 1131 
L 897 1131 
Q 925 688 1179 453 
Q 1434 219 1894 219 
Q 2388 219 2653 544 
Q 2919 869 2919 1478 
Q 2919 2084 2655 2407 
Q 2391 2731 1894 2731 
Q 1613 2731 1398 2631 
Q 1184 2531 1019 2322 
L 750 2322 
L 750 4666 
L 3219 4666 
z
" transform="scale(0.015625)"/>
       </defs>
       <use xlink:href="#DejaVuSerif-35"/>
      </g>
     </g>
    </g>
    <g id="xtick_4">
     <g id="line2d_4">
      <g>
       <use xlink:href="#m286319be66" x="182.359451" y="175.795" style="stroke: #000000; stroke-width: 0.8"/>
      </g>
     </g>
     <g id="text_4">
      <!-- 8 -->
      <g transform="translate(179.973514 188.493828) scale(0.075 -0.075)">
       <defs>
        <path id="DejaVuSerif-38" d="M 2981 1275 
Q 2981 1775 2732 2051 
Q 2484 2328 2034 2328 
Q 1584 2328 1336 2051 
Q 1088 1775 1088 1275 
Q 1088 772 1336 495 
Q 1584 219 2034 219 
Q 2484 219 2732 495 
Q 2981 772 2981 1275 
z
M 2853 3541 
Q 2853 3966 2637 4203 
Q 2422 4441 2034 4441 
Q 1650 4441 1433 4203 
Q 1216 3966 1216 3541 
Q 1216 3113 1433 2875 
Q 1650 2638 2034 2638 
Q 2422 2638 2637 2875 
Q 2853 3113 2853 3541 
z
M 2516 2484 
Q 3047 2413 3344 2092 
Q 3641 1772 3641 1275 
Q 3641 619 3225 264 
Q 2809 -91 2034 -91 
Q 1263 -91 845 264 
Q 428 619 428 1275 
Q 428 1772 725 2092 
Q 1022 2413 1556 2484 
Q 1084 2569 832 2842 
Q 581 3116 581 3541 
Q 581 4103 968 4426 
Q 1356 4750 2034 4750 
Q 2713 4750 3100 4426 
Q 3488 4103 3488 3541 
Q 3488 3116 3236 2842 
Q 2984 2569 2516 2484 
z
" transform="scale(0.015625)"/>
       </defs>
       <use xlink:href="#DejaVuSerif-38"/>
      </g>
     </g>
    </g>
    <g id="xtick_5">
     <g id="line2d_5">
      <g>
       <use xlink:href="#m286319be66" x="234.82598" y="175.795" style="stroke: #000000; stroke-width: 0.8"/>
      </g>
     </g>
     <g id="text_5">
      <!-- 11 -->
      <g transform="translate(230.054105 188.493828) scale(0.075 -0.075)">
       <defs>
        <path id="DejaVuSerif-31" d="M 909 0 
L 909 331 
L 1722 331 
L 1722 4213 
L 781 3603 
L 781 4013 
L 1919 4750 
L 2350 4750 
L 2350 331 
L 3163 331 
L 3163 0 
L 909 0 
z
" transform="scale(0.015625)"/>
       </defs>
       <use xlink:href="#DejaVuSerif-31"/>
       <use xlink:href="#DejaVuSerif-31" transform="translate(63.623047 0)"/>
      </g>
     </g>
    </g>
    <g id="text_6">
     <!-- synthetic channel noise level (%) -->
     <g transform="translate(71.825469 200.132344) scale(0.08 -0.08)">
      <defs>
       <path id="DejaVuSerif-73" d="M 359 184 
L 359 959 
L 691 959 
Q 703 588 923 403 
Q 1144 219 1575 219 
Q 1963 219 2166 364 
Q 2369 509 2369 788 
Q 2369 1006 2220 1140 
Q 2072 1275 1594 1428 
L 1178 1569 
Q 750 1706 558 1912 
Q 366 2119 366 2438 
Q 366 2894 700 3153 
Q 1034 3413 1625 3413 
Q 1888 3413 2178 3344 
Q 2469 3275 2778 3144 
L 2778 2419 
L 2447 2419 
Q 2434 2741 2221 2922 
Q 2009 3103 1644 3103 
Q 1281 3103 1095 2975 
Q 909 2847 909 2591 
Q 909 2381 1050 2254 
Q 1191 2128 1613 1997 
L 2069 1856 
Q 2541 1709 2748 1489 
Q 2956 1269 2956 922 
Q 2956 450 2595 179 
Q 2234 -91 1600 -91 
Q 1278 -91 972 -22 
Q 666 47 359 184 
z
" transform="scale(0.015625)"/>
       <path id="DejaVuSerif-79" d="M 1381 -609 
L 1600 -56 
L 359 2988 
L -19 2988 
L -19 3322 
L 1509 3322 
L 1509 2988 
L 978 2988 
L 1913 703 
L 2847 2988 
L 2350 2988 
L 2350 3322 
L 3597 3322 
L 3597 2988 
L 3225 2988 
L 1703 -750 
Q 1547 -1138 1356 -1280 
Q 1166 -1422 819 -1422 
Q 672 -1422 517 -1397 
Q 363 -1372 206 -1325 
L 206 -691 
L 500 -691 
Q 519 -903 608 -995 
Q 697 -1088 884 -1088 
Q 1056 -1088 1161 -992 
Q 1266 -897 1381 -609 
z
" transform="scale(0.015625)"/>
       <path id="DejaVuSerif-6e" d="M 263 0 
L 263 331 
L 781 331 
L 781 2988 
L 231 2988 
L 231 3322 
L 1356 3322 
L 1356 2731 
Q 1516 3069 1770 3241 
Q 2025 3413 2363 3413 
Q 2913 3413 3172 3097 
Q 3431 2781 3431 2113 
L 3431 331 
L 3944 331 
L 3944 0 
L 2356 0 
L 2356 331 
L 2853 331 
L 2853 1931 
Q 2853 2541 2703 2767 
Q 2553 2994 2175 2994 
Q 1775 2994 1565 2701 
Q 1356 2409 1356 1850 
L 1356 331 
L 1856 331 
L 1856 0 
L 263 0 
z
" transform="scale(0.015625)"/>
       <path id="DejaVuSerif-74" d="M 691 2988 
L 184 2988 
L 184 3322 
L 691 3322 
L 691 4353 
L 1269 4353 
L 1269 3322 
L 2350 3322 
L 2350 2988 
L 1269 2988 
L 1269 878 
Q 1269 456 1350 337 
Q 1431 219 1650 219 
Q 1875 219 1978 351 
Q 2081 484 2088 781 
L 2522 781 
Q 2497 328 2275 118 
Q 2053 -91 1600 -91 
Q 1103 -91 897 129 
Q 691 350 691 878 
L 691 2988 
z
" transform="scale(0.015625)"/>
       <path id="DejaVuSerif-68" d="M 263 0 
L 263 331 
L 781 331 
L 781 4531 
L 231 4531 
L 231 4863 
L 1356 4863 
L 1356 2731 
Q 1516 3069 1770 3241 
Q 2025 3413 2363 3413 
Q 2913 3413 3172 3097 
Q 3431 2781 3431 2113 
L 3431 331 
L 3944 331 
L 3944 0 
L 2356 0 
L 2356 331 
L 2853 331 
L 2853 1931 
Q 2853 2541 2704 2764 
Q 2556 2988 2175 2988 
Q 1775 2988 1565 2697 
Q 1356 2406 1356 1850 
L 1356 331 
L 1856 331 
L 1856 0 
L 263 0 
z
" transform="scale(0.015625)"/>
       <path id="DejaVuSerif-65" d="M 3469 1600 
L 991 1600 
L 991 1575 
Q 991 903 1244 561 
Q 1497 219 1991 219 
Q 2369 219 2611 417 
Q 2853 616 2950 1006 
L 3413 1006 
Q 3275 459 2904 184 
Q 2534 -91 1931 -91 
Q 1203 -91 761 389 
Q 319 869 319 1663 
Q 319 2450 753 2931 
Q 1188 3413 1894 3413 
Q 2647 3413 3050 2948 
Q 3453 2484 3469 1600 
z
M 2791 1931 
Q 2772 2513 2545 2808 
Q 2319 3103 1894 3103 
Q 1497 3103 1269 2806 
Q 1041 2509 991 1931 
L 2791 1931 
z
" transform="scale(0.015625)"/>
       <path id="DejaVuSerif-69" d="M 622 4353 
Q 622 4497 726 4603 
Q 831 4709 978 4709 
Q 1122 4709 1226 4603 
Q 1331 4497 1331 4353 
Q 1331 4206 1228 4103 
Q 1125 4000 978 4000 
Q 831 4000 726 4103 
Q 622 4206 622 4353 
z
M 1356 331 
L 1900 331 
L 1900 0 
L 231 0 
L 231 331 
L 781 331 
L 781 2988 
L 231 2988 
L 231 3322 
L 1356 3322 
L 1356 331 
z
" transform="scale(0.015625)"/>
       <path id="DejaVuSerif-63" d="M 3291 997 
Q 3169 466 2822 187 
Q 2475 -91 1925 -91 
Q 1200 -91 759 389 
Q 319 869 319 1663 
Q 319 2459 759 2936 
Q 1200 3413 1925 3413 
Q 2241 3413 2553 3339 
Q 2866 3266 3181 3116 
L 3181 2266 
L 2847 2266 
Q 2781 2703 2561 2903 
Q 2341 3103 1931 3103 
Q 1466 3103 1228 2742 
Q 991 2381 991 1663 
Q 991 944 1227 581 
Q 1463 219 1931 219 
Q 2303 219 2525 412 
Q 2747 606 2828 997 
L 3291 997 
z
" transform="scale(0.015625)"/>
       <path id="DejaVuSerif-20" transform="scale(0.015625)"/>
       <path id="DejaVuSerif-61" d="M 2547 1044 
L 2547 1747 
L 1806 1747 
Q 1378 1747 1168 1562 
Q 959 1378 959 997 
Q 959 650 1171 447 
Q 1384 244 1747 244 
Q 2106 244 2326 466 
Q 2547 688 2547 1044 
z
M 3122 2075 
L 3122 331 
L 3634 331 
L 3634 0 
L 2547 0 
L 2547 359 
Q 2356 128 2106 18 
Q 1856 -91 1522 -91 
Q 969 -91 644 203 
Q 319 497 319 997 
Q 319 1513 691 1797 
Q 1063 2081 1741 2081 
L 2547 2081 
L 2547 2309 
Q 2547 2688 2317 2895 
Q 2088 3103 1672 3103 
Q 1328 3103 1125 2947 
Q 922 2791 872 2484 
L 575 2484 
L 575 3156 
Q 875 3284 1158 3348 
Q 1441 3413 1709 3413 
Q 2400 3413 2761 3070 
Q 3122 2728 3122 2075 
z
" transform="scale(0.015625)"/>
       <path id="DejaVuSerif-6c" d="M 1313 331 
L 1856 331 
L 1856 0 
L 184 0 
L 184 331 
L 738 331 
L 738 4531 
L 184 4531 
L 184 4863 
L 1313 4863 
L 1313 331 
z
" transform="scale(0.015625)"/>
       <path id="DejaVuSerif-6f" d="M 1925 219 
Q 2388 219 2623 584 
Q 2859 950 2859 1663 
Q 2859 2375 2623 2739 
Q 2388 3103 1925 3103 
Q 1463 3103 1227 2739 
Q 991 2375 991 1663 
Q 991 950 1228 584 
Q 1466 219 1925 219 
z
M 1925 -91 
Q 1200 -91 759 389 
Q 319 869 319 1663 
Q 319 2456 758 2934 
Q 1197 3413 1925 3413 
Q 2653 3413 3092 2934 
Q 3531 2456 3531 1663 
Q 3531 869 3092 389 
Q 2653 -91 1925 -91 
z
" transform="scale(0.015625)"/>
       <path id="DejaVuSerif-76" d="M 1581 0 
L 359 2988 
L -19 2988 
L -19 3322 
L 1509 3322 
L 1509 2988 
L 978 2988 
L 1913 703 
L 2847 2988 
L 2350 2988 
L 2350 3322 
L 3597 3322 
L 3597 2988 
L 3225 2988 
L 2003 0 
L 1581 0 
z
" transform="scale(0.015625)"/>
       <path id="DejaVuSerif-28" d="M 2041 -997 
Q 1281 -656 893 83 
Q 506 822 506 1931 
Q 506 3044 893 3783 
Q 1281 4522 2041 4863 
L 2041 4556 
Q 1559 4225 1350 3623 
Q 1141 3022 1141 1931 
Q 1141 844 1350 242 
Q 1559 -359 2041 -691 
L 2041 -997 
z
" transform="scale(0.015625)"/>
       <path id="DejaVuSerif-25" d="M 1434 4459 
Q 1159 4459 1004 4200 
Q 850 3941 850 3475 
Q 850 3016 1008 2753 
Q 1166 2491 1434 2491 
Q 1700 2491 1854 2752 
Q 2009 3013 2009 3475 
Q 2009 3938 1854 4198 
Q 1700 4459 1434 4459 
z
M 4653 2169 
Q 4381 2169 4226 1906 
Q 4072 1644 4072 1178 
Q 4072 719 4228 458 
Q 4384 197 4653 197 
Q 4922 197 5075 458 
Q 5228 719 5228 1178 
Q 5228 1641 5073 1905 
Q 4919 2169 4653 2169 
z
M 4653 2450 
Q 5147 2450 5437 2106 
Q 5728 1763 5728 1178 
Q 5728 594 5436 251 
Q 5144 -91 4653 -91 
Q 4153 -91 3862 251 
Q 3572 594 3572 1178 
Q 3572 1766 3864 2108 
Q 4156 2450 4653 2450 
z
M 4263 4750 
L 4738 4750 
L 1819 -91 
L 1344 -91 
L 4263 4750 
z
M 1428 4750 
Q 1922 4750 2215 4408 
Q 2509 4066 2509 3481 
Q 2509 2891 2217 2550 
Q 1925 2209 1428 2209 
Q 931 2209 642 2551 
Q 353 2894 353 3481 
Q 353 4063 643 4406 
Q 934 4750 1428 4750 
z
" transform="scale(0.015625)"/>
       <path id="DejaVuSerif-29" d="M 453 -997 
L 453 -691 
Q 934 -359 1145 242 
Q 1356 844 1356 1931 
Q 1356 3022 1145 3623 
Q 934 4225 453 4556 
L 453 4863 
Q 1216 4522 1603 3783 
Q 1991 3044 1991 1931 
Q 1991 822 1603 83 
Q 1216 -656 453 -997 
z
" transform="scale(0.015625)"/>
      </defs>
      <use xlink:href="#DejaVuSerif-73"/>
      <use xlink:href="#DejaVuSerif-79" transform="translate(51.318359 0)"/>
      <use xlink:href="#DejaVuSerif-6e" transform="translate(107.8125 0)"/>
      <use xlink:href="#DejaVuSerif-74" transform="translate(172.216797 0)"/>
      <use xlink:href="#DejaVuSerif-68" transform="translate(212.402344 0)"/>
      <use xlink:href="#DejaVuSerif-65" transform="translate(276.806641 0)"/>
      <use xlink:href="#DejaVuSerif-74" transform="translate(335.986328 0)"/>
      <use xlink:href="#DejaVuSerif-69" transform="translate(376.171875 0)"/>
      <use xlink:href="#DejaVuSerif-63" transform="translate(408.154297 0)"/>
      <use xlink:href="#DejaVuSerif-20" transform="translate(464.160156 0)"/>
      <use xlink:href="#DejaVuSerif-63" transform="translate(495.947266 0)"/>
      <use xlink:href="#DejaVuSerif-68" transform="translate(551.953125 0)"/>
      <use xlink:href="#DejaVuSerif-61" transform="translate(616.357422 0)"/>
      <use xlink:href="#DejaVuSerif-6e" transform="translate(675.976562 0)"/>
      <use xlink:href="#DejaVuSerif-6e" transform="translate(740.380859 0)"/>
      <use xlink:href="#DejaVuSerif-65" transform="translate(804.785156 0)"/>
      <use xlink:href="#DejaVuSerif-6c" transform="translate(863.964844 0)"/>
      <use xlink:href="#DejaVuSerif-20" transform="translate(895.947266 0)"/>
      <use xlink:href="#DejaVuSerif-6e" transform="translate(927.734375 0)"/>
      <use xlink:href="#DejaVuSerif-6f" transform="translate(992.138672 0)"/>
      <use xlink:href="#DejaVuSerif-69" transform="translate(1052.34375 0)"/>
      <use xlink:href="#DejaVuSerif-73" transform="translate(1084.326172 0)"/>
      <use xlink:href="#DejaVuSerif-65" transform="translate(1135.644531 0)"/>
      <use xlink:href="#DejaVuSerif-20" transform="translate(1194.824219 0)"/>
      <use xlink:href="#DejaVuSerif-6c" transform="translate(1226.611328 0)"/>
      <use xlink:href="#DejaVuSerif-65" transform="translate(1258.59375 0)"/>
      <use xlink:href="#DejaVuSerif-76" transform="translate(1317.773438 0)"/>
      <use xlink:href="#DejaVuSerif-65" transform="translate(1374.267578 0)"/>
      <use xlink:href="#DejaVuSerif-6c" transform="translate(1433.447266 0)"/>
      <use xlink:href="#DejaVuSerif-20" transform="translate(1465.429688 0)"/>
      <use xlink:href="#DejaVuSerif-28" transform="translate(1497.216797 0)"/>
      <use xlink:href="#DejaVuSerif-25" transform="translate(1536.230469 0)"/>
      <use xlink:href="#DejaVuSerif-29" transform="translate(1631.25 0)"/>
     </g>
    </g>
   </g>
   <g id="matplotlib.axis_2">
    <g id="ytick_1">
     <g id="line2d_6">
      <defs>
       <path id="m8730055e38" d="M 0 0 
L -3.5 0 
" style="stroke: #000000; stroke-width: 0.8"/>
      </defs>
      <g>
       <use xlink:href="#m8730055e38" x="32.829844" y="168.112035" style="stroke: #000000; stroke-width: 0.8"/>
      </g>
     </g>
     <g id="text_7">
      <!-- 0.0 -->
      <g transform="translate(13.9025 170.961449) scale(0.075 -0.075)">
       <defs>
        <path id="DejaVuSerif-2e" d="M 603 325 
Q 603 500 722 622 
Q 841 744 1019 744 
Q 1191 744 1312 622 
Q 1434 500 1434 325 
Q 1434 153 1312 31 
Q 1191 -91 1019 -91 
Q 841 -91 722 29 
Q 603 150 603 325 
z
" transform="scale(0.015625)"/>
       </defs>
       <use xlink:href="#DejaVuSerif-30"/>
       <use xlink:href="#DejaVuSerif-2e" transform="translate(63.623047 0)"/>
       <use xlink:href="#DejaVuSerif-30" transform="translate(95.410156 0)"/>
      </g>
     </g>
    </g>
    <g id="ytick_2">
     <g id="line2d_7">
      <g>
       <use xlink:href="#m8730055e38" x="32.829844" y="137.380177" style="stroke: #000000; stroke-width: 0.8"/>
      </g>
     </g>
     <g id="text_8">
      <!-- 0.2 -->
      <g transform="translate(13.9025 140.229591) scale(0.075 -0.075)">
       <use xlink:href="#DejaVuSerif-30"/>
       <use xlink:href="#DejaVuSerif-2e" transform="translate(63.623047 0)"/>
       <use xlink:href="#DejaVuSerif-32" transform="translate(95.410156 0)"/>
      </g>
     </g>
    </g>
    <g id="ytick_3">
     <g id="line2d_8">
      <g>
       <use xlink:href="#m8730055e38" x="32.829844" y="106.648319" style="stroke: #000000; stroke-width: 0.8"/>
      </g>
     </g>
     <g id="text_9">
      <!-- 0.4 -->
      <g transform="translate(13.9025 109.497733) scale(0.075 -0.075)">
       <defs>
        <path id="DejaVuSerif-34" d="M 2234 1581 
L 2234 4063 
L 641 1581 
L 2234 1581 
z
M 3609 0 
L 1484 0 
L 1484 331 
L 2234 331 
L 2234 1247 
L 197 1247 
L 197 1588 
L 2241 4750 
L 2859 4750 
L 2859 1581 
L 3750 1581 
L 3750 1247 
L 2859 1247 
L 2859 331 
L 3609 331 
L 3609 0 
z
" transform="scale(0.015625)"/>
       </defs>
       <use xlink:href="#DejaVuSerif-30"/>
       <use xlink:href="#DejaVuSerif-2e" transform="translate(63.623047 0)"/>
       <use xlink:href="#DejaVuSerif-34" transform="translate(95.410156 0)"/>
      </g>
     </g>
    </g>
    <g id="ytick_4">
     <g id="line2d_9">
      <g>
       <use xlink:href="#m8730055e38" x="32.829844" y="75.91646" style="stroke: #000000; stroke-width: 0.8"/>
      </g>
     </g>
     <g id="text_10">
      <!-- 0.6 -->
      <g transform="translate(13.9025 78.765874) scale(0.075 -0.075)">
       <defs>
        <path id="DejaVuSerif-36" d="M 2094 219 
Q 2534 219 2771 542 
Q 3009 866 3009 1472 
Q 3009 2078 2771 2401 
Q 2534 2725 2094 2725 
Q 1647 2725 1412 2412 
Q 1178 2100 1178 1509 
Q 1178 888 1415 553 
Q 1653 219 2094 219 
z
M 1075 2569 
Q 1288 2803 1556 2918 
Q 1825 3034 2163 3034 
Q 2859 3034 3264 2615 
Q 3669 2197 3669 1472 
Q 3669 763 3233 336 
Q 2797 -91 2069 -91 
Q 1278 -91 853 498 
Q 428 1088 428 2181 
Q 428 3406 931 4078 
Q 1434 4750 2350 4750 
Q 2597 4750 2869 4703 
Q 3141 4656 3425 4563 
L 3425 3794 
L 3072 3794 
Q 3034 4109 2831 4275 
Q 2628 4441 2284 4441 
Q 1678 4441 1381 3981 
Q 1084 3522 1075 2569 
z
" transform="scale(0.015625)"/>
       </defs>
       <use xlink:href="#DejaVuSerif-30"/>
       <use xlink:href="#DejaVuSerif-2e" transform="translate(63.623047 0)"/>
       <use xlink:href="#DejaVuSerif-36" transform="translate(95.410156 0)"/>
      </g>
     </g>
    </g>
    <g id="ytick_5">
     <g id="line2d_10">
      <g>
       <use xlink:href="#m8730055e38" x="32.829844" y="45.184602" style="stroke: #000000; stroke-width: 0.8"/>
      </g>
     </g>
     <g id="text_11">
      <!-- 0.8 -->
      <g transform="translate(13.9025 48.034016) scale(0.075 -0.075)">
       <use xlink:href="#DejaVuSerif-30"/>
       <use xlink:href="#DejaVuSerif-2e" transform="translate(63.623047 0)"/>
       <use xlink:href="#DejaVuSerif-38" transform="translate(95.410156 0)"/>
      </g>
     </g>
    </g>
    <g id="ytick_6">
     <g id="line2d_11">
      <g>
       <use xlink:href="#m8730055e38" x="32.829844" y="14.452743" style="stroke: #000000; stroke-width: 0.8"/>
      </g>
     </g>
     <g id="text_12">
      <!-- 1.0 -->
      <g transform="translate(13.9025 17.302157) scale(0.075 -0.075)">
       <use xlink:href="#DejaVuSerif-31"/>
       <use xlink:href="#DejaVuSerif-2e" transform="translate(63.623047 0)"/>
       <use xlink:href="#DejaVuSerif-30" transform="translate(95.410156 0)"/>
      </g>
     </g>
    </g>
    <g id="text_13">
     <!-- FPR (false alarm rate) -->
     <g transform="translate(8.23875 133.9825) rotate(-90) scale(0.08 -0.08)">
      <defs>
       <path id="DejaVuSerif-46" d="M 353 0 
L 353 331 
L 947 331 
L 947 4331 
L 353 4331 
L 353 4666 
L 4172 4666 
L 4172 3628 
L 3788 3628 
L 3788 4281 
L 1581 4281 
L 1581 2719 
L 3175 2719 
L 3175 3303 
L 3559 3303 
L 3559 1753 
L 3175 1753 
L 3175 2338 
L 1581 2338 
L 1581 331 
L 2328 331 
L 2328 0 
L 353 0 
z
" transform="scale(0.015625)"/>
       <path id="DejaVuSerif-50" d="M 1581 2375 
L 2406 2375 
Q 2872 2375 3115 2626 
Q 3359 2878 3359 3353 
Q 3359 3831 3115 4081 
Q 2872 4331 2406 4331 
L 1581 4331 
L 1581 2375 
z
M 353 0 
L 353 331 
L 947 331 
L 947 4331 
L 353 4331 
L 353 4666 
L 2559 4666 
Q 3259 4666 3668 4311 
Q 4078 3956 4078 3353 
Q 4078 2753 3668 2397 
Q 3259 2041 2559 2041 
L 1581 2041 
L 1581 331 
L 2303 331 
L 2303 0 
L 353 0 
z
" transform="scale(0.015625)"/>
       <path id="DejaVuSerif-52" d="M 3066 2316 
Q 3284 2256 3442 2114 
Q 3600 1972 3725 1716 
L 4403 331 
L 4972 331 
L 4972 0 
L 3872 0 
L 3144 1484 
Q 2934 1916 2759 2042 
Q 2584 2169 2278 2169 
L 1581 2169 
L 1581 331 
L 2241 331 
L 2241 0 
L 353 0 
L 353 331 
L 947 331 
L 947 4331 
L 353 4331 
L 353 4666 
L 2719 4666 
Q 3400 4666 3770 4341 
Q 4141 4016 4141 3419 
Q 4141 2938 3870 2661 
Q 3600 2384 3066 2316 
z
M 1581 2503 
L 2503 2503 
Q 2975 2503 3200 2726 
Q 3425 2950 3425 3419 
Q 3425 3888 3200 4109 
Q 2975 4331 2503 4331 
L 1581 4331 
L 1581 2503 
z
" transform="scale(0.015625)"/>
       <path id="DejaVuSerif-66" d="M 2753 4078 
L 2450 4078 
Q 2447 4313 2317 4434 
Q 2188 4556 1941 4556 
Q 1619 4556 1487 4379 
Q 1356 4203 1356 3750 
L 1356 3322 
L 2284 3322 
L 2284 2988 
L 1356 2988 
L 1356 331 
L 2094 331 
L 2094 0 
L 231 0 
L 231 331 
L 781 331 
L 781 2988 
L 231 2988 
L 231 3322 
L 781 3322 
L 781 3738 
Q 781 4294 1070 4578 
Q 1359 4863 1919 4863 
Q 2128 4863 2337 4825 
Q 2547 4788 2753 4709 
L 2753 4078 
z
" transform="scale(0.015625)"/>
       <path id="DejaVuSerif-72" d="M 3059 3328 
L 3059 2497 
L 2728 2497 
Q 2713 2744 2591 2866 
Q 2469 2988 2234 2988 
Q 1809 2988 1582 2694 
Q 1356 2400 1356 1850 
L 1356 331 
L 2022 331 
L 2022 0 
L 263 0 
L 263 331 
L 781 331 
L 781 2994 
L 231 2994 
L 231 3322 
L 1356 3322 
L 1356 2731 
Q 1525 3078 1790 3245 
Q 2056 3413 2438 3413 
Q 2578 3413 2733 3391 
Q 2888 3369 3059 3328 
z
" transform="scale(0.015625)"/>
       <path id="DejaVuSerif-6d" d="M 3316 2675 
Q 3481 3041 3739 3227 
Q 3997 3413 4341 3413 
Q 4863 3413 5119 3089 
Q 5375 2766 5375 2113 
L 5375 331 
L 5894 331 
L 5894 0 
L 4300 0 
L 4300 331 
L 4800 331 
L 4800 2047 
Q 4800 2556 4650 2772 
Q 4500 2988 4153 2988 
Q 3769 2988 3567 2697 
Q 3366 2406 3366 1850 
L 3366 331 
L 3866 331 
L 3866 0 
L 2291 0 
L 2291 331 
L 2791 331 
L 2791 2069 
Q 2791 2566 2641 2777 
Q 2491 2988 2144 2988 
Q 1759 2988 1557 2697 
Q 1356 2406 1356 1850 
L 1356 331 
L 1856 331 
L 1856 0 
L 263 0 
L 263 331 
L 781 331 
L 781 2994 
L 231 2994 
L 231 3322 
L 1356 3322 
L 1356 2731 
Q 1516 3063 1762 3238 
Q 2009 3413 2322 3413 
Q 2709 3413 2968 3220 
Q 3228 3028 3316 2675 
z
" transform="scale(0.015625)"/>
      </defs>
      <use xlink:href="#DejaVuSerif-46"/>
      <use xlink:href="#DejaVuSerif-50" transform="translate(69.384766 0)"/>
      <use xlink:href="#DejaVuSerif-52" transform="translate(136.669922 0)"/>
      <use xlink:href="#DejaVuSerif-20" transform="translate(211.962891 0)"/>
      <use xlink:href="#DejaVuSerif-28" transform="translate(243.75 0)"/>
      <use xlink:href="#DejaVuSerif-66" transform="translate(282.763672 0)"/>
      <use xlink:href="#DejaVuSerif-61" transform="translate(319.775391 0)"/>
      <use xlink:href="#DejaVuSerif-6c" transform="translate(379.394531 0)"/>
      <use xlink:href="#DejaVuSerif-73" transform="translate(411.376953 0)"/>
      <use xlink:href="#DejaVuSerif-65" transform="translate(462.695312 0)"/>
      <use xlink:href="#DejaVuSerif-20" transform="translate(521.875 0)"/>
      <use xlink:href="#DejaVuSerif-61" transform="translate(553.662109 0)"/>
      <use xlink:href="#DejaVuSerif-6c" transform="translate(613.28125 0)"/>
      <use xlink:href="#DejaVuSerif-61" transform="translate(645.263672 0)"/>
      <use xlink:href="#DejaVuSerif-72" transform="translate(704.882812 0)"/>
      <use xlink:href="#DejaVuSerif-6d" transform="translate(752.685547 0)"/>
      <use xlink:href="#DejaVuSerif-20" transform="translate(847.509766 0)"/>
      <use xlink:href="#DejaVuSerif-72" transform="translate(879.296875 0)"/>
      <use xlink:href="#DejaVuSerif-61" transform="translate(927.099609 0)"/>
      <use xlink:href="#DejaVuSerif-74" transform="translate(986.71875 0)"/>
      <use xlink:href="#DejaVuSerif-65" transform="translate(1026.904297 0)"/>
      <use xlink:href="#DejaVuSerif-29" transform="translate(1086.083984 0)"/>
     </g>
    </g>
   </g>
   <g id="line2d_12">
    <path d="M 42.448707 168.112035 
L 77.426393 168.112035 
L 129.892922 168.112035 
L 182.359451 168.112035 
L 234.82598 159.660774 
" clip-path="url(#p0f16e75348)" style="fill: none; stroke: #2c6fbb; stroke-width: 1.4; stroke-linecap: square"/>
    <defs>
     <path id="m043aa6e24c" d="M 0 2 
C 0.530406 2 1.03916 1.789267 1.414214 1.414214 
C 1.789267 1.03916 2 0.530406 2 0 
C 2 -0.530406 1.789267 -1.03916 1.414214 -1.414214 
C 1.03916 -1.789267 0.530406 -2 0 -2 
C -0.530406 -2 -1.03916 -1.789267 -1.414214 -1.414214 
C -1.789267 -1.03916 -2 -0.530406 -2 0 
C -2 0.530406 -1.789267 1.03916 -1.414214 1.414214 
C -1.03916 1.789267 -0.530406 2 0 2 
z
" style="stroke: #2c6fbb"/>
    </defs>
    <g clip-path="url(#p0f16e75348)">
     <use xlink:href="#m043aa6e24c" x="42.448707" y="168.112035" style="fill: #2c6fbb; stroke: #2c6fbb"/>
     <use xlink:href="#m043aa6e24c" x="77.426393" y="168.112035" style="fill: #2c6fbb; stroke: #2c6fbb"/>
     <use xlink:href="#m043aa6e24c" x="129.892922" y="168.112035" style="fill: #2c6fbb; stroke: #2c6fbb"/>
     <use xlink:href="#m043aa6e24c" x="182.359451" y="168.112035" style="fill: #2c6fbb; stroke: #2c6fbb"/>
     <use xlink:href="#m043aa6e24c" x="234.82598" y="159.660774" style="fill: #2c6fbb; stroke: #2c6fbb"/>
    </g>
   </g>
   <g id="line2d_13">
    <path d="M 42.448707 168.112035 
L 77.426393 168.112035 
L 129.892922 168.112035 
L 182.359451 168.112035 
L 234.82598 167.343739 
" clip-path="url(#p0f16e75348)" style="fill: none; stroke: #3a8a5f; stroke-width: 1.4; stroke-linecap: square"/>
    <defs>
     <path id="m58d9166cc3" d="M -2 2 
L 2 2 
L 2 -2 
L -2 -2 
z
" style="stroke: #3a8a5f; stroke-linejoin: miter"/>
    </defs>
    <g clip-path="url(#p0f16e75348)">
     <use xlink:href="#m58d9166cc3" x="42.448707" y="168.112035" style="fill: #3a8a5f; stroke: #3a8a5f; stroke-linejoin: miter"/>
     <use xlink:href="#m58d9166cc3" x="77.426393" y="168.112035" style="fill: #3a8a5f; stroke: #3a8a5f; stroke-linejoin: miter"/>
     <use xlink:href="#m58d9166cc3" x="129.892922" y="168.112035" style="fill: #3a8a5f; stroke: #3a8a5f; stroke-linejoin: miter"/>
     <use xlink:href="#m58d9166cc3" x="182.359451" y="168.112035" style="fill: #3a8a5f; stroke: #3a8a5f; stroke-linejoin: miter"/>
     <use xlink:href="#m58d9166cc3" x="234.82598" y="167.343739" style="fill: #3a8a5f; stroke: #3a8a5f; stroke-linejoin: miter"/>
    </g>
   </g>
   <g id="line2d_14">
    <path d="M 42.448707 168.112035 
L 77.426393 168.112035 
L 129.892922 168.112035 
L 182.359451 93.587279 
L 234.82598 14.452743 
" clip-path="url(#p0f16e75348)" style="fill: none; stroke-dasharray: 5.18,2.24; stroke-dashoffset: 0; stroke: #9a6db0; stroke-width: 1.4"/>
    <defs>
     <path id="mbd562d944b" d="M 0 -2 
L -2 2 
L 2 2 
z
" style="stroke: #9a6db0; stroke-linejoin: miter"/>
    </defs>
    <g clip-path="url(#p0f16e75348)">
     <use xlink:href="#mbd562d944b" x="42.448707" y="168.112035" style="fill: #9a6db0; stroke: #9a6db0; stroke-linejoin: miter"/>
     <use xlink:href="#mbd562d944b" x="77.426393" y="168.112035" style="fill: #9a6db0; stroke: #9a6db0; stroke-linejoin: miter"/>
     <use xlink:href="#mbd562d944b" x="129.892922" y="168.112035" style="fill: #9a6db0; stroke: #9a6db0; stroke-linejoin: miter"/>
     <use xlink:href="#mbd562d944b" x="182.359451" y="93.587279" style="fill: #9a6db0; stroke: #9a6db0; stroke-linejoin: miter"/>
     <use xlink:href="#mbd562d944b" x="234.82598" y="14.452743" style="fill: #9a6db0; stroke: #9a6db0; stroke-linejoin: miter"/>
    </g>
   </g>
   <g id="line2d_15">
    <path d="M 42.448707 168.112035 
L 77.426393 168.112035 
L 129.892922 168.112035 
L 182.359451 168.112035 
L 234.82598 168.112035 
" clip-path="url(#p0f16e75348)" style="fill: none; stroke: #9a6db0; stroke-width: 1.4; stroke-linecap: square"/>
    <defs>
     <path id="mf9f0ac53b4" d="M 0 2.474874 
L 2.474874 0 
L 0 -2.474874 
L -2.474874 0 
z
" style="stroke: #9a6db0; stroke-linejoin: miter"/>
    </defs>
    <g clip-path="url(#p0f16e75348)">
     <use xlink:href="#mf9f0ac53b4" x="42.448707" y="168.112035" style="fill: #9a6db0; stroke: #9a6db0; stroke-linejoin: miter"/>
     <use xlink:href="#mf9f0ac53b4" x="77.426393" y="168.112035" style="fill: #9a6db0; stroke: #9a6db0; stroke-linejoin: miter"/>
     <use xlink:href="#mf9f0ac53b4" x="129.892922" y="168.112035" style="fill: #9a6db0; stroke: #9a6db0; stroke-linejoin: miter"/>
     <use xlink:href="#mf9f0ac53b4" x="182.359451" y="168.112035" style="fill: #9a6db0; stroke: #9a6db0; stroke-linejoin: miter"/>
     <use xlink:href="#mf9f0ac53b4" x="234.82598" y="168.112035" style="fill: #9a6db0; stroke: #9a6db0; stroke-linejoin: miter"/>
    </g>
   </g>
   <g id="patch_3">
    <path d="M 32.829844 175.795 
L 32.829844 2.16 
" style="fill: none; stroke: #000000; stroke-width: 0.8; stroke-linejoin: miter; stroke-linecap: square"/>
   </g>
   <g id="patch_4">
    <path d="M 244.444844 175.795 
L 244.444844 2.16 
" style="fill: none; stroke: #000000; stroke-width: 0.8; stroke-linejoin: miter; stroke-linecap: square"/>
   </g>
   <g id="patch_5">
    <path d="M 32.829844 175.795 
L 244.444844 175.795 
" style="fill: none; stroke: #000000; stroke-width: 0.8; stroke-linejoin: miter; stroke-linecap: square"/>
   </g>
   <g id="patch_6">
    <path d="M 32.829844 2.16 
L 244.444844 2.16 
" style="fill: none; stroke: #000000; stroke-width: 0.8; stroke-linejoin: miter; stroke-linecap: square"/>
   </g>
   <g id="legend_1">
    <g id="line2d_16">
     <path d="M 38.769844 10.804969 
L 45.369844 10.804969 
L 51.969844 10.804969 
" style="fill: none; stroke: #2c6fbb; stroke-width: 1.4; stroke-linecap: square"/>
     <g>
      <use xlink:href="#m043aa6e24c" x="45.369844" y="10.804969" style="fill: #2c6fbb; stroke: #2c6fbb"/>
     </g>
    </g>
    <g id="text_14">
     <!-- BB84 -->
     <g transform="translate(57.249844 13.114969) scale(0.066 -0.066)">
      <defs>
       <path id="DejaVuSerif-42" d="M 1581 331 
L 2516 331 
Q 3078 331 3337 575 
Q 3597 819 3597 1350 
Q 3597 1878 3339 2120 
Q 3081 2363 2516 2363 
L 1581 2363 
L 1581 331 
z
M 1581 2694 
L 2375 2694 
Q 2888 2694 3123 2891 
Q 3359 3088 3359 3513 
Q 3359 3941 3123 4136 
Q 2888 4331 2375 4331 
L 1581 4331 
L 1581 2694 
z
M 353 0 
L 353 331 
L 947 331 
L 947 4331 
L 353 4331 
L 353 4666 
L 2656 4666 
Q 3363 4666 3720 4377 
Q 4078 4088 4078 3513 
Q 4078 3097 3829 2850 
Q 3581 2603 3103 2547 
Q 3697 2472 4005 2167 
Q 4313 1863 4313 1350 
Q 4313 656 3875 328 
Q 3438 0 2509 0 
L 353 0 
z
" transform="scale(0.015625)"/>
      </defs>
      <use xlink:href="#DejaVuSerif-42"/>
      <use xlink:href="#DejaVuSerif-42" transform="translate(73.486328 0)"/>
      <use xlink:href="#DejaVuSerif-38" transform="translate(146.972656 0)"/>
      <use xlink:href="#DejaVuSerif-34" transform="translate(210.595703 0)"/>
     </g>
    </g>
    <g id="line2d_17">
     <path d="M 38.769844 20.492531 
L 45.369844 20.492531 
L 51.969844 20.492531 
" style="fill: none; stroke: #3a8a5f; stroke-width: 1.4; stroke-linecap: square"/>
     <g>
      <use xlink:href="#m58d9166cc3" x="45.369844" y="20.492531" style="fill: #3a8a5f; stroke: #3a8a5f; stroke-linejoin: miter"/>
     </g>
    </g>
    <g id="text_15">
     <!-- Six-State -->
     <g transform="translate(57.249844 22.802531) scale(0.066 -0.066)">
      <defs>
       <path id="DejaVuSerif-53" d="M 594 225 
L 594 1288 
L 953 1284 
Q 969 753 1261 498 
Q 1553 244 2150 244 
Q 2706 244 2998 464 
Q 3291 684 3291 1106 
Q 3291 1444 3114 1625 
Q 2938 1806 2369 1978 
L 1753 2163 
Q 1084 2366 811 2669 
Q 538 2972 538 3500 
Q 538 4094 959 4422 
Q 1381 4750 2144 4750 
Q 2469 4750 2856 4679 
Q 3244 4609 3681 4475 
L 3681 3481 
L 3328 3481 
Q 3275 3975 2998 4195 
Q 2722 4416 2156 4416 
Q 1663 4416 1405 4214 
Q 1147 4013 1147 3628 
Q 1147 3294 1340 3103 
Q 1534 2913 2163 2725 
L 2741 2553 
Q 3375 2363 3645 2067 
Q 3916 1772 3916 1275 
Q 3916 597 3481 253 
Q 3047 -91 2188 -91 
Q 1803 -91 1404 -12 
Q 1006 66 594 225 
z
" transform="scale(0.015625)"/>
       <path id="DejaVuSerif-78" d="M 1863 2028 
L 2559 2988 
L 2113 2988 
L 2113 3322 
L 3391 3322 
L 3391 2988 
L 2950 2988 
L 2059 1759 
L 3097 331 
L 3531 331 
L 3531 0 
L 1997 0 
L 1997 331 
L 2419 331 
L 1697 1325 
L 972 331 
L 1403 331 
L 1403 0 
L 141 0 
L 141 331 
L 581 331 
L 1497 1594 
L 488 2988 
L 78 2988 
L 78 3322 
L 1563 3322 
L 1563 2988 
L 1166 2988 
L 1863 2028 
z
" transform="scale(0.015625)"/>
       <path id="DejaVuSerif-2d" d="M 281 1959 
L 1881 1959 
L 1881 1472 
L 281 1472 
L 281 1959 
z
" transform="scale(0.015625)"/>
      </defs>
      <use xlink:href="#DejaVuSerif-53"/>
      <use xlink:href="#DejaVuSerif-69" transform="translate(68.505859 0)"/>
      <use xlink:href="#DejaVuSerif-78" transform="translate(100.488281 0)"/>
      <use xlink:href="#DejaVuSerif-2d" transform="translate(155.134766 0)"/>
      <use xlink:href="#DejaVuSerif-53" transform="translate(188.923828 0)"/>
      <use xlink:href="#DejaVuSerif-74" transform="translate(257.429688 0)"/>
      <use xlink:href="#DejaVuSerif-61" transform="translate(297.615234 0)"/>
      <use xlink:href="#DejaVuSerif-74" transform="translate(357.234375 0)"/>
      <use xlink:href="#DejaVuSerif-65" transform="translate(397.419922 0)"/>
     </g>
    </g>
    <g id="line2d_18">
     <path d="M 38.769844 30.180094 
L 45.369844 30.180094 
L 51.969844 30.180094 
" style="fill: none; stroke-dasharray: 5.18,2.24; stroke-dashoffset: 0; stroke: #9a6db0; stroke-width: 1.4"/>
     <g>
      <use xlink:href="#mbd562d944b" x="45.369844" y="30.180094" style="fill: #9a6db0; stroke: #9a6db0; stroke-linejoin: miter"/>
     </g>
    </g>
    <g id="text_16">
     <!-- E91 (fixed $S=2.0$) -->
     <g transform="translate(57.249844 32.490094) scale(0.066 -0.066)">
      <defs>
       <path id="DejaVuSerif-45" d="M 353 0 
L 353 331 
L 947 331 
L 947 4331 
L 353 4331 
L 353 4666 
L 4109 4666 
L 4109 3628 
L 3725 3628 
L 3725 4281 
L 1581 4281 
L 1581 2719 
L 3109 2719 
L 3109 3303 
L 3494 3303 
L 3494 1753 
L 3109 1753 
L 3109 2338 
L 1581 2338 
L 1581 384 
L 3775 384 
L 3775 1038 
L 4159 1038 
L 4159 0 
L 353 0 
z
" transform="scale(0.015625)"/>
       <path id="DejaVuSerif-39" d="M 2994 2091 
Q 2784 1856 2512 1740 
Q 2241 1625 1900 1625 
Q 1206 1625 804 2044 
Q 403 2463 403 3188 
Q 403 3897 839 4323 
Q 1275 4750 2003 4750 
Q 2794 4750 3217 4161 
Q 3641 3572 3641 2478 
Q 3641 1253 3137 581 
Q 2634 -91 1722 -91 
Q 1475 -91 1203 -44 
Q 931 3 647 97 
L 647 872 
L 997 872 
Q 1038 556 1241 387 
Q 1444 219 1784 219 
Q 2391 219 2687 676 
Q 2984 1134 2994 2091 
z
M 1978 4441 
Q 1534 4441 1298 4117 
Q 1063 3794 1063 3188 
Q 1063 2581 1298 2256 
Q 1534 1931 1978 1931 
Q 2422 1931 2658 2245 
Q 2894 2559 2894 3150 
Q 2894 3772 2656 4106 
Q 2419 4441 1978 4441 
z
" transform="scale(0.015625)"/>
       <path id="DejaVuSerif-64" d="M 3359 331 
L 3909 331 
L 3909 0 
L 2784 0 
L 2784 519 
Q 2616 206 2355 57 
Q 2094 -91 1709 -91 
Q 1097 -91 708 395 
Q 319 881 319 1663 
Q 319 2444 706 2928 
Q 1094 3413 1709 3413 
Q 2094 3413 2355 3264 
Q 2616 3116 2784 2803 
L 2784 4531 
L 2241 4531 
L 2241 4863 
L 3359 4863 
L 3359 331 
z
M 2784 1497 
L 2784 1825 
Q 2784 2422 2554 2737 
Q 2325 3053 1888 3053 
Q 1444 3053 1217 2703 
Q 991 2353 991 1663 
Q 991 975 1217 622 
Q 1444 269 1888 269 
Q 2325 269 2554 583 
Q 2784 897 2784 1497 
z
" transform="scale(0.015625)"/>
       <path id="Cmmi10-53" d="M 391 -141 
Q 372 -141 356 -119 
Q 341 -97 341 -78 
L 709 1416 
Q 722 1453 763 1453 
L 838 1453 
Q 863 1453 877 1434 
Q 891 1416 891 1388 
Q 838 1169 838 997 
Q 838 534 1156 309 
Q 1475 84 1959 84 
Q 2169 84 2372 187 
Q 2575 291 2726 456 
Q 2878 622 2968 826 
Q 3059 1031 3059 1241 
Q 3059 1466 2940 1642 
Q 2822 1819 2613 1869 
L 1831 2075 
Q 1516 2159 1328 2414 
Q 1141 2669 1141 2988 
Q 1141 3372 1369 3728 
Q 1597 4084 1964 4298 
Q 2331 4513 2713 4513 
Q 3006 4513 3251 4405 
Q 3497 4297 3628 4063 
L 3994 4494 
Q 4031 4513 4038 4513 
L 4078 4513 
Q 4103 4513 4118 4491 
Q 4134 4469 4134 4447 
L 3763 2963 
Q 3753 2919 3713 2919 
L 3634 2919 
Q 3578 2919 3578 2988 
Q 3609 3191 3609 3341 
Q 3609 3638 3507 3858 
Q 3406 4078 3201 4192 
Q 2997 4306 2694 4306 
Q 2438 4306 2184 4159 
Q 1931 4013 1775 3769 
Q 1619 3525 1619 3263 
Q 1619 3056 1739 2897 
Q 1859 2738 2059 2681 
L 2841 2478 
Q 3053 2422 3211 2280 
Q 3369 2138 3450 1942 
Q 3531 1747 3531 1516 
Q 3531 1213 3403 917 
Q 3275 622 3045 378 
Q 2816 134 2525 -3 
Q 2234 -141 1931 -141 
Q 1169 -141 838 306 
L 481 -122 
Q 444 -141 434 -141 
L 391 -141 
z
" transform="scale(0.015625)"/>
       <path id="Cmr10-3d" d="M 481 850 
Q 428 850 393 890 
Q 359 931 359 978 
Q 359 1031 393 1068 
Q 428 1106 481 1106 
L 4500 1106 
Q 4547 1106 4581 1068 
Q 4616 1031 4616 978 
Q 4616 931 4581 890 
Q 4547 850 4500 850 
L 481 850 
z
M 481 2094 
Q 428 2094 393 2131 
Q 359 2169 359 2222 
Q 359 2269 393 2309 
Q 428 2350 481 2350 
L 4500 2350 
Q 4547 2350 4581 2309 
Q 4616 2269 4616 2222 
Q 4616 2169 4581 2131 
Q 4547 2094 4500 2094 
L 481 2094 
z
" transform="scale(0.015625)"/>
       <path id="Cmr10-32" d="M 319 0 
L 319 172 
Q 319 188 331 206 
L 1325 1306 
Q 1550 1550 1690 1715 
Q 1831 1881 1968 2097 
Q 2106 2313 2186 2536 
Q 2266 2759 2266 3009 
Q 2266 3272 2169 3511 
Q 2072 3750 1880 3894 
Q 1688 4038 1416 4038 
Q 1138 4038 916 3870 
Q 694 3703 603 3438 
Q 628 3444 672 3444 
Q 816 3444 917 3347 
Q 1019 3250 1019 3097 
Q 1019 2950 917 2848 
Q 816 2747 672 2747 
Q 522 2747 420 2851 
Q 319 2956 319 3097 
Q 319 3338 409 3548 
Q 500 3759 670 3923 
Q 841 4088 1055 4175 
Q 1269 4263 1509 4263 
Q 1875 4263 2190 4108 
Q 2506 3953 2690 3670 
Q 2875 3388 2875 3009 
Q 2875 2731 2753 2481 
Q 2631 2231 2440 2026 
Q 2250 1822 1953 1562 
Q 1656 1303 1563 1216 
L 838 519 
L 1453 519 
Q 1906 519 2211 526 
Q 2516 534 2534 550 
Q 2609 631 2688 1141 
L 2875 1141 
L 2694 0 
L 319 0 
z
" transform="scale(0.015625)"/>
       <path id="Cmmi10-3a" d="M 538 353 
Q 538 497 644 600 
Q 750 703 891 703 
Q 978 703 1062 656 
Q 1147 609 1194 525 
Q 1241 441 1241 353 
Q 1241 213 1137 106 
Q 1034 0 891 0 
Q 750 0 644 106 
Q 538 213 538 353 
z
" transform="scale(0.015625)"/>
       <path id="Cmr10-30" d="M 1600 -141 
Q 816 -141 533 504 
Q 250 1150 250 2041 
Q 250 2597 351 3087 
Q 453 3578 754 3920 
Q 1056 4263 1600 4263 
Q 2022 4263 2290 4056 
Q 2559 3850 2700 3523 
Q 2841 3197 2892 2823 
Q 2944 2450 2944 2041 
Q 2944 1491 2842 1011 
Q 2741 531 2444 195 
Q 2147 -141 1600 -141 
z
M 1600 25 
Q 1956 25 2131 390 
Q 2306 756 2347 1200 
Q 2388 1644 2388 2144 
Q 2388 2625 2347 3031 
Q 2306 3438 2132 3767 
Q 1959 4097 1600 4097 
Q 1238 4097 1063 3765 
Q 888 3434 847 3029 
Q 806 2625 806 2144 
Q 806 1788 823 1472 
Q 841 1156 916 820 
Q 991 484 1158 254 
Q 1325 25 1600 25 
z
" transform="scale(0.015625)"/>
      </defs>
      <use xlink:href="#DejaVuSerif-45" transform="translate(0 0.015625)"/>
      <use xlink:href="#DejaVuSerif-39" transform="translate(72.998047 0.015625)"/>
      <use xlink:href="#DejaVuSerif-31" transform="translate(136.621094 0.015625)"/>
      <use xlink:href="#DejaVuSerif-20" transform="translate(200.244141 0.015625)"/>
      <use xlink:href="#DejaVuSerif-28" transform="translate(232.03125 0.015625)"/>
      <use xlink:href="#DejaVuSerif-66" transform="translate(271.044922 0.015625)"/>
      <use xlink:href="#DejaVuSerif-69" transform="translate(308.056641 0.015625)"/>
      <use xlink:href="#DejaVuSerif-78" transform="translate(340.039062 0.015625)"/>
      <use xlink:href="#DejaVuSerif-65" transform="translate(396.435547 0.015625)"/>
      <use xlink:href="#DejaVuSerif-64" transform="translate(455.615234 0.015625)"/>
      <use xlink:href="#DejaVuSerif-20" transform="translate(519.628906 0.015625)"/>
      <use xlink:href="#Cmmi10-53" transform="translate(551.416016 0.015625)"/>
      <use xlink:href="#Cmr10-3d" transform="translate(630.253906 0.015625)"/>
      <use xlink:href="#Cmr10-32" transform="translate(725.498047 0.015625)"/>
      <use xlink:href="#Cmmi10-3a" transform="translate(775.498047 0.015625)"/>
      <use xlink:href="#Cmr10-30" transform="translate(803.183594 0.015625)"/>
      <use xlink:href="#DejaVuSerif-29" transform="translate(853.183594 0.015625)"/>
     </g>
    </g>
    <g id="line2d_19">
     <path d="M 38.769844 39.867656 
L 45.369844 39.867656 
L 51.969844 39.867656 
" style="fill: none; stroke: #9a6db0; stroke-width: 1.4; stroke-linecap: square"/>
     <g>
      <use xlink:href="#mf9f0ac53b4" x="45.369844" y="39.867656" style="fill: #9a6db0; stroke: #9a6db0; stroke-linejoin: miter"/>
     </g>
    </g>
    <g id="text_17">
     <!-- E91 (calibrated $S^*$) -->
     <g transform="translate(57.249844 42.177656) scale(0.066 -0.066)">
      <defs>
       <path id="DejaVuSerif-62" d="M 738 331 
L 738 4531 
L 184 4531 
L 184 4863 
L 1313 4863 
L 1313 2803 
Q 1481 3116 1742 3264 
Q 2003 3413 2388 3413 
Q 3000 3413 3387 2928 
Q 3775 2444 3775 1663 
Q 3775 881 3387 395 
Q 3000 -91 2388 -91 
Q 2003 -91 1742 57 
Q 1481 206 1313 519 
L 1313 0 
L 184 0 
L 184 331 
L 738 331 
z
M 1313 1497 
Q 1313 897 1542 583 
Q 1772 269 2209 269 
Q 2650 269 2876 622 
Q 3103 975 3103 1663 
Q 3103 2353 2876 2703 
Q 2650 3053 2209 3053 
Q 1772 3053 1542 2737 
Q 1313 2422 1313 1825 
L 1313 1497 
z
" transform="scale(0.015625)"/>
       <path id="Cmsy10-a4" d="M 603 813 
Q 531 813 473 873 
Q 416 934 416 1006 
Q 416 1116 506 1159 
L 1428 1600 
L 506 2034 
Q 416 2072 416 2188 
Q 416 2259 473 2320 
Q 531 2381 603 2381 
Q 650 2381 691 2350 
L 1509 1753 
L 1416 2797 
Q 1416 2875 1469 2925 
Q 1522 2975 1600 2975 
Q 1675 2975 1726 2928 
Q 1778 2881 1778 2809 
L 1778 2797 
L 1684 1753 
L 2503 2350 
Q 2544 2381 2591 2381 
Q 2669 2381 2723 2320 
Q 2778 2259 2778 2188 
Q 2778 2072 2688 2034 
L 1766 1600 
L 2688 1159 
Q 2778 1116 2778 1006 
Q 2778 934 2723 873 
Q 2669 813 2591 813 
Q 2544 813 2503 844 
L 1684 1441 
L 1778 403 
L 1778 384 
Q 1778 313 1723 266 
Q 1669 219 1600 219 
Q 1525 219 1470 270 
Q 1416 322 1416 397 
L 1509 1441 
L 691 844 
Q 650 813 603 813 
z
" transform="scale(0.015625)"/>
      </defs>
      <use xlink:href="#DejaVuSerif-45" transform="translate(0 0.015625)"/>
      <use xlink:href="#DejaVuSerif-39" transform="translate(72.998047 0.015625)"/>
      <use xlink:href="#DejaVuSerif-31" transform="translate(136.621094 0.015625)"/>
      <use xlink:href="#DejaVuSerif-20" transform="translate(200.244141 0.015625)"/>
      <use xlink:href="#DejaVuSerif-28" transform="translate(232.03125 0.015625)"/>
      <use xlink:href="#DejaVuSerif-63" transform="translate(271.044922 0.015625)"/>
      <use xlink:href="#DejaVuSerif-61" transform="translate(327.050781 0.015625)"/>
      <use xlink:href="#DejaVuSerif-6c" transform="translate(386.669922 0.015625)"/>
      <use xlink:href="#DejaVuSerif-69" transform="translate(418.652344 0.015625)"/>
      <use xlink:href="#DejaVuSerif-62" transform="translate(450.634766 0.015625)"/>
      <use xlink:href="#DejaVuSerif-72" transform="translate(514.648438 0.015625)"/>
      <use xlink:href="#DejaVuSerif-61" transform="translate(562.451172 0.015625)"/>
      <use xlink:href="#DejaVuSerif-74" transform="translate(622.070312 0.015625)"/>
      <use xlink:href="#DejaVuSerif-65" transform="translate(662.255859 0.015625)"/>
      <use xlink:href="#DejaVuSerif-64" transform="translate(721.435547 0.015625)"/>
      <use xlink:href="#DejaVuSerif-20" transform="translate(785.449219 0.015625)"/>
      <use xlink:href="#Cmmi10-53" transform="translate(817.236328 0.015625)"/>
      <use xlink:href="#Cmsy10-a4" transform="translate(902.638828 38.279688) scale(0.7)"/>
      <use xlink:href="#DejaVuSerif-29" transform="translate(956.307188 0.015625)"/>
     </g>
    </g>
   </g>
  </g>
 </g>
 <defs>
  <clipPath id="p0f16e75348">
   <rect x="32.829844" y="2.16" width="211.615" height="173.635"/>
  </clipPath>
 </defs>
</svg>
