<?xml version="1.0" encoding="utf-8" standalone="no"?>
<!DOCTYPE svg PUBLIC "-//W3C//DTD SVG 1.1//EN"
  "http://www.w3.org/Graphics/SVG/1.1/DTD/svg11.dtd">
<svg xmlns:xlink="http://www.w3.org/1999/xlink" width="394.92pt" height="159.552pt" viewBox="0 0 394.92 159.552" xmlns="http://www.w3.org/2000/svg" version="1.1">
 <metadata>
  <rdf:RDF xmlns:dc="http://purl.org/dc/elements/1.1/" xmlns:cc="http://creativecommons.org/ns#" xmlns:rdf="http://www.w3.org/1999/02/22-rdf-syntax-ns#">
   <cc:Work>
    <dc:type rdf:resource="http://purl.org/dc/dcmitype/StillImage"/>
    <dc:date>2026-06-13T12:49:28.819606</dc:date>
    <dc:format>image/svg+xml</dc:format>
    <dc:creator>
     <cc:Agent>
      <dc:title>Matplotlib v3.10.9, https://matplotlib.org/</dc:title>
     </cc:Agent>
    </dc:creator>
   </cc:Work>
  </rdf:RDF>
 </metadata>
 <defs>
  <style type="text/css">*{stroke-linejoin: round; stroke-linecap: butt}</style>
 </defs>
 <g id="figure_1">
  <g id="patch_1">
   <path d="M 0 159.552 
L 394.92 159.552 
L 394.92 0 
L 0 0 
z
" style="fill: #ffffff"/>
  </g>
  <g id="axes_1">
   <g id="patch_2">
    <path d="M 19.737 106.9416 
L 78.327 106.9416 
Q 83.0142 106.9416 83.0142 102.708 
L 83.0142 70.956 
Q 83.0142 66.7224 78.327 66.7224 
L 19.737 66.7224 
Q 15.0498 66.7224 15.0498 70.956 
L 15.0498 102.708 
Q 15.0498 106.9416 19.737 106.9416 
z
" clip-path="url(#p3e3c647915)" style="fill: #e8edf3; stroke: #1a1a1a; stroke-width: 1.3; stroke-linejoin: miter"/>
   </g>
   <g id="patch_3">
    <path d="M 316.593 106.9416 
L 375.183 106.9416 
Q 379.8702 106.9416 379.8702 102.708 
L 379.8702 70.956 
Q 379.8702 66.7224 375.183 66.7224 
L 316.593 66.7224 
Q 311.9058 66.7224 311.9058 70.956 
L 311.9058 102.708 
Q 311.9058 106.9416 316.593 106.9416 
z
" clip-path="url(#p3e3c647915)" style="fill: #e8edf3; stroke: #1a1a1a; stroke-width: 1.3; stroke-linejoin: miter"/>
   </g>
   <g id="patch_4">
    <path d="M 84.233859 51.552 
Q 197.461714 51.552 308.900714 51.552 
" style="fill: none; stroke: #1a1a1a; stroke-width: 1.6; stroke-linecap: round"/>
    <path d="M 305.300714 49.752 
L 308.900714 51.552 
L 305.300714 53.352 
z
" style="fill: #1a1a1a; stroke: #1a1a1a; stroke-width: 1.6; stroke-linecap: round"/>
   </g>
   <g id="text_1">
    <!-- Quantum channel:  qubits / entangled pairs -->
    <g transform="translate(103.722266 22.145006) scale(0.085 -0.085)">
     <defs>
      <path id="DejaVuSerif-51" d="M 2700 -91 
Q 1628 -91 993 567 
Q 359 1225 359 2328 
Q 359 2894 529 3339 
Q 700 3784 1050 4134 
Q 1356 4441 1750 4595 
Q 2144 4750 2625 4750 
Q 3641 4750 4266 4084 
Q 4891 3419 4891 2328 
Q 4891 1403 4422 773 
Q 3953 144 3128 -38 
Q 3297 -247 3539 -347 
Q 3781 -447 4122 -447 
L 4219 -447 
L 4219 -1025 
Q 3691 -1000 3314 -767 
Q 2938 -534 2700 -91 
z
M 2625 244 
Q 3391 244 3781 770 
Q 4172 1297 4172 2328 
Q 4172 3363 3781 3889 
Q 3391 4416 2625 4416 
Q 1856 4416 1465 3889 
Q 1075 3363 1075 2328 
Q 1075 1297 1465 770 
Q 1856 244 2625 244 
z
" transform="scale(0.015625)"/>
      <path id="DejaVuSerif-75" d="M 2266 3322 
L 3341 3322 
L 3341 331 
L 3884 331 
L 3884 0 
L 2766 0 
L 2766 588 
Q 2606 256 2353 82 
Q 2100 -91 1766 -91 
Q 1213 -91 952 223 
Q 691 538 691 1209 
L 691 2988 
L 172 2988 
L 172 3322 
L 1269 3322 
L 1269 1388 
Q 1269 781 1417 556 
Q 1566 331 1947 331 
Q 2347 331 2556 625 
Q 2766 919 2766 1478 
L 2766 2988 
L 2266 2988 
L 2266 3322 
z
" transform="scale(0.015625)"/>
      <path id="DejaVuSerif-61" d="M 2547 1044 
L 2547 1747 
L 1806 1747 
Q 1378 1747 1168 1562 
Q 959 1378 959 997 
Q 959 650 1171 447 
Q 1384 244 1747 244 
Q 2106 244 2326 466 
Q 2547 688 2547 1044 
z
M 3122 2075 
L 3122 331 
L 3634 331 
L 3634 0 
L 2547 0 
L 2547 359 
Q 2356 128 2106 18 
Q 1856 -91 1522 -91 
Q 969 -91 644 203 
Q 319 497 319 997 
Q 319 1513 691 1797 
Q 1063 2081 1741 2081 
L 2547 2081 
L 2547 2309 
Q 2547 2688 2317 2895 
Q 2088 3103 1672 3103 
Q 1328 3103 1125 2947 
Q 922 2791 872 2484 
L 575 2484 
L 575 3156 
Q 875 3284 1158 3348 
Q 1441 3413 1709 3413 
Q 2400 3413 2761 3070 
Q 3122 2728 3122 2075 
z
" transform="scale(0.015625)"/>
      <path id="DejaVuSerif-6e" d="M 263 0 
L 263 331 
L 781 331 
L 781 2988 
L 231 2988 
L 231 3322 
L 1356 3322 
L 1356 2731 
Q 1516 3069 1770 3241 
Q 2025 3413 2363 3413 
Q 2913 3413 3172 3097 
Q 3431 2781 3431 2113 
L 3431 331 
L 3944 331 
L 3944 0 
L 2356 0 
L 2356 331 
L 2853 331 
L 2853 1931 
Q 2853 2541 2703 2767 
Q 2553 2994 2175 2994 
Q 1775 2994 1565 2701 
Q 1356 2409 1356 1850 
L 1356 331 
L 1856 331 
L 1856 0 
L 263 0 
z
" transform="scale(0.015625)"/>
      <path id="DejaVuSerif-74" d="M 691 2988 
L 184 2988 
L 184 3322 
L 691 3322 
L 691 4353 
L 1269 4353 
L 1269 3322 
L 2350 3322 
L 2350 2988 
L 1269 2988 
L 1269 878 
Q 1269 456 1350 337 
Q 1431 219 1650 219 
Q 1875 219 1978 351 
Q 2081 484 2088 781 
L 2522 781 
Q 2497 328 2275 118 
Q 2053 -91 1600 -91 
Q 1103 -91 897 129 
Q 691 350 691 878 
L 691 2988 
z
" transform="scale(0.015625)"/>
      <path id="DejaVuSerif-6d" d="M 3316 2675 
Q 3481 3041 3739 3227 
Q 3997 3413 4341 3413 
Q 4863 3413 5119 3089 
Q 5375 2766 5375 2113 
L 5375 331 
L 5894 331 
L 5894 0 
L 4300 0 
L 4300 331 
L 4800 331 
L 4800 2047 
Q 4800 2556 4650 2772 
Q 4500 2988 4153 2988 
Q 3769 2988 3567 2697 
Q 3366 2406 3366 1850 
L 3366 331 
L 3866 331 
L 3866 0 
L 2291 0 
L 2291 331 
L 2791 331 
L 2791 2069 
Q 2791 2566 2641 2777 
Q 2491 2988 2144 2988 
Q 1759 2988 1557 2697 
Q 1356 2406 1356 1850 
L 1356 331 
L 1856 331 
L 1856 0 
L 263 0 
L 263 331 
L 781 331 
L 781 2994 
L 231 2994 
L 231 3322 
L 1356 3322 
L 1356 2731 
Q 1516 3063 1762 3238 
Q 2009 3413 2322 3413 
Q 2709 3413 2968 3220 
Q 3228 3028 3316 2675 
z
" transform="scale(0.015625)"/>
      <path id="DejaVuSerif-20" transform="scale(0.015625)"/>
      <path id="DejaVuSerif-63" d="M 3291 997 
Q 3169 466 2822 187 
Q 2475 -91 1925 -91 
Q 1200 -91 759 389 
Q 319 869 319 1663 
Q 319 2459 759 2936 
Q 1200 3413 1925 3413 
Q 2241 3413 2553 3339 
Q 2866 3266 3181 3116 
L 3181 2266 
L 2847 2266 
Q 2781 2703 2561 2903 
Q 2341 3103 1931 3103 
Q 1466 3103 1228 2742 
Q 991 2381 991 1663 
Q 991 944 1227 581 
Q 1463 219 1931 219 
Q 2303 219 2525 412 
Q 2747 606 2828 997 
L 3291 997 
z
" transform="scale(0.015625)"/>
      <path id="DejaVuSerif-68" d="M 263 0 
L 263 331 
L 781 331 
L 781 4531 
L 231 4531 
L 231 4863 
L 1356 4863 
L 1356 2731 
Q 1516 3069 1770 3241 
Q 2025 3413 2363 3413 
Q 2913 3413 3172 3097 
Q 3431 2781 3431 2113 
L 3431 331 
L 3944 331 
L 3944 0 
L 2356 0 
L 2356 331 
L 2853 331 
L 2853 1931 
Q 2853 2541 2704 2764 
Q 2556 2988 2175 2988 
Q 1775 2988 1565 2697 
Q 1356 2406 1356 1850 
L 1356 331 
L 1856 331 
L 1856 0 
L 263 0 
z
" transform="scale(0.015625)"/>
      <path id="DejaVuSerif-65" d="M 3469 1600 
L 991 1600 
L 991 1575 
Q 991 903 1244 561 
Q 1497 219 1991 219 
Q 2369 219 2611 417 
Q 2853 616 2950 1006 
L 3413 1006 
Q 3275 459 2904 184 
Q 2534 -91 1931 -91 
Q 1203 -91 761 389 
Q 319 869 319 1663 
Q 319 2450 753 2931 
Q 1188 3413 1894 3413 
Q 2647 3413 3050 2948 
Q 3453 2484 3469 1600 
z
M 2791 1931 
Q 2772 2513 2545 2808 
Q 2319 3103 1894 3103 
Q 1497 3103 1269 2806 
Q 1041 2509 991 1931 
L 2791 1931 
z
" transform="scale(0.015625)"/>
      <path id="DejaVuSerif-6c" d="M 1313 331 
L 1856 331 
L 1856 0 
L 184 0 
L 184 331 
L 738 331 
L 738 4531 
L 184 4531 
L 184 4863 
L 1313 4863 
L 1313 331 
z
" transform="scale(0.015625)"/>
      <path id="DejaVuSerif-3a" d="M 666 325 
Q 666 500 786 622 
Q 906 744 1081 744 
Q 1256 744 1376 622 
Q 1497 500 1497 325 
Q 1497 150 1378 29 
Q 1259 -91 1081 -91 
Q 903 -91 784 29 
Q 666 150 666 325 
z
M 666 2363 
Q 666 2538 786 2658 
Q 906 2778 1081 2778 
Q 1259 2778 1378 2659 
Q 1497 2541 1497 2363 
Q 1497 2184 1378 2065 
Q 1259 1947 1081 1947 
Q 906 1947 786 2067 
Q 666 2188 666 2363 
z
" transform="scale(0.015625)"/>
      <path id="DejaVuSerif-71" d="M 3359 2988 
L 3359 -997 
L 3909 -997 
L 3909 -1331 
L 2241 -1331 
L 2241 -997 
L 2784 -997 
L 2784 519 
Q 2616 206 2355 57 
Q 2094 -91 1709 -91 
Q 1097 -91 708 395 
Q 319 881 319 1663 
Q 319 2444 706 2928 
Q 1094 3413 1709 3413 
Q 2094 3413 2355 3264 
Q 2616 3116 2784 2803 
L 2784 3322 
L 3909 3322 
L 3909 2988 
L 3359 2988 
z
M 2784 1825 
Q 2784 2422 2554 2737 
Q 2325 3053 1888 3053 
Q 1444 3053 1217 2703 
Q 991 2353 991 1663 
Q 991 975 1217 622 
Q 1444 269 1888 269 
Q 2325 269 2554 583 
Q 2784 897 2784 1497 
L 2784 1825 
z
" transform="scale(0.015625)"/>
      <path id="DejaVuSerif-62" d="M 738 331 
L 738 4531 
L 184 4531 
L 184 4863 
L 1313 4863 
L 1313 2803 
Q 1481 3116 1742 3264 
Q 2003 3413 2388 3413 
Q 3000 3413 3387 2928 
Q 3775 2444 3775 1663 
Q 3775 881 3387 395 
Q 3000 -91 2388 -91 
Q 2003 -91 1742 57 
Q 1481 206 1313 519 
L 1313 0 
L 184 0 
L 184 331 
L 738 331 
z
M 1313 1497 
Q 1313 897 1542 583 
Q 1772 269 2209 269 
Q 2650 269 2876 622 
Q 3103 975 3103 1663 
Q 3103 2353 2876 2703 
Q 2650 3053 2209 3053 
Q 1772 3053 1542 2737 
Q 1313 2422 1313 1825 
L 1313 1497 
z
" transform="scale(0.015625)"/>
      <path id="DejaVuSerif-69" d="M 622 4353 
Q 622 4497 726 4603 
Q 831 4709 978 4709 
Q 1122 4709 1226 4603 
Q 1331 4497 1331 4353 
Q 1331 4206 1228 4103 
Q 1125 4000 978 4000 
Q 831 4000 726 4103 
Q 622 4206 622 4353 
z
M 1356 331 
L 1900 331 
L 1900 0 
L 231 0 
L 231 331 
L 781 331 
L 781 2988 
L 231 2988 
L 231 3322 
L 1356 3322 
L 1356 331 
z
" transform="scale(0.015625)"/>
      <path id="DejaVuSerif-73" d="M 359 184 
L 359 959 
L 691 959 
Q 703 588 923 403 
Q 1144 219 1575 219 
Q 1963 219 2166 364 
Q 2369 509 2369 788 
Q 2369 1006 2220 1140 
Q 2072 1275 1594 1428 
L 1178 1569 
Q 750 1706 558 1912 
Q 366 2119 366 2438 
Q 366 2894 700 3153 
Q 1034 3413 1625 3413 
Q 1888 3413 2178 3344 
Q 2469 3275 2778 3144 
L 2778 2419 
L 2447 2419 
Q 2434 2741 2221 2922 
Q 2009 3103 1644 3103 
Q 1281 3103 1095 2975 
Q 909 2847 909 2591 
Q 909 2381 1050 2254 
Q 1191 2128 1613 1997 
L 2069 1856 
Q 2541 1709 2748 1489 
Q 2956 1269 2956 922 
Q 2956 450 2595 179 
Q 2234 -91 1600 -91 
Q 1278 -91 972 -22 
Q 666 47 359 184 
z
" transform="scale(0.015625)"/>
      <path id="DejaVuSerif-2f" d="M 1656 4666 
L 2156 4666 
L 500 -594 
L 0 -594 
L 1656 4666 
z
" transform="scale(0.015625)"/>
      <path id="DejaVuSerif-67" d="M 3359 2988 
L 3359 72 
Q 3359 -644 2965 -1033 
Q 2572 -1422 1844 -1422 
Q 1516 -1422 1216 -1362 
Q 916 -1303 641 -1184 
L 641 -488 
L 941 -488 
Q 997 -813 1206 -963 
Q 1416 -1113 1806 -1113 
Q 2313 -1113 2548 -827 
Q 2784 -541 2784 72 
L 2784 519 
Q 2616 206 2355 57 
Q 2094 -91 1709 -91 
Q 1097 -91 708 395 
Q 319 881 319 1663 
Q 319 2444 706 2928 
Q 1094 3413 1709 3413 
Q 2094 3413 2355 3264 
Q 2616 3116 2784 2803 
L 2784 3322 
L 3909 3322 
L 3909 2988 
L 3359 2988 
z
M 2784 1825 
Q 2784 2422 2554 2737 
Q 2325 3053 1888 3053 
Q 1444 3053 1217 2703 
Q 991 2353 991 1663 
Q 991 975 1217 622 
Q 1444 269 1888 269 
Q 2325 269 2554 583 
Q 2784 897 2784 1497 
L 2784 1825 
z
" transform="scale(0.015625)"/>
      <path id="DejaVuSerif-64" d="M 3359 331 
L 3909 331 
L 3909 0 
L 2784 0 
L 2784 519 
Q 2616 206 2355 57 
Q 2094 -91 1709 -91 
Q 1097 -91 708 395 
Q 319 881 319 1663 
Q 319 2444 706 2928 
Q 1094 3413 1709 3413 
Q 2094 3413 2355 3264 
Q 2616 3116 2784 2803 
L 2784 4531 
L 2241 4531 
L 2241 4863 
L 3359 4863 
L 3359 331 
z
M 2784 1497 
L 2784 1825 
Q 2784 2422 2554 2737 
Q 2325 3053 1888 3053 
Q 1444 3053 1217 2703 
Q 991 2353 991 1663 
Q 991 975 1217 622 
Q 1444 269 1888 269 
Q 2325 269 2554 583 
Q 2784 897 2784 1497 
z
" transform="scale(0.015625)"/>
      <path id="DejaVuSerif-70" d="M 1313 1825 
L 1313 1497 
Q 1313 897 1542 583 
Q 1772 269 2209 269 
Q 2650 269 2876 622 
Q 3103 975 3103 1663 
Q 3103 2353 2876 2703 
Q 2650 3053 2209 3053 
Q 1772 3053 1542 2737 
Q 1313 2422 1313 1825 
z
M 738 2988 
L 184 2988 
L 184 3322 
L 1313 3322 
L 1313 2803 
Q 1481 3116 1742 3264 
Q 2003 3413 2388 3413 
Q 3000 3413 3387 2928 
Q 3775 2444 3775 1663 
Q 3775 881 3387 395 
Q 3000 -91 2388 -91 
Q 2003 -91 1742 57 
Q 1481 206 1313 519 
L 1313 -997 
L 1856 -997 
L 1856 -1331 
L 184 -1331 
L 184 -997 
L 738 -997 
L 738 2988 
z
" transform="scale(0.015625)"/>
      <path id="DejaVuSerif-72" d="M 3059 3328 
L 3059 2497 
L 2728 2497 
Q 2713 2744 2591 2866 
Q 2469 2988 2234 2988 
Q 1809 2988 1582 2694 
Q 1356 2400 1356 1850 
L 1356 331 
L 2022 331 
L 2022 0 
L 263 0 
L 263 331 
L 781 331 
L 781 2994 
L 231 2994 
L 231 3322 
L 1356 3322 
L 1356 2731 
Q 1525 3078 1790 3245 
Q 2056 3413 2438 3413 
Q 2578 3413 2733 3391 
Q 2888 3369 3059 3328 
z
" transform="scale(0.015625)"/>
     </defs>
     <use xlink:href="#DejaVuSerif-51"/>
     <use xlink:href="#DejaVuSerif-75" transform="translate(81.982422 0)"/>
     <use xlink:href="#DejaVuSerif-61" transform="translate(146.386719 0)"/>
     <use xlink:href="#DejaVuSerif-6e" transform="translate(206.005859 0)"/>
     <use xlink:href="#DejaVuSerif-74" transform="translate(270.410156 0)"/>
     <use xlink:href="#DejaVuSerif-75" transform="translate(310.595703 0)"/>
     <use xlink:href="#DejaVuSerif-6d" transform="translate(375 0)"/>
     <use xlink:href="#DejaVuSerif-20" transform="translate(469.824219 0)"/>
     <use xlink:href="#DejaVuSerif-63" transform="translate(501.611328 0)"/>
     <use xlink:href="#DejaVuSerif-68" transform="translate(557.617188 0)"/>
     <use xlink:href="#DejaVuSerif-61" transform="translate(622.021484 0)"/>
     <use xlink:href="#DejaVuSerif-6e" transform="translate(681.640625 0)"/>
     <use xlink:href="#DejaVuSerif-6e" transform="translate(746.044922 0)"/>
     <use xlink:href="#DejaVuSerif-65" transform="translate(810.449219 0)"/>
     <use xlink:href="#DejaVuSerif-6c" transform="translate(869.628906 0)"/>
     <use xlink:href="#DejaVuSerif-3a" transform="translate(901.611328 0)"/>
     <use xlink:href="#DejaVuSerif-20" transform="translate(935.302734 0)"/>
     <use xlink:href="#DejaVuSerif-20" transform="translate(967.089844 0)"/>
     <use xlink:href="#DejaVuSerif-71" transform="translate(998.876953 0)"/>
     <use xlink:href="#DejaVuSerif-75" transform="translate(1062.890625 0)"/>
     <use xlink:href="#DejaVuSerif-62" transform="translate(1127.294922 0)"/>
     <use xlink:href="#DejaVuSerif-69" transform="translate(1191.308594 0)"/>
     <use xlink:href="#DejaVuSerif-74" transform="translate(1223.291016 0)"/>
     <use xlink:href="#DejaVuSerif-73" transform="translate(1263.476562 0)"/>
     <use xlink:href="#DejaVuSerif-20" transform="translate(1314.794922 0)"/>
     <use xlink:href="#DejaVuSerif-2f" transform="translate(1346.582031 0)"/>
     <use xlink:href="#DejaVuSerif-20" transform="translate(1380.273438 0)"/>
     <use xlink:href="#DejaVuSerif-65" transform="translate(1412.060547 0)"/>
     <use xlink:href="#DejaVuSerif-6e" transform="translate(1471.240234 0)"/>
     <use xlink:href="#DejaVuSerif-74" transform="translate(1535.644531 0)"/>
     <use xlink:href="#DejaVuSerif-61" transform="translate(1575.830078 0)"/>
     <use xlink:href="#DejaVuSerif-6e" transform="translate(1635.449219 0)"/>
     <use xlink:href="#DejaVuSerif-67" transform="translate(1699.853516 0)"/>
     <use xlink:href="#DejaVuSerif-6c" transform="translate(1763.867188 0)"/>
     <use xlink:href="#DejaVuSerif-65" transform="translate(1795.849609 0)"/>
     <use xlink:href="#DejaVuSerif-64" transform="translate(1855.029297 0)"/>
     <use xlink:href="#DejaVuSerif-20" transform="translate(1919.042969 0)"/>
     <use xlink:href="#DejaVuSerif-70" transform="translate(1950.830078 0)"/>
     <use xlink:href="#DejaVuSerif-61" transform="translate(2014.84375 0)"/>
     <use xlink:href="#DejaVuSerif-69" transform="translate(2074.462891 0)"/>
     <use xlink:href="#DejaVuSerif-72" transform="translate(2106.445312 0)"/>
     <use xlink:href="#DejaVuSerif-73" transform="translate(2154.248047 0)"/>
    </g>
   </g>
   <g id="patch_5">
    <path d="M 85.799107 122.112 
Q 197.461714 122.112 309.124321 122.112 
" style="fill: none; stroke: #777777; stroke-width: 1.4; stroke-linecap: round"/>
    <path d="M 89.399107 123.912 
L 85.799107 122.112 
L 89.399107 120.312 
z
" style="fill: #777777; stroke: #777777; stroke-width: 1.4; stroke-linecap: round"/>
    <path d="M 305.524321 120.312 
L 309.124321 122.112 
L 305.524321 123.912 
z
" style="fill: #777777; stroke: #777777; stroke-width: 1.4; stroke-linecap: round"/>
   </g>
   <g id="text_2">
    <!-- (Eve may listen but cannot alter) -->
    <g style="fill: #777777" transform="translate(134.915273 114.095194) scale(0.075 -0.075)">
     <defs>
      <path id="DejaVuSerif-Italic-28" d="M 1472 -997 
Q 778 -656 534 83 
Q 291 822 506 1931 
Q 722 3044 1253 3783 
Q 1784 4522 2609 4863 
L 2550 4556 
Q 2006 4225 1679 3623 
Q 1353 3022 1141 1931 
Q 928 844 1020 242 
Q 1113 -359 1531 -691 
L 1472 -997 
z
" transform="scale(0.015625)"/>
      <path id="DejaVuSerif-Italic-45" d="M -97 0 
L -34 331 
L 559 331 
L 1338 4331 
L 744 4331 
L 809 4666 
L 4566 4666 
L 4366 3628 
L 3981 3628 
L 4106 4281 
L 1963 4281 
L 1659 2719 
L 3188 2719 
L 3300 3303 
L 3684 3303 
L 3384 1753 
L 3000 1753 
L 3113 2338 
L 1584 2338 
L 1206 384 
L 3400 384 
L 3525 1038 
L 3909 1038 
L 3709 0 
L -97 0 
z
" transform="scale(0.015625)"/>
      <path id="DejaVuSerif-Italic-76" d="M 1681 0 
L 1259 0 
L 619 2988 
L 241 2988 
L 303 3322 
L 1163 3322 
L 1725 703 
Q 2084 1016 2325 1413 
Q 2825 2238 3003 2988 
L 2622 2988 
L 2688 3322 
L 3547 3322 
Q 3206 2034 2775 1313 
Q 2400 688 1681 0 
z
" transform="scale(0.015625)"/>
      <path id="DejaVuSerif-Italic-65" d="M 938 1275 
Q 925 1156 925 1050 
Q 925 756 1031 563 
Q 1216 219 1709 219 
Q 2072 219 2250 328 
Q 2569 525 2644 778 
L 3066 778 
Q 2941 381 2475 103 
Q 2150 -91 1506 -91 
Q 863 -91 516 388 
Q 272 722 272 1206 
Q 272 1419 319 1659 
Q 472 2450 1000 2931 
Q 1528 3413 2278 3413 
Q 3500 3413 3500 2547 
Q 3500 1913 2859 1603 
Q 2206 1288 938 1275 
z
M 2541 1975 
Q 2891 2181 2891 2569 
Q 2891 3103 2181 3103 
Q 1763 3103 1472 2784 
Q 1181 2466 1003 1606 
Q 2006 1653 2541 1975 
z
" transform="scale(0.015625)"/>
      <path id="DejaVuSerif-Italic-20" transform="scale(0.015625)"/>
      <path id="DejaVuSerif-Italic-6d" d="M 3503 2675 
Q 3741 3041 4034 3227 
Q 4328 3413 4672 3413 
Q 5194 3413 5388 3088 
Q 5503 2894 5503 2578 
Q 5503 2372 5453 2113 
L 5106 331 
L 5625 331 
L 5563 0 
L 4469 0 
L 4866 2047 
Q 4913 2291 4913 2466 
Q 4913 2659 4856 2772 
Q 4750 2988 4403 2988 
Q 4019 2988 3761 2697 
Q 3503 2406 3394 1850 
L 3034 0 
L 2459 0 
L 2863 2069 
Q 2906 2303 2906 2472 
Q 2906 2666 2850 2775 
Q 2741 2988 2394 2988 
Q 2009 2988 1751 2697 
Q 1494 2406 1384 1850 
L 1025 0 
L 450 0 
L 1031 2994 
L 481 2994 
L 544 3322 
L 1669 3322 
L 1556 2731 
Q 1778 3063 2059 3238 
Q 2341 3413 2653 3413 
Q 3041 3413 3262 3220 
Q 3484 3028 3503 2675 
z
" transform="scale(0.015625)"/>
      <path id="DejaVuSerif-Italic-61" d="M 2325 519 
Q 1909 -91 1238 -91 
Q 688 -91 409 281 
Q 216 544 216 919 
Q 216 1078 250 1256 
Q 463 2359 1231 2928 
Q 1884 3413 2675 3413 
Q 3206 3413 3388 3322 
L 2806 331 
L 3300 331 
L 3238 0 
L 2225 0 
L 2325 519 
z
M 822 938 
Q 822 269 1469 269 
Q 1863 269 2130 583 
Q 2397 897 2516 1497 
L 2806 3003 
L 2806 3003 
Q 2806 3094 2556 3094 
Q 1956 3094 1491 2625 
Q 1028 2153 863 1297 
Q 822 1097 822 938 
z
" transform="scale(0.015625)"/>
      <path id="DejaVuSerif-Italic-79" d="M 3681 3294 
Q 3372 1506 2828 563 
Q 2031 -822 1391 -1238 
Q 1106 -1422 356 -1422 
Q 209 -1422 60 -1397 
Q -88 -1372 -238 -1325 
L -113 -691 
L 181 -691 
Q 175 -741 175 -788 
Q 175 -919 231 -994 
Q 309 -1100 513 -1100 
Q 1063 -1100 1541 -622 
L 756 2988 
L 378 2988 
L 444 3322 
L 1303 3322 
L 2041 25 
Q 2544 778 2666 1088 
Q 3059 2059 3138 2959 
L 2759 2959 
L 2825 3294 
L 3681 3294 
z
" transform="scale(0.015625)"/>
      <path id="DejaVuSerif-Italic-6c" d="M 903 331 
L 1447 331 
L 1384 0 
L 266 0 
L 1147 4531 
L 594 4531 
L 656 4863 
L 1784 4863 
L 903 331 
z
" transform="scale(0.015625)"/>
      <path id="DejaVuSerif-Italic-69" d="M 1009 4353 
Q 1038 4497 1163 4603 
Q 1288 4709 1434 4709 
Q 1578 4709 1663 4603 
Q 1728 4522 1728 4422 
Q 1728 4388 1719 4353 
Q 1691 4206 1567 4103 
Q 1444 4000 1297 4000 
Q 1150 4000 1066 4103 
Q 1003 4181 1003 4281 
Q 1003 4316 1009 4353 
z
M 963 331 
L 1506 331 
L 1444 0 
L 325 0 
L 903 2988 
L 353 2988 
L 419 3322 
L 1544 3322 
L 963 331 
z
" transform="scale(0.015625)"/>
      <path id="DejaVuSerif-Italic-73" d="M 222 959 
L 553 959 
Q 541 869 541 788 
Q 541 219 1313 219 
Q 2088 219 2200 788 
Q 2209 844 2209 944 
Q 2209 1041 2103 1158 
Q 1997 1275 1550 1428 
L 1159 1569 
Q 759 1706 629 1882 
Q 500 2059 500 2263 
Q 500 2344 516 2438 
Q 606 2894 990 3153 
Q 1375 3413 1931 3413 
Q 2484 3413 3066 3144 
L 2925 2419 
L 2594 2419 
Q 2606 2491 2606 2553 
Q 2606 2781 2448 2942 
Q 2291 3103 1925 3103 
Q 1191 3103 1091 2591 
Q 1078 2538 1078 2444 
Q 1078 2347 1179 2237 
Q 1281 2128 1678 1997 
L 2106 1856 
Q 2550 1709 2716 1488 
Q 2831 1331 2831 1178 
Q 2831 522 2306 181 
Q 1894 -91 1262 -91 
Q 631 -91 72 184 
L 222 959 
z
" transform="scale(0.015625)"/>
      <path id="DejaVuSerif-Italic-74" d="M 856 2988 
L 350 2988 
L 416 3322 
L 922 3322 
L 1122 4353 
L 1700 4353 
L 1500 3322 
L 2581 3322 
L 2516 2988 
L 1434 2988 
L 1025 878 
Q 978 631 978 488 
Q 978 388 1000 338 
Q 1059 219 1278 219 
Q 1503 219 1633 351 
Q 1763 484 1825 781 
L 2259 781 
Q 2147 328 1884 118 
Q 1622 -91 1169 -91 
Q 672 -91 506 131 
Q 406 266 406 516 
Q 406 675 447 878 
L 856 2988 
z
" transform="scale(0.015625)"/>
      <path id="DejaVuSerif-Italic-6e" d="M 450 0 
L 1031 2988 
L 481 2988 
L 544 3322 
L 1669 3322 
L 1556 2731 
Q 1781 3069 2068 3241 
Q 2356 3413 2694 3413 
Q 3244 3413 3444 3097 
Q 3563 2906 3563 2588 
Q 3563 2378 3509 2113 
L 3163 331 
L 3675 331 
L 3613 0 
L 2522 0 
L 2897 1931 
Q 2959 2253 2959 2469 
Q 2959 2659 2909 2769 
Q 2803 2994 2425 2994 
Q 2025 2994 1759 2701 
Q 1494 2409 1384 1850 
L 1025 0 
L 450 0 
z
" transform="scale(0.015625)"/>
      <path id="DejaVuSerif-Italic-62" d="M 1153 4531 
L 600 4531 
L 666 4863 
L 1794 4863 
L 1394 2803 
Q 1622 3116 1912 3264 
Q 2203 3413 2588 3413 
Q 3200 3413 3494 2928 
Q 3688 2609 3688 2163 
Q 3688 1928 3634 1663 
Q 3481 881 3000 395 
Q 2519 -91 1906 -91 
Q 1522 -91 1289 57 
Q 1056 206 950 519 
L 850 0 
L 275 0 
L 1153 4531 
z
M 1141 1497 
Q 1091 1250 1091 1053 
Q 1091 769 1191 581 
Q 1359 269 1797 269 
Q 2238 269 2533 622 
Q 2828 975 2963 1663 
Q 3025 1978 3025 2225 
Q 3025 2513 2938 2703 
Q 2781 3053 2338 3053 
Q 1900 3053 1609 2737 
Q 1319 2422 1203 1825 
L 1141 1497 
z
" transform="scale(0.015625)"/>
      <path id="DejaVuSerif-Italic-75" d="M 3097 3322 
L 3672 3322 
L 3091 331 
L 3634 331 
L 3572 0 
L 2453 0 
L 2566 588 
Q 2341 256 2055 82 
Q 1769 -91 1434 -91 
Q 881 -91 681 225 
Q 559 413 559 734 
Q 559 944 613 1209 
L 956 2988 
L 438 2988 
L 503 3322 
L 1600 3322 
L 1225 1388 
Q 1163 1066 1163 853 
Q 1163 663 1213 556 
Q 1316 331 1697 331 
Q 2097 331 2364 625 
Q 2631 919 2738 1478 
L 3097 3322 
z
" transform="scale(0.015625)"/>
      <path id="DejaVuSerif-Italic-63" d="M 3163 997 
Q 2938 466 2536 187 
Q 2134 -91 1584 -91 
Q 859 -91 513 388 
Q 272 722 272 1203 
Q 272 1419 319 1663 
Q 475 2459 1008 2936 
Q 1541 3413 2266 3413 
Q 2581 3413 2879 3339 
Q 3178 3266 3463 3116 
L 3300 2266 
L 2966 2266 
Q 2966 2309 2966 2347 
Q 2966 2722 2803 2903 
Q 2622 3103 2213 3103 
Q 1747 3103 1439 2742 
Q 1131 2381 991 1663 
Q 928 1334 928 1078 
Q 928 778 1016 581 
Q 1181 219 1650 219 
Q 2022 219 2281 412 
Q 2541 606 2700 997 
L 3163 997 
z
" transform="scale(0.015625)"/>
      <path id="DejaVuSerif-Italic-6f" d="M 1644 219 
Q 2106 219 2414 584 
Q 2722 950 2859 1663 
Q 2922 1988 2922 2241 
Q 2922 2541 2834 2738 
Q 2669 3103 2206 3103 
Q 1744 3103 1436 2739 
Q 1128 2375 991 1663 
Q 928 1338 928 1088 
Q 928 784 1019 584 
Q 1184 219 1644 219 
z
M 1584 -91 
Q 859 -91 513 388 
Q 272 722 272 1203 
Q 272 1419 319 1663 
Q 472 2456 1005 2934 
Q 1538 3413 2266 3413 
Q 2994 3413 3341 2934 
Q 3578 2603 3578 2122 
Q 3578 1906 3531 1663 
Q 3378 869 2845 389 
Q 2313 -91 1584 -91 
z
" transform="scale(0.015625)"/>
      <path id="DejaVuSerif-Italic-72" d="M 3375 3328 
L 3213 2497 
L 2881 2497 
Q 2891 2559 2891 2613 
Q 2891 2775 2816 2866 
Q 2719 2988 2484 2988 
Q 2059 2988 1775 2694 
Q 1491 2400 1384 1850 
L 1025 0 
L 450 0 
L 1031 2994 
L 481 2994 
L 544 3322 
L 1669 3322 
L 1556 2731 
Q 1791 3078 2089 3245 
Q 2388 3413 2769 3413 
Q 2909 3413 3059 3391 
Q 3209 3369 3375 3328 
z
" transform="scale(0.015625)"/>
      <path id="DejaVuSerif-Italic-29" d="M -113 -997 
L -53 -691 
Q 491 -359 819 242 
Q 1147 844 1359 1931 
Q 1572 3022 1478 3623 
Q 1384 4225 966 4556 
L 1025 4863 
Q 1722 4522 1965 3783 
Q 2209 3044 1994 1931 
Q 1778 822 1247 83 
Q 716 -656 -113 -997 
z
" transform="scale(0.015625)"/>
     </defs>
     <use xlink:href="#DejaVuSerif-Italic-28"/>
     <use xlink:href="#DejaVuSerif-Italic-45" transform="translate(39.013672 0)"/>
     <use xlink:href="#DejaVuSerif-Italic-76" transform="translate(112.011719 0)"/>
     <use xlink:href="#DejaVuSerif-Italic-65" transform="translate(168.505859 0)"/>
     <use xlink:href="#DejaVuSerif-Italic-20" transform="translate(227.685547 0)"/>
     <use xlink:href="#DejaVuSerif-Italic-6d" transform="translate(259.472656 0)"/>
     <use xlink:href="#DejaVuSerif-Italic-61" transform="translate(354.296875 0)"/>
     <use xlink:href="#DejaVuSerif-Italic-79" transform="translate(413.916016 0)"/>
     <use xlink:href="#DejaVuSerif-Italic-20" transform="translate(470.410156 0)"/>
     <use xlink:href="#DejaVuSerif-Italic-6c" transform="translate(502.197266 0)"/>
     <use xlink:href="#DejaVuSerif-Italic-69" transform="translate(534.179688 0)"/>
     <use xlink:href="#DejaVuSerif-Italic-73" transform="translate(566.162109 0)"/>
     <use xlink:href="#DejaVuSerif-Italic-74" transform="translate(617.480469 0)"/>
     <use xlink:href="#DejaVuSerif-Italic-65" transform="translate(657.666016 0)"/>
     <use xlink:href="#DejaVuSerif-Italic-6e" transform="translate(716.845703 0)"/>
     <use xlink:href="#DejaVuSerif-Italic-20" transform="translate(781.25 0)"/>
     <use xlink:href="#DejaVuSerif-Italic-62" transform="translate(813.037109 0)"/>
     <use xlink:href="#DejaVuSerif-Italic-75" transform="translate(877.050781 0)"/>
     <use xlink:href="#DejaVuSerif-Italic-74" transform="translate(941.455078 0)"/>
     <use xlink:href="#DejaVuSerif-Italic-20" transform="translate(981.640625 0)"/>
     <use xlink:href="#DejaVuSerif-Italic-63" transform="translate(1013.427734 0)"/>
     <use xlink:href="#DejaVuSerif-Italic-61" transform="translate(1069.433594 0)"/>
     <use xlink:href="#DejaVuSerif-Italic-6e" transform="translate(1129.052734 0)"/>
     <use xlink:href="#DejaVuSerif-Italic-6e" transform="translate(1193.457031 0)"/>
     <use xlink:href="#DejaVuSerif-Italic-6f" transform="translate(1257.861328 0)"/>
     <use xlink:href="#DejaVuSerif-Italic-74" transform="translate(1318.066406 0)"/>
     <use xlink:href="#DejaVuSerif-Italic-20" transform="translate(1358.251953 0)"/>
     <use xlink:href="#DejaVuSerif-Italic-61" transform="translate(1390.039062 0)"/>
     <use xlink:href="#DejaVuSerif-Italic-6c" transform="translate(1449.658203 0)"/>
     <use xlink:href="#DejaVuSerif-Italic-74" transform="translate(1481.640625 0)"/>
     <use xlink:href="#DejaVuSerif-Italic-65" transform="translate(1521.826172 0)"/>
     <use xlink:href="#DejaVuSerif-Italic-72" transform="translate(1581.005859 0)"/>
     <use xlink:href="#DejaVuSerif-Italic-29" transform="translate(1628.808594 0)"/>
    </g>
   </g>
   <g id="text_3">
    <!-- Authenticated classical channel:  sifting, reconciliation, parameter estimation -->
    <g style="fill: #777777" transform="translate(29.64543 137.743472) scale(0.085 -0.085)">
     <defs>
      <path id="DejaVuSerif-41" d="M 1281 1691 
L 2994 1691 
L 2138 3909 
L 1281 1691 
z
M -38 0 
L -38 331 
L 372 331 
L 2034 4666 
L 2559 4666 
L 4225 331 
L 4684 331 
L 4684 0 
L 2988 0 
L 2988 331 
L 3506 331 
L 3116 1356 
L 1153 1356 
L 763 331 
L 1275 331 
L 1275 0 
L -38 0 
z
" transform="scale(0.015625)"/>
      <path id="DejaVuSerif-66" d="M 2753 4078 
L 2450 4078 
Q 2447 4313 2317 4434 
Q 2188 4556 1941 4556 
Q 1619 4556 1487 4379 
Q 1356 4203 1356 3750 
L 1356 3322 
L 2284 3322 
L 2284 2988 
L 1356 2988 
L 1356 331 
L 2094 331 
L 2094 0 
L 231 0 
L 231 331 
L 781 331 
L 781 2988 
L 231 2988 
L 231 3322 
L 781 3322 
L 781 3738 
Q 781 4294 1070 4578 
Q 1359 4863 1919 4863 
Q 2128 4863 2337 4825 
Q 2547 4788 2753 4709 
L 2753 4078 
z
" transform="scale(0.015625)"/>
      <path id="DejaVuSerif-2c" d="M 231 -622 
Q 525 -406 662 -114 
Q 800 178 800 594 
L 800 709 
L 1416 709 
Q 1391 175 1164 -208 
Q 938 -591 481 -872 
L 231 -622 
z
" transform="scale(0.015625)"/>
      <path id="DejaVuSerif-6f" d="M 1925 219 
Q 2388 219 2623 584 
Q 2859 950 2859 1663 
Q 2859 2375 2623 2739 
Q 2388 3103 1925 3103 
Q 1463 3103 1227 2739 
Q 991 2375 991 1663 
Q 991 950 1228 584 
Q 1466 219 1925 219 
z
M 1925 -91 
Q 1200 -91 759 389 
Q 319 869 319 1663 
Q 319 2456 758 2934 
Q 1197 3413 1925 3413 
Q 2653 3413 3092 2934 
Q 3531 2456 3531 1663 
Q 3531 869 3092 389 
Q 2653 -91 1925 -91 
z
" transform="scale(0.015625)"/>
     </defs>
     <use xlink:href="#DejaVuSerif-41"/>
     <use xlink:href="#DejaVuSerif-75" transform="translate(72.216797 0)"/>
     <use xlink:href="#DejaVuSerif-74" transform="translate(136.621094 0)"/>
     <use xlink:href="#DejaVuSerif-68" transform="translate(176.806641 0)"/>
     <use xlink:href="#DejaVuSerif-65" transform="translate(241.210938 0)"/>
     <use xlink:href="#DejaVuSerif-6e" transform="translate(300.390625 0)"/>
     <use xlink:href="#DejaVuSerif-74" transform="translate(364.794922 0)"/>
     <use xlink:href="#DejaVuSerif-69" transform="translate(404.980469 0)"/>
     <use xlink:href="#DejaVuSerif-63" transform="translate(436.962891 0)"/>
     <use xlink:href="#DejaVuSerif-61" transform="translate(492.96875 0)"/>
     <use xlink:href="#DejaVuSerif-74" transform="translate(552.587891 0)"/>
     <use xlink:href="#DejaVuSerif-65" transform="translate(592.773438 0)"/>
     <use xlink:href="#DejaVuSerif-64" transform="translate(651.953125 0)"/>
     <use xlink:href="#DejaVuSerif-20" transform="translate(715.966797 0)"/>
     <use xlink:href="#DejaVuSerif-63" transform="translate(747.753906 0)"/>
     <use xlink:href="#DejaVuSerif-6c" transform="translate(803.759766 0)"/>
     <use xlink:href="#DejaVuSerif-61" transform="translate(835.742188 0)"/>
     <use xlink:href="#DejaVuSerif-73" transform="translate(895.361328 0)"/>
     <use xlink:href="#DejaVuSerif-73" transform="translate(946.679688 0)"/>
     <use xlink:href="#DejaVuSerif-69" transform="translate(997.998047 0)"/>
     <use xlink:href="#DejaVuSerif-63" transform="translate(1029.980469 0)"/>
     <use xlink:href="#DejaVuSerif-61" transform="translate(1085.986328 0)"/>
     <use xlink:href="#DejaVuSerif-6c" transform="translate(1145.605469 0)"/>
     <use xlink:href="#DejaVuSerif-20" transform="translate(1177.587891 0)"/>
     <use xlink:href="#DejaVuSerif-63" transform="translate(1209.375 0)"/>
     <use xlink:href="#DejaVuSerif-68" transform="translate(1265.380859 0)"/>
     <use xlink:href="#DejaVuSerif-61" transform="translate(1329.785156 0)"/>
     <use xlink:href="#DejaVuSerif-6e" transform="translate(1389.404297 0)"/>
     <use xlink:href="#DejaVuSerif-6e" transform="translate(1453.808594 0)"/>
     <use xlink:href="#DejaVuSerif-65" transform="translate(1518.212891 0)"/>
     <use xlink:href="#DejaVuSerif-6c" transform="translate(1577.392578 0)"/>
     <use xlink:href="#DejaVuSerif-3a" transform="translate(1609.375 0)"/>
     <use xlink:href="#DejaVuSerif-20" transform="translate(1643.066406 0)"/>
     <use xlink:href="#DejaVuSerif-20" transform="translate(1674.853516 0)"/>
     <use xlink:href="#DejaVuSerif-73" transform="translate(1706.640625 0)"/>
     <use xlink:href="#DejaVuSerif-69" transform="translate(1757.958984 0)"/>
     <use xlink:href="#DejaVuSerif-66" transform="translate(1789.941406 0)"/>
     <use xlink:href="#DejaVuSerif-74" transform="translate(1826.953125 0)"/>
     <use xlink:href="#DejaVuSerif-69" transform="translate(1867.138672 0)"/>
     <use xlink:href="#DejaVuSerif-6e" transform="translate(1899.121094 0)"/>
     <use xlink:href="#DejaVuSerif-67" transform="translate(1963.525391 0)"/>
     <use xlink:href="#DejaVuSerif-2c" transform="translate(2027.539062 0)"/>
     <use xlink:href="#DejaVuSerif-20" transform="translate(2059.326172 0)"/>
     <use xlink:href="#DejaVuSerif-72" transform="translate(2091.113281 0)"/>
     <use xlink:href="#DejaVuSerif-65" transform="translate(2138.916016 0)"/>
     <use xlink:href="#DejaVuSerif-63" transform="translate(2198.095703 0)"/>
     <use xlink:href="#DejaVuSerif-6f" transform="translate(2254.101562 0)"/>
     <use xlink:href="#DejaVuSerif-6e" transform="translate(2314.306641 0)"/>
     <use xlink:href="#DejaVuSerif-63" transform="translate(2378.710938 0)"/>
     <use xlink:href="#DejaVuSerif-69" transform="translate(2434.716797 0)"/>
     <use xlink:href="#DejaVuSerif-6c" transform="translate(2466.699219 0)"/>
     <use xlink:href="#DejaVuSerif-69" transform="translate(2498.681641 0)"/>
     <use xlink:href="#DejaVuSerif-61" transform="translate(2530.664062 0)"/>
     <use xlink:href="#DejaVuSerif-74" transform="translate(2590.283203 0)"/>
     <use xlink:href="#DejaVuSerif-69" transform="translate(2630.46875 0)"/>
     <use xlink:href="#DejaVuSerif-6f" transform="translate(2662.451172 0)"/>
     <use xlink:href="#DejaVuSerif-6e" transform="translate(2722.65625 0)"/>
     <use xlink:href="#DejaVuSerif-2c" transform="translate(2787.060547 0)"/>
     <use xlink:href="#DejaVuSerif-20" transform="translate(2818.847656 0)"/>
     <use xlink:href="#DejaVuSerif-70" transform="translate(2850.634766 0)"/>
     <use xlink:href="#DejaVuSerif-61" transform="translate(2914.648438 0)"/>
     <use xlink:href="#DejaVuSerif-72" transform="translate(2974.267578 0)"/>
     <use xlink:href="#DejaVuSerif-61" transform="translate(3022.070312 0)"/>
     <use xlink:href="#DejaVuSerif-6d" transform="translate(3081.689453 0)"/>
     <use xlink:href="#DejaVuSerif-65" transform="translate(3176.513672 0)"/>
     <use xlink:href="#DejaVuSerif-74" transform="translate(3235.693359 0)"/>
     <use xlink:href="#DejaVuSerif-65" transform="translate(3275.878906 0)"/>
     <use xlink:href="#DejaVuSerif-72" transform="translate(3335.058594 0)"/>
     <use xlink:href="#DejaVuSerif-20" transform="translate(3382.861328 0)"/>
     <use xlink:href="#DejaVuSerif-65" transform="translate(3414.648438 0)"/>
     <use xlink:href="#DejaVuSerif-73" transform="translate(3473.828125 0)"/>
     <use xlink:href="#DejaVuSerif-74" transform="translate(3525.146484 0)"/>
     <use xlink:href="#DejaVuSerif-69" transform="translate(3565.332031 0)"/>
     <use xlink:href="#DejaVuSerif-6d" transform="translate(3597.314453 0)"/>
     <use xlink:href="#DejaVuSerif-61" transform="translate(3692.138672 0)"/>
     <use xlink:href="#DejaVuSerif-74" transform="translate(3751.757812 0)"/>
     <use xlink:href="#DejaVuSerif-69" transform="translate(3791.943359 0)"/>
     <use xlink:href="#DejaVuSerif-6f" transform="translate(3823.925781 0)"/>
     <use xlink:href="#DejaVuSerif-6e" transform="translate(3884.130859 0)"/>
    </g>
   </g>
   <g id="text_4">
    <!-- Alice -->
    <g transform="translate(35.206375 89.867312) scale(0.11 -0.11)">
     <use xlink:href="#DejaVuSerif-41"/>
     <use xlink:href="#DejaVuSerif-6c" transform="translate(72.216797 0)"/>
     <use xlink:href="#DejaVuSerif-69" transform="translate(104.199219 0)"/>
     <use xlink:href="#DejaVuSerif-63" transform="translate(136.181641 0)"/>
     <use xlink:href="#DejaVuSerif-65" transform="translate(192.1875 0)"/>
    </g>
   </g>
   <g id="text_5">
    <!-- Bob -->
    <g transform="translate(335.014328 89.867312) scale(0.11 -0.11)">
     <defs>
      <path id="DejaVuSerif-42" d="M 1581 331 
L 2516 331 
Q 3078 331 3337 575 
Q 3597 819 3597 1350 
Q 3597 1878 3339 2120 
Q 3081 2363 2516 2363 
L 1581 2363 
L 1581 331 
z
M 1581 2694 
L 2375 2694 
Q 2888 2694 3123 2891 
Q 3359 3088 3359 3513 
Q 3359 3941 3123 4136 
Q 2888 4331 2375 4331 
L 1581 4331 
L 1581 2694 
z
M 353 0 
L 353 331 
L 947 331 
L 947 4331 
L 353 4331 
L 353 4666 
L 2656 4666 
Q 3363 4666 3720 4377 
Q 4078 4088 4078 3513 
Q 4078 3097 3829 2850 
Q 3581 2603 3103 2547 
Q 3697 2472 4005 2167 
Q 4313 1863 4313 1350 
Q 4313 656 3875 328 
Q 3438 0 2509 0 
L 353 0 
z
" transform="scale(0.015625)"/>
     </defs>
     <use xlink:href="#DejaVuSerif-42"/>
     <use xlink:href="#DejaVuSerif-6f" transform="translate(73.486328 0)"/>
     <use xlink:href="#DejaVuSerif-62" transform="translate(133.691406 0)"/>
    </g>
   </g>
   <g id="patch_6">
    <path d="M 167.3838 65.664 
L 227.5362 65.664 
Q 231.4422 65.664 231.4422 62.136 
L 231.4422 40.2624 
Q 231.4422 36.7344 227.5362 36.7344 
L 167.3838 36.7344 
Q 163.4778 36.7344 163.4778 40.2624 
L 163.4778 62.136 
Q 163.4778 65.664 167.3838 65.664 
z
" clip-path="url(#p3e3c647915)" style="fill: #ffffff; stroke: #c2452d; stroke-width: 1.3; stroke-linejoin: miter"/>
   </g>
   <g id="text_6">
    <!-- Eve -->
    <g style="fill: #c2452d" transform="translate(188.025625 50.077775) scale(0.1 -0.1)">
     <defs>
      <path id="DejaVuSerif-45" d="M 353 0 
L 353 331 
L 947 331 
L 947 4331 
L 353 4331 
L 353 4666 
L 4109 4666 
L 4109 3628 
L 3725 3628 
L 3725 4281 
L 1581 4281 
L 1581 2719 
L 3109 2719 
L 3109 3303 
L 3494 3303 
L 3494 1753 
L 3109 1753 
L 3109 2338 
L 1581 2338 
L 1581 384 
L 3775 384 
L 3775 1038 
L 4159 1038 
L 4159 0 
L 353 0 
z
" transform="scale(0.015625)"/>
      <path id="DejaVuSerif-76" d="M 1581 0 
L 359 2988 
L -19 2988 
L -19 3322 
L 1509 3322 
L 1509 2988 
L 978 2988 
L 1913 703 
L 2847 2988 
L 2350 2988 
L 2350 3322 
L 3597 3322 
L 3597 2988 
L 3225 2988 
L 2003 0 
L 1581 0 
z
" transform="scale(0.015625)"/>
     </defs>
     <use xlink:href="#DejaVuSerif-45"/>
     <use xlink:href="#DejaVuSerif-76" transform="translate(72.998047 0)"/>
     <use xlink:href="#DejaVuSerif-65" transform="translate(129.492188 0)"/>
    </g>
   </g>
   <g id="text_7">
    <!-- intercept–resend, fraction $f$ -->
    <g style="fill: #c2452d" transform="translate(141.42 76.6832) scale(0.08 -0.08)">
     <defs>
      <path id="DejaVuSerif-2013" d="M 281 1906 
L 2919 1906 
L 2919 1491 
L 281 1491 
L 281 1906 
z
" transform="scale(0.015625)"/>
      <path id="Cmmi10-66" d="M 622 -1056 
Q 741 -1147 909 -1147 
Q 1138 -1147 1281 -641 
Q 1341 -397 1606 966 
L 1900 2534 
L 1350 2534 
Q 1288 2534 1288 2619 
Q 1313 2759 1369 2759 
L 1941 2759 
L 2016 3175 
Q 2053 3369 2084 3508 
Q 2116 3647 2152 3765 
Q 2188 3884 2259 4031 
Q 2369 4241 2555 4377 
Q 2741 4513 2956 4513 
Q 3097 4513 3230 4461 
Q 3363 4409 3447 4306 
Q 3531 4203 3531 4063 
Q 3531 3900 3423 3779 
Q 3316 3659 3163 3659 
Q 3059 3659 2986 3723 
Q 2913 3788 2913 3891 
Q 2913 4031 3008 4136 
Q 3103 4241 3244 4256 
Q 3125 4347 2950 4347 
Q 2853 4347 2767 4256 
Q 2681 4166 2656 4063 
Q 2616 3900 2478 3181 
L 2400 2759 
L 3059 2759 
Q 3122 2759 3122 2675 
Q 3119 2659 3109 2620 
Q 3100 2581 3083 2557 
Q 3066 2534 3041 2534 
L 2356 2534 
L 2059 972 
Q 2003 631 1929 279 
Q 1856 -72 1723 -442 
Q 1591 -813 1384 -1063 
Q 1178 -1313 897 -1313 
Q 681 -1313 511 -1189 
Q 341 -1066 341 -863 
Q 341 -700 445 -579 
Q 550 -459 709 -459 
Q 816 -459 887 -523 
Q 959 -588 959 -691 
Q 959 -828 857 -942 
Q 756 -1056 622 -1056 
z
" transform="scale(0.015625)"/>
     </defs>
     <use xlink:href="#DejaVuSerif-69" transform="translate(0 0.015625)"/>
     <use xlink:href="#DejaVuSerif-6e" transform="translate(31.982422 0.015625)"/>
     <use xlink:href="#DejaVuSerif-74" transform="translate(96.386719 0.015625)"/>
     <use xlink:href="#DejaVuSerif-65" transform="translate(136.572266 0.015625)"/>
     <use xlink:href="#DejaVuSerif-72" transform="translate(195.751953 0.015625)"/>
     <use xlink:href="#DejaVuSerif-63" transform="translate(243.554688 0.015625)"/>
     <use xlink:href="#DejaVuSerif-65" transform="translate(299.560547 0.015625)"/>
     <use xlink:href="#DejaVuSerif-70" transform="translate(358.740234 0.015625)"/>
     <use xlink:href="#DejaVuSerif-74" transform="translate(422.753906 0.015625)"/>
     <use xlink:href="#DejaVuSerif-2013" transform="translate(462.939453 0.015625)"/>
     <use xlink:href="#DejaVuSerif-72" transform="translate(512.939453 0.015625)"/>
     <use xlink:href="#DejaVuSerif-65" transform="translate(560.742188 0.015625)"/>
     <use xlink:href="#DejaVuSerif-73" transform="translate(619.921875 0.015625)"/>
     <use xlink:href="#DejaVuSerif-65" transform="translate(671.240234 0.015625)"/>
     <use xlink:href="#DejaVuSerif-6e" transform="translate(730.419922 0.015625)"/>
     <use xlink:href="#DejaVuSerif-64" transform="translate(794.824219 0.015625)"/>
     <use xlink:href="#DejaVuSerif-2c" transform="translate(858.837891 0.015625)"/>
     <use xlink:href="#DejaVuSerif-20" transform="translate(890.625 0.015625)"/>
     <use xlink:href="#DejaVuSerif-66" transform="translate(922.412109 0.015625)"/>
     <use xlink:href="#DejaVuSerif-72" transform="translate(959.423828 0.015625)"/>
     <use xlink:href="#DejaVuSerif-61" transform="translate(1007.226562 0.015625)"/>
     <use xlink:href="#DejaVuSerif-63" transform="translate(1066.845703 0.015625)"/>
     <use xlink:href="#DejaVuSerif-74" transform="translate(1122.851562 0.015625)"/>
     <use xlink:href="#DejaVuSerif-69" transform="translate(1163.037109 0.015625)"/>
     <use xlink:href="#DejaVuSerif-6f" transform="translate(1195.019531 0.015625)"/>
     <use xlink:href="#DejaVuSerif-6e" transform="translate(1255.224609 0.015625)"/>
     <use xlink:href="#DejaVuSerif-20" transform="translate(1319.628906 0.015625)"/>
     <use xlink:href="#Cmmi10-66" transform="translate(1351.416016 0.015625)"/>
    </g>
   </g>
  </g>
 </g>
 <defs>
  <clipPath id="p3e3c647915">
   <rect x="2.16" y="2.16" width="390.6" height="155.232"/>
  </clipPath>
 </defs>
</svg>
