<?xml version="1.0" encoding="utf-8" standalone="no"?>
<!DOCTYPE svg PUBLIC "-//W3C//DTD SVG 1.1//EN"
  "http://www.w3.org/Graphics/SVG/1.1/DTD/svg11.dtd">
<svg xmlns:xlink="http://www.w3.org/1999/xlink" width="422.82pt" height="145.692pt" viewBox="0 0 422.82 145.692" xmlns="http://www.w3.org/2000/svg" version="1.1">
 <metadata>
  <rdf:RDF xmlns:dc="http://purl.org/dc/elements/1.1/" xmlns:cc="http://creativecommons.org/ns#" xmlns:rdf="http://www.w3.org/1999/02/22-rdf-syntax-ns#">
   <cc:Work>
    <dc:type rdf:resource="http://purl.org/dc/dcmitype/StillImage"/>
    <dc:date>2026-06-13T15:30:17.705038</dc:date>
    <dc:format>image/svg+xml</dc:format>
    <dc:creator>
     <cc:Agent>
      <dc:title>Matplotlib v3.10.9, https://matplotlib.org/</dc:title>
     </cc:Agent>
    </dc:creator>
   </cc:Work>
  </rdf:RDF>
 </metadata>
 <defs>
  <style type="text/css">*{stroke-linejoin: round; stroke-linecap: butt}</style>
 </defs>
 <g id="figure_1">
  <g id="patch_1">
   <path d="M 0 145.692 
L 422.82 145.692 
L 422.82 0 
L 0 0 
z
" style="fill: #ffffff"/>
  </g>
  <g id="axes_1">
   <g id="patch_2">
    <path d="M 7.512907 89.245152 
L 57.635581 89.245152 
Q 60.068721 89.245152 60.068721 86.417712 
L 60.068721 62.101728 
Q 60.068721 59.274288 57.635581 59.274288 
L 7.512907 59.274288 
Q 5.079767 59.274288 5.079767 62.101728 
L 5.079767 86.417712 
Q 5.079767 89.245152 7.512907 89.245152 
z
" clip-path="url(#pe856c0b59a)" style="fill: #ffffff; stroke: #1a1a1a; stroke-width: 1.2; stroke-linejoin: miter"/>
   </g>
   <g id="patch_3">
    <path d="M 67.124826 56.164104 
L 117.2475 56.164104 
Q 119.68064 56.164104 119.68064 53.336664 
L 119.68064 32.979096 
Q 119.68064 30.151656 117.2475 30.151656 
L 67.124826 30.151656 
Q 64.691686 30.151656 64.691686 32.979096 
L 64.691686 53.336664 
Q 64.691686 56.164104 67.124826 56.164104 
z
" clip-path="url(#pe856c0b59a)" style="fill: #ffffff; stroke: #2c6fbb; stroke-width: 1.2; stroke-linejoin: miter"/>
   </g>
   <g id="patch_4">
    <path d="M 67.124826 118.367784 
L 117.2475 118.367784 
Q 119.68064 118.367784 119.68064 115.540344 
L 119.68064 95.182776 
Q 119.68064 92.355336 117.2475 92.355336 
L 67.124826 92.355336 
Q 64.691686 92.355336 64.691686 95.182776 
L 64.691686 115.540344 
Q 64.691686 118.367784 67.124826 118.367784 
z
" clip-path="url(#pe856c0b59a)" style="fill: #ffffff; stroke: #2c6fbb; stroke-width: 1.2; stroke-linejoin: miter"/>
   </g>
   <g id="text_1">
    <!-- Noise injection -->
    <g style="fill: #777777" transform="translate(64.77835 16.2972) scale(0.072 -0.072)">
     <defs>
      <path id="DejaVuSerif-4e" d="M 313 0 
L 313 331 
L 941 331 
L 941 4331 
L 313 4331 
L 313 4666 
L 1509 4666 
L 4306 984 
L 4306 4331 
L 3681 4331 
L 3681 4666 
L 5319 4666 
L 5319 4331 
L 4691 4331 
L 4691 -91 
L 4313 -91 
L 1325 3841 
L 1325 331 
L 1953 331 
L 1953 0 
L 313 0 
z
" transform="scale(0.015625)"/>
      <path id="DejaVuSerif-6f" d="M 1925 219 
Q 2388 219 2623 584 
Q 2859 950 2859 1663 
Q 2859 2375 2623 2739 
Q 2388 3103 1925 3103 
Q 1463 3103 1227 2739 
Q 991 2375 991 1663 
Q 991 950 1228 584 
Q 1466 219 1925 219 
z
M 1925 -91 
Q 1200 -91 759 389 
Q 319 869 319 1663 
Q 319 2456 758 2934 
Q 1197 3413 1925 3413 
Q 2653 3413 3092 2934 
Q 3531 2456 3531 1663 
Q 3531 869 3092 389 
Q 2653 -91 1925 -91 
z
" transform="scale(0.015625)"/>
      <path id="DejaVuSerif-69" d="M 622 4353 
Q 622 4497 726 4603 
Q 831 4709 978 4709 
Q 1122 4709 1226 4603 
Q 1331 4497 1331 4353 
Q 1331 4206 1228 4103 
Q 1125 4000 978 4000 
Q 831 4000 726 4103 
Q 622 4206 622 4353 
z
M 1356 331 
L 1900 331 
L 1900 0 
L 231 0 
L 231 331 
L 781 331 
L 781 2988 
L 231 2988 
L 231 3322 
L 1356 3322 
L 1356 331 
z
" transform="scale(0.015625)"/>
      <path id="DejaVuSerif-73" d="M 359 184 
L 359 959 
L 691 959 
Q 703 588 923 403 
Q 1144 219 1575 219 
Q 1963 219 2166 364 
Q 2369 509 2369 788 
Q 2369 1006 2220 1140 
Q 2072 1275 1594 1428 
L 1178 1569 
Q 750 1706 558 1912 
Q 366 2119 366 2438 
Q 366 2894 700 3153 
Q 1034 3413 1625 3413 
Q 1888 3413 2178 3344 
Q 2469 3275 2778 3144 
L 2778 2419 
L 2447 2419 
Q 2434 2741 2221 2922 
Q 2009 3103 1644 3103 
Q 1281 3103 1095 2975 
Q 909 2847 909 2591 
Q 909 2381 1050 2254 
Q 1191 2128 1613 1997 
L 2069 1856 
Q 2541 1709 2748 1489 
Q 2956 1269 2956 922 
Q 2956 450 2595 179 
Q 2234 -91 1600 -91 
Q 1278 -91 972 -22 
Q 666 47 359 184 
z
" transform="scale(0.015625)"/>
      <path id="DejaVuSerif-65" d="M 3469 1600 
L 991 1600 
L 991 1575 
Q 991 903 1244 561 
Q 1497 219 1991 219 
Q 2369 219 2611 417 
Q 2853 616 2950 1006 
L 3413 1006 
Q 3275 459 2904 184 
Q 2534 -91 1931 -91 
Q 1203 -91 761 389 
Q 319 869 319 1663 
Q 319 2450 753 2931 
Q 1188 3413 1894 3413 
Q 2647 3413 3050 2948 
Q 3453 2484 3469 1600 
z
M 2791 1931 
Q 2772 2513 2545 2808 
Q 2319 3103 1894 3103 
Q 1497 3103 1269 2806 
Q 1041 2509 991 1931 
L 2791 1931 
z
" transform="scale(0.015625)"/>
      <path id="DejaVuSerif-20" transform="scale(0.015625)"/>
      <path id="DejaVuSerif-6e" d="M 263 0 
L 263 331 
L 781 331 
L 781 2988 
L 231 2988 
L 231 3322 
L 1356 3322 
L 1356 2731 
Q 1516 3069 1770 3241 
Q 2025 3413 2363 3413 
Q 2913 3413 3172 3097 
Q 3431 2781 3431 2113 
L 3431 331 
L 3944 331 
L 3944 0 
L 2356 0 
L 2356 331 
L 2853 331 
L 2853 1931 
Q 2853 2541 2703 2767 
Q 2553 2994 2175 2994 
Q 1775 2994 1565 2701 
Q 1356 2409 1356 1850 
L 1356 331 
L 1856 331 
L 1856 0 
L 263 0 
z
" transform="scale(0.015625)"/>
      <path id="DejaVuSerif-6a" d="M 641 4353 
Q 641 4497 745 4603 
Q 850 4709 997 4709 
Q 1141 4709 1245 4603 
Q 1350 4497 1350 4353 
Q 1350 4206 1248 4103 
Q 1147 4000 997 4000 
Q 850 4000 745 4103 
Q 641 4206 641 4353 
z
M 781 2988 
L 238 2988 
L 238 3322 
L 1356 3322 
L 1356 -325 
Q 1356 -838 1051 -1130 
Q 747 -1422 213 -1422 
Q -13 -1422 -217 -1370 
Q -422 -1319 -616 -1216 
L -616 -531 
L -319 -531 
Q -297 -831 -164 -972 
Q -31 -1113 225 -1113 
Q 509 -1113 645 -920 
Q 781 -728 781 -325 
L 781 2988 
z
" transform="scale(0.015625)"/>
      <path id="DejaVuSerif-63" d="M 3291 997 
Q 3169 466 2822 187 
Q 2475 -91 1925 -91 
Q 1200 -91 759 389 
Q 319 869 319 1663 
Q 319 2459 759 2936 
Q 1200 3413 1925 3413 
Q 2241 3413 2553 3339 
Q 2866 3266 3181 3116 
L 3181 2266 
L 2847 2266 
Q 2781 2703 2561 2903 
Q 2341 3103 1931 3103 
Q 1466 3103 1228 2742 
Q 991 2381 991 1663 
Q 991 944 1227 581 
Q 1463 219 1931 219 
Q 2303 219 2525 412 
Q 2747 606 2828 997 
L 3291 997 
z
" transform="scale(0.015625)"/>
      <path id="DejaVuSerif-74" d="M 691 2988 
L 184 2988 
L 184 3322 
L 691 3322 
L 691 4353 
L 1269 4353 
L 1269 3322 
L 2350 3322 
L 2350 2988 
L 1269 2988 
L 1269 878 
Q 1269 456 1350 337 
Q 1431 219 1650 219 
Q 1875 219 1978 351 
Q 2081 484 2088 781 
L 2522 781 
Q 2497 328 2275 118 
Q 2053 -91 1600 -91 
Q 1103 -91 897 129 
Q 691 350 691 878 
L 691 2988 
z
" transform="scale(0.015625)"/>
     </defs>
     <use xlink:href="#DejaVuSerif-4e"/>
     <use xlink:href="#DejaVuSerif-6f" transform="translate(87.5 0)"/>
     <use xlink:href="#DejaVuSerif-69" transform="translate(147.705078 0)"/>
     <use xlink:href="#DejaVuSerif-73" transform="translate(179.6875 0)"/>
     <use xlink:href="#DejaVuSerif-65" transform="translate(231.005859 0)"/>
     <use xlink:href="#DejaVuSerif-20" transform="translate(290.185547 0)"/>
     <use xlink:href="#DejaVuSerif-69" transform="translate(321.972656 0)"/>
     <use xlink:href="#DejaVuSerif-6e" transform="translate(353.955078 0)"/>
     <use xlink:href="#DejaVuSerif-6a" transform="translate(418.359375 0)"/>
     <use xlink:href="#DejaVuSerif-65" transform="translate(449.365234 0)"/>
     <use xlink:href="#DejaVuSerif-63" transform="translate(508.544922 0)"/>
     <use xlink:href="#DejaVuSerif-74" transform="translate(564.550781 0)"/>
     <use xlink:href="#DejaVuSerif-69" transform="translate(604.736328 0)"/>
     <use xlink:href="#DejaVuSerif-6f" transform="translate(636.71875 0)"/>
     <use xlink:href="#DejaVuSerif-6e" transform="translate(696.923828 0)"/>
    </g>
   </g>
   <g id="patch_5">
    <path d="M 126.736744 89.245152 
L 176.859419 89.245152 
Q 179.292558 89.245152 179.292558 86.417712 
L 179.292558 62.101728 
Q 179.292558 59.274288 176.859419 59.274288 
L 126.736744 59.274288 
Q 124.303605 59.274288 124.303605 62.101728 
L 124.303605 86.417712 
Q 124.303605 89.245152 126.736744 89.245152 
z
" clip-path="url(#pe856c0b59a)" style="fill: #ffffff; stroke: #c2452d; stroke-width: 1.2; stroke-linejoin: miter"/>
   </g>
   <g id="patch_6">
    <path d="M 181.482384 89.245152 
L 231.605058 89.245152 
Q 234.038198 89.245152 234.038198 86.417712 
L 234.038198 62.101728 
Q 234.038198 59.274288 231.605058 59.274288 
L 181.482384 59.274288 
Q 179.049244 59.274288 179.049244 62.101728 
L 179.049244 86.417712 
Q 179.049244 89.245152 181.482384 89.245152 
z
" clip-path="url(#pe856c0b59a)" style="fill: #ffffff; stroke: #1a1a1a; stroke-width: 1.2; stroke-linejoin: miter"/>
   </g>
   <g id="patch_7">
    <path d="M 236.228023 89.245152 
L 286.350698 89.245152 
Q 288.783837 89.245152 288.783837 86.417712 
L 288.783837 62.101728 
Q 288.783837 59.274288 286.350698 59.274288 
L 236.228023 59.274288 
Q 233.794884 59.274288 233.794884 62.101728 
L 233.794884 86.417712 
Q 233.794884 89.245152 236.228023 89.245152 
z
" clip-path="url(#pe856c0b59a)" style="fill: #ffffff; stroke: #1a1a1a; stroke-width: 1.2; stroke-linejoin: miter"/>
   </g>
   <g id="patch_8">
    <path d="M 290.973663 89.245152 
L 341.096337 89.245152 
Q 343.529477 89.245152 343.529477 86.417712 
L 343.529477 62.101728 
Q 343.529477 59.274288 341.096337 59.274288 
L 290.973663 59.274288 
Q 288.540523 59.274288 288.540523 62.101728 
L 288.540523 86.417712 
Q 288.540523 89.245152 290.973663 89.245152 
z
" clip-path="url(#pe856c0b59a)" style="fill: #ffffff; stroke: #1a1a1a; stroke-width: 1.2; stroke-linejoin: miter"/>
   </g>
   <g id="patch_9">
    <path d="M 346.935872 89.245152 
L 406.791105 89.245152 
Q 409.224244 89.245152 409.224244 86.417712 
L 409.224244 62.101728 
Q 409.224244 59.274288 406.791105 59.274288 
L 346.935872 59.274288 
Q 344.502733 59.274288 344.502733 62.101728 
L 344.502733 86.417712 
Q 344.502733 89.245152 346.935872 89.245152 
z
" clip-path="url(#pe856c0b59a)" style="fill: #ffffff; stroke: #1a1a1a; stroke-width: 1.2; stroke-linejoin: miter"/>
   </g>
   <g id="patch_10">
    <path d="M 59.72267 72.296872 
Q 62.380491 58.707331 64.759335 46.544209 
" style="fill: none; stroke: #1a1a1a; stroke-width: 1.3; stroke-linecap: round"/>
    <path d="M 62.301813 49.731777 
L 64.759335 46.544209 
L 65.834875 50.422768 
z
" style="fill: #1a1a1a; stroke: #1a1a1a; stroke-width: 1.3; stroke-linecap: round"/>
   </g>
   <g id="patch_11">
    <path d="M 59.72267 76.222568 
Q 62.380491 89.812109 64.759335 101.975231 
" style="fill: none; stroke: #1a1a1a; stroke-width: 1.3; stroke-linecap: round"/>
    <path d="M 65.834875 98.096672 
L 64.759335 101.975231 
L 62.301813 98.787663 
z
" style="fill: #1a1a1a; stroke: #1a1a1a; stroke-width: 1.3; stroke-linecap: round"/>
   </g>
   <g id="patch_12">
    <path d="M 119.334588 45.120728 
Q 121.992409 58.710269 124.371254 70.873391 
" style="fill: none; stroke: #1a1a1a; stroke-width: 1.3; stroke-linecap: round"/>
    <path d="M 125.446794 66.994832 
L 124.371254 70.873391 
L 121.913731 67.685823 
z
" style="fill: #1a1a1a; stroke: #1a1a1a; stroke-width: 1.3; stroke-linecap: round"/>
   </g>
   <g id="patch_13">
    <path d="M 119.334588 103.398712 
Q 121.992409 89.809171 124.371254 77.646049 
" style="fill: none; stroke: #1a1a1a; stroke-width: 1.3; stroke-linecap: round"/>
    <path d="M 121.913731 80.833617 
L 124.371254 77.646049 
L 125.446794 81.524608 
z
" style="fill: #1a1a1a; stroke: #1a1a1a; stroke-width: 1.3; stroke-linecap: round"/>
   </g>
   <g id="patch_14">
    <path d="M 178.562616 74.25972 
Q 179.170901 74.25972 178.325742 74.25972 
" style="fill: none; stroke: #1a1a1a; stroke-width: 1.3; stroke-linecap: round"/>
    <path d="M 174.725742 72.45972 
L 178.325742 74.25972 
L 174.725742 76.05972 
z
" style="fill: #1a1a1a; stroke: #1a1a1a; stroke-width: 1.3; stroke-linecap: round"/>
   </g>
   <g id="patch_15">
    <path d="M 233.308256 74.25972 
Q 233.916541 74.25972 233.071381 74.25972 
" style="fill: none; stroke: #1a1a1a; stroke-width: 1.3; stroke-linecap: round"/>
    <path d="M 229.471381 72.45972 
L 233.071381 74.25972 
L 229.471381 76.05972 
z
" style="fill: #1a1a1a; stroke: #1a1a1a; stroke-width: 1.3; stroke-linecap: round"/>
   </g>
   <g id="patch_16">
    <path d="M 288.053895 74.25972 
Q 288.66218 74.25972 287.817021 74.25972 
" style="fill: none; stroke: #1a1a1a; stroke-width: 1.3; stroke-linecap: round"/>
    <path d="M 284.217021 72.45972 
L 287.817021 74.25972 
L 284.217021 76.05972 
z
" style="fill: #1a1a1a; stroke: #1a1a1a; stroke-width: 1.3; stroke-linecap: round"/>
   </g>
   <g id="patch_17">
    <path d="M 344.800222 74.25972 
Q 345.016448 74.25972 343.77923 74.25972 
" style="fill: none; stroke: #1a1a1a; stroke-width: 1.3; stroke-linecap: round"/>
    <path d="M 340.17923 72.45972 
L 343.77923 74.25972 
L 340.17923 76.05972 
z
" style="fill: #1a1a1a; stroke: #1a1a1a; stroke-width: 1.3; stroke-linecap: round"/>
   </g>
   <g id="text_2">
    <!-- Circuit -->
    <g transform="translate(20.363619 67.4654) scale(0.07 -0.07)">
     <defs>
      <path id="DejaVuSerif-43" d="M 4513 1234 
Q 4306 581 3820 245 
Q 3334 -91 2591 -91 
Q 2134 -91 1743 65 
Q 1353 222 1050 525 
Q 700 875 529 1320 
Q 359 1766 359 2328 
Q 359 3416 987 4083 
Q 1616 4750 2644 4750 
Q 3025 4750 3456 4650 
Q 3888 4550 4384 4347 
L 4384 3272 
L 4031 3272 
Q 3916 3859 3567 4137 
Q 3219 4416 2591 4416 
Q 1844 4416 1459 3886 
Q 1075 3356 1075 2328 
Q 1075 1303 1459 773 
Q 1844 244 2591 244 
Q 3113 244 3450 492 
Q 3788 741 3938 1234 
L 4513 1234 
z
" transform="scale(0.015625)"/>
      <path id="DejaVuSerif-72" d="M 3059 3328 
L 3059 2497 
L 2728 2497 
Q 2713 2744 2591 2866 
Q 2469 2988 2234 2988 
Q 1809 2988 1582 2694 
Q 1356 2400 1356 1850 
L 1356 331 
L 2022 331 
L 2022 0 
L 263 0 
L 263 331 
L 781 331 
L 781 2994 
L 231 2994 
L 231 3322 
L 1356 3322 
L 1356 2731 
Q 1525 3078 1790 3245 
Q 2056 3413 2438 3413 
Q 2578 3413 2733 3391 
Q 2888 3369 3059 3328 
z
" transform="scale(0.015625)"/>
      <path id="DejaVuSerif-75" d="M 2266 3322 
L 3341 3322 
L 3341 331 
L 3884 331 
L 3884 0 
L 2766 0 
L 2766 588 
Q 2606 256 2353 82 
Q 2100 -91 1766 -91 
Q 1213 -91 952 223 
Q 691 538 691 1209 
L 691 2988 
L 172 2988 
L 172 3322 
L 1269 3322 
L 1269 1388 
Q 1269 781 1417 556 
Q 1566 331 1947 331 
Q 2347 331 2556 625 
Q 2766 919 2766 1478 
L 2766 2988 
L 2266 2988 
L 2266 3322 
z
" transform="scale(0.015625)"/>
     </defs>
     <use xlink:href="#DejaVuSerif-43"/>
     <use xlink:href="#DejaVuSerif-69" transform="translate(76.513672 0)"/>
     <use xlink:href="#DejaVuSerif-72" transform="translate(108.496094 0)"/>
     <use xlink:href="#DejaVuSerif-63" transform="translate(156.298828 0)"/>
     <use xlink:href="#DejaVuSerif-75" transform="translate(212.304688 0)"/>
     <use xlink:href="#DejaVuSerif-69" transform="translate(276.708984 0)"/>
     <use xlink:href="#DejaVuSerif-74" transform="translate(308.691406 0)"/>
    </g>
    <!-- construction -->
    <g transform="translate(10.275963 75.303869) scale(0.07 -0.07)">
     <use xlink:href="#DejaVuSerif-63"/>
     <use xlink:href="#DejaVuSerif-6f" transform="translate(56.005859 0)"/>
     <use xlink:href="#DejaVuSerif-6e" transform="translate(116.210938 0)"/>
     <use xlink:href="#DejaVuSerif-73" transform="translate(180.615234 0)"/>
     <use xlink:href="#DejaVuSerif-74" transform="translate(231.933594 0)"/>
     <use xlink:href="#DejaVuSerif-72" transform="translate(272.119141 0)"/>
     <use xlink:href="#DejaVuSerif-75" transform="translate(319.921875 0)"/>
     <use xlink:href="#DejaVuSerif-63" transform="translate(384.326172 0)"/>
     <use xlink:href="#DejaVuSerif-74" transform="translate(440.332031 0)"/>
     <use xlink:href="#DejaVuSerif-69" transform="translate(480.517578 0)"/>
     <use xlink:href="#DejaVuSerif-6f" transform="translate(512.5 0)"/>
     <use xlink:href="#DejaVuSerif-6e" transform="translate(572.705078 0)"/>
    </g>
   </g>
   <g id="text_3">
    <!-- BB84, 6-state, E91 -->
    <g style="fill: #777777" transform="translate(5.038291 82.928757) scale(0.058 -0.058)">
     <defs>
      <path id="DejaVuSerif-Italic-42" d="M 1194 331 
L 2128 331 
Q 2691 331 2998 575 
Q 3306 819 3409 1350 
Q 3513 1878 3302 2120 
Q 3091 2363 2525 2363 
L 1591 2363 
L 1194 331 
z
M 1653 2694 
L 2447 2694 
Q 2959 2694 3234 2891 
Q 3509 3088 3591 3513 
Q 3675 3941 3476 4136 
Q 3278 4331 2766 4331 
L 1972 4331 
L 1653 2694 
z
M -97 0 
L -34 331 
L 559 331 
L 1338 4331 
L 744 4331 
L 809 4666 
L 3113 4666 
Q 3819 4666 4120 4377 
Q 4422 4088 4309 3513 
Q 4231 3097 3934 2850 
Q 3638 2603 3147 2547 
Q 3728 2472 3976 2167 
Q 4225 1863 4125 1350 
Q 3991 656 3489 328 
Q 2988 0 2059 0 
L -97 0 
z
" transform="scale(0.015625)"/>
      <path id="DejaVuSerif-Italic-38" d="M 2775 1275 
Q 2872 1775 2678 2051 
Q 2484 2328 2034 2328 
Q 1584 2328 1281 2051 
Q 978 1775 881 1275 
Q 784 772 979 495 
Q 1175 219 1625 219 
Q 2075 219 2376 495 
Q 2678 772 2775 1275 
z
M 3088 3541 
Q 3172 3966 3001 4203 
Q 2831 4441 2444 4441 
Q 2059 4441 1796 4203 
Q 1534 3966 1450 3541 
Q 1369 3113 1539 2875 
Q 1709 2638 2094 2638 
Q 2481 2638 2743 2875 
Q 3006 3113 3088 3541 
z
M 2547 2484 
Q 3063 2413 3297 2092 
Q 3531 1772 3434 1275 
Q 3309 619 2823 264 
Q 2338 -91 1563 -91 
Q 791 -91 444 264 
Q 97 619 222 1275 
Q 319 1772 678 2092 
Q 1038 2413 1588 2484 
Q 1131 2569 932 2842 
Q 734 3116 816 3541 
Q 925 4103 1376 4426 
Q 1828 4750 2506 4750 
Q 3184 4750 3507 4426 
Q 3831 4103 3722 3541 
Q 3641 3116 3336 2842 
Q 3031 2569 2547 2484 
z
" transform="scale(0.015625)"/>
      <path id="DejaVuSerif-Italic-34" d="M 2084 1581 
L 2566 4063 
L 491 1581 
L 2084 1581 
z
M 3150 0 
L 1025 0 
L 1091 331 
L 1841 331 
L 2019 1247 
L -19 1247 
L 47 1588 
L 2706 4750 
L 3325 4750 
L 2709 1581 
L 3600 1581 
L 3534 1247 
L 2644 1247 
L 2466 331 
L 3216 331 
L 3150 0 
z
" transform="scale(0.015625)"/>
      <path id="DejaVuSerif-Italic-2c" d="M 125 -622 
Q 463 -406 656 -114 
Q 850 178 931 594 
L 953 709 
L 1569 709 
Q 1441 175 1139 -208 
Q 838 -591 328 -872 
L 125 -622 
z
" transform="scale(0.015625)"/>
      <path id="DejaVuSerif-Italic-20" transform="scale(0.015625)"/>
      <path id="DejaVuSerif-Italic-36" d="M 1070 553 
Q 1244 219 1684 219 
Q 2125 219 2425 542 
Q 2725 866 2842 1472 
Q 2959 2078 2786 2401 
Q 2613 2725 2172 2725 
Q 1725 2725 1429 2412 
Q 1134 2100 1019 1509 
Q 897 888 1070 553 
z
M 1122 2569 
Q 1378 2803 1670 2918 
Q 1963 3034 2300 3034 
Q 2997 3034 3320 2615 
Q 3644 2197 3503 1472 
Q 3366 763 2845 336 
Q 2325 -91 1597 -91 
Q 806 -91 497 498 
Q 188 1088 400 2181 
Q 638 3406 1272 4078 
Q 1906 4750 2822 4750 
Q 3069 4750 3331 4703 
Q 3594 4656 3859 4563 
L 3709 3794 
L 3356 3794 
Q 3381 4109 3209 4275 
Q 3038 4441 2694 4441 
Q 2088 4441 1702 3981 
Q 1316 3522 1122 2569 
z
" transform="scale(0.015625)"/>
      <path id="DejaVuSerif-Italic-2d" d="M 328 1959 
L 1928 1959 
L 1834 1472 
L 234 1472 
L 328 1959 
z
" transform="scale(0.015625)"/>
      <path id="DejaVuSerif-Italic-73" d="M 222 959 
L 553 959 
Q 541 869 541 788 
Q 541 219 1313 219 
Q 2088 219 2200 788 
Q 2209 844 2209 944 
Q 2209 1041 2103 1158 
Q 1997 1275 1550 1428 
L 1159 1569 
Q 759 1706 629 1882 
Q 500 2059 500 2263 
Q 500 2344 516 2438 
Q 606 2894 990 3153 
Q 1375 3413 1931 3413 
Q 2484 3413 3066 3144 
L 2925 2419 
L 2594 2419 
Q 2606 2491 2606 2553 
Q 2606 2781 2448 2942 
Q 2291 3103 1925 3103 
Q 1191 3103 1091 2591 
Q 1078 2538 1078 2444 
Q 1078 2347 1179 2237 
Q 1281 2128 1678 1997 
L 2106 1856 
Q 2550 1709 2716 1488 
Q 2831 1331 2831 1178 
Q 2831 522 2306 181 
Q 1894 -91 1262 -91 
Q 631 -91 72 184 
L 222 959 
z
" transform="scale(0.015625)"/>
      <path id="DejaVuSerif-Italic-74" d="M 856 2988 
L 350 2988 
L 416 3322 
L 922 3322 
L 1122 4353 
L 1700 4353 
L 1500 3322 
L 2581 3322 
L 2516 2988 
L 1434 2988 
L 1025 878 
Q 978 631 978 488 
Q 978 388 1000 338 
Q 1059 219 1278 219 
Q 1503 219 1633 351 
Q 1763 484 1825 781 
L 2259 781 
Q 2147 328 1884 118 
Q 1622 -91 1169 -91 
Q 672 -91 506 131 
Q 406 266 406 516 
Q 406 675 447 878 
L 856 2988 
z
" transform="scale(0.015625)"/>
      <path id="DejaVuSerif-Italic-61" d="M 2325 519 
Q 1909 -91 1238 -91 
Q 688 -91 409 281 
Q 216 544 216 919 
Q 216 1078 250 1256 
Q 463 2359 1231 2928 
Q 1884 3413 2675 3413 
Q 3206 3413 3388 3322 
L 2806 331 
L 3300 331 
L 3238 0 
L 2225 0 
L 2325 519 
z
M 822 938 
Q 822 269 1469 269 
Q 1863 269 2130 583 
Q 2397 897 2516 1497 
L 2806 3003 
L 2806 3003 
Q 2806 3094 2556 3094 
Q 1956 3094 1491 2625 
Q 1028 2153 863 1297 
Q 822 1097 822 938 
z
" transform="scale(0.015625)"/>
      <path id="DejaVuSerif-Italic-65" d="M 938 1275 
Q 925 1156 925 1050 
Q 925 756 1031 563 
Q 1216 219 1709 219 
Q 2072 219 2250 328 
Q 2569 525 2644 778 
L 3066 778 
Q 2941 381 2475 103 
Q 2150 -91 1506 -91 
Q 863 -91 516 388 
Q 272 722 272 1206 
Q 272 1419 319 1659 
Q 472 2450 1000 2931 
Q 1528 3413 2278 3413 
Q 3500 3413 3500 2547 
Q 3500 1913 2859 1603 
Q 2206 1288 938 1275 
z
M 2541 1975 
Q 2891 2181 2891 2569 
Q 2891 3103 2181 3103 
Q 1763 3103 1472 2784 
Q 1181 2466 1003 1606 
Q 2006 1653 2541 1975 
z
" transform="scale(0.015625)"/>
      <path id="DejaVuSerif-Italic-45" d="M -97 0 
L -34 331 
L 559 331 
L 1338 4331 
L 744 4331 
L 809 4666 
L 4566 4666 
L 4366 3628 
L 3981 3628 
L 4106 4281 
L 1963 4281 
L 1659 2719 
L 3188 2719 
L 3300 3303 
L 3684 3303 
L 3384 1753 
L 3000 1753 
L 3113 2338 
L 1584 2338 
L 1206 384 
L 3400 384 
L 3525 1038 
L 3909 1038 
L 3709 0 
L -97 0 
z
" transform="scale(0.015625)"/>
      <path id="DejaVuSerif-Italic-39" d="M 2947 2091 
Q 2694 1856 2398 1740 
Q 2103 1625 1763 1625 
Q 1069 1625 748 2044 
Q 428 2463 569 3188 
Q 706 3897 1226 4323 
Q 1747 4750 2475 4750 
Q 3266 4750 3573 4161 
Q 3881 3572 3669 2478 
Q 3431 1253 2797 581 
Q 2163 -91 1250 -91 
Q 1003 -91 740 -44 
Q 478 3 213 97 
L 363 872 
L 713 872 
Q 694 556 864 387 
Q 1034 219 1375 219 
Q 1981 219 2367 676 
Q 2753 1134 2947 2091 
z
M 2388 4441 
Q 1944 4441 1645 4117 
Q 1347 3794 1230 3187 
Q 1113 2581 1284 2256 
Q 1456 1931 1900 1931 
Q 2344 1931 2641 2245 
Q 2938 2559 3053 3150 
Q 3175 3772 3001 4106 
Q 2828 4441 2388 4441 
z
" transform="scale(0.015625)"/>
      <path id="DejaVuSerif-Italic-31" d="M 447 0 
L 513 331 
L 1325 331 
L 2078 4213 
L 1019 3603 
L 1100 4013 
L 2381 4750 
L 2813 4750 
L 1953 331 
L 2766 331 
L 2700 0 
L 447 0 
z
" transform="scale(0.015625)"/>
     </defs>
     <use xlink:href="#DejaVuSerif-Italic-42"/>
     <use xlink:href="#DejaVuSerif-Italic-42" transform="translate(73.486328 0)"/>
     <use xlink:href="#DejaVuSerif-Italic-38" transform="translate(146.972656 0)"/>
     <use xlink:href="#DejaVuSerif-Italic-34" transform="translate(210.595703 0)"/>
     <use xlink:href="#DejaVuSerif-Italic-2c" transform="translate(274.21875 0)"/>
     <use xlink:href="#DejaVuSerif-Italic-20" transform="translate(306.005859 0)"/>
     <use xlink:href="#DejaVuSerif-Italic-36" transform="translate(337.792969 0)"/>
     <use xlink:href="#DejaVuSerif-Italic-2d" transform="translate(401.416016 0)"/>
     <use xlink:href="#DejaVuSerif-Italic-73" transform="translate(435.205078 0)"/>
     <use xlink:href="#DejaVuSerif-Italic-74" transform="translate(486.523438 0)"/>
     <use xlink:href="#DejaVuSerif-Italic-61" transform="translate(526.708984 0)"/>
     <use xlink:href="#DejaVuSerif-Italic-74" transform="translate(586.328125 0)"/>
     <use xlink:href="#DejaVuSerif-Italic-65" transform="translate(626.513672 0)"/>
     <use xlink:href="#DejaVuSerif-Italic-2c" transform="translate(685.693359 0)"/>
     <use xlink:href="#DejaVuSerif-Italic-20" transform="translate(717.480469 0)"/>
     <use xlink:href="#DejaVuSerif-Italic-45" transform="translate(749.267578 0)"/>
     <use xlink:href="#DejaVuSerif-Italic-39" transform="translate(822.265625 0)"/>
     <use xlink:href="#DejaVuSerif-Italic-31" transform="translate(885.888672 0)"/>
    </g>
   </g>
   <g id="text_4">
    <!-- Synthetic noise -->
    <g transform="translate(64.87796 40.233029) scale(0.07 -0.07)">
     <defs>
      <path id="DejaVuSerif-53" d="M 594 225 
L 594 1288 
L 953 1284 
Q 969 753 1261 498 
Q 1553 244 2150 244 
Q 2706 244 2998 464 
Q 3291 684 3291 1106 
Q 3291 1444 3114 1625 
Q 2938 1806 2369 1978 
L 1753 2163 
Q 1084 2366 811 2669 
Q 538 2972 538 3500 
Q 538 4094 959 4422 
Q 1381 4750 2144 4750 
Q 2469 4750 2856 4679 
Q 3244 4609 3681 4475 
L 3681 3481 
L 3328 3481 
Q 3275 3975 2998 4195 
Q 2722 4416 2156 4416 
Q 1663 4416 1405 4214 
Q 1147 4013 1147 3628 
Q 1147 3294 1340 3103 
Q 1534 2913 2163 2725 
L 2741 2553 
Q 3375 2363 3645 2067 
Q 3916 1772 3916 1275 
Q 3916 597 3481 253 
Q 3047 -91 2188 -91 
Q 1803 -91 1404 -12 
Q 1006 66 594 225 
z
" transform="scale(0.015625)"/>
      <path id="DejaVuSerif-79" d="M 1381 -609 
L 1600 -56 
L 359 2988 
L -19 2988 
L -19 3322 
L 1509 3322 
L 1509 2988 
L 978 2988 
L 1913 703 
L 2847 2988 
L 2350 2988 
L 2350 3322 
L 3597 3322 
L 3597 2988 
L 3225 2988 
L 1703 -750 
Q 1547 -1138 1356 -1280 
Q 1166 -1422 819 -1422 
Q 672 -1422 517 -1397 
Q 363 -1372 206 -1325 
L 206 -691 
L 500 -691 
Q 519 -903 608 -995 
Q 697 -1088 884 -1088 
Q 1056 -1088 1161 -992 
Q 1266 -897 1381 -609 
z
" transform="scale(0.015625)"/>
      <path id="DejaVuSerif-68" d="M 263 0 
L 263 331 
L 781 331 
L 781 4531 
L 231 4531 
L 231 4863 
L 1356 4863 
L 1356 2731 
Q 1516 3069 1770 3241 
Q 2025 3413 2363 3413 
Q 2913 3413 3172 3097 
Q 3431 2781 3431 2113 
L 3431 331 
L 3944 331 
L 3944 0 
L 2356 0 
L 2356 331 
L 2853 331 
L 2853 1931 
Q 2853 2541 2704 2764 
Q 2556 2988 2175 2988 
Q 1775 2988 1565 2697 
Q 1356 2406 1356 1850 
L 1356 331 
L 1856 331 
L 1856 0 
L 263 0 
z
" transform="scale(0.015625)"/>
     </defs>
     <use xlink:href="#DejaVuSerif-53"/>
     <use xlink:href="#DejaVuSerif-79" transform="translate(68.505859 0)"/>
     <use xlink:href="#DejaVuSerif-6e" transform="translate(125 0)"/>
     <use xlink:href="#DejaVuSerif-74" transform="translate(189.404297 0)"/>
     <use xlink:href="#DejaVuSerif-68" transform="translate(229.589844 0)"/>
     <use xlink:href="#DejaVuSerif-65" transform="translate(293.994141 0)"/>
     <use xlink:href="#DejaVuSerif-74" transform="translate(353.173828 0)"/>
     <use xlink:href="#DejaVuSerif-69" transform="translate(393.359375 0)"/>
     <use xlink:href="#DejaVuSerif-63" transform="translate(425.341797 0)"/>
     <use xlink:href="#DejaVuSerif-20" transform="translate(481.347656 0)"/>
     <use xlink:href="#DejaVuSerif-6e" transform="translate(513.134766 0)"/>
     <use xlink:href="#DejaVuSerif-6f" transform="translate(577.539062 0)"/>
     <use xlink:href="#DejaVuSerif-69" transform="translate(637.744141 0)"/>
     <use xlink:href="#DejaVuSerif-73" transform="translate(669.726562 0)"/>
     <use xlink:href="#DejaVuSerif-65" transform="translate(721.044922 0)"/>
    </g>
   </g>
   <g id="text_5">
    <!-- depolarizing $\mathcal{N}_p$ -->
    <g style="fill: #777777" transform="translate(69.218163 51.58948) scale(0.058 -0.058)">
     <defs>
      <path id="DejaVuSerif-Italic-64" d="M 3841 4863 
L 2897 0 
L 2322 0 
L 2422 519 
Q 2191 206 1902 57 
Q 1613 -91 1228 -91 
Q 616 -91 322 394 
Q 125 716 125 1166 
Q 125 1397 178 1663 
Q 331 2444 812 2928 
Q 1294 3413 1909 3413 
Q 2294 3413 2525 3264 
Q 2756 3116 2866 2803 
L 3200 4531 
L 2656 4531 
L 2722 4863 
L 3841 4863 
z
M 2613 1497 
L 2675 1825 
Q 2722 2069 2722 2266 
Q 2722 2550 2622 2738 
Q 2456 3053 2019 3053 
Q 1575 3053 1279 2703 
Q 984 2353 850 1663 
Q 788 1347 788 1103 
Q 788 813 875 622 
Q 1031 269 1475 269 
Q 1913 269 2203 583 
Q 2494 897 2613 1497 
z
" transform="scale(0.015625)"/>
      <path id="DejaVuSerif-Italic-70" d="M 1466 1825 
L 1400 1497 
Q 1353 1250 1353 1053 
Q 1353 769 1453 581 
Q 1622 269 2059 269 
Q 2500 269 2795 622 
Q 3091 975 3225 1663 
Q 3284 1978 3284 2225 
Q 3284 2513 3200 2703 
Q 3041 3053 2600 3053 
Q 2163 3053 1872 2737 
Q 1581 2422 1466 1825 
z
M 1116 2988 
L 563 2988 
L 628 3322 
L 1756 3322 
L 1656 2803 
Q 1884 3116 2175 3264 
Q 2466 3413 2850 3413 
Q 3463 3413 3753 2928 
Q 3947 2609 3947 2163 
Q 3947 1928 3897 1663 
Q 3744 881 3262 395 
Q 2781 -91 2169 -91 
Q 1784 -91 1551 57 
Q 1319 206 1213 519 
L 850 -1331 
L 275 -1331 
L 1116 2988 
z
" transform="scale(0.015625)"/>
      <path id="DejaVuSerif-Italic-6f" d="M 1644 219 
Q 2106 219 2414 584 
Q 2722 950 2859 1663 
Q 2922 1988 2922 2241 
Q 2922 2541 2834 2738 
Q 2669 3103 2206 3103 
Q 1744 3103 1436 2739 
Q 1128 2375 991 1663 
Q 928 1338 928 1088 
Q 928 784 1019 584 
Q 1184 219 1644 219 
z
M 1584 -91 
Q 859 -91 513 388 
Q 272 722 272 1203 
Q 272 1419 319 1663 
Q 472 2456 1005 2934 
Q 1538 3413 2266 3413 
Q 2994 3413 3341 2934 
Q 3578 2603 3578 2122 
Q 3578 1906 3531 1663 
Q 3378 869 2845 389 
Q 2313 -91 1584 -91 
z
" transform="scale(0.015625)"/>
      <path id="DejaVuSerif-Italic-6c" d="M 903 331 
L 1447 331 
L 1384 0 
L 266 0 
L 1147 4531 
L 594 4531 
L 656 4863 
L 1784 4863 
L 903 331 
z
" transform="scale(0.015625)"/>
      <path id="DejaVuSerif-Italic-72" d="M 3375 3328 
L 3213 2497 
L 2881 2497 
Q 2891 2559 2891 2613 
Q 2891 2775 2816 2866 
Q 2719 2988 2484 2988 
Q 2059 2988 1775 2694 
Q 1491 2400 1384 1850 
L 1025 0 
L 450 0 
L 1031 2994 
L 481 2994 
L 544 3322 
L 1669 3322 
L 1556 2731 
Q 1791 3078 2089 3245 
Q 2388 3413 2769 3413 
Q 2909 3413 3059 3391 
Q 3209 3369 3375 3328 
z
" transform="scale(0.015625)"/>
      <path id="DejaVuSerif-Italic-69" d="M 1009 4353 
Q 1038 4497 1163 4603 
Q 1288 4709 1434 4709 
Q 1578 4709 1663 4603 
Q 1728 4522 1728 4422 
Q 1728 4388 1719 4353 
Q 1691 4206 1567 4103 
Q 1444 4000 1297 4000 
Q 1150 4000 1066 4103 
Q 1003 4181 1003 4281 
Q 1003 4316 1009 4353 
z
M 963 331 
L 1506 331 
L 1444 0 
L 325 0 
L 903 2988 
L 353 2988 
L 419 3322 
L 1544 3322 
L 963 331 
z
" transform="scale(0.015625)"/>
      <path id="DejaVuSerif-Italic-7a" d="M 2550 3047 
Q 2888 3047 3216 3322 
L 3403 3322 
L 3353 3053 
L 1081 684 
Q 1113 675 1203 647 
Q 1309 613 1416 544 
L 1569 450 
Q 1863 272 2075 272 
Q 2484 272 2966 741 
L 2891 363 
Q 2356 -163 1950 -163 
Q 1703 -156 1356 59 
Q 1009 275 791 275 
Q 453 275 125 0 
L -63 0 
L -13 269 
L 2263 2634 
Q 2228 2647 2138 2675 
Q 2031 2709 1925 2778 
L 1772 2872 
Q 1478 3050 1266 3050 
Q 856 3050 375 2581 
L 450 2959 
Q 984 3484 1391 3484 
Q 1638 3478 1984 3262 
Q 2331 3047 2550 3047 
z
" transform="scale(0.015625)"/>
      <path id="DejaVuSerif-Italic-6e" d="M 450 0 
L 1031 2988 
L 481 2988 
L 544 3322 
L 1669 3322 
L 1556 2731 
Q 1781 3069 2068 3241 
Q 2356 3413 2694 3413 
Q 3244 3413 3444 3097 
Q 3563 2906 3563 2588 
Q 3563 2378 3509 2113 
L 3163 331 
L 3675 331 
L 3613 0 
L 2522 0 
L 2897 1931 
Q 2959 2253 2959 2469 
Q 2959 2659 2909 2769 
Q 2803 2994 2425 2994 
Q 2025 2994 1759 2701 
Q 1494 2409 1384 1850 
L 1025 0 
L 450 0 
z
" transform="scale(0.015625)"/>
      <path id="DejaVuSerif-Italic-67" d="M 3822 3322 
L 3188 72 
Q 3044 -672 2581 -1031 
Q 2078 -1422 1381 -1422 
Q 1053 -1422 765 -1362 
Q 478 -1303 225 -1184 
L 363 -488 
L 663 -488 
Q 653 -813 834 -963 
Q 1016 -1113 1406 -1113 
Q 1913 -1113 2203 -825 
Q 2494 -544 2613 72 
L 2700 519 
Q 2472 206 2181 57 
Q 1891 -91 1525 -91 
Q 975 -91 697 281 
Q 522 516 503 841 
Q 491 1031 534 1256 
Q 750 2359 1516 2928 
Q 2169 3409 2931 3413 
Q 3631 3416 3822 3322 
z
M 3184 2988 
Q 3181 3094 2844 3094 
Q 2234 3094 1775 2625 
Q 1316 2153 1147 1297 
Q 1100 1044 1113 853 
Q 1125 659 1203 528 
Q 1356 269 1756 269 
Q 2194 269 2484 583 
Q 2775 897 2891 1497 
L 2953 1825 
L 3184 2988 
z
" transform="scale(0.015625)"/>
      <path id="Cmsy10-4e" d="M -184 13 
Q -184 131 -103 322 
Q -22 513 72 513 
Q 84 513 91 506 
Q 294 294 594 294 
Q 763 294 892 598 
Q 1022 903 1147 1306 
Q 1213 1509 1308 1837 
Q 1403 2166 1453 2369 
Q 1497 2538 1558 2827 
Q 1619 3116 1658 3331 
Q 1697 3547 1728 3772 
Q 1759 3997 1784 4244 
Q 1784 4278 1831 4325 
Q 1900 4397 1997 4453 
Q 2088 4494 2181 4513 
L 2234 4513 
Q 2272 4494 2278 4469 
Q 2438 3909 2675 3200 
Q 2891 2544 3044 2125 
Q 3197 1706 3405 1242 
Q 3613 778 3859 384 
Q 4194 1819 4525 2988 
L 4609 3284 
Q 4747 3769 4836 4039 
Q 4925 4309 5063 4525 
Q 5175 4700 5356 4800 
Q 5538 4900 5753 4942 
Q 5969 4984 6203 4984 
Q 6259 4984 6259 4878 
Q 6259 4803 6226 4686 
Q 6194 4569 6137 4478 
Q 6081 4388 6009 4372 
Q 5756 4372 5557 4331 
Q 5359 4291 5197 4184 
Q 5116 4125 5102 4094 
Q 5088 4063 5038 3909 
Q 4956 3684 4872 3366 
L 4788 3078 
Q 4625 2491 4498 2006 
Q 4372 1522 4256 1045 
Q 4141 569 4031 84 
Q 4034 84 4029 92 
Q 4025 100 4025 103 
Q 4025 47 3951 -15 
Q 3878 -78 3783 -120 
Q 3688 -163 3628 -172 
L 3584 -172 
Q 3478 -119 3222 368 
Q 2966 856 2834 1172 
Q 2359 2347 1966 3628 
Q 1916 3319 1759 2648 
Q 1603 1978 1387 1297 
Q 1172 616 914 148 
Q 656 -319 397 -319 
Q 231 -319 23 -225 
Q -184 -131 -184 13 
z
" transform="scale(0.015625)"/>
      <path id="Cmmi10-70" d="M -159 -1241 
Q -219 -1241 -219 -1159 
Q -197 -1019 -134 -1019 
Q 66 -1019 145 -983 
Q 225 -947 269 -800 
L 991 2081 
Q 1038 2200 1038 2388 
Q 1038 2663 850 2663 
Q 650 2663 553 2423 
Q 456 2184 366 1819 
Q 366 1778 313 1778 
L 238 1778 
Q 222 1778 203 1801 
Q 184 1825 184 1844 
Q 253 2122 317 2315 
Q 381 2509 517 2668 
Q 653 2828 856 2828 
Q 1075 2828 1240 2704 
Q 1406 2581 1453 2369 
Q 1628 2572 1840 2700 
Q 2053 2828 2278 2828 
Q 2547 2828 2745 2684 
Q 2944 2541 3044 2308 
Q 3144 2075 3144 1806 
Q 3144 1394 2933 953 
Q 2722 513 2361 220 
Q 2000 -72 1588 -72 
Q 1400 -72 1248 34 
Q 1097 141 1013 313 
L 722 -825 
Q 706 -919 703 -934 
Q 703 -1019 1125 -1019 
Q 1191 -1019 1191 -1100 
Q 1169 -1184 1155 -1212 
Q 1141 -1241 1081 -1241 
L -159 -1241 
z
M 1594 97 
Q 1816 97 2006 280 
Q 2197 463 2316 691 
Q 2403 863 2479 1111 
Q 2556 1359 2612 1640 
Q 2669 1922 2669 2088 
Q 2669 2234 2630 2362 
Q 2591 2491 2502 2577 
Q 2413 2663 2266 2663 
Q 2031 2663 1823 2495 
Q 1616 2328 1447 2081 
L 1447 2059 
L 1094 647 
Q 1138 419 1263 258 
Q 1388 97 1594 97 
z
" transform="scale(0.015625)"/>
     </defs>
     <use xlink:href="#DejaVuSerif-Italic-64" transform="translate(0 0.125)"/>
     <use xlink:href="#DejaVuSerif-Italic-65" transform="translate(64.013672 0.125)"/>
     <use xlink:href="#DejaVuSerif-Italic-70" transform="translate(123.193359 0.125)"/>
     <use xlink:href="#DejaVuSerif-Italic-6f" transform="translate(187.207031 0.125)"/>
     <use xlink:href="#DejaVuSerif-Italic-6c" transform="translate(247.412109 0.125)"/>
     <use xlink:href="#DejaVuSerif-Italic-61" transform="translate(279.394531 0.125)"/>
     <use xlink:href="#DejaVuSerif-Italic-72" transform="translate(339.013672 0.125)"/>
     <use xlink:href="#DejaVuSerif-Italic-69" transform="translate(386.816406 0.125)"/>
     <use xlink:href="#DejaVuSerif-Italic-7a" transform="translate(418.798828 0.125)"/>
     <use xlink:href="#DejaVuSerif-Italic-69" transform="translate(471.484375 0.125)"/>
     <use xlink:href="#DejaVuSerif-Italic-6e" transform="translate(503.466797 0.125)"/>
     <use xlink:href="#DejaVuSerif-Italic-67" transform="translate(567.871094 0.125)"/>
     <use xlink:href="#DejaVuSerif-Italic-20" transform="translate(631.884766 0.125)"/>
     <use xlink:href="#Cmsy10-4e" transform="translate(663.671875 0.125)"/>
     <use xlink:href="#Cmmi10-70" transform="translate(750.118438 -16.88125) scale(0.7)"/>
    </g>
   </g>
   <g id="text_6">
    <!-- Device noise -->
    <g transform="translate(69.719444 102.486474) scale(0.07 -0.07)">
     <defs>
      <path id="DejaVuSerif-44" d="M 1581 331 
L 2163 331 
Q 3072 331 3558 850 
Q 4044 1369 4044 2338 
Q 4044 3306 3559 3818 
Q 3075 4331 2163 4331 
L 1581 4331 
L 1581 331 
z
M 353 0 
L 353 331 
L 947 331 
L 947 4331 
L 353 4331 
L 353 4666 
L 2209 4666 
Q 3416 4666 4089 4050 
Q 4763 3434 4763 2338 
Q 4763 1238 4088 619 
Q 3413 0 2209 0 
L 353 0 
z
" transform="scale(0.015625)"/>
      <path id="DejaVuSerif-76" d="M 1581 0 
L 359 2988 
L -19 2988 
L -19 3322 
L 1509 3322 
L 1509 2988 
L 978 2988 
L 1913 703 
L 2847 2988 
L 2350 2988 
L 2350 3322 
L 3597 3322 
L 3597 2988 
L 3225 2988 
L 2003 0 
L 1581 0 
z
" transform="scale(0.015625)"/>
     </defs>
     <use xlink:href="#DejaVuSerif-44"/>
     <use xlink:href="#DejaVuSerif-65" transform="translate(80.175781 0)"/>
     <use xlink:href="#DejaVuSerif-76" transform="translate(139.355469 0)"/>
     <use xlink:href="#DejaVuSerif-69" transform="translate(195.849609 0)"/>
     <use xlink:href="#DejaVuSerif-63" transform="translate(227.832031 0)"/>
     <use xlink:href="#DejaVuSerif-65" transform="translate(283.837891 0)"/>
     <use xlink:href="#DejaVuSerif-20" transform="translate(343.017578 0)"/>
     <use xlink:href="#DejaVuSerif-6e" transform="translate(374.804688 0)"/>
     <use xlink:href="#DejaVuSerif-6f" transform="translate(439.208984 0)"/>
     <use xlink:href="#DejaVuSerif-69" transform="translate(499.414062 0)"/>
     <use xlink:href="#DejaVuSerif-73" transform="translate(531.396484 0)"/>
     <use xlink:href="#DejaVuSerif-65" transform="translate(582.714844 0)"/>
    </g>
   </g>
   <g id="text_7">
    <!-- $\mathtt{ibm\_marrakesh}$ -->
    <g style="fill: #777777" transform="translate(72.379163 114.030597) scale(0.058 -0.058)">
     <defs>
      <path id="Cmtt10-69" d="M 488 178 
L 488 238 
Q 506 397 666 416 
L 1522 416 
L 1522 2344 
L 716 2344 
Q 556 2366 538 2522 
L 538 2578 
Q 547 2653 595 2701 
Q 644 2750 716 2759 
L 1813 2759 
Q 1888 2750 1934 2703 
Q 1981 2656 1991 2578 
L 1991 416 
L 2747 416 
Q 2897 397 2925 238 
L 2925 178 
Q 2897 19 2747 0 
L 666 0 
Q 506 19 488 178 
z
M 1325 3584 
Q 1325 3722 1422 3819 
Q 1519 3916 1656 3916 
Q 1797 3916 1894 3819 
Q 1991 3722 1991 3584 
Q 1991 3450 1891 3350 
Q 1791 3250 1656 3250 
Q 1525 3250 1425 3350 
Q 1325 3450 1325 3584 
z
" transform="scale(0.015625)"/>
      <path id="Cmtt10-62" d="M 609 178 
L 609 3494 
L 244 3494 
Q 88 3513 63 3675 
L 63 3731 
Q 88 3891 244 3909 
L 897 3909 
Q 1056 3891 1075 3731 
L 1075 2497 
Q 1428 2797 1888 2797 
Q 2247 2797 2534 2594 
Q 2822 2391 2980 2064 
Q 3138 1738 3138 1381 
Q 3138 1016 2964 686 
Q 2791 356 2486 159 
Q 2181 -38 1813 -38 
Q 1403 -38 1075 275 
L 1075 178 
Q 1066 103 1019 56 
Q 972 9 897 0 
L 788 0 
Q 628 19 609 178 
z
M 1778 378 
Q 2034 378 2239 522 
Q 2444 666 2556 900 
Q 2669 1134 2669 1381 
Q 2669 1616 2567 1850 
Q 2466 2084 2278 2232 
Q 2091 2381 1844 2381 
Q 1675 2381 1514 2307 
Q 1353 2234 1237 2100 
Q 1122 1966 1075 1797 
L 1075 1119 
Q 1141 819 1319 598 
Q 1497 378 1778 378 
z
" transform="scale(0.015625)"/>
      <path id="Cmtt10-6d" d="M -38 178 
L -38 238 
Q -9 397 141 416 
L 325 416 
L 325 2344 
L 141 2344 
Q -9 2363 -38 2522 
L -38 2578 
Q -9 2741 141 2759 
L 531 2759 
Q 613 2750 661 2695 
Q 709 2641 709 2566 
Q 966 2797 1294 2797 
Q 1447 2797 1578 2706 
Q 1709 2616 1778 2463 
Q 2053 2797 2450 2797 
Q 3028 2797 3028 1869 
L 3028 416 
L 3213 416 
Q 3363 397 3391 238 
L 3391 178 
Q 3359 19 3213 0 
L 2528 0 
Q 2369 22 2350 178 
L 2350 238 
Q 2369 394 2528 416 
L 2644 416 
L 2644 1844 
Q 2644 2381 2413 2381 
Q 2225 2381 2103 2251 
Q 1981 2122 1925 1934 
Q 1869 1747 1869 1563 
L 1869 416 
L 2053 416 
Q 2206 397 2234 238 
L 2234 178 
Q 2203 19 2053 0 
L 1369 0 
Q 1209 22 1191 178 
L 1191 238 
Q 1209 394 1369 416 
L 1484 416 
L 1484 1844 
Q 1484 2381 1253 2381 
Q 1066 2381 944 2251 
Q 822 2122 765 1934 
Q 709 1747 709 1563 
L 709 416 
L 897 416 
Q 1047 397 1075 238 
L 1075 178 
Q 1047 19 897 0 
L 141 0 
Q -6 19 -38 178 
z
" transform="scale(0.015625)"/>
      <path id="Cmtt10-5f" d="M 569 -609 
Q 478 -594 418 -531 
Q 359 -469 359 -384 
Q 359 -294 418 -231 
Q 478 -169 569 -159 
L 2784 -159 
Q 2875 -169 2934 -228 
Q 2994 -288 2994 -384 
Q 2994 -475 2934 -534 
Q 2875 -594 2784 -609 
L 569 -609 
z
" transform="scale(0.015625)"/>
      <path id="Cmtt10-61" d="M 341 850 
Q 341 1213 672 1423 
Q 1003 1634 1439 1712 
Q 1875 1791 2259 1791 
L 2259 1844 
Q 2259 2106 2031 2253 
Q 1803 2400 1522 2400 
Q 1234 2400 1094 2375 
Q 1100 2375 1100 2322 
Q 1100 2203 1012 2115 
Q 925 2028 806 2028 
Q 675 2028 590 2118 
Q 506 2209 506 2338 
Q 506 2650 804 2733 
Q 1103 2816 1538 2816 
Q 1813 2816 2091 2702 
Q 2369 2588 2547 2372 
Q 2725 2156 2725 1869 
L 2725 475 
Q 2725 416 3175 416 
Q 3334 397 3353 238 
L 3353 178 
Q 3334 19 3175 0 
L 3066 0 
Q 2797 0 2614 39 
Q 2431 78 2322 219 
Q 1959 -38 1363 -38 
Q 1109 -38 871 71 
Q 634 181 487 382 
Q 341 584 341 850 
z
M 806 844 
Q 806 631 1004 504 
Q 1203 378 1441 378 
Q 1691 378 1894 447 
Q 1997 484 2119 565 
Q 2241 647 2241 722 
Q 2241 719 2250 767 
Q 2259 816 2259 844 
L 2259 1388 
Q 2113 1388 1869 1363 
Q 1625 1338 1387 1280 
Q 1150 1222 978 1111 
Q 806 1000 806 844 
z
" transform="scale(0.015625)"/>
      <path id="Cmtt10-72" d="M 372 0 
Q 216 19 191 178 
L 191 238 
Q 216 397 372 416 
L 966 416 
L 966 2344 
L 372 2344 
Q 216 2363 191 2522 
L 191 2578 
Q 216 2741 372 2759 
L 1253 2759 
Q 1331 2750 1378 2703 
Q 1425 2656 1434 2578 
L 1434 2297 
Q 1563 2447 1736 2562 
Q 1909 2678 2112 2737 
Q 2316 2797 2516 2797 
Q 2750 2797 2933 2700 
Q 3116 2603 3116 2394 
Q 3116 2272 3037 2186 
Q 2959 2100 2834 2100 
Q 2719 2100 2636 2179 
Q 2553 2259 2553 2381 
L 2509 2381 
Q 2203 2381 1956 2215 
Q 1709 2050 1571 1776 
Q 1434 1503 1434 1203 
L 1434 416 
L 2228 416 
Q 2388 394 2406 238 
L 2406 178 
Q 2388 22 2228 0 
L 372 0 
z
" transform="scale(0.015625)"/>
      <path id="Cmtt10-6b" d="M 122 178 
L 122 238 
Q 141 397 300 416 
L 691 416 
L 691 3494 
L 300 3494 
Q 141 3513 122 3675 
L 122 3731 
Q 141 3891 300 3909 
L 897 3909 
Q 1056 3891 1075 3731 
L 1075 1428 
L 2053 2344 
L 1759 2344 
Q 1600 2363 1581 2522 
L 1581 2578 
Q 1591 2656 1634 2703 
Q 1678 2750 1759 2759 
L 2931 2759 
Q 3081 2741 3109 2578 
L 3109 2522 
Q 3081 2363 2931 2344 
L 2619 2344 
L 1850 1625 
L 2784 416 
L 3072 416 
Q 3222 397 3250 238 
L 3250 178 
Q 3219 19 3072 0 
L 2131 0 
Q 1972 19 1953 178 
L 1953 238 
Q 1972 397 2131 416 
L 2297 416 
L 1569 1363 
L 1075 903 
L 1075 416 
L 1466 416 
Q 1625 397 1644 238 
L 1644 178 
Q 1625 19 1466 0 
L 300 0 
Q 141 19 122 178 
z
" transform="scale(0.015625)"/>
      <path id="Cmtt10-65" d="M 825 1209 
Q 894 844 1194 611 
Q 1494 378 1875 378 
Q 2075 378 2254 470 
Q 2434 563 2503 728 
Q 2553 875 2681 891 
L 2791 891 
Q 2872 881 2920 826 
Q 2969 772 2969 697 
Q 2969 678 2967 667 
Q 2966 656 2963 641 
Q 2841 303 2523 132 
Q 2206 -38 1825 -38 
Q 1438 -38 1092 151 
Q 747 341 544 666 
Q 341 991 341 1388 
Q 341 1675 447 1931 
Q 553 2188 742 2389 
Q 931 2591 1186 2703 
Q 1441 2816 1728 2816 
Q 2128 2816 2409 2633 
Q 2691 2450 2830 2133 
Q 2969 1816 2969 1416 
Q 2969 1331 2919 1275 
Q 2869 1219 2791 1209 
L 825 1209 
z
M 831 1619 
L 2491 1619 
Q 2466 1844 2375 2020 
Q 2284 2197 2121 2298 
Q 1959 2400 1728 2400 
Q 1516 2400 1323 2294 
Q 1131 2188 1001 2006 
Q 872 1825 831 1619 
z
" transform="scale(0.015625)"/>
      <path id="Cmtt10-73" d="M 459 134 
L 459 922 
Q 484 1075 634 1094 
L 756 1094 
Q 884 1075 922 959 
Q 1084 378 1703 378 
Q 2016 378 2269 467 
Q 2522 556 2522 806 
Q 2522 988 2336 1088 
Q 2150 1188 1925 1222 
L 1363 1319 
Q 991 1378 725 1553 
Q 459 1728 459 2053 
Q 459 2350 653 2519 
Q 847 2688 1133 2752 
Q 1419 2816 1703 2816 
Q 2100 2816 2350 2688 
Q 2381 2744 2417 2775 
Q 2453 2806 2522 2816 
L 2572 2816 
Q 2722 2797 2747 2644 
L 2747 2028 
Q 2722 1875 2572 1856 
L 2450 1856 
Q 2297 1875 2278 2028 
Q 2278 2400 1691 2400 
Q 1525 2400 1342 2375 
Q 1159 2350 1018 2270 
Q 878 2191 878 2047 
Q 878 1800 1434 1722 
L 2003 1625 
Q 2231 1591 2447 1491 
Q 2663 1391 2800 1216 
Q 2938 1041 2938 806 
Q 2938 353 2567 157 
Q 2197 -38 1703 -38 
Q 1219 -38 903 191 
Q 884 156 854 97 
Q 825 38 787 5 
Q 750 -28 691 -38 
L 634 -38 
Q 484 -19 459 134 
z
" transform="scale(0.015625)"/>
      <path id="Cmtt10-68" d="M 63 178 
L 63 238 
Q 88 397 244 416 
L 609 416 
L 609 3494 
L 244 3494 
Q 88 3513 63 3675 
L 63 3731 
Q 88 3891 244 3909 
L 897 3909 
Q 1056 3891 1075 3731 
L 1075 2472 
Q 1241 2628 1459 2712 
Q 1678 2797 1913 2797 
Q 2334 2797 2540 2548 
Q 2747 2300 2747 1869 
L 2747 416 
L 3109 416 
Q 3188 406 3234 362 
Q 3281 319 3291 238 
L 3291 178 
Q 3281 103 3234 56 
Q 3188 9 3109 0 
L 1972 0 
Q 1816 19 1791 178 
L 1791 238 
Q 1816 397 1972 416 
L 2278 416 
L 2278 1844 
Q 2278 2113 2198 2247 
Q 2119 2381 1869 2381 
Q 1656 2381 1470 2268 
Q 1284 2156 1179 1968 
Q 1075 1781 1075 1563 
L 1075 416 
L 1441 416 
Q 1600 397 1619 238 
L 1619 178 
Q 1600 19 1441 0 
L 244 0 
Q 88 19 63 178 
z
" transform="scale(0.015625)"/>
     </defs>
     <use xlink:href="#Cmtt10-69" transform="translate(0 0.8125)"/>
     <use xlink:href="#Cmtt10-62" transform="translate(52.490234 0.8125)"/>
     <use xlink:href="#Cmtt10-6d" transform="translate(104.980469 0.8125)"/>
     <use xlink:href="#Cmtt10-5f" transform="translate(157.470703 0.8125)"/>
     <use xlink:href="#Cmtt10-6d" transform="translate(209.960938 0.8125)"/>
     <use xlink:href="#Cmtt10-61" transform="translate(262.451172 0.8125)"/>
     <use xlink:href="#Cmtt10-72" transform="translate(314.941406 0.8125)"/>
     <use xlink:href="#Cmtt10-72" transform="translate(367.431641 0.8125)"/>
     <use xlink:href="#Cmtt10-61" transform="translate(419.921875 0.8125)"/>
     <use xlink:href="#Cmtt10-6b" transform="translate(472.412109 0.8125)"/>
     <use xlink:href="#Cmtt10-65" transform="translate(524.902344 0.8125)"/>
     <use xlink:href="#Cmtt10-73" transform="translate(577.392578 0.8125)"/>
     <use xlink:href="#Cmtt10-68" transform="translate(629.882812 0.8125)"/>
    </g>
   </g>
   <g id="text_8">
    <!-- Partial -->
    <g transform="translate(140.108628 67.4654) scale(0.07 -0.07)">
     <defs>
      <path id="DejaVuSerif-50" d="M 1581 2375 
L 2406 2375 
Q 2872 2375 3115 2626 
Q 3359 2878 3359 3353 
Q 3359 3831 3115 4081 
Q 2872 4331 2406 4331 
L 1581 4331 
L 1581 2375 
z
M 353 0 
L 353 331 
L 947 331 
L 947 4331 
L 353 4331 
L 353 4666 
L 2559 4666 
Q 3259 4666 3668 4311 
Q 4078 3956 4078 3353 
Q 4078 2753 3668 2397 
Q 3259 2041 2559 2041 
L 1581 2041 
L 1581 331 
L 2303 331 
L 2303 0 
L 353 0 
z
" transform="scale(0.015625)"/>
      <path id="DejaVuSerif-61" d="M 2547 1044 
L 2547 1747 
L 1806 1747 
Q 1378 1747 1168 1562 
Q 959 1378 959 997 
Q 959 650 1171 447 
Q 1384 244 1747 244 
Q 2106 244 2326 466 
Q 2547 688 2547 1044 
z
M 3122 2075 
L 3122 331 
L 3634 331 
L 3634 0 
L 2547 0 
L 2547 359 
Q 2356 128 2106 18 
Q 1856 -91 1522 -91 
Q 969 -91 644 203 
Q 319 497 319 997 
Q 319 1513 691 1797 
Q 1063 2081 1741 2081 
L 2547 2081 
L 2547 2309 
Q 2547 2688 2317 2895 
Q 2088 3103 1672 3103 
Q 1328 3103 1125 2947 
Q 922 2791 872 2484 
L 575 2484 
L 575 3156 
Q 875 3284 1158 3348 
Q 1441 3413 1709 3413 
Q 2400 3413 2761 3070 
Q 3122 2728 3122 2075 
z
" transform="scale(0.015625)"/>
      <path id="DejaVuSerif-6c" d="M 1313 331 
L 1856 331 
L 1856 0 
L 184 0 
L 184 331 
L 738 331 
L 738 4531 
L 184 4531 
L 184 4863 
L 1313 4863 
L 1313 331 
z
" transform="scale(0.015625)"/>
     </defs>
     <use xlink:href="#DejaVuSerif-50"/>
     <use xlink:href="#DejaVuSerif-61" transform="translate(62.785156 0)"/>
     <use xlink:href="#DejaVuSerif-72" transform="translate(122.404297 0)"/>
     <use xlink:href="#DejaVuSerif-74" transform="translate(170.207031 0)"/>
     <use xlink:href="#DejaVuSerif-69" transform="translate(210.392578 0)"/>
     <use xlink:href="#DejaVuSerif-61" transform="translate(242.375 0)"/>
     <use xlink:href="#DejaVuSerif-6c" transform="translate(301.994141 0)"/>
    </g>
    <!-- eavesdropper -->
    <g transform="translate(127.54855 75.303869) scale(0.07 -0.07)">
     <defs>
      <path id="DejaVuSerif-64" d="M 3359 331 
L 3909 331 
L 3909 0 
L 2784 0 
L 2784 519 
Q 2616 206 2355 57 
Q 2094 -91 1709 -91 
Q 1097 -91 708 395 
Q 319 881 319 1663 
Q 319 2444 706 2928 
Q 1094 3413 1709 3413 
Q 2094 3413 2355 3264 
Q 2616 3116 2784 2803 
L 2784 4531 
L 2241 4531 
L 2241 4863 
L 3359 4863 
L 3359 331 
z
M 2784 1497 
L 2784 1825 
Q 2784 2422 2554 2737 
Q 2325 3053 1888 3053 
Q 1444 3053 1217 2703 
Q 991 2353 991 1663 
Q 991 975 1217 622 
Q 1444 269 1888 269 
Q 2325 269 2554 583 
Q 2784 897 2784 1497 
z
" transform="scale(0.015625)"/>
      <path id="DejaVuSerif-70" d="M 1313 1825 
L 1313 1497 
Q 1313 897 1542 583 
Q 1772 269 2209 269 
Q 2650 269 2876 622 
Q 3103 975 3103 1663 
Q 3103 2353 2876 2703 
Q 2650 3053 2209 3053 
Q 1772 3053 1542 2737 
Q 1313 2422 1313 1825 
z
M 738 2988 
L 184 2988 
L 184 3322 
L 1313 3322 
L 1313 2803 
Q 1481 3116 1742 3264 
Q 2003 3413 2388 3413 
Q 3000 3413 3387 2928 
Q 3775 2444 3775 1663 
Q 3775 881 3387 395 
Q 3000 -91 2388 -91 
Q 2003 -91 1742 57 
Q 1481 206 1313 519 
L 1313 -997 
L 1856 -997 
L 1856 -1331 
L 184 -1331 
L 184 -997 
L 738 -997 
L 738 2988 
z
" transform="scale(0.015625)"/>
     </defs>
     <use xlink:href="#DejaVuSerif-65"/>
     <use xlink:href="#DejaVuSerif-61" transform="translate(59.179688 0)"/>
     <use xlink:href="#DejaVuSerif-76" transform="translate(118.798828 0)"/>
     <use xlink:href="#DejaVuSerif-65" transform="translate(175.292969 0)"/>
     <use xlink:href="#DejaVuSerif-73" transform="translate(234.472656 0)"/>
     <use xlink:href="#DejaVuSerif-64" transform="translate(285.791016 0)"/>
     <use xlink:href="#DejaVuSerif-72" transform="translate(349.804688 0)"/>
     <use xlink:href="#DejaVuSerif-6f" transform="translate(397.607422 0)"/>
     <use xlink:href="#DejaVuSerif-70" transform="translate(457.8125 0)"/>
     <use xlink:href="#DejaVuSerif-70" transform="translate(521.826172 0)"/>
     <use xlink:href="#DejaVuSerif-65" transform="translate(585.839844 0)"/>
     <use xlink:href="#DejaVuSerif-72" transform="translate(645.019531 0)"/>
    </g>
   </g>
   <g id="text_9">
    <!-- fraction $f$ -->
    <g style="fill: #777777" transform="translate(137.936081 82.92332) scale(0.058 -0.058)">
     <defs>
      <path id="DejaVuSerif-Italic-66" d="M 3191 4078 
L 2888 4078 
Q 2900 4144 2900 4203 
Q 2900 4347 2825 4434 
Q 2719 4556 2472 4556 
Q 2150 4556 1984 4379 
Q 1819 4203 1731 3750 
L 1647 3322 
L 2575 3322 
L 2509 2988 
L 1581 2988 
L 963 -206 
Q 853 -763 509 -1047 
Q 166 -1331 -394 -1331 
L -356 -1025 
Q -28 -1025 131 -850 
Q 297 -663 388 -206 
L 1006 2988 
L 456 2988 
L 522 3322 
L 1072 3322 
L 1153 3738 
Q 1263 4297 1606 4578 
Q 1950 4863 2509 4863 
Q 2719 4863 2920 4825 
Q 3122 4788 3316 4709 
L 3191 4078 
z
" transform="scale(0.015625)"/>
      <path id="DejaVuSerif-Italic-63" d="M 3163 997 
Q 2938 466 2536 187 
Q 2134 -91 1584 -91 
Q 859 -91 513 388 
Q 272 722 272 1203 
Q 272 1419 319 1663 
Q 475 2459 1008 2936 
Q 1541 3413 2266 3413 
Q 2581 3413 2879 3339 
Q 3178 3266 3463 3116 
L 3300 2266 
L 2966 2266 
Q 2966 2309 2966 2347 
Q 2966 2722 2803 2903 
Q 2622 3103 2213 3103 
Q 1747 3103 1439 2742 
Q 1131 2381 991 1663 
Q 928 1334 928 1078 
Q 928 778 1016 581 
Q 1181 219 1650 219 
Q 2022 219 2281 412 
Q 2541 606 2700 997 
L 3163 997 
z
" transform="scale(0.015625)"/>
      <path id="Cmmi10-66" d="M 622 -1056 
Q 741 -1147 909 -1147 
Q 1138 -1147 1281 -641 
Q 1341 -397 1606 966 
L 1900 2534 
L 1350 2534 
Q 1288 2534 1288 2619 
Q 1313 2759 1369 2759 
L 1941 2759 
L 2016 3175 
Q 2053 3369 2084 3508 
Q 2116 3647 2152 3765 
Q 2188 3884 2259 4031 
Q 2369 4241 2555 4377 
Q 2741 4513 2956 4513 
Q 3097 4513 3230 4461 
Q 3363 4409 3447 4306 
Q 3531 4203 3531 4063 
Q 3531 3900 3423 3779 
Q 3316 3659 3163 3659 
Q 3059 3659 2986 3723 
Q 2913 3788 2913 3891 
Q 2913 4031 3008 4136 
Q 3103 4241 3244 4256 
Q 3125 4347 2950 4347 
Q 2853 4347 2767 4256 
Q 2681 4166 2656 4063 
Q 2616 3900 2478 3181 
L 2400 2759 
L 3059 2759 
Q 3122 2759 3122 2675 
Q 3119 2659 3109 2620 
Q 3100 2581 3083 2557 
Q 3066 2534 3041 2534 
L 2356 2534 
L 2059 972 
Q 2003 631 1929 279 
Q 1856 -72 1723 -442 
Q 1591 -813 1384 -1063 
Q 1178 -1313 897 -1313 
Q 681 -1313 511 -1189 
Q 341 -1066 341 -863 
Q 341 -700 445 -579 
Q 550 -459 709 -459 
Q 816 -459 887 -523 
Q 959 -588 959 -691 
Q 959 -828 857 -942 
Q 756 -1056 622 -1056 
z
" transform="scale(0.015625)"/>
     </defs>
     <use xlink:href="#DejaVuSerif-Italic-66" transform="translate(0 0.015625)"/>
     <use xlink:href="#DejaVuSerif-Italic-72" transform="translate(37.011719 0.015625)"/>
     <use xlink:href="#DejaVuSerif-Italic-61" transform="translate(84.814453 0.015625)"/>
     <use xlink:href="#DejaVuSerif-Italic-63" transform="translate(144.433594 0.015625)"/>
     <use xlink:href="#DejaVuSerif-Italic-74" transform="translate(200.439453 0.015625)"/>
     <use xlink:href="#DejaVuSerif-Italic-69" transform="translate(240.625 0.015625)"/>
     <use xlink:href="#DejaVuSerif-Italic-6f" transform="translate(272.607422 0.015625)"/>
     <use xlink:href="#DejaVuSerif-Italic-6e" transform="translate(332.8125 0.015625)"/>
     <use xlink:href="#DejaVuSerif-Italic-20" transform="translate(397.216797 0.015625)"/>
     <use xlink:href="#Cmmi10-66" transform="translate(429.003906 0.015625)"/>
    </g>
   </g>
   <g id="text_10">
    <!-- Sifting -->
    <g transform="translate(194.71044 71.334869) scale(0.07 -0.07)">
     <defs>
      <path id="DejaVuSerif-66" d="M 2753 4078 
L 2450 4078 
Q 2447 4313 2317 4434 
Q 2188 4556 1941 4556 
Q 1619 4556 1487 4379 
Q 1356 4203 1356 3750 
L 1356 3322 
L 2284 3322 
L 2284 2988 
L 1356 2988 
L 1356 331 
L 2094 331 
L 2094 0 
L 231 0 
L 231 331 
L 781 331 
L 781 2988 
L 231 2988 
L 231 3322 
L 781 3322 
L 781 3738 
Q 781 4294 1070 4578 
Q 1359 4863 1919 4863 
Q 2128 4863 2337 4825 
Q 2547 4788 2753 4709 
L 2753 4078 
z
" transform="scale(0.015625)"/>
      <path id="DejaVuSerif-67" d="M 3359 2988 
L 3359 72 
Q 3359 -644 2965 -1033 
Q 2572 -1422 1844 -1422 
Q 1516 -1422 1216 -1362 
Q 916 -1303 641 -1184 
L 641 -488 
L 941 -488 
Q 997 -813 1206 -963 
Q 1416 -1113 1806 -1113 
Q 2313 -1113 2548 -827 
Q 2784 -541 2784 72 
L 2784 519 
Q 2616 206 2355 57 
Q 2094 -91 1709 -91 
Q 1097 -91 708 395 
Q 319 881 319 1663 
Q 319 2444 706 2928 
Q 1094 3413 1709 3413 
Q 2094 3413 2355 3264 
Q 2616 3116 2784 2803 
L 2784 3322 
L 3909 3322 
L 3909 2988 
L 3359 2988 
z
M 2784 1825 
Q 2784 2422 2554 2737 
Q 2325 3053 1888 3053 
Q 1444 3053 1217 2703 
Q 991 2353 991 1663 
Q 991 975 1217 622 
Q 1444 269 1888 269 
Q 2325 269 2554 583 
Q 2784 897 2784 1497 
L 2784 1825 
z
" transform="scale(0.015625)"/>
     </defs>
     <use xlink:href="#DejaVuSerif-53"/>
     <use xlink:href="#DejaVuSerif-69" transform="translate(68.505859 0)"/>
     <use xlink:href="#DejaVuSerif-66" transform="translate(100.488281 0)"/>
     <use xlink:href="#DejaVuSerif-74" transform="translate(137.5 0)"/>
     <use xlink:href="#DejaVuSerif-69" transform="translate(177.685547 0)"/>
     <use xlink:href="#DejaVuSerif-6e" transform="translate(209.667969 0)"/>
     <use xlink:href="#DejaVuSerif-67" transform="translate(274.072266 0)"/>
    </g>
   </g>
   <g id="text_11">
    <!-- basis reconc. -->
    <g style="fill: #777777" transform="translate(187.24694 82.928757) scale(0.058 -0.058)">
     <defs>
      <path id="DejaVuSerif-Italic-62" d="M 1153 4531 
L 600 4531 
L 666 4863 
L 1794 4863 
L 1394 2803 
Q 1622 3116 1912 3264 
Q 2203 3413 2588 3413 
Q 3200 3413 3494 2928 
Q 3688 2609 3688 2163 
Q 3688 1928 3634 1663 
Q 3481 881 3000 395 
Q 2519 -91 1906 -91 
Q 1522 -91 1289 57 
Q 1056 206 950 519 
L 850 0 
L 275 0 
L 1153 4531 
z
M 1141 1497 
Q 1091 1250 1091 1053 
Q 1091 769 1191 581 
Q 1359 269 1797 269 
Q 2238 269 2533 622 
Q 2828 975 2963 1663 
Q 3025 1978 3025 2225 
Q 3025 2513 2938 2703 
Q 2781 3053 2338 3053 
Q 1900 3053 1609 2737 
Q 1319 2422 1203 1825 
L 1141 1497 
z
" transform="scale(0.015625)"/>
      <path id="DejaVuSerif-Italic-2e" d="M 664 29 
Q 569 150 603 325 
Q 638 500 780 622 
Q 922 744 1100 744 
Q 1272 744 1370 622 
Q 1469 500 1434 325 
Q 1400 153 1254 31 
Q 1109 -91 938 -91 
Q 759 -91 664 29 
z
" transform="scale(0.015625)"/>
     </defs>
     <use xlink:href="#DejaVuSerif-Italic-62"/>
     <use xlink:href="#DejaVuSerif-Italic-61" transform="translate(64.013672 0)"/>
     <use xlink:href="#DejaVuSerif-Italic-73" transform="translate(123.632812 0)"/>
     <use xlink:href="#DejaVuSerif-Italic-69" transform="translate(174.951172 0)"/>
     <use xlink:href="#DejaVuSerif-Italic-73" transform="translate(206.933594 0)"/>
     <use xlink:href="#DejaVuSerif-Italic-20" transform="translate(258.251953 0)"/>
     <use xlink:href="#DejaVuSerif-Italic-72" transform="translate(290.039062 0)"/>
     <use xlink:href="#DejaVuSerif-Italic-65" transform="translate(337.841797 0)"/>
     <use xlink:href="#DejaVuSerif-Italic-63" transform="translate(397.021484 0)"/>
     <use xlink:href="#DejaVuSerif-Italic-6f" transform="translate(453.027344 0)"/>
     <use xlink:href="#DejaVuSerif-Italic-6e" transform="translate(513.232422 0)"/>
     <use xlink:href="#DejaVuSerif-Italic-63" transform="translate(577.636719 0)"/>
     <use xlink:href="#DejaVuSerif-Italic-2e" transform="translate(633.642578 0)"/>
    </g>
   </g>
   <g id="text_12">
    <!-- Error -->
    <g transform="translate(251.608579 72.272048) scale(0.07 -0.07)">
     <defs>
      <path id="DejaVuSerif-45" d="M 353 0 
L 353 331 
L 947 331 
L 947 4331 
L 353 4331 
L 353 4666 
L 4109 4666 
L 4109 3628 
L 3725 3628 
L 3725 4281 
L 1581 4281 
L 1581 2719 
L 3109 2719 
L 3109 3303 
L 3494 3303 
L 3494 1753 
L 3109 1753 
L 3109 2338 
L 1581 2338 
L 1581 384 
L 3775 384 
L 3775 1038 
L 4159 1038 
L 4159 0 
L 353 0 
z
" transform="scale(0.015625)"/>
     </defs>
     <use xlink:href="#DejaVuSerif-45"/>
     <use xlink:href="#DejaVuSerif-72" transform="translate(72.998047 0)"/>
     <use xlink:href="#DejaVuSerif-72" transform="translate(120.800781 0)"/>
     <use xlink:href="#DejaVuSerif-6f" transform="translate(168.603516 0)"/>
     <use xlink:href="#DejaVuSerif-72" transform="translate(228.808594 0)"/>
    </g>
    <!-- reconciliation -->
    <g transform="translate(236.931001 80.110517) scale(0.07 -0.07)">
     <use xlink:href="#DejaVuSerif-72"/>
     <use xlink:href="#DejaVuSerif-65" transform="translate(47.802734 0)"/>
     <use xlink:href="#DejaVuSerif-63" transform="translate(106.982422 0)"/>
     <use xlink:href="#DejaVuSerif-6f" transform="translate(162.988281 0)"/>
     <use xlink:href="#DejaVuSerif-6e" transform="translate(223.193359 0)"/>
     <use xlink:href="#DejaVuSerif-63" transform="translate(287.597656 0)"/>
     <use xlink:href="#DejaVuSerif-69" transform="translate(343.603516 0)"/>
     <use xlink:href="#DejaVuSerif-6c" transform="translate(375.585938 0)"/>
     <use xlink:href="#DejaVuSerif-69" transform="translate(407.568359 0)"/>
     <use xlink:href="#DejaVuSerif-61" transform="translate(439.550781 0)"/>
     <use xlink:href="#DejaVuSerif-74" transform="translate(499.169922 0)"/>
     <use xlink:href="#DejaVuSerif-69" transform="translate(539.355469 0)"/>
     <use xlink:href="#DejaVuSerif-6f" transform="translate(571.337891 0)"/>
     <use xlink:href="#DejaVuSerif-6e" transform="translate(631.542969 0)"/>
    </g>
   </g>
   <g id="text_13">
    <!-- Privacy -->
    <g transform="translate(302.885937 72.172517) scale(0.07 -0.07)">
     <use xlink:href="#DejaVuSerif-50"/>
     <use xlink:href="#DejaVuSerif-72" transform="translate(67.285156 0)"/>
     <use xlink:href="#DejaVuSerif-69" transform="translate(115.087891 0)"/>
     <use xlink:href="#DejaVuSerif-76" transform="translate(147.070312 0)"/>
     <use xlink:href="#DejaVuSerif-61" transform="translate(203.564453 0)"/>
     <use xlink:href="#DejaVuSerif-63" transform="translate(263.183594 0)"/>
     <use xlink:href="#DejaVuSerif-79" transform="translate(319.189453 0)"/>
    </g>
    <!-- amplification -->
    <g transform="translate(292.800469 80.110517) scale(0.07 -0.07)">
     <defs>
      <path id="DejaVuSerif-6d" d="M 3316 2675 
Q 3481 3041 3739 3227 
Q 3997 3413 4341 3413 
Q 4863 3413 5119 3089 
Q 5375 2766 5375 2113 
L 5375 331 
L 5894 331 
L 5894 0 
L 4300 0 
L 4300 331 
L 4800 331 
L 4800 2047 
Q 4800 2556 4650 2772 
Q 4500 2988 4153 2988 
Q 3769 2988 3567 2697 
Q 3366 2406 3366 1850 
L 3366 331 
L 3866 331 
L 3866 0 
L 2291 0 
L 2291 331 
L 2791 331 
L 2791 2069 
Q 2791 2566 2641 2777 
Q 2491 2988 2144 2988 
Q 1759 2988 1557 2697 
Q 1356 2406 1356 1850 
L 1356 331 
L 1856 331 
L 1856 0 
L 263 0 
L 263 331 
L 781 331 
L 781 2994 
L 231 2994 
L 231 3322 
L 1356 3322 
L 1356 2731 
Q 1516 3063 1762 3238 
Q 2009 3413 2322 3413 
Q 2709 3413 2968 3220 
Q 3228 3028 3316 2675 
z
" transform="scale(0.015625)"/>
     </defs>
     <use xlink:href="#DejaVuSerif-61"/>
     <use xlink:href="#DejaVuSerif-6d" transform="translate(59.619141 0)"/>
     <use xlink:href="#DejaVuSerif-70" transform="translate(154.443359 0)"/>
     <use xlink:href="#DejaVuSerif-6c" transform="translate(218.457031 0)"/>
     <use xlink:href="#DejaVuSerif-69" transform="translate(250.439453 0)"/>
     <use xlink:href="#DejaVuSerif-66" transform="translate(282.421875 0)"/>
     <use xlink:href="#DejaVuSerif-69" transform="translate(319.433594 0)"/>
     <use xlink:href="#DejaVuSerif-63" transform="translate(351.416016 0)"/>
     <use xlink:href="#DejaVuSerif-61" transform="translate(407.421875 0)"/>
     <use xlink:href="#DejaVuSerif-74" transform="translate(467.041016 0)"/>
     <use xlink:href="#DejaVuSerif-69" transform="translate(507.226562 0)"/>
     <use xlink:href="#DejaVuSerif-6f" transform="translate(539.208984 0)"/>
     <use xlink:href="#DejaVuSerif-6e" transform="translate(599.414062 0)"/>
    </g>
   </g>
   <g id="text_14">
    <!-- Detection stats -->
    <g transform="translate(350.056223 71.384634) scale(0.07 -0.07)">
     <use xlink:href="#DejaVuSerif-44"/>
     <use xlink:href="#DejaVuSerif-65" transform="translate(80.175781 0)"/>
     <use xlink:href="#DejaVuSerif-74" transform="translate(139.355469 0)"/>
     <use xlink:href="#DejaVuSerif-65" transform="translate(179.541016 0)"/>
     <use xlink:href="#DejaVuSerif-63" transform="translate(238.720703 0)"/>
     <use xlink:href="#DejaVuSerif-74" transform="translate(294.726562 0)"/>
     <use xlink:href="#DejaVuSerif-69" transform="translate(334.912109 0)"/>
     <use xlink:href="#DejaVuSerif-6f" transform="translate(366.894531 0)"/>
     <use xlink:href="#DejaVuSerif-6e" transform="translate(427.099609 0)"/>
     <use xlink:href="#DejaVuSerif-20" transform="translate(491.503906 0)"/>
     <use xlink:href="#DejaVuSerif-73" transform="translate(523.291016 0)"/>
     <use xlink:href="#DejaVuSerif-74" transform="translate(574.609375 0)"/>
     <use xlink:href="#DejaVuSerif-61" transform="translate(614.794922 0)"/>
     <use xlink:href="#DejaVuSerif-74" transform="translate(674.414062 0)"/>
     <use xlink:href="#DejaVuSerif-73" transform="translate(714.599609 0)"/>
    </g>
   </g>
   <g id="text_15">
    <!-- FPR, FNR, $S$, SKR -->
    <g style="fill: #777777" transform="translate(350.328488 82.928757) scale(0.058 -0.058)">
     <defs>
      <path id="DejaVuSerif-Italic-46" d="M -97 0 
L -34 331 
L 559 331 
L 1338 4331 
L 744 4331 
L 809 4666 
L 4628 4666 
L 4428 3628 
L 4044 3628 
L 4169 4281 
L 1963 4281 
L 1659 2719 
L 3253 2719 
L 3366 3303 
L 3750 3303 
L 3450 1753 
L 3066 1753 
L 3178 2338 
L 1584 2338 
L 1194 331 
L 1941 331 
L 1878 0 
L -97 0 
z
" transform="scale(0.015625)"/>
      <path id="DejaVuSerif-Italic-50" d="M 1594 2375 
L 2419 2375 
Q 2884 2375 3176 2626 
Q 3469 2878 3559 3353 
Q 3653 3831 3458 4081 
Q 3263 4331 2797 4331 
L 1972 4331 
L 1594 2375 
z
M -97 0 
L -34 331 
L 559 331 
L 1338 4331 
L 744 4331 
L 809 4666 
L 3016 4666 
Q 3716 4666 4056 4311 
Q 4397 3956 4278 3353 
Q 4163 2753 3684 2397 
Q 3206 2041 2506 2041 
L 1528 2041 
L 1194 331 
L 1916 331 
L 1853 0 
L -97 0 
z
" transform="scale(0.015625)"/>
      <path id="DejaVuSerif-Italic-52" d="M 3066 2316 
Q 3272 2256 3403 2114 
Q 3534 1972 3609 1716 
L 4016 331 
L 4584 331 
L 4522 0 
L 3422 0 
L 2981 1484 
Q 2856 1916 2706 2042 
Q 2556 2169 2250 2169 
L 1553 2169 
L 1194 331 
L 1853 331 
L 1791 0 
L -97 0 
L -34 331 
L 559 331 
L 1338 4331 
L 744 4331 
L 809 4666 
L 3175 4666 
Q 3856 4666 4164 4341 
Q 4472 4016 4356 3419 
Q 4263 2938 3938 2661 
Q 3613 2384 3066 2316 
z
M 1619 2503 
L 2541 2503 
Q 3013 2503 3280 2726 
Q 3547 2950 3639 3419 
Q 3731 3888 3548 4109 
Q 3366 4331 2894 4331 
L 1972 4331 
L 1619 2503 
z
" transform="scale(0.015625)"/>
      <path id="DejaVuSerif-Italic-4e" d="M -128 0 
L -66 331 
L 563 331 
L 1341 4331 
L 713 4331 
L 778 4666 
L 1975 4666 
L 4056 984 
L 4706 4331 
L 4081 4331 
L 4147 4666 
L 5784 4666 
L 5719 4331 
L 5091 4331 
L 4231 -91 
L 3853 -91 
L 1631 3841 
L 947 331 
L 1575 331 
L 1513 0 
L -128 0 
z
" transform="scale(0.015625)"/>
      <path id="Cmmi10-53" d="M 391 -141 
Q 372 -141 356 -119 
Q 341 -97 341 -78 
L 709 1416 
Q 722 1453 763 1453 
L 838 1453 
Q 863 1453 877 1434 
Q 891 1416 891 1388 
Q 838 1169 838 997 
Q 838 534 1156 309 
Q 1475 84 1959 84 
Q 2169 84 2372 187 
Q 2575 291 2726 456 
Q 2878 622 2968 826 
Q 3059 1031 3059 1241 
Q 3059 1466 2940 1642 
Q 2822 1819 2613 1869 
L 1831 2075 
Q 1516 2159 1328 2414 
Q 1141 2669 1141 2988 
Q 1141 3372 1369 3728 
Q 1597 4084 1964 4298 
Q 2331 4513 2713 4513 
Q 3006 4513 3251 4405 
Q 3497 4297 3628 4063 
L 3994 4494 
Q 4031 4513 4038 4513 
L 4078 4513 
Q 4103 4513 4118 4491 
Q 4134 4469 4134 4447 
L 3763 2963 
Q 3753 2919 3713 2919 
L 3634 2919 
Q 3578 2919 3578 2988 
Q 3609 3191 3609 3341 
Q 3609 3638 3507 3858 
Q 3406 4078 3201 4192 
Q 2997 4306 2694 4306 
Q 2438 4306 2184 4159 
Q 1931 4013 1775 3769 
Q 1619 3525 1619 3263 
Q 1619 3056 1739 2897 
Q 1859 2738 2059 2681 
L 2841 2478 
Q 3053 2422 3211 2280 
Q 3369 2138 3450 1942 
Q 3531 1747 3531 1516 
Q 3531 1213 3403 917 
Q 3275 622 3045 378 
Q 2816 134 2525 -3 
Q 2234 -141 1931 -141 
Q 1169 -141 838 306 
L 481 -122 
Q 444 -141 434 -141 
L 391 -141 
z
" transform="scale(0.015625)"/>
      <path id="DejaVuSerif-Italic-53" d="M 184 225 
L 391 1288 
L 750 1284 
Q 663 753 905 498 
Q 1147 244 1744 244 
Q 2300 244 2636 464 
Q 2972 684 3053 1106 
Q 3119 1444 2976 1625 
Q 2834 1806 2300 1978 
L 1722 2163 
Q 1091 2366 877 2669 
Q 663 2972 766 3500 
Q 881 4094 1367 4422 
Q 1853 4750 2616 4750 
Q 2941 4750 3314 4679 
Q 3688 4609 4097 4475 
L 3906 3481 
L 3553 3481 
Q 3594 3975 3361 4195 
Q 3128 4416 2563 4416 
Q 2069 4416 1772 4214 
Q 1475 4013 1400 3628 
Q 1334 3294 1490 3103 
Q 1647 2913 2241 2725 
L 2784 2553 
Q 3381 2363 3593 2067 
Q 3806 1772 3709 1275 
Q 3578 597 3076 253 
Q 2575 -91 1716 -91 
Q 1331 -91 948 -12 
Q 566 66 184 225 
z
" transform="scale(0.015625)"/>
      <path id="DejaVuSerif-Italic-4b" d="M -97 0 
L -34 331 
L 559 331 
L 1338 4331 
L 744 4331 
L 809 4666 
L 2631 4666 
L 2566 4331 
L 1972 4331 
L 1628 2566 
L 3981 4331 
L 3475 4331 
L 3541 4666 
L 5091 4666 
L 5025 4331 
L 4500 4331 
L 2156 2572 
L 3959 331 
L 4491 331 
L 4428 0 
L 3344 0 
L 1563 2216 
L 1194 331 
L 1788 331 
L 1725 0 
L -97 0 
z
" transform="scale(0.015625)"/>
     </defs>
     <use xlink:href="#DejaVuSerif-Italic-46" transform="translate(0 0.78125)"/>
     <use xlink:href="#DejaVuSerif-Italic-50" transform="translate(69.384766 0.78125)"/>
     <use xlink:href="#DejaVuSerif-Italic-52" transform="translate(136.669922 0.78125)"/>
     <use xlink:href="#DejaVuSerif-Italic-2c" transform="translate(211.962891 0.78125)"/>
     <use xlink:href="#DejaVuSerif-Italic-20" transform="translate(243.75 0.78125)"/>
     <use xlink:href="#DejaVuSerif-Italic-46" transform="translate(275.537109 0.78125)"/>
     <use xlink:href="#DejaVuSerif-Italic-4e" transform="translate(344.921875 0.78125)"/>
     <use xlink:href="#DejaVuSerif-Italic-52" transform="translate(432.421875 0.78125)"/>
     <use xlink:href="#DejaVuSerif-Italic-2c" transform="translate(507.714844 0.78125)"/>
     <use xlink:href="#DejaVuSerif-Italic-20" transform="translate(539.501953 0.78125)"/>
     <use xlink:href="#Cmmi10-53" transform="translate(571.289062 0.78125)"/>
     <use xlink:href="#DejaVuSerif-Italic-2c" transform="translate(632.568359 0.78125)"/>
     <use xlink:href="#DejaVuSerif-Italic-20" transform="translate(664.355469 0.78125)"/>
     <use xlink:href="#DejaVuSerif-Italic-53" transform="translate(696.142578 0.78125)"/>
     <use xlink:href="#DejaVuSerif-Italic-4b" transform="translate(764.648438 0.78125)"/>
     <use xlink:href="#DejaVuSerif-Italic-52" transform="translate(839.355469 0.78125)"/>
    </g>
   </g>
  </g>
 </g>
 <defs>
  <clipPath id="pe856c0b59a">
   <rect x="2.16" y="2.16" width="418.5" height="141.372"/>
  </clipPath>
 </defs>
</svg>
