<?xml version="1.0" encoding="utf-8" standalone="no"?>
<!DOCTYPE svg PUBLIC "-//W3C//DTD SVG 1.1//EN"
  "http://www.w3.org/Graphics/SVG/1.1/DTD/svg11.dtd">
<svg xmlns:xlink="http://www.w3.org/1999/xlink" width="397.141053pt" height="112.428pt" viewBox="0 0 397.141053 112.428" xmlns="http://www.w3.org/2000/svg" version="1.1">
 <metadata>
  <rdf:RDF xmlns:dc="http://purl.org/dc/elements/1.1/" xmlns:cc="http://creativecommons.org/ns#" xmlns:rdf="http://www.w3.org/1999/02/22-rdf-syntax-ns#">
   <cc:Work>
    <dc:type rdf:resource="http://purl.org/dc/dcmitype/StillImage"/>
    <dc:date>2026-06-13T12:49:29.379117</dc:date>
    <dc:format>image/svg+xml</dc:format>
    <dc:creator>
     <cc:Agent>
      <dc:title>Matplotlib v3.10.9, https://matplotlib.org/</dc:title>
     </cc:Agent>
    </dc:creator>
   </cc:Work>
  </rdf:RDF>
 </metadata>
 <defs>
  <style type="text/css">*{stroke-linejoin: round; stroke-linecap: butt}</style>
 </defs>
 <g id="figure_1">
  <g id="patch_1">
   <path d="M 0 112.428 
L 397.141053 112.428 
L 397.141053 0 
L 0 0 
z
" style="fill: #ffffff"/>
  </g>
  <g id="axes_1">
   <g id="line2d_1">
    <path d="M 23.225789 64.53 
L 370.996842 64.53 
" clip-path="url(#p30146ddc5f)" style="fill: none; stroke: #1a1a1a; stroke-linecap: square"/>
   </g>
   <g id="line2d_2">
    <path d="M 107.170526 87.399 
L 107.170526 41.661 
" clip-path="url(#p30146ddc5f)" style="fill: none; stroke-dasharray: 2.4,2.4; stroke-dashoffset: 0; stroke: #777777; stroke-width: 0.8"/>
   </g>
   <g id="line2d_3">
    <path d="M 215.099474 87.399 
L 215.099474 41.661 
" clip-path="url(#p30146ddc5f)" style="fill: none; stroke-dasharray: 2.4,2.4; stroke-dashoffset: 0; stroke: #777777; stroke-width: 0.8"/>
   </g>
   <g id="line2d_4">
    <path d="M 263.067895 87.399 
L 263.067895 41.661 
" clip-path="url(#p30146ddc5f)" style="fill: none; stroke-dasharray: 2.4,2.4; stroke-dashoffset: 0; stroke: #777777; stroke-width: 0.8"/>
   </g>
   <g id="patch_2">
    <path d="M 115.736316 83.241 
L 204.820526 83.241 
L 204.820526 45.819 
L 115.736316 45.819 
L 115.736316 83.241 
z
" clip-path="url(#p30146ddc5f)" style="fill: none; stroke-dasharray: 1.8,1.8; stroke-dashoffset: 0; stroke: #c2452d; stroke-width: 0.9; stroke-linejoin: miter"/>
   </g>
   <g id="text_1">
    <!-- $|0\rangle$ -->
    <g transform="translate(2.16 68.18) scale(0.1 -0.1)">
     <defs>
      <path id="Cmsy10-6a" d="M 763 -1484 
L 763 4684 
Q 763 4734 800 4767 
Q 838 4800 891 4800 
Q 938 4800 978 4767 
Q 1019 4734 1019 4684 
L 1019 -1484 
Q 1019 -1534 978 -1567 
Q 938 -1600 891 -1600 
Q 838 -1600 800 -1567 
Q 763 -1534 763 -1484 
z
" transform="scale(0.015625)"/>
      <path id="Cmr10-30" d="M 1600 -141 
Q 816 -141 533 504 
Q 250 1150 250 2041 
Q 250 2597 351 3087 
Q 453 3578 754 3920 
Q 1056 4263 1600 4263 
Q 2022 4263 2290 4056 
Q 2559 3850 2700 3523 
Q 2841 3197 2892 2823 
Q 2944 2450 2944 2041 
Q 2944 1491 2842 1011 
Q 2741 531 2444 195 
Q 2147 -141 1600 -141 
z
M 1600 25 
Q 1956 25 2131 390 
Q 2306 756 2347 1200 
Q 2388 1644 2388 2144 
Q 2388 2625 2347 3031 
Q 2306 3438 2132 3767 
Q 1959 4097 1600 4097 
Q 1238 4097 1063 3765 
Q 888 3434 847 3029 
Q 806 2625 806 2144 
Q 806 1788 823 1472 
Q 841 1156 916 820 
Q 991 484 1158 254 
Q 1325 25 1600 25 
z
" transform="scale(0.015625)"/>
      <path id="Cmex10-ae" d="M 500 -7297 
Q 500 -7263 513 -7250 
L 2119 -3584 
L 513 84 
Q 500 97 500 128 
Q 500 175 537 215 
Q 575 256 628 256 
Q 703 256 750 178 
L 2381 -3541 
Q 2388 -3553 2388 -3584 
Q 2388 -3616 2381 -3634 
L 750 -7347 
Q 700 -7425 628 -7425 
Q 575 -7425 537 -7384 
Q 500 -7344 500 -7297 
z
" transform="scale(0.015625)"/>
     </defs>
     <use xlink:href="#Cmsy10-6a" transform="translate(0 0.658854)"/>
     <use xlink:href="#Cmr10-30" transform="translate(27.685547 0.658854)"/>
     <use xlink:href="#Cmex10-ae" transform="translate(77.685547 94)"/>
    </g>
   </g>
   <g id="patch_3">
    <path d="M 41.727895 75.3408 
L 62.971053 75.3408 
L 62.971053 53.7192 
L 41.727895 53.7192 
z
" clip-path="url(#p30146ddc5f)" style="fill: #ffffff; stroke: #1a1a1a; stroke-width: 1.1; stroke-linejoin: miter"/>
   </g>
   <g id="text_2">
    <!-- bit $a$ -->
    <g style="fill: #777777" transform="translate(44.614474 86.480906) scale(0.07 -0.07)">
     <defs>
      <path id="DejaVuSerif-Italic-62" d="M 1153 4531 
L 600 4531 
L 666 4863 
L 1794 4863 
L 1394 2803 
Q 1622 3116 1912 3264 
Q 2203 3413 2588 3413 
Q 3200 3413 3494 2928 
Q 3688 2609 3688 2163 
Q 3688 1928 3634 1663 
Q 3481 881 3000 395 
Q 2519 -91 1906 -91 
Q 1522 -91 1289 57 
Q 1056 206 950 519 
L 850 0 
L 275 0 
L 1153 4531 
z
M 1141 1497 
Q 1091 1250 1091 1053 
Q 1091 769 1191 581 
Q 1359 269 1797 269 
Q 2238 269 2533 622 
Q 2828 975 2963 1663 
Q 3025 1978 3025 2225 
Q 3025 2513 2938 2703 
Q 2781 3053 2338 3053 
Q 1900 3053 1609 2737 
Q 1319 2422 1203 1825 
L 1141 1497 
z
" transform="scale(0.015625)"/>
      <path id="DejaVuSerif-Italic-69" d="M 1009 4353 
Q 1038 4497 1163 4603 
Q 1288 4709 1434 4709 
Q 1578 4709 1663 4603 
Q 1728 4522 1728 4422 
Q 1728 4388 1719 4353 
Q 1691 4206 1567 4103 
Q 1444 4000 1297 4000 
Q 1150 4000 1066 4103 
Q 1003 4181 1003 4281 
Q 1003 4316 1009 4353 
z
M 963 331 
L 1506 331 
L 1444 0 
L 325 0 
L 903 2988 
L 353 2988 
L 419 3322 
L 1544 3322 
L 963 331 
z
" transform="scale(0.015625)"/>
      <path id="DejaVuSerif-Italic-74" d="M 856 2988 
L 350 2988 
L 416 3322 
L 922 3322 
L 1122 4353 
L 1700 4353 
L 1500 3322 
L 2581 3322 
L 2516 2988 
L 1434 2988 
L 1025 878 
Q 978 631 978 488 
Q 978 388 1000 338 
Q 1059 219 1278 219 
Q 1503 219 1633 351 
Q 1763 484 1825 781 
L 2259 781 
Q 2147 328 1884 118 
Q 1622 -91 1169 -91 
Q 672 -91 506 131 
Q 406 266 406 516 
Q 406 675 447 878 
L 856 2988 
z
" transform="scale(0.015625)"/>
      <path id="DejaVuSerif-Italic-20" transform="scale(0.015625)"/>
      <path id="Cmmi10-61" d="M 1113 -72 
Q 709 -72 476 233 
Q 244 538 244 953 
Q 244 1363 456 1803 
Q 669 2244 1030 2536 
Q 1391 2828 1806 2828 
Q 1997 2828 2147 2725 
Q 2297 2622 2381 2444 
Q 2453 2700 2663 2700 
Q 2744 2700 2798 2651 
Q 2853 2603 2853 2522 
Q 2853 2503 2851 2493 
Q 2850 2484 2847 2472 
L 2400 684 
Q 2356 494 2356 372 
Q 2356 97 2541 97 
Q 2741 97 2845 351 
Q 2950 606 3022 941 
Q 3034 978 3072 978 
L 3150 978 
Q 3175 978 3190 956 
Q 3206 934 3206 916 
Q 3094 469 2961 198 
Q 2828 -72 2528 -72 
Q 2313 -72 2147 54 
Q 1981 181 1941 391 
Q 1528 -72 1113 -72 
z
M 1119 97 
Q 1350 97 1567 270 
Q 1784 444 1941 678 
Q 1947 684 1947 697 
L 2291 2088 
L 2297 2106 
Q 2259 2334 2132 2498 
Q 2006 2663 1791 2663 
Q 1575 2663 1389 2486 
Q 1203 2309 1075 2069 
Q 950 1813 836 1366 
Q 722 919 722 672 
Q 722 450 817 273 
Q 913 97 1119 97 
z
" transform="scale(0.015625)"/>
     </defs>
     <use xlink:href="#DejaVuSerif-Italic-62" transform="translate(0 0.015625)"/>
     <use xlink:href="#DejaVuSerif-Italic-69" transform="translate(64.013672 0.015625)"/>
     <use xlink:href="#DejaVuSerif-Italic-74" transform="translate(95.996094 0.015625)"/>
     <use xlink:href="#DejaVuSerif-Italic-20" transform="translate(136.181641 0.015625)"/>
     <use xlink:href="#Cmmi10-61" transform="translate(167.96875 0.015625)"/>
    </g>
   </g>
   <g id="patch_4">
    <path d="M 75.991053 75.3408 
L 97.234211 75.3408 
L 97.234211 53.7192 
L 75.991053 53.7192 
z
" clip-path="url(#p30146ddc5f)" style="fill: #ffffff; stroke: #1a1a1a; stroke-width: 1.1; stroke-linejoin: miter"/>
   </g>
   <g id="text_3">
    <!-- basis -->
    <g style="fill: #777777" transform="translate(77.573882 86.480906) scale(0.07 -0.07)">
     <defs>
      <path id="DejaVuSerif-Italic-61" d="M 2325 519 
Q 1909 -91 1238 -91 
Q 688 -91 409 281 
Q 216 544 216 919 
Q 216 1078 250 1256 
Q 463 2359 1231 2928 
Q 1884 3413 2675 3413 
Q 3206 3413 3388 3322 
L 2806 331 
L 3300 331 
L 3238 0 
L 2225 0 
L 2325 519 
z
M 822 938 
Q 822 269 1469 269 
Q 1863 269 2130 583 
Q 2397 897 2516 1497 
L 2806 3003 
L 2806 3003 
Q 2806 3094 2556 3094 
Q 1956 3094 1491 2625 
Q 1028 2153 863 1297 
Q 822 1097 822 938 
z
" transform="scale(0.015625)"/>
      <path id="DejaVuSerif-Italic-73" d="M 222 959 
L 553 959 
Q 541 869 541 788 
Q 541 219 1313 219 
Q 2088 219 2200 788 
Q 2209 844 2209 944 
Q 2209 1041 2103 1158 
Q 1997 1275 1550 1428 
L 1159 1569 
Q 759 1706 629 1882 
Q 500 2059 500 2263 
Q 500 2344 516 2438 
Q 606 2894 990 3153 
Q 1375 3413 1931 3413 
Q 2484 3413 3066 3144 
L 2925 2419 
L 2594 2419 
Q 2606 2491 2606 2553 
Q 2606 2781 2448 2942 
Q 2291 3103 1925 3103 
Q 1191 3103 1091 2591 
Q 1078 2538 1078 2444 
Q 1078 2347 1179 2237 
Q 1281 2128 1678 1997 
L 2106 1856 
Q 2550 1709 2716 1488 
Q 2831 1331 2831 1178 
Q 2831 522 2306 181 
Q 1894 -91 1262 -91 
Q 631 -91 72 184 
L 222 959 
z
" transform="scale(0.015625)"/>
     </defs>
     <use xlink:href="#DejaVuSerif-Italic-62"/>
     <use xlink:href="#DejaVuSerif-Italic-61" transform="translate(64.013672 0)"/>
     <use xlink:href="#DejaVuSerif-Italic-73" transform="translate(123.632812 0)"/>
     <use xlink:href="#DejaVuSerif-Italic-69" transform="translate(174.951172 0)"/>
     <use xlink:href="#DejaVuSerif-Italic-73" transform="translate(206.933594 0)"/>
    </g>
   </g>
   <g id="patch_5">
    <path d="M 120.533158 75.3408 
L 141.776316 75.3408 
L 141.776316 53.7192 
L 120.533158 53.7192 
z
" clip-path="url(#p30146ddc5f)" style="fill: #ffffff; stroke: #c2452d; stroke-width: 1.1; stroke-linejoin: miter"/>
   </g>
   <g id="patch_6">
    <path d="M 151.37 75.3408 
L 172.613158 75.3408 
L 172.613158 53.7192 
L 151.37 53.7192 
z
" clip-path="url(#p30146ddc5f)" style="fill: #ffffff; stroke: #1a1a1a; stroke-width: 1.1; stroke-linejoin: miter"/>
   </g>
   <g id="patch_7">
    <path d="M 182.206842 75.3408 
L 203.45 75.3408 
L 203.45 53.7192 
L 182.206842 53.7192 
z
" clip-path="url(#p30146ddc5f)" style="fill: #ffffff; stroke: #c2452d; stroke-width: 1.1; stroke-linejoin: miter"/>
   </g>
   <g id="text_4">
    <!-- Eve  (prob. $f$) -->
    <g style="fill: #c2452d" transform="translate(133.797421 30.4596) scale(0.078 -0.078)">
     <defs>
      <path id="DejaVuSerif-45" d="M 353 0 
L 353 331 
L 947 331 
L 947 4331 
L 353 4331 
L 353 4666 
L 4109 4666 
L 4109 3628 
L 3725 3628 
L 3725 4281 
L 1581 4281 
L 1581 2719 
L 3109 2719 
L 3109 3303 
L 3494 3303 
L 3494 1753 
L 3109 1753 
L 3109 2338 
L 1581 2338 
L 1581 384 
L 3775 384 
L 3775 1038 
L 4159 1038 
L 4159 0 
L 353 0 
z
" transform="scale(0.015625)"/>
      <path id="DejaVuSerif-76" d="M 1581 0 
L 359 2988 
L -19 2988 
L -19 3322 
L 1509 3322 
L 1509 2988 
L 978 2988 
L 1913 703 
L 2847 2988 
L 2350 2988 
L 2350 3322 
L 3597 3322 
L 3597 2988 
L 3225 2988 
L 2003 0 
L 1581 0 
z
" transform="scale(0.015625)"/>
      <path id="DejaVuSerif-65" d="M 3469 1600 
L 991 1600 
L 991 1575 
Q 991 903 1244 561 
Q 1497 219 1991 219 
Q 2369 219 2611 417 
Q 2853 616 2950 1006 
L 3413 1006 
Q 3275 459 2904 184 
Q 2534 -91 1931 -91 
Q 1203 -91 761 389 
Q 319 869 319 1663 
Q 319 2450 753 2931 
Q 1188 3413 1894 3413 
Q 2647 3413 3050 2948 
Q 3453 2484 3469 1600 
z
M 2791 1931 
Q 2772 2513 2545 2808 
Q 2319 3103 1894 3103 
Q 1497 3103 1269 2806 
Q 1041 2509 991 1931 
L 2791 1931 
z
" transform="scale(0.015625)"/>
      <path id="DejaVuSerif-20" transform="scale(0.015625)"/>
      <path id="DejaVuSerif-28" d="M 2041 -997 
Q 1281 -656 893 83 
Q 506 822 506 1931 
Q 506 3044 893 3783 
Q 1281 4522 2041 4863 
L 2041 4556 
Q 1559 4225 1350 3623 
Q 1141 3022 1141 1931 
Q 1141 844 1350 242 
Q 1559 -359 2041 -691 
L 2041 -997 
z
" transform="scale(0.015625)"/>
      <path id="DejaVuSerif-70" d="M 1313 1825 
L 1313 1497 
Q 1313 897 1542 583 
Q 1772 269 2209 269 
Q 2650 269 2876 622 
Q 3103 975 3103 1663 
Q 3103 2353 2876 2703 
Q 2650 3053 2209 3053 
Q 1772 3053 1542 2737 
Q 1313 2422 1313 1825 
z
M 738 2988 
L 184 2988 
L 184 3322 
L 1313 3322 
L 1313 2803 
Q 1481 3116 1742 3264 
Q 2003 3413 2388 3413 
Q 3000 3413 3387 2928 
Q 3775 2444 3775 1663 
Q 3775 881 3387 395 
Q 3000 -91 2388 -91 
Q 2003 -91 1742 57 
Q 1481 206 1313 519 
L 1313 -997 
L 1856 -997 
L 1856 -1331 
L 184 -1331 
L 184 -997 
L 738 -997 
L 738 2988 
z
" transform="scale(0.015625)"/>
      <path id="DejaVuSerif-72" d="M 3059 3328 
L 3059 2497 
L 2728 2497 
Q 2713 2744 2591 2866 
Q 2469 2988 2234 2988 
Q 1809 2988 1582 2694 
Q 1356 2400 1356 1850 
L 1356 331 
L 2022 331 
L 2022 0 
L 263 0 
L 263 331 
L 781 331 
L 781 2994 
L 231 2994 
L 231 3322 
L 1356 3322 
L 1356 2731 
Q 1525 3078 1790 3245 
Q 2056 3413 2438 3413 
Q 2578 3413 2733 3391 
Q 2888 3369 3059 3328 
z
" transform="scale(0.015625)"/>
      <path id="DejaVuSerif-6f" d="M 1925 219 
Q 2388 219 2623 584 
Q 2859 950 2859 1663 
Q 2859 2375 2623 2739 
Q 2388 3103 1925 3103 
Q 1463 3103 1227 2739 
Q 991 2375 991 1663 
Q 991 950 1228 584 
Q 1466 219 1925 219 
z
M 1925 -91 
Q 1200 -91 759 389 
Q 319 869 319 1663 
Q 319 2456 758 2934 
Q 1197 3413 1925 3413 
Q 2653 3413 3092 2934 
Q 3531 2456 3531 1663 
Q 3531 869 3092 389 
Q 2653 -91 1925 -91 
z
" transform="scale(0.015625)"/>
      <path id="DejaVuSerif-62" d="M 738 331 
L 738 4531 
L 184 4531 
L 184 4863 
L 1313 4863 
L 1313 2803 
Q 1481 3116 1742 3264 
Q 2003 3413 2388 3413 
Q 3000 3413 3387 2928 
Q 3775 2444 3775 1663 
Q 3775 881 3387 395 
Q 3000 -91 2388 -91 
Q 2003 -91 1742 57 
Q 1481 206 1313 519 
L 1313 0 
L 184 0 
L 184 331 
L 738 331 
z
M 1313 1497 
Q 1313 897 1542 583 
Q 1772 269 2209 269 
Q 2650 269 2876 622 
Q 3103 975 3103 1663 
Q 3103 2353 2876 2703 
Q 2650 3053 2209 3053 
Q 1772 3053 1542 2737 
Q 1313 2422 1313 1825 
L 1313 1497 
z
" transform="scale(0.015625)"/>
      <path id="DejaVuSerif-2e" d="M 603 325 
Q 603 500 722 622 
Q 841 744 1019 744 
Q 1191 744 1312 622 
Q 1434 500 1434 325 
Q 1434 153 1312 31 
Q 1191 -91 1019 -91 
Q 841 -91 722 29 
Q 603 150 603 325 
z
" transform="scale(0.015625)"/>
      <path id="Cmmi10-66" d="M 622 -1056 
Q 741 -1147 909 -1147 
Q 1138 -1147 1281 -641 
Q 1341 -397 1606 966 
L 1900 2534 
L 1350 2534 
Q 1288 2534 1288 2619 
Q 1313 2759 1369 2759 
L 1941 2759 
L 2016 3175 
Q 2053 3369 2084 3508 
Q 2116 3647 2152 3765 
Q 2188 3884 2259 4031 
Q 2369 4241 2555 4377 
Q 2741 4513 2956 4513 
Q 3097 4513 3230 4461 
Q 3363 4409 3447 4306 
Q 3531 4203 3531 4063 
Q 3531 3900 3423 3779 
Q 3316 3659 3163 3659 
Q 3059 3659 2986 3723 
Q 2913 3788 2913 3891 
Q 2913 4031 3008 4136 
Q 3103 4241 3244 4256 
Q 3125 4347 2950 4347 
Q 2853 4347 2767 4256 
Q 2681 4166 2656 4063 
Q 2616 3900 2478 3181 
L 2400 2759 
L 3059 2759 
Q 3122 2759 3122 2675 
Q 3119 2659 3109 2620 
Q 3100 2581 3083 2557 
Q 3066 2534 3041 2534 
L 2356 2534 
L 2059 972 
Q 2003 631 1929 279 
Q 1856 -72 1723 -442 
Q 1591 -813 1384 -1063 
Q 1178 -1313 897 -1313 
Q 681 -1313 511 -1189 
Q 341 -1066 341 -863 
Q 341 -700 445 -579 
Q 550 -459 709 -459 
Q 816 -459 887 -523 
Q 959 -588 959 -691 
Q 959 -828 857 -942 
Q 756 -1056 622 -1056 
z
" transform="scale(0.015625)"/>
      <path id="DejaVuSerif-29" d="M 453 -997 
L 453 -691 
Q 934 -359 1145 242 
Q 1356 844 1356 1931 
Q 1356 3022 1145 3623 
Q 934 4225 453 4556 
L 453 4863 
Q 1216 4522 1603 3783 
Q 1991 3044 1991 1931 
Q 1991 822 1603 83 
Q 1216 -656 453 -997 
z
" transform="scale(0.015625)"/>
     </defs>
     <use xlink:href="#DejaVuSerif-45" transform="translate(0 0.015625)"/>
     <use xlink:href="#DejaVuSerif-76" transform="translate(72.998047 0.015625)"/>
     <use xlink:href="#DejaVuSerif-65" transform="translate(129.492188 0.015625)"/>
     <use xlink:href="#DejaVuSerif-20" transform="translate(188.671875 0.015625)"/>
     <use xlink:href="#DejaVuSerif-20" transform="translate(220.458984 0.015625)"/>
     <use xlink:href="#DejaVuSerif-28" transform="translate(252.246094 0.015625)"/>
     <use xlink:href="#DejaVuSerif-70" transform="translate(291.259766 0.015625)"/>
     <use xlink:href="#DejaVuSerif-72" transform="translate(355.273438 0.015625)"/>
     <use xlink:href="#DejaVuSerif-6f" transform="translate(403.076172 0.015625)"/>
     <use xlink:href="#DejaVuSerif-62" transform="translate(463.28125 0.015625)"/>
     <use xlink:href="#DejaVuSerif-2e" transform="translate(527.294922 0.015625)"/>
     <use xlink:href="#DejaVuSerif-20" transform="translate(559.082031 0.015625)"/>
     <use xlink:href="#Cmmi10-66" transform="translate(590.869141 0.015625)"/>
     <use xlink:href="#DejaVuSerif-29" transform="translate(639.746094 0.015625)"/>
    </g>
   </g>
   <g id="patch_8">
    <path d="M 228.462105 75.3408 
L 249.705263 75.3408 
L 249.705263 53.7192 
L 228.462105 53.7192 
z
" clip-path="url(#p30146ddc5f)" style="fill: #f3eee6; stroke: #1a1a1a; stroke-width: 1.1; stroke-linejoin: miter"/>
   </g>
   <g id="text_5">
    <!-- noise -->
    <g style="fill: #777777" transform="translate(229.735403 86.480906) scale(0.07 -0.07)">
     <defs>
      <path id="DejaVuSerif-Italic-6e" d="M 450 0 
L 1031 2988 
L 481 2988 
L 544 3322 
L 1669 3322 
L 1556 2731 
Q 1781 3069 2068 3241 
Q 2356 3413 2694 3413 
Q 3244 3413 3444 3097 
Q 3563 2906 3563 2588 
Q 3563 2378 3509 2113 
L 3163 331 
L 3675 331 
L 3613 0 
L 2522 0 
L 2897 1931 
Q 2959 2253 2959 2469 
Q 2959 2659 2909 2769 
Q 2803 2994 2425 2994 
Q 2025 2994 1759 2701 
Q 1494 2409 1384 1850 
L 1025 0 
L 450 0 
z
" transform="scale(0.015625)"/>
      <path id="DejaVuSerif-Italic-6f" d="M 1644 219 
Q 2106 219 2414 584 
Q 2722 950 2859 1663 
Q 2922 1988 2922 2241 
Q 2922 2541 2834 2738 
Q 2669 3103 2206 3103 
Q 1744 3103 1436 2739 
Q 1128 2375 991 1663 
Q 928 1338 928 1088 
Q 928 784 1019 584 
Q 1184 219 1644 219 
z
M 1584 -91 
Q 859 -91 513 388 
Q 272 722 272 1203 
Q 272 1419 319 1663 
Q 472 2456 1005 2934 
Q 1538 3413 2266 3413 
Q 2994 3413 3341 2934 
Q 3578 2603 3578 2122 
Q 3578 1906 3531 1663 
Q 3378 869 2845 389 
Q 2313 -91 1584 -91 
z
" transform="scale(0.015625)"/>
      <path id="DejaVuSerif-Italic-65" d="M 938 1275 
Q 925 1156 925 1050 
Q 925 756 1031 563 
Q 1216 219 1709 219 
Q 2072 219 2250 328 
Q 2569 525 2644 778 
L 3066 778 
Q 2941 381 2475 103 
Q 2150 -91 1506 -91 
Q 863 -91 516 388 
Q 272 722 272 1206 
Q 272 1419 319 1659 
Q 472 2450 1000 2931 
Q 1528 3413 2278 3413 
Q 3500 3413 3500 2547 
Q 3500 1913 2859 1603 
Q 2206 1288 938 1275 
z
M 2541 1975 
Q 2891 2181 2891 2569 
Q 2891 3103 2181 3103 
Q 1763 3103 1472 2784 
Q 1181 2466 1003 1606 
Q 2006 1653 2541 1975 
z
" transform="scale(0.015625)"/>
     </defs>
     <use xlink:href="#DejaVuSerif-Italic-6e"/>
     <use xlink:href="#DejaVuSerif-Italic-6f" transform="translate(64.404297 0)"/>
     <use xlink:href="#DejaVuSerif-Italic-69" transform="translate(124.609375 0)"/>
     <use xlink:href="#DejaVuSerif-Italic-73" transform="translate(156.591797 0)"/>
     <use xlink:href="#DejaVuSerif-Italic-65" transform="translate(207.910156 0)"/>
    </g>
   </g>
   <g id="patch_9">
    <path d="M 278.143684 75.3408 
L 299.386842 75.3408 
L 299.386842 53.7192 
L 278.143684 53.7192 
z
" clip-path="url(#p30146ddc5f)" style="fill: #ffffff; stroke: #1a1a1a; stroke-width: 1.1; stroke-linejoin: miter"/>
   </g>
   <g id="text_6">
    <!-- basis -->
    <g style="fill: #777777" transform="translate(279.726513 86.480906) scale(0.07 -0.07)">
     <use xlink:href="#DejaVuSerif-Italic-62"/>
     <use xlink:href="#DejaVuSerif-Italic-61" transform="translate(64.013672 0)"/>
     <use xlink:href="#DejaVuSerif-Italic-73" transform="translate(123.632812 0)"/>
     <use xlink:href="#DejaVuSerif-Italic-69" transform="translate(174.951172 0)"/>
     <use xlink:href="#DejaVuSerif-Italic-73" transform="translate(206.933594 0)"/>
    </g>
   </g>
   <g id="patch_10">
    <path d="M 312.406842 75.3408 
L 333.65 75.3408 
L 333.65 53.7192 
L 312.406842 53.7192 
z
" clip-path="url(#p30146ddc5f)" style="fill: #ffffff; stroke: #1a1a1a; stroke-width: 1.1; stroke-linejoin: miter"/>
   </g>
   <g id="text_7">
    <!-- Alice: prepare -->
    <g transform="translate(40.742303 15.4656) scale(0.08 -0.08)">
     <defs>
      <path id="DejaVuSerif-41" d="M 1281 1691 
L 2994 1691 
L 2138 3909 
L 1281 1691 
z
M -38 0 
L -38 331 
L 372 331 
L 2034 4666 
L 2559 4666 
L 4225 331 
L 4684 331 
L 4684 0 
L 2988 0 
L 2988 331 
L 3506 331 
L 3116 1356 
L 1153 1356 
L 763 331 
L 1275 331 
L 1275 0 
L -38 0 
z
" transform="scale(0.015625)"/>
      <path id="DejaVuSerif-6c" d="M 1313 331 
L 1856 331 
L 1856 0 
L 184 0 
L 184 331 
L 738 331 
L 738 4531 
L 184 4531 
L 184 4863 
L 1313 4863 
L 1313 331 
z
" transform="scale(0.015625)"/>
      <path id="DejaVuSerif-69" d="M 622 4353 
Q 622 4497 726 4603 
Q 831 4709 978 4709 
Q 1122 4709 1226 4603 
Q 1331 4497 1331 4353 
Q 1331 4206 1228 4103 
Q 1125 4000 978 4000 
Q 831 4000 726 4103 
Q 622 4206 622 4353 
z
M 1356 331 
L 1900 331 
L 1900 0 
L 231 0 
L 231 331 
L 781 331 
L 781 2988 
L 231 2988 
L 231 3322 
L 1356 3322 
L 1356 331 
z
" transform="scale(0.015625)"/>
      <path id="DejaVuSerif-63" d="M 3291 997 
Q 3169 466 2822 187 
Q 2475 -91 1925 -91 
Q 1200 -91 759 389 
Q 319 869 319 1663 
Q 319 2459 759 2936 
Q 1200 3413 1925 3413 
Q 2241 3413 2553 3339 
Q 2866 3266 3181 3116 
L 3181 2266 
L 2847 2266 
Q 2781 2703 2561 2903 
Q 2341 3103 1931 3103 
Q 1466 3103 1228 2742 
Q 991 2381 991 1663 
Q 991 944 1227 581 
Q 1463 219 1931 219 
Q 2303 219 2525 412 
Q 2747 606 2828 997 
L 3291 997 
z
" transform="scale(0.015625)"/>
      <path id="DejaVuSerif-3a" d="M 666 325 
Q 666 500 786 622 
Q 906 744 1081 744 
Q 1256 744 1376 622 
Q 1497 500 1497 325 
Q 1497 150 1378 29 
Q 1259 -91 1081 -91 
Q 903 -91 784 29 
Q 666 150 666 325 
z
M 666 2363 
Q 666 2538 786 2658 
Q 906 2778 1081 2778 
Q 1259 2778 1378 2659 
Q 1497 2541 1497 2363 
Q 1497 2184 1378 2065 
Q 1259 1947 1081 1947 
Q 906 1947 786 2067 
Q 666 2188 666 2363 
z
" transform="scale(0.015625)"/>
      <path id="DejaVuSerif-61" d="M 2547 1044 
L 2547 1747 
L 1806 1747 
Q 1378 1747 1168 1562 
Q 959 1378 959 997 
Q 959 650 1171 447 
Q 1384 244 1747 244 
Q 2106 244 2326 466 
Q 2547 688 2547 1044 
z
M 3122 2075 
L 3122 331 
L 3634 331 
L 3634 0 
L 2547 0 
L 2547 359 
Q 2356 128 2106 18 
Q 1856 -91 1522 -91 
Q 969 -91 644 203 
Q 319 497 319 997 
Q 319 1513 691 1797 
Q 1063 2081 1741 2081 
L 2547 2081 
L 2547 2309 
Q 2547 2688 2317 2895 
Q 2088 3103 1672 3103 
Q 1328 3103 1125 2947 
Q 922 2791 872 2484 
L 575 2484 
L 575 3156 
Q 875 3284 1158 3348 
Q 1441 3413 1709 3413 
Q 2400 3413 2761 3070 
Q 3122 2728 3122 2075 
z
" transform="scale(0.015625)"/>
     </defs>
     <use xlink:href="#DejaVuSerif-41"/>
     <use xlink:href="#DejaVuSerif-6c" transform="translate(72.216797 0)"/>
     <use xlink:href="#DejaVuSerif-69" transform="translate(104.199219 0)"/>
     <use xlink:href="#DejaVuSerif-63" transform="translate(136.181641 0)"/>
     <use xlink:href="#DejaVuSerif-65" transform="translate(192.1875 0)"/>
     <use xlink:href="#DejaVuSerif-3a" transform="translate(251.367188 0)"/>
     <use xlink:href="#DejaVuSerif-20" transform="translate(285.058594 0)"/>
     <use xlink:href="#DejaVuSerif-70" transform="translate(316.845703 0)"/>
     <use xlink:href="#DejaVuSerif-72" transform="translate(380.859375 0)"/>
     <use xlink:href="#DejaVuSerif-65" transform="translate(428.662109 0)"/>
     <use xlink:href="#DejaVuSerif-70" transform="translate(487.841797 0)"/>
     <use xlink:href="#DejaVuSerif-61" transform="translate(551.855469 0)"/>
     <use xlink:href="#DejaVuSerif-72" transform="translate(611.474609 0)"/>
     <use xlink:href="#DejaVuSerif-65" transform="translate(659.277344 0)"/>
    </g>
   </g>
   <g id="text_8">
    <!-- Bob: measure -->
    <g transform="translate(277.916217 15.4656) scale(0.08 -0.08)">
     <defs>
      <path id="DejaVuSerif-42" d="M 1581 331 
L 2516 331 
Q 3078 331 3337 575 
Q 3597 819 3597 1350 
Q 3597 1878 3339 2120 
Q 3081 2363 2516 2363 
L 1581 2363 
L 1581 331 
z
M 1581 2694 
L 2375 2694 
Q 2888 2694 3123 2891 
Q 3359 3088 3359 3513 
Q 3359 3941 3123 4136 
Q 2888 4331 2375 4331 
L 1581 4331 
L 1581 2694 
z
M 353 0 
L 353 331 
L 947 331 
L 947 4331 
L 353 4331 
L 353 4666 
L 2656 4666 
Q 3363 4666 3720 4377 
Q 4078 4088 4078 3513 
Q 4078 3097 3829 2850 
Q 3581 2603 3103 2547 
Q 3697 2472 4005 2167 
Q 4313 1863 4313 1350 
Q 4313 656 3875 328 
Q 3438 0 2509 0 
L 353 0 
z
" transform="scale(0.015625)"/>
      <path id="DejaVuSerif-6d" d="M 3316 2675 
Q 3481 3041 3739 3227 
Q 3997 3413 4341 3413 
Q 4863 3413 5119 3089 
Q 5375 2766 5375 2113 
L 5375 331 
L 5894 331 
L 5894 0 
L 4300 0 
L 4300 331 
L 4800 331 
L 4800 2047 
Q 4800 2556 4650 2772 
Q 4500 2988 4153 2988 
Q 3769 2988 3567 2697 
Q 3366 2406 3366 1850 
L 3366 331 
L 3866 331 
L 3866 0 
L 2291 0 
L 2291 331 
L 2791 331 
L 2791 2069 
Q 2791 2566 2641 2777 
Q 2491 2988 2144 2988 
Q 1759 2988 1557 2697 
Q 1356 2406 1356 1850 
L 1356 331 
L 1856 331 
L 1856 0 
L 263 0 
L 263 331 
L 781 331 
L 781 2994 
L 231 2994 
L 231 3322 
L 1356 3322 
L 1356 2731 
Q 1516 3063 1762 3238 
Q 2009 3413 2322 3413 
Q 2709 3413 2968 3220 
Q 3228 3028 3316 2675 
z
" transform="scale(0.015625)"/>
      <path id="DejaVuSerif-73" d="M 359 184 
L 359 959 
L 691 959 
Q 703 588 923 403 
Q 1144 219 1575 219 
Q 1963 219 2166 364 
Q 2369 509 2369 788 
Q 2369 1006 2220 1140 
Q 2072 1275 1594 1428 
L 1178 1569 
Q 750 1706 558 1912 
Q 366 2119 366 2438 
Q 366 2894 700 3153 
Q 1034 3413 1625 3413 
Q 1888 3413 2178 3344 
Q 2469 3275 2778 3144 
L 2778 2419 
L 2447 2419 
Q 2434 2741 2221 2922 
Q 2009 3103 1644 3103 
Q 1281 3103 1095 2975 
Q 909 2847 909 2591 
Q 909 2381 1050 2254 
Q 1191 2128 1613 1997 
L 2069 1856 
Q 2541 1709 2748 1489 
Q 2956 1269 2956 922 
Q 2956 450 2595 179 
Q 2234 -91 1600 -91 
Q 1278 -91 972 -22 
Q 666 47 359 184 
z
" transform="scale(0.015625)"/>
      <path id="DejaVuSerif-75" d="M 2266 3322 
L 3341 3322 
L 3341 331 
L 3884 331 
L 3884 0 
L 2766 0 
L 2766 588 
Q 2606 256 2353 82 
Q 2100 -91 1766 -91 
Q 1213 -91 952 223 
Q 691 538 691 1209 
L 691 2988 
L 172 2988 
L 172 3322 
L 1269 3322 
L 1269 1388 
Q 1269 781 1417 556 
Q 1566 331 1947 331 
Q 2347 331 2556 625 
Q 2766 919 2766 1478 
L 2766 2988 
L 2266 2988 
L 2266 3322 
z
" transform="scale(0.015625)"/>
     </defs>
     <use xlink:href="#DejaVuSerif-42"/>
     <use xlink:href="#DejaVuSerif-6f" transform="translate(73.486328 0)"/>
     <use xlink:href="#DejaVuSerif-62" transform="translate(133.691406 0)"/>
     <use xlink:href="#DejaVuSerif-3a" transform="translate(197.705078 0)"/>
     <use xlink:href="#DejaVuSerif-20" transform="translate(231.396484 0)"/>
     <use xlink:href="#DejaVuSerif-6d" transform="translate(263.183594 0)"/>
     <use xlink:href="#DejaVuSerif-65" transform="translate(358.007812 0)"/>
     <use xlink:href="#DejaVuSerif-61" transform="translate(417.1875 0)"/>
     <use xlink:href="#DejaVuSerif-73" transform="translate(476.806641 0)"/>
     <use xlink:href="#DejaVuSerif-75" transform="translate(528.125 0)"/>
     <use xlink:href="#DejaVuSerif-72" transform="translate(592.529297 0)"/>
     <use xlink:href="#DejaVuSerif-65" transform="translate(640.332031 0)"/>
    </g>
   </g>
   <g id="text_9">
    <!-- channel -->
    <g style="fill: #777777" transform="translate(223.083059 15.4656) scale(0.08 -0.08)">
     <defs>
      <path id="DejaVuSerif-68" d="M 263 0 
L 263 331 
L 781 331 
L 781 4531 
L 231 4531 
L 231 4863 
L 1356 4863 
L 1356 2731 
Q 1516 3069 1770 3241 
Q 2025 3413 2363 3413 
Q 2913 3413 3172 3097 
Q 3431 2781 3431 2113 
L 3431 331 
L 3944 331 
L 3944 0 
L 2356 0 
L 2356 331 
L 2853 331 
L 2853 1931 
Q 2853 2541 2704 2764 
Q 2556 2988 2175 2988 
Q 1775 2988 1565 2697 
Q 1356 2406 1356 1850 
L 1356 331 
L 1856 331 
L 1856 0 
L 263 0 
z
" transform="scale(0.015625)"/>
      <path id="DejaVuSerif-6e" d="M 263 0 
L 263 331 
L 781 331 
L 781 2988 
L 231 2988 
L 231 3322 
L 1356 3322 
L 1356 2731 
Q 1516 3069 1770 3241 
Q 2025 3413 2363 3413 
Q 2913 3413 3172 3097 
Q 3431 2781 3431 2113 
L 3431 331 
L 3944 331 
L 3944 0 
L 2356 0 
L 2356 331 
L 2853 331 
L 2853 1931 
Q 2853 2541 2703 2767 
Q 2553 2994 2175 2994 
Q 1775 2994 1565 2701 
Q 1356 2409 1356 1850 
L 1356 331 
L 1856 331 
L 1856 0 
L 263 0 
z
" transform="scale(0.015625)"/>
     </defs>
     <use xlink:href="#DejaVuSerif-63"/>
     <use xlink:href="#DejaVuSerif-68" transform="translate(56.005859 0)"/>
     <use xlink:href="#DejaVuSerif-61" transform="translate(120.410156 0)"/>
     <use xlink:href="#DejaVuSerif-6e" transform="translate(180.029297 0)"/>
     <use xlink:href="#DejaVuSerif-6e" transform="translate(244.433594 0)"/>
     <use xlink:href="#DejaVuSerif-65" transform="translate(308.837891 0)"/>
     <use xlink:href="#DejaVuSerif-6c" transform="translate(368.017578 0)"/>
    </g>
   </g>
   <g id="text_10">
    <!-- $H$ gates applied only when the random basis is the diagonal ($X$) basis -->
    <g style="fill: #777777" transform="translate(80.137053 102.7836) scale(0.068 -0.068)">
     <defs>
      <path id="Cmmi10-48" d="M 300 0 
Q 238 0 238 84 
Q 241 100 250 139 
Q 259 178 276 201 
Q 294 225 319 225 
Q 709 225 863 269 
Q 947 297 984 441 
L 1863 3956 
Q 1875 4019 1875 4044 
Q 1875 4113 1797 4122 
Q 1678 4147 1338 4147 
Q 1275 4147 1275 4231 
Q 1297 4313 1309 4342 
Q 1322 4372 1381 4372 
L 3103 4372 
Q 3169 4372 3169 4288 
Q 3166 4272 3156 4234 
Q 3147 4197 3131 4172 
Q 3116 4147 3084 4147 
Q 2694 4147 2541 4103 
Q 2456 4072 2419 3928 
L 2034 2388 
L 3956 2388 
L 4347 3956 
Q 4359 4019 4359 4044 
Q 4359 4113 4281 4122 
Q 4159 4147 3822 4147 
Q 3756 4147 3756 4231 
Q 3778 4313 3790 4342 
Q 3803 4372 3866 4372 
L 5588 4372 
Q 5650 4372 5650 4288 
Q 5647 4272 5637 4233 
Q 5628 4194 5611 4170 
Q 5594 4147 5569 4147 
Q 5178 4147 5025 4103 
Q 4941 4075 4903 3928 
L 4025 416 
Q 4013 353 4013 325 
Q 4013 259 4091 250 
Q 4213 225 4550 225 
Q 4616 225 4616 141 
Q 4597 66 4578 33 
Q 4559 0 4506 0 
L 2784 0 
Q 2719 0 2719 84 
Q 2731 131 2737 153 
Q 2744 175 2761 200 
Q 2778 225 2803 225 
Q 3194 225 3347 269 
Q 3431 297 3469 441 
L 3897 2163 
L 1978 2163 
L 1544 416 
Q 1528 338 1528 325 
Q 1528 259 1606 250 
Q 1728 225 2069 225 
Q 2131 225 2131 141 
Q 2109 56 2095 28 
Q 2081 0 2022 0 
L 300 0 
z
" transform="scale(0.015625)"/>
      <path id="DejaVuSerif-Italic-67" d="M 3822 3322 
L 3188 72 
Q 3044 -672 2581 -1031 
Q 2078 -1422 1381 -1422 
Q 1053 -1422 765 -1362 
Q 478 -1303 225 -1184 
L 363 -488 
L 663 -488 
Q 653 -813 834 -963 
Q 1016 -1113 1406 -1113 
Q 1913 -1113 2203 -825 
Q 2494 -544 2613 72 
L 2700 519 
Q 2472 206 2181 57 
Q 1891 -91 1525 -91 
Q 975 -91 697 281 
Q 522 516 503 841 
Q 491 1031 534 1256 
Q 750 2359 1516 2928 
Q 2169 3409 2931 3413 
Q 3631 3416 3822 3322 
z
M 3184 2988 
Q 3181 3094 2844 3094 
Q 2234 3094 1775 2625 
Q 1316 2153 1147 1297 
Q 1100 1044 1113 853 
Q 1125 659 1203 528 
Q 1356 269 1756 269 
Q 2194 269 2484 583 
Q 2775 897 2891 1497 
L 2953 1825 
L 3184 2988 
z
" transform="scale(0.015625)"/>
      <path id="DejaVuSerif-Italic-70" d="M 1466 1825 
L 1400 1497 
Q 1353 1250 1353 1053 
Q 1353 769 1453 581 
Q 1622 269 2059 269 
Q 2500 269 2795 622 
Q 3091 975 3225 1663 
Q 3284 1978 3284 2225 
Q 3284 2513 3200 2703 
Q 3041 3053 2600 3053 
Q 2163 3053 1872 2737 
Q 1581 2422 1466 1825 
z
M 1116 2988 
L 563 2988 
L 628 3322 
L 1756 3322 
L 1656 2803 
Q 1884 3116 2175 3264 
Q 2466 3413 2850 3413 
Q 3463 3413 3753 2928 
Q 3947 2609 3947 2163 
Q 3947 1928 3897 1663 
Q 3744 881 3262 395 
Q 2781 -91 2169 -91 
Q 1784 -91 1551 57 
Q 1319 206 1213 519 
L 850 -1331 
L 275 -1331 
L 1116 2988 
z
" transform="scale(0.015625)"/>
      <path id="DejaVuSerif-Italic-6c" d="M 903 331 
L 1447 331 
L 1384 0 
L 266 0 
L 1147 4531 
L 594 4531 
L 656 4863 
L 1784 4863 
L 903 331 
z
" transform="scale(0.015625)"/>
      <path id="DejaVuSerif-Italic-64" d="M 3841 4863 
L 2897 0 
L 2322 0 
L 2422 519 
Q 2191 206 1902 57 
Q 1613 -91 1228 -91 
Q 616 -91 322 394 
Q 125 716 125 1166 
Q 125 1397 178 1663 
Q 331 2444 812 2928 
Q 1294 3413 1909 3413 
Q 2294 3413 2525 3264 
Q 2756 3116 2866 2803 
L 3200 4531 
L 2656 4531 
L 2722 4863 
L 3841 4863 
z
M 2613 1497 
L 2675 1825 
Q 2722 2069 2722 2266 
Q 2722 2550 2622 2738 
Q 2456 3053 2019 3053 
Q 1575 3053 1279 2703 
Q 984 2353 850 1663 
Q 788 1347 788 1103 
Q 788 813 875 622 
Q 1031 269 1475 269 
Q 1913 269 2203 583 
Q 2494 897 2613 1497 
z
" transform="scale(0.015625)"/>
      <path id="DejaVuSerif-Italic-79" d="M 3681 3294 
Q 3372 1506 2828 563 
Q 2031 -822 1391 -1238 
Q 1106 -1422 356 -1422 
Q 209 -1422 60 -1397 
Q -88 -1372 -238 -1325 
L -113 -691 
L 181 -691 
Q 175 -741 175 -788 
Q 175 -919 231 -994 
Q 309 -1100 513 -1100 
Q 1063 -1100 1541 -622 
L 756 2988 
L 378 2988 
L 444 3322 
L 1303 3322 
L 2041 25 
Q 2544 778 2666 1088 
Q 3059 2059 3138 2959 
L 2759 2959 
L 2825 3294 
L 3681 3294 
z
" transform="scale(0.015625)"/>
      <path id="DejaVuSerif-Italic-77" d="M 3741 728 
Q 4156 1178 4250 1344 
Q 4594 1969 4931 2988 
L 4447 2984 
L 4513 3322 
L 5347 3322 
L 5281 2984 
L 5278 2984 
Q 4959 1825 4656 1266 
Q 4209 469 3719 0 
L 3241 0 
L 2900 2484 
L 1597 0 
L 1138 0 
L 734 2988 
L 359 2981 
L 425 3322 
L 1281 3322 
L 1631 728 
L 2991 3322 
L 3394 3322 
L 3741 728 
z
" transform="scale(0.015625)"/>
      <path id="DejaVuSerif-Italic-68" d="M 309 0 
L 1191 4531 
L 641 4531 
L 703 4863 
L 1828 4863 
L 1416 2731 
Q 1641 3069 1928 3241 
Q 2216 3413 2553 3413 
Q 3103 3413 3300 3097 
Q 3422 2906 3422 2588 
Q 3422 2378 3369 2113 
L 3022 331 
L 3534 331 
L 3472 0 
L 2381 0 
L 2756 1931 
Q 2819 2253 2819 2469 
Q 2819 2659 2769 2763 
Q 2666 2988 2284 2988 
Q 1884 2988 1617 2697 
Q 1350 2406 1244 1850 
L 884 0 
L 309 0 
z
" transform="scale(0.015625)"/>
      <path id="DejaVuSerif-Italic-72" d="M 3375 3328 
L 3213 2497 
L 2881 2497 
Q 2891 2559 2891 2613 
Q 2891 2775 2816 2866 
Q 2719 2988 2484 2988 
Q 2059 2988 1775 2694 
Q 1491 2400 1384 1850 
L 1025 0 
L 450 0 
L 1031 2994 
L 481 2994 
L 544 3322 
L 1669 3322 
L 1556 2731 
Q 1791 3078 2089 3245 
Q 2388 3413 2769 3413 
Q 2909 3413 3059 3391 
Q 3209 3369 3375 3328 
z
" transform="scale(0.015625)"/>
      <path id="DejaVuSerif-Italic-6d" d="M 3503 2675 
Q 3741 3041 4034 3227 
Q 4328 3413 4672 3413 
Q 5194 3413 5388 3088 
Q 5503 2894 5503 2578 
Q 5503 2372 5453 2113 
L 5106 331 
L 5625 331 
L 5563 0 
L 4469 0 
L 4866 2047 
Q 4913 2291 4913 2466 
Q 4913 2659 4856 2772 
Q 4750 2988 4403 2988 
Q 4019 2988 3761 2697 
Q 3503 2406 3394 1850 
L 3034 0 
L 2459 0 
L 2863 2069 
Q 2906 2303 2906 2472 
Q 2906 2666 2850 2775 
Q 2741 2988 2394 2988 
Q 2009 2988 1751 2697 
Q 1494 2406 1384 1850 
L 1025 0 
L 450 0 
L 1031 2994 
L 481 2994 
L 544 3322 
L 1669 3322 
L 1556 2731 
Q 1778 3063 2059 3238 
Q 2341 3413 2653 3413 
Q 3041 3413 3262 3220 
Q 3484 3028 3503 2675 
z
" transform="scale(0.015625)"/>
      <path id="DejaVuSerif-Italic-28" d="M 1472 -997 
Q 778 -656 534 83 
Q 291 822 506 1931 
Q 722 3044 1253 3783 
Q 1784 4522 2609 4863 
L 2550 4556 
Q 2006 4225 1679 3623 
Q 1353 3022 1141 1931 
Q 928 844 1020 242 
Q 1113 -359 1531 -691 
L 1472 -997 
z
" transform="scale(0.015625)"/>
      <path id="Cmmi10-58" d="M 231 0 
Q 166 0 166 84 
Q 169 100 180 140 
Q 191 181 208 203 
Q 225 225 256 225 
Q 838 225 1253 659 
Q 1259 666 1267 669 
Q 1275 672 1275 672 
L 2675 2181 
L 1913 4019 
Q 1847 4103 1700 4125 
Q 1553 4147 1356 4147 
Q 1294 4147 1294 4231 
Q 1316 4313 1328 4342 
Q 1341 4372 1403 4372 
L 3003 4372 
Q 3066 4372 3066 4288 
Q 3063 4272 3052 4231 
Q 3041 4191 3023 4169 
Q 3006 4147 2975 4147 
Q 2856 4147 2729 4108 
Q 2603 4069 2553 3981 
L 3103 2656 
L 4153 3781 
Q 4163 3803 4197 3858 
Q 4231 3913 4231 3963 
Q 4231 4056 4150 4101 
Q 4069 4147 3956 4147 
Q 3891 4147 3891 4231 
Q 3913 4313 3925 4342 
Q 3938 4372 4000 4372 
L 5388 4372 
Q 5422 4372 5437 4347 
Q 5453 4322 5453 4288 
Q 5450 4272 5440 4234 
Q 5431 4197 5415 4172 
Q 5400 4147 5369 4147 
Q 5072 4147 4823 4039 
Q 4575 3931 4366 3713 
Q 4363 3709 4358 3707 
Q 4353 3706 4347 3700 
L 3188 2450 
L 4063 353 
Q 4166 225 4622 225 
Q 4684 225 4684 141 
Q 4663 56 4648 28 
Q 4634 0 4575 0 
L 2975 0 
Q 2913 0 2913 84 
Q 2916 100 2925 139 
Q 2934 178 2951 201 
Q 2969 225 2994 225 
Q 3119 225 3247 264 
Q 3375 303 3425 391 
L 2759 1984 
L 1466 588 
Q 1456 566 1422 512 
Q 1388 459 1388 409 
Q 1388 316 1475 270 
Q 1563 225 1663 225 
Q 1728 225 1728 141 
Q 1706 50 1693 25 
Q 1681 0 1619 0 
L 231 0 
z
" transform="scale(0.015625)"/>
      <path id="DejaVuSerif-Italic-29" d="M -113 -997 
L -53 -691 
Q 491 -359 819 242 
Q 1147 844 1359 1931 
Q 1572 3022 1478 3623 
Q 1384 4225 966 4556 
L 1025 4863 
Q 1722 4522 1965 3783 
Q 2209 3044 1994 1931 
Q 1778 822 1247 83 
Q 716 -656 -113 -997 
z
" transform="scale(0.015625)"/>
     </defs>
     <use xlink:href="#Cmmi10-48" transform="translate(0 0.015625)"/>
     <use xlink:href="#DejaVuSerif-Italic-20" transform="translate(83.105469 0.015625)"/>
     <use xlink:href="#DejaVuSerif-Italic-67" transform="translate(114.892578 0.015625)"/>
     <use xlink:href="#DejaVuSerif-Italic-61" transform="translate(178.90625 0.015625)"/>
     <use xlink:href="#DejaVuSerif-Italic-74" transform="translate(238.525391 0.015625)"/>
     <use xlink:href="#DejaVuSerif-Italic-65" transform="translate(278.710938 0.015625)"/>
     <use xlink:href="#DejaVuSerif-Italic-73" transform="translate(337.890625 0.015625)"/>
     <use xlink:href="#DejaVuSerif-Italic-20" transform="translate(389.208984 0.015625)"/>
     <use xlink:href="#DejaVuSerif-Italic-61" transform="translate(420.996094 0.015625)"/>
     <use xlink:href="#DejaVuSerif-Italic-70" transform="translate(480.615234 0.015625)"/>
     <use xlink:href="#DejaVuSerif-Italic-70" transform="translate(544.628906 0.015625)"/>
     <use xlink:href="#DejaVuSerif-Italic-6c" transform="translate(608.642578 0.015625)"/>
     <use xlink:href="#DejaVuSerif-Italic-69" transform="translate(640.625 0.015625)"/>
     <use xlink:href="#DejaVuSerif-Italic-65" transform="translate(672.607422 0.015625)"/>
     <use xlink:href="#DejaVuSerif-Italic-64" transform="translate(731.787109 0.015625)"/>
     <use xlink:href="#DejaVuSerif-Italic-20" transform="translate(795.800781 0.015625)"/>
     <use xlink:href="#DejaVuSerif-Italic-6f" transform="translate(827.587891 0.015625)"/>
     <use xlink:href="#DejaVuSerif-Italic-6e" transform="translate(887.792969 0.015625)"/>
     <use xlink:href="#DejaVuSerif-Italic-6c" transform="translate(952.197266 0.015625)"/>
     <use xlink:href="#DejaVuSerif-Italic-79" transform="translate(984.179688 0.015625)"/>
     <use xlink:href="#DejaVuSerif-Italic-20" transform="translate(1040.673828 0.015625)"/>
     <use xlink:href="#DejaVuSerif-Italic-77" transform="translate(1072.460938 0.015625)"/>
     <use xlink:href="#DejaVuSerif-Italic-68" transform="translate(1158.056641 0.015625)"/>
     <use xlink:href="#DejaVuSerif-Italic-65" transform="translate(1222.460938 0.015625)"/>
     <use xlink:href="#DejaVuSerif-Italic-6e" transform="translate(1281.640625 0.015625)"/>
     <use xlink:href="#DejaVuSerif-Italic-20" transform="translate(1346.044922 0.015625)"/>
     <use xlink:href="#DejaVuSerif-Italic-74" transform="translate(1377.832031 0.015625)"/>
     <use xlink:href="#DejaVuSerif-Italic-68" transform="translate(1418.017578 0.015625)"/>
     <use xlink:href="#DejaVuSerif-Italic-65" transform="translate(1482.421875 0.015625)"/>
     <use xlink:href="#DejaVuSerif-Italic-20" transform="translate(1541.601562 0.015625)"/>
     <use xlink:href="#DejaVuSerif-Italic-72" transform="translate(1573.388672 0.015625)"/>
     <use xlink:href="#DejaVuSerif-Italic-61" transform="translate(1621.191406 0.015625)"/>
     <use xlink:href="#DejaVuSerif-Italic-6e" transform="translate(1680.810547 0.015625)"/>
     <use xlink:href="#DejaVuSerif-Italic-64" transform="translate(1745.214844 0.015625)"/>
     <use xlink:href="#DejaVuSerif-Italic-6f" transform="translate(1809.228516 0.015625)"/>
     <use xlink:href="#DejaVuSerif-Italic-6d" transform="translate(1869.433594 0.015625)"/>
     <use xlink:href="#DejaVuSerif-Italic-20" transform="translate(1964.257812 0.015625)"/>
     <use xlink:href="#DejaVuSerif-Italic-62" transform="translate(1996.044922 0.015625)"/>
     <use xlink:href="#DejaVuSerif-Italic-61" transform="translate(2060.058594 0.015625)"/>
     <use xlink:href="#DejaVuSerif-Italic-73" transform="translate(2119.677734 0.015625)"/>
     <use xlink:href="#DejaVuSerif-Italic-69" transform="translate(2170.996094 0.015625)"/>
     <use xlink:href="#DejaVuSerif-Italic-73" transform="translate(2202.978516 0.015625)"/>
     <use xlink:href="#DejaVuSerif-Italic-20" transform="translate(2254.296875 0.015625)"/>
     <use xlink:href="#DejaVuSerif-Italic-69" transform="translate(2286.083984 0.015625)"/>
     <use xlink:href="#DejaVuSerif-Italic-73" transform="translate(2318.066406 0.015625)"/>
     <use xlink:href="#DejaVuSerif-Italic-20" transform="translate(2369.384766 0.015625)"/>
     <use xlink:href="#DejaVuSerif-Italic-74" transform="translate(2401.171875 0.015625)"/>
     <use xlink:href="#DejaVuSerif-Italic-68" transform="translate(2441.357422 0.015625)"/>
     <use xlink:href="#DejaVuSerif-Italic-65" transform="translate(2505.761719 0.015625)"/>
     <use xlink:href="#DejaVuSerif-Italic-20" transform="translate(2564.941406 0.015625)"/>
     <use xlink:href="#DejaVuSerif-Italic-64" transform="translate(2596.728516 0.015625)"/>
     <use xlink:href="#DejaVuSerif-Italic-69" transform="translate(2660.742188 0.015625)"/>
     <use xlink:href="#DejaVuSerif-Italic-61" transform="translate(2692.724609 0.015625)"/>
     <use xlink:href="#DejaVuSerif-Italic-67" transform="translate(2752.34375 0.015625)"/>
     <use xlink:href="#DejaVuSerif-Italic-6f" transform="translate(2816.357422 0.015625)"/>
     <use xlink:href="#DejaVuSerif-Italic-6e" transform="translate(2876.5625 0.015625)"/>
     <use xlink:href="#DejaVuSerif-Italic-61" transform="translate(2940.966797 0.015625)"/>
     <use xlink:href="#DejaVuSerif-Italic-6c" transform="translate(3000.585938 0.015625)"/>
     <use xlink:href="#DejaVuSerif-Italic-20" transform="translate(3032.568359 0.015625)"/>
     <use xlink:href="#DejaVuSerif-Italic-28" transform="translate(3064.355469 0.015625)"/>
     <use xlink:href="#Cmmi10-58" transform="translate(3103.369141 0.015625)"/>
     <use xlink:href="#DejaVuSerif-Italic-29" transform="translate(3186.181641 0.015625)"/>
     <use xlink:href="#DejaVuSerif-Italic-20" transform="translate(3225.195312 0.015625)"/>
     <use xlink:href="#DejaVuSerif-Italic-62" transform="translate(3256.982422 0.015625)"/>
     <use xlink:href="#DejaVuSerif-Italic-61" transform="translate(3320.996094 0.015625)"/>
     <use xlink:href="#DejaVuSerif-Italic-73" transform="translate(3380.615234 0.015625)"/>
     <use xlink:href="#DejaVuSerif-Italic-69" transform="translate(3431.933594 0.015625)"/>
     <use xlink:href="#DejaVuSerif-Italic-73" transform="translate(3463.916016 0.015625)"/>
    </g>
   </g>
   <g id="text_11">
    <!-- $X$ -->
    <g transform="translate(48.406974 67.151406) scale(0.095 -0.095)">
     <use xlink:href="#Cmmi10-58" transform="translate(0 0.6875)"/>
    </g>
   </g>
   <g id="text_12">
    <!-- $H$ -->
    <g transform="translate(82.622632 67.151406) scale(0.095 -0.095)">
     <use xlink:href="#Cmmi10-48" transform="translate(0 0.6875)"/>
    </g>
   </g>
   <g id="text_13">
    <!-- $H$ -->
    <g transform="translate(127.164737 67.151406) scale(0.095 -0.095)">
     <use xlink:href="#Cmmi10-48" transform="translate(0 0.6875)"/>
    </g>
   </g>
   <g id="line2d_5">
    <path d="M 166.909567 64.484655 
L 166.7422 64.182136 
L 166.56221 63.890485 
L 166.370074 63.610478 
L 166.166304 63.342858 
L 165.95144 63.088337 
L 165.726054 62.847591 
L 165.490745 62.621259 
L 165.246137 62.409943 
L 164.992881 62.214205 
L 164.731649 62.034564 
L 164.463137 61.871499 
L 164.188057 61.725442 
L 163.907141 61.596781 
L 163.621134 61.485859 
L 163.330797 61.39297 
L 163.036902 61.31836 
L 162.740228 61.262229 
L 162.441566 61.224725 
L 162.141708 61.205948 
L 161.84145 61.205948 
L 161.541592 61.224725 
L 161.24293 61.262229 
L 160.946256 61.31836 
L 160.652361 61.39297 
L 160.362024 61.485859 
L 160.076017 61.596781 
L 159.795101 61.725442 
L 159.520021 61.871499 
L 159.251508 62.034564 
L 158.990277 62.214205 
L 158.737021 62.409943 
L 158.492413 62.621259 
L 158.257104 62.847591 
L 158.031718 63.088337 
L 157.816854 63.342858 
L 157.613083 63.610478 
L 157.420948 63.890485 
L 157.240958 64.182136 
L 157.073591 64.484655 
" clip-path="url(#p30146ddc5f)" style="fill: none; stroke: #1a1a1a; stroke-width: 0.9; stroke-linecap: square"/>
   </g>
   <g id="patch_11">
    <path d="M 162.937664 66.505862 
Q 164.219808 64.112101 165.501953 61.718341 
" style="fill: none; stroke: #1a1a1a; stroke-width: 0.9; stroke-linecap: round"/>
   </g>
   <g id="text_14">
    <!-- $H$ -->
    <g transform="translate(188.838421 67.151406) scale(0.095 -0.095)">
     <use xlink:href="#Cmmi10-48" transform="translate(0 0.6875)"/>
    </g>
   </g>
   <g id="text_15">
    <!-- $\mathcal{N}_p$ -->
    <g transform="translate(232.956184 66.7625) scale(0.095 -0.095)">
     <defs>
      <path id="Cmsy10-4e" d="M -184 13 
Q -184 131 -103 322 
Q -22 513 72 513 
Q 84 513 91 506 
Q 294 294 594 294 
Q 763 294 892 598 
Q 1022 903 1147 1306 
Q 1213 1509 1308 1837 
Q 1403 2166 1453 2369 
Q 1497 2538 1558 2827 
Q 1619 3116 1658 3331 
Q 1697 3547 1728 3772 
Q 1759 3997 1784 4244 
Q 1784 4278 1831 4325 
Q 1900 4397 1997 4453 
Q 2088 4494 2181 4513 
L 2234 4513 
Q 2272 4494 2278 4469 
Q 2438 3909 2675 3200 
Q 2891 2544 3044 2125 
Q 3197 1706 3405 1242 
Q 3613 778 3859 384 
Q 4194 1819 4525 2988 
L 4609 3284 
Q 4747 3769 4836 4039 
Q 4925 4309 5063 4525 
Q 5175 4700 5356 4800 
Q 5538 4900 5753 4942 
Q 5969 4984 6203 4984 
Q 6259 4984 6259 4878 
Q 6259 4803 6226 4686 
Q 6194 4569 6137 4478 
Q 6081 4388 6009 4372 
Q 5756 4372 5557 4331 
Q 5359 4291 5197 4184 
Q 5116 4125 5102 4094 
Q 5088 4063 5038 3909 
Q 4956 3684 4872 3366 
L 4788 3078 
Q 4625 2491 4498 2006 
Q 4372 1522 4256 1045 
Q 4141 569 4031 84 
Q 4034 84 4029 92 
Q 4025 100 4025 103 
Q 4025 47 3951 -15 
Q 3878 -78 3783 -120 
Q 3688 -163 3628 -172 
L 3584 -172 
Q 3478 -119 3222 368 
Q 2966 856 2834 1172 
Q 2359 2347 1966 3628 
Q 1916 3319 1759 2648 
Q 1603 1978 1387 1297 
Q 1172 616 914 148 
Q 656 -319 397 -319 
Q 231 -319 23 -225 
Q -184 -131 -184 13 
z
" transform="scale(0.015625)"/>
      <path id="Cmmi10-70" d="M -159 -1241 
Q -219 -1241 -219 -1159 
Q -197 -1019 -134 -1019 
Q 66 -1019 145 -983 
Q 225 -947 269 -800 
L 991 2081 
Q 1038 2200 1038 2388 
Q 1038 2663 850 2663 
Q 650 2663 553 2423 
Q 456 2184 366 1819 
Q 366 1778 313 1778 
L 238 1778 
Q 222 1778 203 1801 
Q 184 1825 184 1844 
Q 253 2122 317 2315 
Q 381 2509 517 2668 
Q 653 2828 856 2828 
Q 1075 2828 1240 2704 
Q 1406 2581 1453 2369 
Q 1628 2572 1840 2700 
Q 2053 2828 2278 2828 
Q 2547 2828 2745 2684 
Q 2944 2541 3044 2308 
Q 3144 2075 3144 1806 
Q 3144 1394 2933 953 
Q 2722 513 2361 220 
Q 2000 -72 1588 -72 
Q 1400 -72 1248 34 
Q 1097 141 1013 313 
L 722 -825 
Q 706 -919 703 -934 
Q 703 -1019 1125 -1019 
Q 1191 -1019 1191 -1100 
Q 1169 -1184 1155 -1212 
Q 1141 -1241 1081 -1241 
L -159 -1241 
z
M 1594 97 
Q 1816 97 2006 280 
Q 2197 463 2316 691 
Q 2403 863 2479 1111 
Q 2556 1359 2612 1640 
Q 2669 1922 2669 2088 
Q 2669 2234 2630 2362 
Q 2591 2491 2502 2577 
Q 2413 2663 2266 2663 
Q 2031 2663 1823 2495 
Q 1616 2328 1447 2081 
L 1447 2059 
L 1094 647 
Q 1138 419 1263 258 
Q 1388 97 1594 97 
z
" transform="scale(0.015625)"/>
     </defs>
     <use xlink:href="#Cmsy10-4e" transform="translate(0 0.125)"/>
     <use xlink:href="#Cmmi10-70" transform="translate(86.446562 -16.88125) scale(0.7)"/>
    </g>
   </g>
   <g id="text_16">
    <!-- $H$ -->
    <g transform="translate(284.775263 67.151406) scale(0.095 -0.095)">
     <use xlink:href="#Cmmi10-48" transform="translate(0 0.6875)"/>
    </g>
   </g>
   <g id="line2d_6">
    <path d="M 327.946409 64.484655 
L 327.779042 64.182136 
L 327.599052 63.890485 
L 327.406917 63.610478 
L 327.203146 63.342858 
L 326.988282 63.088337 
L 326.762896 62.847591 
L 326.527587 62.621259 
L 326.282979 62.409943 
L 326.029723 62.214205 
L 325.768492 62.034564 
L 325.499979 61.871499 
L 325.224899 61.725442 
L 324.943983 61.596781 
L 324.657976 61.485859 
L 324.367639 61.39297 
L 324.073744 61.31836 
L 323.77707 61.262229 
L 323.478408 61.224725 
L 323.17855 61.205948 
L 322.878292 61.205948 
L 322.578434 61.224725 
L 322.279772 61.262229 
L 321.983098 61.31836 
L 321.689203 61.39297 
L 321.398866 61.485859 
L 321.112859 61.596781 
L 320.831943 61.725442 
L 320.556863 61.871499 
L 320.288351 62.034564 
L 320.027119 62.214205 
L 319.773863 62.409943 
L 319.529255 62.621259 
L 319.293946 62.847591 
L 319.06856 63.088337 
L 318.853696 63.342858 
L 318.649926 63.610478 
L 318.45779 63.890485 
L 318.2778 64.182136 
L 318.110433 64.484655 
" clip-path="url(#p30146ddc5f)" style="fill: none; stroke: #1a1a1a; stroke-width: 0.9; stroke-linecap: square"/>
   </g>
   <g id="patch_12">
    <path d="M 323.974506 66.505862 
Q 325.25665 64.112101 326.538795 61.718341 
" style="fill: none; stroke: #1a1a1a; stroke-width: 0.9; stroke-linecap: round"/>
   </g>
  </g>
 </g>
 <defs>
  <clipPath id="p30146ddc5f">
   <rect x="4.381053" y="2.16" width="390.6" height="108.108"/>
  </clipPath>
 </defs>
</svg>
